<?xml version="1.0" encoding="utf-8"?>
<!-- Generator: Adobe Illustrator 27.7.0, SVG Export Plug-In . SVG Version: 6.00 Build 0)  -->
<svg version="1.1" id="Capa_1" xmlns="http://www.w3.org/2000/svg" xmlns:xlink="http://www.w3.org/1999/xlink" x="0px" y="0px"
	 viewBox="0 0 32.2 26.8" style="enable-background:new 0 0 32.2 26.8;" xml:space="preserve">
<style type="text/css">
	.st0{fill:#F2929D;}
</style>
<g>
	<path class="st0" d="M9.3,2.2c0,0.9-0.7,1.7-1.6,1.7c-0.9,0-1.6-0.7-1.6-1.6c0-0.5,0.2-1,0.6-1.3c-0.1,0-0.3,0-0.5,0
		C4.1,0.8,2.9,2.6,2.9,5c0,2.3,1.1,4,3.2,4c0.2,0,0.5,0,0.7,0c0.2,0,0.4-0.1,0.6-0.2c0.2-0.1,0.4-0.2,0.6-0.3C8.3,8.3,8.5,8.2,8.6,8
		C8.8,7.8,9,7.7,9.1,7.5c0-0.1,0.3-0.5,0.4-0.6c0,0.1-0.2,0.8-0.3,0.9C9,8.1,8.9,8.4,8.7,8.7C8.5,8.9,8.3,9.2,8.1,9.4
		C7.9,9.6,7.7,9.8,7.4,9.9c-0.2,0.1-0.5,0.2-0.8,0.3c-0.3,0.1-0.6,0.1-0.9,0.1c-0.1,0-0.2,0-0.3,0c-2.8,0-4.7-2-4.7-5.1
		C0.6,2.1,2.7,0,5.9,0C8,0,9.3,0.9,9.3,2.2z M16.9,5.6v3.5c0,0.3,0.1,0.5,0.4,0.5c0,0,0.2,0,0.3-0.2c0,0.3-0.5,1-1.5,1
		c-0.7,0-1.3-0.3-1.4-1c-0.4,0.7-1.2,1-2,1c-1.3,0-2.3-0.8-2.3-2.1c0-2.6,4.1-2.3,4.2-3.4c-0.3-0.9-1-1.2-1.5-1.2
		c-0.2,0-0.3,0-0.4,0.1c0.2,0.2,0.4,0.5,0.4,0.8c0,0.6-0.5,1.1-1.1,1.1s-1.1-0.5-1.1-1.1c0-0.9,1-1.6,2.8-1.6
		C15.1,2.9,16.9,3.4,16.9,5.6z M14.5,5.9c-0.7,0.5-2,0.7-2,1.9C12.5,8.6,13,9,13.4,9c0.5,0,1-0.5,1.1-1.4V5.9z M21.6,10v0.3h-3.5V10
		l0.1-0.1c0.3-0.2,0.4-0.5,0.4-0.9V4.8c0-0.3-0.2-0.7-0.4-0.9l-0.1-0.1V3.5L20.4,3H21v0.6c0.4-0.4,1-0.7,1.6-0.7
		c1.3,0,1.9,1.1,1.4,2c-0.3,0.4-0.7,0.6-1.2,0.6c-0.3,0-0.5,0-0.7-0.2c-0.2-0.1-0.6-0.5-0.6-1.3c-0.2,0-0.4,0.2-0.4,0.7V9
		c0,0.3,0.2,0.7,0.4,0.9L21.6,10z M28.5,2.9c2.2,0,3.7,1.5,3.7,3.7s-1.5,3.8-3.8,3.8c-2.2,0-3.7-1.5-3.7-3.8
		C24.7,4.4,26.2,2.9,28.5,2.9z M28.4,9.6c0.9,0,1.5-1.1,1.5-2.9s-0.6-2.9-1.4-2.9c-0.8,0-1.4,1.1-1.4,2.9C27,8.4,27.6,9.6,28.4,9.6z
		"/>
	<path class="st0" d="M14,21.9v0.3h-3.5v-0.3l0.1-0.1c0.3-0.2,0.4-0.5,0.4-0.9v-4.2c0-0.3-0.2-0.7-0.4-0.9l-0.1-0.1v-0.3l2.3-0.4
		h0.6v6C13.5,21.2,13.6,21.6,14,21.9L14,21.9z"/>
	<circle class="st0" cx="12.3" cy="13.2" r="1.3"/>
	<path class="st0" d="M30.5,21.5c-0.3,0-0.4-0.1-0.4-0.5v-3.5c0-2.2-1.8-2.7-3.3-2.7c-1.8,0-2.8,0.7-2.8,1.6c0,0.6,0.5,1.1,1.1,1.1
		c0.6,0,1.1-0.5,1.1-1.1c0-0.3-0.1-0.6-0.4-0.8c0,0,0.2-0.1,0.4-0.1c0.4,0,1.2,0.3,1.5,1.2c-0.1,1.1-4.2,0.8-4.2,3.4
		c0,1.2,1,2.1,2.3,2.1c0.8,0,1.6-0.3,2-1c0.1,0.7,0.7,1,1.4,1c1,0,1.5-0.6,1.5-1C30.7,21.5,30.5,21.5,30.5,21.5z M27.7,19.5
		c-0.1,0.8-0.6,1.4-1.1,1.4c-0.4,0-0.9-0.4-0.9-1.1c0-1.2,1.3-1.4,2-1.9V19.5z"/>
	<path class="st0" d="M9.8,21.8c-0.2-0.2-0.4-0.5-0.4-0.9V12H8.7c0,0-1.3,0.8-2.9,1c-1.1,0.1-2.5,0.1-3.3-0.8
		c-0.2-0.2-0.3-0.5-0.5-0.7c-0.2-0.1-0.5-0.2-0.8-0.3c-0.7,0-1.2,0.5-1.1,1.2c0.1,0.8,0.8,1.1,1.6,1.3c1,0.2,2,0.1,3,0
		c0.5,0,1-0.1,1.5-0.2c0,0,0.7-0.1,0.7-0.1c0,0.1,0.1,0.3,0.1,0.4v7.1c0,0.3-0.2,0.7-0.4,0.9l-0.1,0.1v0.3h3.5L9.8,21.8L9.8,21.8z"
		/>
	<path class="st0" d="M26.1,24.6c0-0.7-0.5-1.3-1.3-1.3c-0.7,0-1.3,0.6-1.3,1.3c0,0.1,0,0.2,0,0.3c0.1,0.3,0.1,0.9-0.2,1.1
		c-0.2,0.1-0.6,0.1-0.8-0.1c-0.2-0.3-0.2-0.7-0.2-1v-7.6c0-1.5-0.8-2.6-2.3-2.6c-1,0-1.8,0.5-2.3,1.2v-1.1h-0.6l-2.3,0.4v0.3
		l0.1,0.1c0.3,0.2,0.4,0.5,0.4,0.9v4.2c0,0.3-0.2,0.7-0.4,0.9l-0.1,0.1v0.3h3.5v-0.3L18,21.8c-0.2-0.2-0.4-0.5-0.4-0.9v-3.5
		c0.1-0.9,0.6-1.5,1.2-1.5c0.7,0,1.1,0.6,1.1,1.6v7.2c0,1.1,0.6,1.6,1.5,1.9c0.8,0.2,1.8,0.2,2.6,0.1C25,26.5,26.1,25.7,26.1,24.6z"
		/>
</g>
</svg>
