<?xml version="1.0" encoding="UTF-8"?>
<svg id="Capa_1" data-name="Capa 1" xmlns="http://www.w3.org/2000/svg" viewBox="0 0 99.29 99.29">
  <defs>
    <style>
      .cls-1 {
        fill: #6a4a98;
      }
    </style>
  </defs>
  <path class="cls-1" d="m90.79,99.29c-2.18,0-4.35-.83-6.01-2.49L2.49,14.51C-.83,11.19-.83,5.81,2.49,2.49,5.81-.83,11.19-.83,14.51,2.49l82.29,82.29c3.32,3.32,3.32,8.7,0,12.02-1.66,1.66-3.83,2.49-6.01,2.49Z"/>
  <path class="cls-1" d="m0,90.79c0-2.18.83-4.35,2.49-6.01L84.78,2.49c3.32-3.32,8.7-3.32,12.02,0,3.32,3.32,3.32,8.7,0,12.02L14.51,96.8c-3.32,3.32-8.7,3.32-12.02,0C.83,95.14,0,92.96,0,90.79Z"/>
</svg>