<?xml version="1.0" encoding="utf-8"?>
<!-- Generator: Adobe Illustrator 27.7.0, SVG Export Plug-In . SVG Version: 6.00 Build 0)  -->
<svg version="1.1" id="Capa_1" xmlns="http://www.w3.org/2000/svg" xmlns:xlink="http://www.w3.org/1999/xlink" x="0px" y="0px"
	 viewBox="0 0 248 152.5" style="enable-background:new 0 0 248 152.5;" xml:space="preserve">
<style type="text/css">
	.st0{fill:#81CCD7;}
	.st1{fill:#FFFFFF;}
</style>
<g>
	<path class="st0" d="M28,76.2c-0.5,4.3-4,7.2-8.5,7.2c-5,0-8.5-3.3-8.5-10s3.5-9.5,8.6-9.5c4.8,0,8.1,2.7,8.4,7.1h-4.9
		c-0.3-1.9-1.6-3-3.5-3c-2.1,0-3.8,1.3-3.8,5.3s1.7,6,3.6,6s3.4-1.1,3.6-3.1H28L28,76.2z"/>
	<path class="st0" d="M41.8,82.9v-2.6c-1.3,2.1-3.2,3.1-5.8,3.1c-3.7,0-6.3-2.7-6.3-6.8V64.4h4.9v11.4c0,2.3,1,3.5,3.1,3.5
		c2.5,0,3.8-1.8,3.8-4.2V64.4h4.8v18.5H41.8L41.8,82.9z"/>
	<path class="st0" d="M49,82.9V64.4h4.6v2.2c1.6-2.5,3.5-2.7,5.5-2.7h0.6v5c-0.5-0.1-0.9-0.1-1.3-0.1c-3,0-4.5,1.5-4.5,4.5v9.6
		C53.9,82.9,49,82.9,49,82.9z"/>
	<path class="st0" d="M61.5,68.5V64h4.9v4.5H61.5z M61.5,82.9V70.7h4.9v12.2C66.4,82.9,61.5,82.9,61.5,82.9z"/>
	<path class="st0" d="M68.6,73.7c0-5.9,3.7-9.7,9.5-9.7s9.4,3.8,9.4,9.7s-3.7,9.7-9.4,9.7S68.6,79.4,68.6,73.7z M82.6,73.7
		c0-3.8-1.5-5.6-4.5-5.6s-4.5,1.8-4.5,5.6s1.5,5.6,4.5,5.6S82.6,77.4,82.6,73.7z"/>
	<path class="st0" d="M100.8,70c-0.3-1.8-1.2-2.4-3.5-2.4c-1.8,0-2.9,0.4-2.9,1.5s1,1.5,3,2.1c2.1,0.6,4.1,1,5.5,1.6
		c1.9,0.8,3,2.1,3,4.5c0,3.8-2.8,6.1-8.1,6.1c-5.7,0-8.8-2.7-8.9-6.4h5c0,1.7,1.5,2.7,3.8,2.7c1.7,0,3.3-0.5,3.3-1.9
		c0-1.3-1.4-1.7-3-2.1c-3.1-0.8-4.8-1.3-6.2-2.1c-1.7-1.1-2.3-2.5-2.3-4.2c0-3.1,2.1-5.5,7.8-5.5c5.3,0,7.7,2.1,8,6.1L100.8,70
		L100.8,70z"/>
	<path class="st0" d="M119.3,82.9c-0.2-0.4-0.3-1.1-0.3-1.7c-1.2,1.3-3.1,2.1-5.6,2.1c-4.2,0-6.2-2.1-6.2-5.1c0-5.3,3.6-5.9,8.5-6.6
		c2.4-0.3,3.1-0.8,3.1-2.1c0-1.2-1.2-1.9-3.1-1.9c-2.2,0-3.1,1.1-3.3,2.7h-4.6c0.1-3.8,2.2-6.5,8.1-6.5s7.9,2.6,7.9,7.3v11.7
		L119.3,82.9L119.3,82.9z M119,73.8c-0.5,0.5-1.3,0.8-3.2,1.1c-2.8,0.5-3.7,1.3-3.7,2.9c0,1.4,0.8,2.1,2.4,2.1c2.5,0,4.4-1.8,4.4-4
		L119,73.8z"/>
</g>
<g>
	<path class="st0" d="M10.9,57.3V31.1H21c7.1,0,12.2,4.9,12.2,12.8s-4.5,13.4-11.4,13.4C21.9,57.3,10.9,57.3,10.9,57.3z M20.8,52.9
		c4.8,0,6.8-3,6.8-8.9s-2.1-8.3-7.3-8.3h-4.1v17.2H20.8L20.8,52.9z"/>
	<path class="st0" d="M40.1,49c0.2,2.9,1.8,4.8,4.3,4.8c1.7,0,3.1-0.8,3.5-2.2h5.3c-1.2,4-4.4,6.2-8.5,6.2c-6.5,0-9.7-3.6-9.7-10.6
		c0-6,3.4-9.9,9.4-9.9s9.1,3.9,9.1,11.6H40.1V49z M48.2,45.7c-0.1-2.9-2-4.3-4-4.3s-3.8,1.6-4,4.3H48.2L48.2,45.7z"/>
	<path class="st0" d="M67.4,43.8c-0.3-1.9-1.3-2.6-3.6-2.6c-1.9,0-3,0.5-3,1.6s1.1,1.6,3.2,2.2c2.2,0.6,4.3,1.1,5.8,1.7
		c2.1,0.8,3.2,2.2,3.2,4.7c0,4-3,6.4-8.5,6.4c-6,0-9.3-2.8-9.4-6.8h5.3c0,1.8,1.5,2.9,4,2.9c1.8,0,3.4-0.5,3.4-2
		c0-1.4-1.5-1.8-3.1-2.2c-3.3-0.8-5.1-1.3-6.5-2.2c-1.8-1.2-2.5-2.7-2.5-4.4c0-3.3,2.2-5.8,8.2-5.8c5.6,0,8.1,2.2,8.4,6.4
		C72.3,43.8,67.4,43.8,67.4,43.8z"/>
	<path class="st0" d="M86.9,57.3c-0.2-0.5-0.3-1.2-0.3-1.7c-1.2,1.3-3.3,2.2-5.9,2.2c-4.4,0-6.5-2.2-6.5-5.3c0-5.6,3.8-6.2,8.9-7
		c2.6-0.4,3.3-0.9,3.3-2.2s-1.3-2-3.3-2c-2.3,0-3.3,1.2-3.5,2.9h-4.8c0.1-4,2.3-6.8,8.5-6.8s8.3,2.8,8.3,7.7v12.3L86.9,57.3
		L86.9,57.3z M86.6,47.8c-0.5,0.5-1.4,0.8-3.3,1.2c-2.9,0.5-3.9,1.4-3.9,3c0,1.5,0.9,2.2,2.5,2.2c2.7,0,4.6-1.9,4.7-4.2L86.6,47.8
		L86.6,47.8z"/>
	<path class="st0" d="M94.3,57.3V37.9h4.8v2.3c1.7-2.6,3.7-2.8,5.8-2.8h0.7v5.3c-0.5-0.1-0.9-0.1-1.4-0.1c-3.2,0-4.7,1.6-4.7,4.7
		v10.1L94.3,57.3L94.3,57.3z"/>
	<path class="st0" d="M107.4,57.3V37.9h4.8v2.3c1.7-2.6,3.7-2.8,5.8-2.8h0.7v5.3c-0.5-0.1-0.9-0.1-1.4-0.1c-3.2,0-4.7,1.6-4.7,4.7
		v10.1L107.4,57.3L107.4,57.3z"/>
	<path class="st0" d="M118.9,47.6c0-6.2,3.8-10.2,10-10.2c6.2,0,9.9,4,9.9,10.2s-3.8,10.2-9.9,10.2S118.9,53.7,118.9,47.6z
		 M133.6,47.6c0-4-1.6-5.9-4.7-5.9s-4.7,1.9-4.7,5.9s1.6,5.9,4.7,5.9C132.1,53.5,133.6,51.6,133.6,47.6z"/>
	<path class="st0" d="M141.1,57.3V30.8h5.1v26.6h-5.1V57.3z"/>
	<path class="st0" d="M148.8,57.3V30.8h5.1v26.6h-5.1V57.3z"/>
	<path class="st0" d="M168.6,57.3c-0.2-0.5-0.3-1.2-0.3-1.7c-1.2,1.3-3.3,2.2-5.9,2.2c-4.4,0-6.5-2.2-6.5-5.3c0-5.6,3.8-6.2,8.9-7
		c2.6-0.4,3.3-0.9,3.3-2.2s-1.3-2-3.3-2c-2.3,0-3.3,1.2-3.5,2.9h-4.8c0.1-4,2.3-6.8,8.5-6.8s8.3,2.8,8.3,7.7v12.3L168.6,57.3
		L168.6,57.3z M168.3,47.8c-0.5,0.5-1.4,0.8-3.3,1.2c-2.9,0.5-3.9,1.4-3.9,3c0,1.5,0.9,2.2,2.5,2.2c2.6,0,4.6-1.9,4.7-4.2V47.8
		L168.3,47.8z"/>
	<path class="st0" d="M189.6,57.3v-2.4c-1.2,2-3,2.9-5.4,2.9c-4.9,0-8.4-3.9-8.4-10.4c0-5.9,3-10,8-10c2.4,0,4.3,1,5.8,3v-9.6h5.1
		v26.6h-5.1V57.3z M189.6,48.1c0-4.2-1.5-6.3-4.3-6.3c-3,0-4.4,2-4.4,6c0,3.5,1.8,5.9,4.4,5.9S189.6,51.4,189.6,48.1L189.6,48.1z"/>
	<path class="st0" d="M196.7,47.6c0-6.2,3.8-10.2,10-10.2s9.9,4,9.9,10.2s-3.8,10.2-9.9,10.2S196.7,53.7,196.7,47.6z M211.4,47.6
		c0-4-1.6-5.9-4.7-5.9s-4.7,1.9-4.7,5.9s1.6,5.9,4.7,5.9S211.4,51.6,211.4,47.6z"/>
	<path class="st0" d="M218.9,57.3V37.9h4.8v2.3c1.7-2.6,3.7-2.8,5.8-2.8h0.7v5.3c-0.5-0.1-0.9-0.1-1.4-0.1c-3.2,0-4.7,1.6-4.7,4.7
		v10.1L218.9,57.3L218.9,57.3z"/>
	<path class="st0" d="M243.2,57.3c-0.2-0.5-0.3-1.2-0.3-1.7c-1.2,1.3-3.3,2.2-5.9,2.2c-4.4,0-6.5-2.2-6.5-5.3c0-5.6,3.8-6.2,8.9-7
		c2.6-0.4,3.3-0.9,3.3-2.2s-1.3-2-3.3-2c-2.3,0-3.3,1.2-3.5,2.9h-4.8c0.1-4,2.3-6.8,8.5-6.8s8.3,2.8,8.3,7.7v12.3L243.2,57.3
		L243.2,57.3z M242.8,47.8c-0.5,0.5-1.4,0.8-3.3,1.2c-2.9,0.5-3.9,1.4-3.9,3c0,1.5,0.9,2.2,2.5,2.2c2.6,0,4.6-1.9,4.7-4.2V47.8
		L242.8,47.8z"/>
</g>
<g>
	<g>
		<path class="st0" d="M80,120.1c-0.8,1.6-2.7,3.7-4.6,3.8c-2.9,0.2-4-2.9-4.1-4.8c-0.2-3.1,1-8.1,5.4-8.3c1.2-0.1,2.2,0.4,2.9,1.2
			c0.1-3.1,0.6-6.2,1.8-9.1c0.1-0.1,0.1-0.3,0.2-0.4c0.1-0.2,0.2-0.3,0.3-0.5c0.2-0.3,0.5-0.6,1-0.6c1-0.1,1.2,0.8,1.2,1.3
			s0,1.1-0.1,1.6c-0.1,0.6-0.1,1-0.2,1.6c-0.3,2.4-0.9,4.7-1.3,7.1c0,0.1,0,0.3,0,0.5c0.2,4.1,0.8,10.6,2.8,14.1
			c0,0.1,0.1,0.3,0.2,0.4c0.4,0.1,0.6,0.4,0.6,0.8c0,0.7-0.6,1.2-1.2,1.2c-0.2,0-0.4-0.1-0.5-0.1s-0.3-0.1-0.4-0.1
			C81.3,128.5,80.3,122.5,80,120.1L80,120.1z M78.8,114.1c-0.1-0.1-0.2-0.1-0.3-0.2c-0.4-0.3-0.8-0.6-1.2-0.5
			c-2.6,0.1-3.1,3.8-3,5.7c0,0.5,0.2,2,0.9,2c0.3,0,0.7-0.2,0.9-0.4c1.7-1.3,2.7-4,3.3-6.1C79.3,114.5,79,114.3,78.8,114.1
			L78.8,114.1z"/>
		<path class="st0" d="M90.8,120.2L90.8,120.2c0.1,0.1,0.2,0.1,0.2,0.2c0.1,0.1,0.1,0.2,0.1,0.4c0,0.7-0.7,1.1-1.2,1.1
			c-2.5,0.1-3.2-3.3-3.3-5.2c-0.1-1.4,0-3.9,0.7-5.2c0.3-0.5,0.7-0.9,1.3-1c0.6,0,1,0.2,1.2,0.6c0.2,0.3,0.3,0.7,0.3,1.1
			c0.1,1.2-0.1,2.3-0.1,3.5c0.1,1.4,0.4,2.8,0.6,4.2C90.6,120,90.7,120.1,90.8,120.2C90.7,120.2,90.7,120.2,90.8,120.2L90.8,120.2z
			 M90,107.1v0.7c0,0.6-0.3,1.1-1.1,1.2c-1.5,0.1-1.9-1.3-2-2.2c0-0.4,0-1,0.2-1.5s0.6-1,1.3-1c0.8,0,1.2,0.5,1.2,1.1
			c0,0.2-0.1,0.5,0,0.8c0,0.1,0.1,0.2,0.1,0.4c0,0.1,0.1,0.2,0.1,0.3C89.9,106.9,90,107,90,107.1L90,107.1z"/>
		<path class="st0" d="M93.9,119.6c0.7,0,1.4,0.1,2.1,0c-1.4-2.4-3.4-3.3-3.6-6.6c-0.1-1.7,1.4-3,3.1-3c1.6-0.1,2.8,0.7,2.9,2.3
			c0,0.3-0.1,0.9-0.8,0.9c-0.2,0-0.3-0.1-0.5-0.2l-0.1-0.1l-0.1-0.1l-0.1-0.1c-0.1,0-0.2,0-0.3,0c-0.1,0-0.4,0-0.7,0.1
			c-0.1,0-0.2,0-0.2,0.1c-0.6,2.8,3.6,4.6,3.7,7.2c0.1,1.3-0.9,2.2-2.3,2.3c-1.1,0.1-4.1-0.7-4.1-2c0-0.5,0.4-0.9,0.9-1L93.9,119.6
			L93.9,119.6z"/>
		<path class="st0" d="M106.7,119.4c0.4,0,0.8-0.1,1.1-0.2c0.1-0.1,0.3-0.1,0.4-0.2c0.1,0,0.1,0,0.2-0.1h0.2c0.5,0,0.8,0.3,0.8,0.7
			c0,0.2-0.1,0.5-0.2,0.6c-0.8,0.8-2.3,1.2-3.3,1.3c-0.6,0-1.2-0.1-1.9-0.2c-1.9-0.6-3.4-3-3.5-4.9c-0.2-2.9,2.3-6,5.6-6.2
			c1.5-0.1,2.8,0.8,2.9,2.3c0.1,2.5-3.3,4-5.4,4.2C103.8,118.4,105,119.5,106.7,119.4z M107.3,112.8c0-0.4-0.3-0.6-0.7-0.6
			c-1.4,0.1-2.6,1.8-3,3C104.7,114.9,107.4,114,107.3,112.8L107.3,112.8z"/>
		<path class="st0" d="M114.3,114.1c1-1.7,2.7-4.6,4.8-4.7c2.1-0.1,2.5,2.1,2.6,3.8c0,0.5,0,1,0,1.5c0,1.3,0.1,2.7,0,3.9
			c0,0.6-0.5,1.5-1.4,1.6c-1.3,0.1-1.6-1.3-1.7-1.9c-0.1-1.9,0-3.8-0.1-5.6v-0.6c-0.8,0.2-1.7,1.4-2.5,3c-0.8,1.7-1.4,3.5-1.8,4.3
			c-0.2,0.7-0.7,1.2-1.5,1.2c-1.3,0.1-1.9-1.3-1.9-2.5c-0.1-1.6,0.1-8.2,2.2-8.3c1-0.1,1.4,0.9,1.5,1.5v0.1
			C114.4,112.2,114.4,113.2,114.3,114.1C114.3,114.1,114.2,114.1,114.3,114.1z M115.2,106.9c-0.3,0-0.8-0.1-0.9-0.7
			c0-0.8,1.8-2.2,2.5-2.2c0.3,0,0.6,0.1,0.8,0.2c0.3,0.1,0.5,0.3,0.7,0.4c0.1,0.1,0.2,0.1,0.3,0.2c0.1,0.1,0.2,0.1,0.2,0.2
			c0.2,0.1,0.3,0.1,0.3,0.1l0.1-0.2c0.1-0.1,0.2-0.3,0.3-0.4c0.1-0.1,0.1-0.2,0.2-0.3s0.1-0.2,0.2-0.3c0.1-0.2,0.3-0.4,0.6-0.4
			c0.4,0,0.8,0.3,0.8,0.7c0,0.1,0,0.2-0.1,0.3c-0.3,1-1,2.1-2.2,2.2c-0.8,0-1.6-0.5-2.2-0.9c0,0,0,0-0.1,0s-0.2,0.1-0.3,0.2
			c-0.2,0.2-0.4,0.3-0.5,0.4C115.9,106.8,115.5,106.9,115.2,106.9L115.2,106.9z"/>
		<path class="st0" d="M132,114.3c0,0.6-0.1,1.2-0.4,1.8c-0.8,1.4-2.9,3.4-4.9,3.5c-2.2,0.1-3.1-1.9-3.2-3.4c0-0.2,0-0.4,0-0.6
			c0.1-1.4,1.3-4.7,3.4-4.8c0.5,0,0.9,0.1,1.3,0.4C130.2,111.1,131.9,112.2,132,114.3z M129.8,114.2c0-0.7-1-1.2-1.6-1.2l-0.1,0.1
			l-0.1,0.1c-0.7,0.6-1.3,2-1.3,2.9c0,0.2,0.1,0.4,0.1,0.5l0.1,0.1C127.9,116.7,129.8,115,129.8,114.2L129.8,114.2z"/>
	</g>
	<g>
		<path class="st0" d="M80.5,134.2c0.1-0.5,0.3-1.1,1.1-1.2c0.8,0,1.2,0.6,1.2,1.1v0.2c0,0,0,0,0,0.1c0,0.2,0.1,0.5,0.1,0.8
			c0,0.7,0,1.3,0,2c0,2.9-0.1,5.9,0.1,8.8c0.1,1.9,0.3,3.7,0.4,5.5c0,0.6-0.6,1-1,1c-0.7,0-1.1-0.4-1.4-0.9s-0.5-1.2-0.6-1.9
			c-0.2-1.4-0.3-3-0.3-3.6c-0.1-1.4-0.1-2.8,0-4.2c-0.7,1.2-1.6,2.6-2.3,3.1c-0.3,0.3-0.8,0.6-1.4,0.6c-2.5,0.1-3.2-3.2-3.2-5.1
			c0-0.6,0-2,0.2-3.3c0.2-0.6,0.3-1.3,0.6-1.8c0.3-0.5,0.7-0.9,1.3-0.9c0.8,0,1.3,0.5,1.3,1.1c0,0.2,0,0.3,0,0.5
			c-0.3,1.6-0.4,2.8-0.3,4.4c0,0.7,0.2,1.8,0.4,2.4C78.7,140.9,80.3,137.2,80.5,134.2L80.5,134.2z"/>
		<path class="st0" d="M95.6,148.5c0,0.6-0.4,1-1,1c-0.4,0-0.7-0.2-0.9-0.4c-1.6-1.9-1.9-4.5-2-6.8c-0.1-2.6-0.1-16.1,1.7-17.3
			c0.2-0.1,0.4-0.2,0.6-0.2c0.7,0,1,0.4,1.1,0.8c0.1,0.2,0.1,0.4,0.1,0.7v0.6c0,0.6,0.1,1.1,0.1,1.7c-0.1,4.6-0.6,9.1-0.3,13.7
			c0.1,1.2,0.2,2.4,0.3,3.6C95.4,146.7,95.5,147.6,95.6,148.5L95.6,148.5L95.6,148.5z"/>
		<path class="st0" d="M100.9,143.6c-1.8,0.1-2.9-1.4-3-2.9c-0.1-1.1,0.4-2.1,0.8-3.1c0.8-1.8,2.3-4.1,4.9-4.3c0.4,0,0.8,0,1.1,0.2
			c0.1-0.2,0.1-0.4,0.2-0.6c0.2-0.4,0.5-0.8,1.1-0.9c0.6,0,1,0.5,1,1c0,0.1,0,0.3-0.1,0.4s-0.1,0.2-0.1,0.4c-0.1,0.9-0.1,1.9,0,2.9
			l0.1,2.3c0.1,1,0.2,1.8,0.2,2c0,0,0,0.1,0.1,0.1l0.1,0.1c0.1,0.1,0.3,0.3,0.3,0.5c0,0.4-0.3,0.8-0.8,0.8c-1.2,0.1-2.2-1.4-2.4-2.4
			C103.8,141.6,102.7,143.5,100.9,143.6L100.9,143.6z M101.1,140.8l0.1-0.1c1.5-1.2,2.4-3.1,3.1-5c0,0-0.1,0-0.2,0.1
			c-1.4,0.4-2.7,2.9-3,4.2c-0.1,0.2-0.1,0.4-0.1,0.6C101,140.7,101,140.8,101.1,140.8C101.1,140.9,101.1,140.9,101.1,140.8
			L101.1,140.8z"/>
		<path class="st0" d="M119.3,141.5L119.3,141.5c0.1,0.1,0.2,0.1,0.2,0.2c0.1,0.1,0.1,0.2,0.1,0.4c0,0.7-0.7,1.1-1.2,1.1
			c-2.5,0.1-3.2-3.3-3.3-5.2c-0.1-1.4,0-3.9,0.7-5.2c0.3-0.5,0.7-0.9,1.3-1c0.6,0,1,0.2,1.2,0.6c0.2,0.3,0.2,0.7,0.3,1
			c0.1,1.2-0.1,2.3-0.1,3.5c0.1,1.4,0.4,2.8,0.6,4.2C119.2,141.3,119.2,141.4,119.3,141.5C119.3,141.4,119.3,141.5,119.3,141.5
			L119.3,141.5z M118.5,128.4v0.7c0,0.6-0.3,1.1-1.1,1.1c-1.5,0.1-1.9-1.3-2-2.2c0-0.4,0-1,0.2-1.5s0.6-1,1.3-1
			c0.8,0,1.2,0.5,1.2,1.1c0,0.2-0.1,0.5,0,0.8c0,0.1,0.1,0.2,0.1,0.4c0,0.1,0.1,0.2,0.1,0.3C118.4,128.2,118.5,128.3,118.5,128.4
			L118.5,128.4z"/>
		<path class="st0" d="M125.8,147c0,0.6-0.4,1-1,1c-0.4,0-0.7-0.2-0.9-0.4c-1.6-1.9-1.9-4.5-2-6.8c-0.1-2.6-0.1-16.1,1.7-17.3
			c0.2-0.1,0.4-0.2,0.6-0.2c0.7,0,1,0.4,1.1,0.8c0.1,0.2,0.1,0.4,0.1,0.7v0.6c0,0.6,0.1,1.1,0.1,1.7c-0.1,4.6-0.6,9.1-0.3,13.7
			c0.1,1.2,0.2,2.4,0.3,3.6C125.6,145.2,125.7,146.1,125.8,147C125.8,146.9,125.8,147,125.8,147z"/>
		<path class="st0" d="M134.6,133.8c0,0,0.1-0.5,0.1-0.6c0.1-0.3,0.1-0.7,0.2-1c0-0.1,0-0.1-0.1-0.2c0-0.7,0.6-1.2,1.2-1.3
			c0.8,0,1.2,0.5,1.2,1.1c0,0.5,0.2,1.1,0.2,1.5c0.1,2,0.4,4,1,5.9c0.1,0.2,0.1,0.5,0.1,0.8c0,0.6-0.4,1-1,1
			c-1.6,0.1-2.5-2.2-2.7-3.6c-0.6,1.5-2.1,5-3.8,5.1c-0.4,0-0.7-0.1-0.9-0.2c-1.7-1.1-1.8-3.2-1.9-4.8s-0.2-6.8,2-6.9
			c0.7,0,1.4,0.5,1.4,1.2c0.1,0.9-0.2,2.2-0.2,3.3c0,1.2,0,2.5,0,3.8v0.6C132.7,138.4,134.2,135.3,134.6,133.8L134.6,133.8z"/>
		<path class="st0" d="M141.4,139.9c0.7,0,1.4,0.1,2.1,0c-1.4-2.4-3.4-3.3-3.6-6.6c-0.1-1.7,1.4-3,3.1-3c1.6-0.1,2.9,0.7,2.9,2.3
			c0,0.3-0.1,0.9-0.8,0.9c-0.2,0-0.3-0.1-0.5-0.2l-0.1-0.1l-0.1-0.1l-0.1-0.1c-0.1,0-0.1,0-0.3,0c-0.1,0-0.4,0-0.7,0.1
			c-0.1,0-0.2,0-0.2,0.1c-0.6,2.8,3.6,4.6,3.7,7.2c0.1,1.3-0.9,2.2-2.3,2.3c-1.1,0.1-4.1-0.7-4.1-2c0-0.5,0.4-0.9,0.9-1L141.4,139.9
			L141.4,139.9z"/>
		<path class="st0" d="M151,140c-0.2-1.3-0.4-2.7-0.5-4c-0.1,0-0.1,0-0.2,0.1c-0.2,0.1-0.5,0.1-0.7,0.1c-0.3,0-0.5,0-0.8,0
			s-0.9-0.1-0.9-0.7c0-0.4,0.1-0.6,0.5-0.7c0.1,0,0.2-0.1,0.3-0.1h0.2c0.1-0.1,0.1-0.1,0.2-0.1c0.2,0,0.4-0.1,0.5-0.1
			c0.3-0.1,0.6-0.2,0.8-0.2c0-0.7-0.1-1.4-0.1-2c0-0.8-0.1-2.7-0.1-4.5c0.1-1.7,0.2-3.6,0.9-4.2c0.2-0.2,0.5-0.3,0.8-0.3
			c1.1-0.1,1.4,1,1.4,1.6c0,0.3,0,0.5,0,0.7c0,2.4,0.1,4.8,0.2,7.2v0.7c0.8-0.1,1.5-0.3,2.3-0.3c0.2,0,0.5,0,0.8,0.1
			s0.6,0.4,0.6,0.8c0,0.4-0.2,0.7-0.6,0.9c-0.4,0.2-1,0.3-1.6,0.4c-0.4,0.1-0.9,0.1-1.3,0.2c0.1,1.3,0.2,2.6,0.4,3.9
			c0.2,1.1,0.4,2.1,0.6,3.3c0.1,0.2,0.1,0.4,0.1,0.7c0.1,0.2,0.1,0.5,0.2,0.6c0,0.1,0.1,0.1,0.1,0.2c0,0.1,0.1,0.2,0.1,0.3
			c0,0.4-0.4,1-1,1.1C152.4,145.4,151.2,141.3,151,140L151,140z"/>
		<path class="st0" d="M159.6,140.1c-0.1-0.7-0.2-1.4-0.3-1.9c-0.2-1.5-0.6-3-0.6-4.5c0-0.6,0.2-1.5,1.3-1.6s1.6,1.1,1.9,1.9
			c0.1,0.5,0.2,1,0.3,1.4c0.6-1.3,1.9-3.4,3.5-3.5c0.6,0,1.2,0.3,1.2,1c0,0.2,0,0.3-0.1,0.5c0,0.1-0.1,0.2-0.2,0.3l-0.2,0.2
			c-0.7,0.5-1.5,1.1-2,1.9c-0.5,1-1.1,2-1.4,3c-0.1,0.3-0.2,0.7-0.2,1.2c-0.1,0.4-0.1,0.9-0.1,1.3c0,0.6-0.4,1.2-1.2,1.2
			c-0.3,0-0.5-0.1-0.7-0.1c-0.1-0.1-0.1-0.1-0.1-0.2c-0.1,0-0.1-0.1-0.2-0.1C159.9,141.5,159.7,140.8,159.6,140.1L159.6,140.1z"/>
		<path class="st0" d="M171.1,140.1c-1.8,0.1-2.9-1.4-3-2.9c-0.1-1.1,0.4-2.1,0.8-3.1c0.8-1.8,2.4-4.1,4.9-4.3c0.4,0,0.8,0,1.1,0.2
			c0.1-0.2,0.1-0.4,0.2-0.6c0.2-0.4,0.5-0.8,1.1-0.9s1,0.5,1,1c0,0.1,0,0.3-0.1,0.4s-0.1,0.2-0.1,0.4c-0.1,0.9-0.1,1.9,0,2.9
			l0.1,2.3c0.1,1,0.2,1.8,0.2,2c0,0,0,0.1,0.1,0.1l0.1,0.1c0.1,0.1,0.3,0.3,0.3,0.5c0,0.4-0.3,0.8-0.8,0.8c-1.2,0.1-2.2-1.4-2.4-2.4
			C174,138,172.8,140,171.1,140.1L171.1,140.1z M171.3,137.2l0.1-0.1c1.5-1.2,2.4-3.1,3.1-5c0,0-0.1,0-0.2,0.1
			c-1.4,0.4-2.7,2.9-3,4.2c-0.1,0.2-0.1,0.4-0.1,0.6C171.2,137.2,171.2,137.2,171.3,137.2C171.3,137.3,171.3,137.3,171.3,137.2
			L171.3,137.2z"/>
		<path class="st0" d="M184.4,130.7c-1.4,0.4-2,2.7-1.9,4.1c0,0.5,0.2,2,1,1.9c0.7,0,3.4-2.4,3.9-3l0.1-0.1c0,0,0.1-0.1,0.2-0.2
			c0.1-0.1,0.2-0.1,0.4-0.1c0.5,0,0.9,0.4,0.9,0.8c0,0.1-0.1,0.4-0.2,0.5c-0.1,0.2-0.2,0.4-0.3,0.6c-0.3,0.4-0.5,0.8-0.6,0.9
			c-0.9,1.2-2.5,3.2-4.4,3.3c-2.8,0.1-3.9-2.9-4-4.8c-0.1-2.6,1.4-6.6,4.4-6.7c1-0.1,2.3,0.4,2.4,1.6c0,0.2,0,0.5,0,0.7l0,0
			c0.1,0.1,0.3,0.2,0.3,0.5c0,0.4-0.3,0.8-0.7,0.8c-0.5,0-0.8-0.3-0.9-0.6C184.5,131,184.4,130.8,184.4,130.7L184.4,130.7z"/>
		<path class="st0" d="M194.5,137.7L194.5,137.7c0.1,0.1,0.2,0.1,0.2,0.2c0.1,0.1,0.1,0.2,0.1,0.4c0,0.7-0.7,1.1-1.2,1.1
			c-2.5,0.1-3.2-3.3-3.3-5.2c-0.1-1.4,0-3.9,0.7-5.2c0.3-0.5,0.7-0.9,1.3-1c0.6,0,1,0.2,1.2,0.6c0.2,0.3,0.2,0.7,0.3,1
			c0.1,1.2-0.1,2.3-0.1,3.5c0.1,1.4,0.4,2.8,0.6,4.2C194.4,137.5,194.4,137.6,194.5,137.7C194.4,137.6,194.4,137.7,194.5,137.7
			L194.5,137.7z M193.7,124.6v0.7c0,0.6-0.3,1.1-1.1,1.2c-1.5,0.1-1.9-1.3-2-2.2c0-0.4,0-1,0.2-1.5s0.6-1,1.3-1
			c0.8,0,1.2,0.5,1.2,1.1c0,0.2-0.1,0.5,0,0.8c0,0.1,0,0.2,0.1,0.4c0,0.1,0.1,0.2,0.1,0.3C193.6,124.4,193.7,124.5,193.7,124.6
			L193.7,124.6z"/>
		<path class="st0" d="M204.7,133.3c0,0.6-0.1,1.2-0.4,1.8c-0.8,1.4-2.9,3.4-4.9,3.5c-2.2,0.1-3.1-1.9-3.2-3.4c0-0.2,0-0.4,0-0.6
			c0.1-1.4,1.3-4.7,3.4-4.8c0.5,0,0.9,0.1,1.3,0.4C202.8,130.1,204.6,131.2,204.7,133.3L204.7,133.3z M199.8,127.9
			c-0.5,0-1-0.3-1-0.9c0-0.9,2-2.4,2.8-2.4c0.6,0,1,0.3,1.1,0.9c0,0.4-0.2,0.7-0.6,0.8c-0.2,0.2-0.6,0.5-0.9,0.8
			c-0.2,0.2-0.4,0.3-0.6,0.5c-0.1,0.1-0.2,0.1-0.3,0.2C200,127.8,199.9,127.9,199.8,127.9L199.8,127.9z M202.5,133.2
			c0-0.7-1-1.2-1.6-1.2l-0.1,0.1l-0.1,0.1c-0.7,0.6-1.3,2-1.3,2.9c0,0.2,0.1,0.4,0.1,0.5l0.1,0.1C200.5,135.7,202.5,134,202.5,133.2
			L202.5,133.2z"/>
		<path class="st0" d="M209.6,131.9c1-1.7,2.7-4.6,4.8-4.7s2.5,2.1,2.6,3.8c0,0.5,0,1,0,1.5c0,1.3,0.1,2.7,0,3.9
			c0,0.6-0.5,1.5-1.4,1.6c-1.3,0.1-1.6-1.3-1.7-1.9c-0.1-1.9,0-3.8-0.1-5.6v-0.6c-0.8,0.2-1.7,1.4-2.5,3s-1.4,3.5-1.8,4.3
			c-0.2,0.7-0.7,1.2-1.5,1.2c-1.4,0.1-1.9-1.3-1.9-2.5c-0.1-1.6,0.1-8.2,2.2-8.3c1-0.1,1.4,1,1.5,1.5v0.1
			C209.8,130.1,209.7,131.1,209.6,131.9C209.6,132,209.6,132,209.6,131.9L209.6,131.9z"/>
	</g>
	<g>
		<path class="st0" d="M98.1,94.1c-1.2,0.3-1.8,2.3-1.8,3.6c0,0.4,0.2,1.7,0.8,1.7c0.7,0,3-2,3.5-2.5l0.1-0.1c0,0,0.1-0.1,0.2-0.1
			c0.1-0.1,0.2-0.1,0.3-0.1c0.4,0,0.8,0.3,0.8,0.7c0,0.1-0.1,0.4-0.2,0.5c-0.1,0.2-0.2,0.4-0.3,0.6c-0.2,0.3-0.5,0.7-0.6,0.8
			c-0.8,1.1-2.3,2.8-4,2.8c-2.5,0.1-3.4-2.6-3.4-4.3c-0.1-2.3,1.4-5.8,4-5.8c0.9,0,2,0.4,2,1.5c0,0.2,0,0.4,0,0.6l0,0
			c0.1,0.1,0.2,0.2,0.2,0.4c0,0.4-0.3,0.7-0.7,0.7c-0.4,0-0.7-0.3-0.8-0.5C98.2,94.3,98.2,94.2,98.1,94.1L98.1,94.1z"/>
		<path class="st0" d="M110.6,97c0,0.5-0.1,1.1-0.4,1.6c-0.8,1.2-2.7,3-4.4,3c-1.9,0-2.7-1.8-2.7-3.1c0-0.2,0-0.4,0-0.6
			c0.1-1.2,1.3-4.1,3.2-4.2c0.4,0,0.8,0.1,1.1,0.4C109,94.1,110.5,95.1,110.6,97z M108.6,96.8c0-0.6-0.8-1.1-1.3-1.1l-0.1,0.1
			l-0.1,0.1c-0.6,0.5-1.2,1.7-1.2,2.6c0,0.2,0,0.3,0.1,0.5l0.1,0.1C106.9,99.1,108.7,97.6,108.6,96.8L108.6,96.8z"/>
		<path class="st0" d="M114.9,95.9c0.9-1.5,2.5-4,4.4-4.1c1.9,0,2.2,1.9,2.2,3.4c0,0.4,0,0.9,0,1.3c0,1.2,0,2.4-0.1,3.5
			c-0.1,0.6-0.5,1.3-1.3,1.3c-1.1,0-1.4-1.2-1.4-1.7c0-1.7,0.1-3.3,0.1-5v-0.5c-0.8,0.2-1.5,1.2-2.3,2.6c-0.7,1.4-1.3,3-1.7,3.8
			c-0.2,0.6-0.7,1-1.3,1c-1.2,0-1.6-1.2-1.7-2.2c0-1.4,0.3-7.2,2.2-7.2c0.9,0,1.2,0.9,1.3,1.4v0.1C115.1,94.3,115,95.2,114.9,95.9
			C114.9,96,114.9,95.9,114.9,95.9z"/>
		<path class="st0" d="M135.9,91.7L135.9,91.7c0.2-0.1,0.5-0.2,0.7-0.2c1.4,0,1.6,1.4,1.6,2.4c0,1.3-0.1,2.7-0.1,4
			c0,0.2,0,0.5,0,0.8s0,0.6,0.1,0.7c0,0,0,0,0,0.1s0.1,0.2,0.1,0.3c0,0.7-0.7,0.9-1.1,0.9c-1.4,0-1.8-1.7-1.8-2.8
			c0-1.6,0.2-3.1,0.3-4.6c-1.4,1-2.7,3.9-3.2,5.4c0,0.2-0.1,0.4-0.1,0.6c-0.1,0.3-0.2,0.5-0.3,0.7c-0.2,0.5-0.6,1-1.3,1
			c-0.5,0-1.2-0.6-1.4-1c-0.8-1.5-1.1-4.3-1.2-5.8c-0.1-2.5,0.4-5,1-7.4c0.1-0.3,0.3-0.8,0.5-1.3s0.7-0.9,1.3-0.9
			c1,0,1.2,0.8,1.2,1.3c0,0.3-0.1,0.6-0.1,0.8c-0.8,3-1.1,5.6-1.1,8.7c0,0.9,0.1,1.8,0.2,2.7C132,96.2,134,92.4,135.9,91.7
			L135.9,91.7z"/>
		<path class="st0" d="M142.4,100.8c-1.6,0-2.6-1.3-2.6-2.7c0-1,0.4-1.9,0.8-2.7c0.7-1.6,2.2-3.6,4.4-3.7c0.3,0,0.7,0.1,1,0.2
			c0.1-0.2,0.1-0.3,0.2-0.5c0.1-0.3,0.4-0.7,1-0.7s0.9,0.4,0.9,0.9c0,0.1,0,0.3-0.1,0.4s-0.1,0.2-0.1,0.3c-0.1,0.8-0.1,1.7-0.1,2.5
			l0.1,2.1c0.1,0.9,0.1,1.6,0.2,1.7c0,0,0,0.1,0.1,0.1l0.1,0.1c0.1,0.1,0.2,0.2,0.2,0.5c0,0.4-0.3,0.7-0.7,0.7
			c-1.1,0-1.9-1.2-2.1-2.2C144.9,99,143.9,100.7,142.4,100.8L142.4,100.8z M142.6,98.3l0.1-0.1c1.4-1,2.2-2.7,2.9-4.3
			c0,0-0.1,0-0.2,0.1c-1.3,0.3-2.4,2.5-2.8,3.7c-0.1,0.2-0.1,0.4-0.1,0.6C142.5,98.2,142.5,98.2,142.6,98.3L142.6,98.3z"/>
		<path class="st0" d="M151.4,101.8c-0.1-0.3-0.2-0.6-0.3-0.7c-0.8-1.6-0.9-5.2-0.9-7c0-2,0.1-6.6,1.2-8.4c0.2-0.3,0.5-0.5,1-0.5
			c0.7,0,1.2,0.5,1.2,1.1s-0.1,1.3-0.2,1.9c-0.2,1.9-0.3,3.8-0.3,5.8v0.5c0.6-2,1.8-3.1,3.9-3.2c2.1-0.1,3.3,1.5,3.3,3.2
			c0.1,2.8-2.7,6.8-6,6.8c-0.1,0-0.3,0-0.4,0c0,0.3,0.1,0.7,0.1,1c0,0.5-0.4,0.9-0.9,0.9c-0.4,0-0.6-0.1-0.7-0.3l-0.1-0.1
			c0,0,0-0.1-0.1-0.1c0-0.1-0.1-0.1-0.1-0.2l-0.1-0.1l-0.1-0.1c0,0,0,0-0.1-0.1C151.6,102.4,151.4,102.1,151.4,101.8L151.4,101.8z
			 M157.5,94.6c0-0.4-0.1-0.7-0.4-1c-0.3-0.2-0.9-0.4-1.1-0.4c-0.2,0-0.5,0-0.6,0.1c-1.1,0.8-1.5,4.5-1.6,5.9
			C155.6,98.7,157.6,96.4,157.5,94.6L157.5,94.6z"/>
		<path class="st0" d="M165.4,99.2L165.4,99.2c0.1,0.1,0.1,0.1,0.2,0.2c0.1,0.1,0.1,0.2,0.1,0.4c0,0.6-0.6,0.9-1.1,0.9
			c-2.2,0.1-2.7-3-2.8-4.7c0-1.2,0.1-3.5,0.7-4.6c0.3-0.4,0.6-0.8,1.2-0.8c0.5,0,0.8,0.2,1.1,0.6c0.2,0.2,0.2,0.6,0.2,0.9
			c0,1-0.2,2-0.2,3.1c0,1.3,0.3,2.4,0.4,3.7C165.3,99,165.3,99.1,165.4,99.2C165.4,99.1,165.4,99.2,165.4,99.2L165.4,99.2z
			 M165,87.6v0.7c0,0.5-0.3,1-1,1c-1.3,0-1.7-1.2-1.7-2c0-0.3,0.1-0.9,0.3-1.3c0.1-0.4,0.5-0.8,1.2-0.9c0.7,0,1,0.5,1.1,1
			c0,0.2-0.1,0.4-0.1,0.7c0,0.1,0,0.2,0.1,0.3c0,0.1,0.1,0.2,0.1,0.3C164.9,87.3,165,87.5,165,87.6L165,87.6z"/>
		<path class="st0" d="M171,104.2c0,0.5-0.4,0.9-0.9,0.9c-0.4,0-0.6-0.2-0.8-0.4c-1.3-1.7-1.6-4-1.6-6.1c-0.1-2.3,0.3-14.2,1.9-15.2
			c0.2-0.1,0.4-0.1,0.5-0.1c0.6,0,0.9,0.4,1,0.8c0.1,0.2,0.1,0.4,0.1,0.6V85c0,0.5,0,1,0,1.5c-0.2,4-0.7,8.1-0.6,12.1
			c0,1.1,0.1,2.1,0.2,3.2c0.1,0.7,0.1,1.5,0.2,2.2C171,104.1,171,104.2,171,104.2z"/>
		<path class="st0" d="M177.1,98.9L177.1,98.9c0.1,0.1,0.1,0.1,0.2,0.2c0.1,0.1,0.1,0.2,0.1,0.4c0,0.6-0.6,0.9-1.1,0.9
			c-2.2,0.1-2.7-3-2.8-4.7c0-1.2,0.1-3.5,0.7-4.6c0.3-0.4,0.6-0.8,1.2-0.8c0.5,0,0.8,0.2,1.1,0.6c0.2,0.2,0.2,0.6,0.2,0.9
			c0,1-0.2,2-0.2,3.1c0,1.3,0.3,2.4,0.4,3.7C177,98.7,177.1,98.8,177.1,98.9L177.1,98.9L177.1,98.9z M176.7,87.3V88c0,0.5-0.3,1-1,1
			c-1.3,0-1.7-1.2-1.7-2c0-0.3,0.1-0.9,0.3-1.3c0.1-0.4,0.5-0.8,1.2-0.9c0.7,0,1,0.5,1.1,1c0,0.2-0.1,0.4-0.1,0.7
			c0,0.1,0,0.2,0.1,0.3c0,0.1,0.1,0.2,0.1,0.3C176.7,87.1,176.7,87.2,176.7,87.3L176.7,87.3z"/>
		<path class="st0" d="M186.7,98.1c-0.8,1.4-2.4,3.2-4.2,3.2c-2.6,0.1-3.5-2.7-3.5-4.4c-0.1-2.7,1.1-7.2,5-7.2
			c1.1,0,1.9,0.4,2.5,1.1c0.2-2.8,0.7-5.5,1.9-8c0.1-0.1,0.1-0.2,0.1-0.4c0.1-0.2,0.1-0.3,0.2-0.4c0.2-0.3,0.4-0.5,0.9-0.5
			c0.9,0,1.1,0.8,1.1,1.2c0,0.4,0,0.9-0.1,1.4s-0.1,0.9-0.2,1.4c-0.4,2.1-0.9,4.1-1.3,6.2c0,0.1,0,0.3,0,0.4
			c0.1,3.7,0.4,9.4,2.1,12.6c0,0.1,0.1,0.3,0.1,0.3c0.3,0.1,0.5,0.4,0.5,0.8c0,0.6-0.5,1.1-1.1,1.1c-0.2,0-0.3-0.1-0.4-0.1
			c-0.1,0-0.2-0.1-0.3-0.1C187.6,105.6,186.9,100.2,186.7,98.1L186.7,98.1z M185.8,92.8c-0.1-0.1-0.2-0.1-0.2-0.2
			c-0.3-0.2-0.7-0.5-1-0.5c-2.3,0.1-2.8,3.3-2.8,5c0,0.4,0.1,1.8,0.8,1.8c0.3,0,0.6-0.1,0.8-0.3c1.6-1.1,2.5-3.5,3.1-5.3
			C186.2,93.2,185.9,93,185.8,92.8L185.8,92.8z"/>
		<path class="st0" d="M195,99.6c-1.6,0-2.6-1.3-2.6-2.7c0-1,0.4-1.9,0.8-2.7c0.7-1.6,2.2-3.6,4.4-3.7c0.3,0,0.7,0.1,1,0.2
			c0.1-0.2,0.1-0.3,0.2-0.5c0.1-0.3,0.4-0.7,1-0.7s0.9,0.4,0.9,0.9c0,0.1,0,0.3-0.1,0.4s-0.1,0.2-0.1,0.3c-0.1,0.8-0.1,1.7-0.1,2.5
			l0.1,2.1c0.1,0.9,0.1,1.6,0.2,1.7c0,0,0,0.1,0.1,0.1l0.1,0.1c0.1,0.1,0.2,0.2,0.2,0.5c0,0.4-0.3,0.7-0.7,0.7
			c-1.1,0-1.9-1.2-2.1-2.2C197.5,97.8,196.5,99.5,195,99.6L195,99.6z M195.2,97.1L195.2,97.1c1.5-1.1,2.3-2.8,3-4.4
			c0,0-0.1,0-0.2,0.1c-1.3,0.3-2.4,2.5-2.8,3.7c-0.1,0.2-0.1,0.4-0.1,0.6C195.1,97,195.1,97.1,195.2,97.1
			C195.2,97.2,195.2,97.2,195.2,97.1z"/>
		<path class="st0" d="M210.2,97.6c-0.8,1.4-2.4,3.2-4.2,3.2c-2.6,0.1-3.5-2.7-3.5-4.4c-0.1-2.7,1.1-7.2,5-7.2
			c1.1,0,1.9,0.4,2.5,1.1c0.2-2.8,0.7-5.5,1.9-8c0.1-0.1,0.1-0.2,0.1-0.4c0.1-0.2,0.2-0.3,0.2-0.4c0.2-0.3,0.4-0.5,0.9-0.5
			c0.9,0,1.1,0.8,1.1,1.2c0,0.4,0,0.9-0.1,1.4s-0.1,0.9-0.2,1.4c-0.4,2.1-0.9,4.1-1.3,6.2c0,0.1,0,0.3,0,0.4
			c0.1,3.7,0.4,9.4,2.1,12.6c0,0.1,0.1,0.3,0.1,0.3c0.3,0.1,0.5,0.4,0.5,0.8c0,0.6-0.5,1-1.1,1.1c-0.2,0-0.3-0.1-0.4-0.1
			c-0.1,0-0.2-0.1-0.3-0.1C211.1,105.1,210.4,99.7,210.2,97.6L210.2,97.6z M209.4,92.3c-0.1-0.1-0.2-0.1-0.2-0.2
			c-0.3-0.2-0.7-0.5-1-0.5c-2.3,0.1-2.8,3.3-2.8,5c0,0.4,0.1,1.8,0.8,1.8c0.3,0,0.6-0.1,0.8-0.3c1.6-1.1,2.5-3.5,3.1-5.3
			C209.8,92.6,209.5,92.4,209.4,92.3L209.4,92.3z"/>
		<path class="st0" d="M221.4,97.9c0.4,0,0.7-0.1,1-0.2c0.1-0.1,0.3-0.1,0.4-0.1c0.1,0,0.1,0,0.2-0.1h0.2c0.4,0,0.7,0.3,0.7,0.7
			c0,0.2-0.1,0.4-0.2,0.6c-0.7,0.7-2,1.1-3,1.1c-0.5,0-1.1-0.1-1.6-0.2c-1.7-0.6-3-2.7-3-4.4c-0.1-2.6,2.2-5.2,5.1-5.3
			c1.4,0,2.4,0.8,2.5,2.1c0.1,2.2-3,3.5-4.9,3.6C218.8,97,219.8,98,221.4,97.9L221.4,97.9z M222.1,92.1c0-0.3-0.2-0.5-0.6-0.5
			c-1.3,0-2.3,1.5-2.7,2.6C219.7,93.9,222.1,93.2,222.1,92.1z"/>
		<path class="st0" d="M226.1,97.4c0.6,0,1.2,0.1,1.8,0.1c-1.1-2.1-3-3-3-5.9c0-1.5,1.3-2.6,2.8-2.6c1.4,0,2.5,0.7,2.5,2.1
			c0,0.3-0.1,0.8-0.7,0.8c-0.2,0-0.3-0.1-0.4-0.2l-0.1-0.1l-0.1-0.1l-0.1-0.1c-0.1,0-0.1,0-0.3,0c-0.1,0-0.4,0-0.6,0.1
			c-0.1,0-0.2,0-0.2,0.1c-0.6,2.5,3.1,4.1,3.1,6.4c0,1.2-0.9,2-2.1,2c-0.9,0-3.6-0.7-3.6-1.9C225.2,97.8,225.5,97.4,226.1,97.4
			L226.1,97.4L226.1,97.4z"/>
	</g>
	<g>
		<path class="st0" d="M19.6,123.4c0,0.6-0.7,1-1.2,1.1c-0.6,0-1.1-0.5-1.4-1c-1.1-2.2-1.4-5.4-1.5-7.8c-0.1-1.5-0.1-5.8,0.5-6.9
			c0.2-0.4,0.6-0.7,1.2-0.7c1.2,0,1.4,1.1,1.5,2.1c0,1.1,0,2.1,0.1,3.2c0.4-1.2,1-2.3,1.6-3.4c0.2-0.4,0.6-1,1.1-1.6
			c0.5-0.4,1.1-1,1.8-1c1.9-0.1,2.6,2.1,2.6,3.3c0.1,3.2-2.5,7-6.3,7.1c-0.1,0-0.1,0-0.2,0c-0.1,0.9-0.2,2-0.2,2.9
			c0,0.4,0.1,2.2,0.3,2.5C19.6,123.2,19.6,123.3,19.6,123.4L19.6,123.4z M23,109.6c0-0.1,0-0.2,0-0.3c-1.4,1-2.7,4.3-3,5.9
			C21.8,113.8,23.1,112.1,23,109.6z"/>
		<path class="st0" d="M30.3,116.3c-1.8,0.1-2.9-1.4-3-3c0-1.1,0.4-2.1,0.9-3.1c0.8-1.8,2.4-4.1,5-4.2c0.4,0,0.8,0.1,1.1,0.2
			c0.1-0.2,0.1-0.4,0.2-0.6c0.2-0.4,0.5-0.8,1.1-0.8s1,0.5,1,1c0,0.2,0,0.3-0.1,0.4c0,0.1-0.1,0.2-0.1,0.4c-0.2,0.9-0.1,1.9-0.1,2.8
			l0.1,2.3c0.1,1,0.2,1.8,0.2,2c0,0,0,0.1,0.1,0.1l0.1,0.1c0.1,0.1,0.3,0.3,0.3,0.5c0,0.4-0.3,0.8-0.8,0.8c-1.2,0-2.2-1.4-2.4-2.4
			C33.1,114.3,32,116.3,30.3,116.3L30.3,116.3z M30.5,113.5l0.1-0.1c1.5-1.2,2.5-3.1,3.2-4.9c0,0-0.1,0-0.2,0.1
			c-1.5,0.4-2.7,2.9-3.1,4.2c-0.1,0.2-0.1,0.4-0.1,0.6C30.4,113.4,30.4,113.5,30.5,113.5C30.5,113.6,30.5,113.6,30.5,113.5z"/>
		<path class="st0" d="M39.2,115.4c-0.1-0.7-0.2-1.4-0.2-1.9c-0.2-1.5-0.5-3-0.5-4.5c0-0.6,0.2-1.5,1.3-1.5s1.5,1.1,1.8,2
			c0.1,0.5,0.2,1,0.3,1.4c0.7-1.3,2-3.4,3.6-3.4c0.6,0,1.2,0.3,1.2,1c0,0.2,0,0.3-0.1,0.5c0,0.1-0.1,0.2-0.2,0.3l-0.2,0.2
			c-0.7,0.5-1.5,1.1-2,1.9c-0.5,1-1.1,1.9-1.5,2.9c-0.1,0.3-0.2,0.7-0.2,1.2c-0.1,0.4-0.1,0.9-0.1,1.3c0,0.6-0.5,1.2-1.2,1.2
			c-0.3,0-0.5-0.1-0.7-0.2c-0.1-0.1-0.2-0.1-0.2-0.2c-0.1,0-0.1-0.1-0.2-0.1C39.5,116.9,39.3,116.1,39.2,115.4z"/>
		<path class="st0" d="M50.8,115.6c-1.8,0.1-2.9-1.4-3-3c0-1.1,0.4-2.1,0.8-3.1c0.8-1.8,2.4-4.1,5-4.2c0.4,0,0.8,0.1,1.1,0.2
			c0.1-0.2,0.1-0.4,0.2-0.6c0.2-0.4,0.5-0.8,1.1-0.8s1,0.5,1,1c0,0.2,0,0.3-0.1,0.4c0,0.1-0.1,0.2-0.1,0.4c-0.2,0.9-0.1,1.9-0.1,2.8
			l0.1,2.3c0.1,1,0.2,1.8,0.2,2c0,0,0,0.1,0.1,0.1l0.1,0.1c0.1,0.1,0.3,0.3,0.3,0.5c0,0.4-0.3,0.8-0.8,0.8c-1.2,0-2.2-1.4-2.4-2.4
			C53.6,113.7,52.5,115.6,50.8,115.6L50.8,115.6z M51,112.8L51,112.8c1.6-1.3,2.6-3.2,3.3-5c0,0-0.1,0-0.2,0.1
			c-1.5,0.4-2.7,2.9-3.1,4.2c-0.1,0.2-0.1,0.4-0.1,0.6C50.9,112.7,50.9,112.8,51,112.8C51,112.9,51,112.9,51,112.8z"/>
	</g>
	<g>
		<path class="st0" d="M58.6,128.7c0.4-0.1,0.7-0.2,1-0.4c0.1-0.1,0.3-0.2,0.4-0.2c0.1-0.1,0.1-0.1,0.2-0.1h0.2
			c0.5-0.1,0.8,0.3,0.9,0.6c0,0.2-0.1,0.5-0.1,0.7c-0.7,0.9-2.1,1.5-3.1,1.7c-0.6,0.1-1.2,0.1-1.9,0c-2-0.4-3.8-2.5-4.1-4.3
			c-0.5-2.9,1.5-6.2,4.8-6.8c1.5-0.3,2.9,0.4,3.1,1.9c0.5,2.4-2.7,4.4-4.8,4.9C55.5,128.1,56.9,129,58.6,128.7L58.6,128.7z
			 M58.3,122c-0.1-0.4-0.4-0.6-0.7-0.5c-1.4,0.3-2.3,2.1-2.6,3.3C56,124.5,58.5,123.2,58.3,122z"/>
		<path class="st0" d="M67.9,132.9c0.1,0.5-0.2,1.1-0.9,1.2c-0.4,0.1-0.7-0.1-0.9-0.3c-1.8-1.7-2.5-4.2-2.9-6.5
			c-0.5-2.6-2.2-15.9-0.6-17.4c0.2-0.1,0.4-0.2,0.5-0.2c0.7-0.1,1.1,0.3,1.2,0.7c0.1,0.2,0.2,0.4,0.2,0.6l0.1,0.5
			c0.1,0.5,0.2,1.1,0.3,1.7c0.5,4.6,0.6,9.1,1.5,13.6c0.2,1.2,0.5,2.3,0.8,3.5c0.2,0.8,0.4,1.7,0.7,2.5L67.9,132.9L67.9,132.9z"/>
	</g>
</g>
<path class="st0" d="M0,23.4c0-0.4,0.4-0.9,1-0.9c0.3,0,0.5,0.2,0.6,0.4l0.3,0.3c1.5,1.4,4.1,2,6.1,2.1c1.8,0.1,4.2-0.3,5.3-1.7
	c0.3-0.5,0.6-0.9,0.6-1.4c0-0.8-0.6-1.4-1.7-2.1c-1.1-0.8-2.6-1.4-4.2-2.2C5,16.2,1.8,14,2,9.7c0.2-4.9,4.1-8.2,8.8-8
	c2,0.1,3.9,1.2,3.7,3.4c-0.1,1.5-1,3.5-2.4,4.3c-0.1,0-0.3,0.1-0.4,0.2c-0.1,0.1-0.2,0.1-0.3,0.1c0,0-0.1,0-0.1,0.1c0,0-0.1,0-0.2,0
	c-0.5,0-0.7-0.5-0.7-0.8s0.2-0.5,0.4-0.6s0.3-0.2,0.5-0.3C12.3,7.4,13,6.2,13,5c0.1-1-0.6-1.5-1.7-1.5c-0.6,0-1.2,0-1.7,0.2
	c-2.9,0.9-4.3,3.2-4.4,6c-0.2,3,2.7,4.4,5.8,6c0.8,0.4,1.5,0.8,2.3,1.2c2.1,1.2,4,2.6,3.9,5.3c-0.1,1.1-0.7,2.4-1.5,3.3
	c-1.8,2.1-4.9,2.7-7.5,2.6c-3.1-0.1-6.5-1.5-8-4.3C0,23.7,0,23.5,0,23.4L0,23.4z M27.1,22.3c0,0.6-0.2,1.2-0.6,1.7
	c-1,1.3-3.2,3.1-5.2,3c-2.2-0.1-2.9-2.2-2.8-3.7c0-0.2,0-0.4,0.1-0.6c0.2-1.3,1.8-4.6,3.9-4.4c0.5,0,0.9,0.2,1.2,0.5
	C25.6,18.9,27.2,20.2,27.1,22.3L27.1,22.3z M25,22c0-0.7-0.9-1.3-1.4-1.4l-0.1,0.1l-0.1,0.1c-0.8,0.5-1.5,1.9-1.6,2.8
	c0,0.2,0,0.4,0,0.5l0.1,0.1C22.8,24.3,24.9,22.8,25,22L25,22z M36.4,17.4c0.1-0.5,0.5-1.1,1.2-1.1c0.8,0,1.1,0.8,1.1,1.3v0.2
	c0,0,0,0,0,0.1c0,0.2,0,0.5,0,0.8c0,0.7-0.1,1.3-0.2,2c-0.3,2.9-0.7,5.8-0.8,8.8c-0.1,1.9-0.1,3.7-0.2,5.5c0,0.6-0.7,0.9-1.1,0.9
	c-0.7,0-1.1-0.5-1.3-1c-0.2-0.6-0.3-1.3-0.4-2c-0.1-1.4,0-3,0-3.6c0.1-1.4,0.2-2.8,0.4-4.1c-0.8,1.1-1.9,2.4-2.6,2.9
	c-0.4,0.3-0.9,0.5-1.5,0.5c-2.5-0.1-2.8-3.5-2.7-5.4c0-0.5,0.2-2,0.5-3.3c0.2-0.6,0.5-1.2,0.8-1.7s0.8-0.8,1.4-0.8
	c0.8,0,1.2,0.6,1.2,1.3c0,0.2,0,0.3-0.1,0.5c-0.5,1.5-0.7,2.7-0.8,4.3c0,0.7,0,1.8,0.2,2.5C34,23.8,35.9,20.3,36.4,17.4L36.4,17.4z
	 M51.5,22.6l0.1-0.5c0.1-0.3,0.2-0.6,0.3-0.9c0-0.1,0-0.1,0-0.2c0-0.7,0.7-1.2,1.4-1.1c0.8,0,1.1,0.6,1.1,1.2c0,0.5,0.1,1.1,0.1,1.5
	c-0.1,2,0,4,0.4,6c0,0.2,0.1,0.5,0.1,0.8c0,0.6-0.5,1-1.1,0.9c-1.6-0.1-2.2-2.5-2.4-3.8c-0.8,1.4-2.6,4.7-4.3,4.6
	c-0.4,0-0.7-0.2-0.9-0.3c-1.5-1.3-1.4-3.4-1.4-4.9s0.5-6.8,2.7-6.7c0.7,0,1.4,0.6,1.3,1.3c0,0.9-0.4,2.2-0.5,3.2
	c-0.1,1.2-0.3,2.5-0.3,3.7V28C49.1,27,51,24,51.5,22.6L51.5,22.6z M59.9,24.9c1.1-1.6,3.2-4.3,5.2-4.2c2,0.1,2.3,2.4,2.2,4
	c0,0.5-0.1,1-0.2,1.5c-0.1,1.3-0.2,2.7-0.4,3.9c-0.1,0.6-0.7,1.5-1.6,1.4c-1.3-0.1-1.5-1.4-1.5-2.1c0.1-1.9,0.4-3.7,0.5-5.6v-0.6
	c-0.8,0.1-1.8,1.2-2.8,2.8c-1,1.6-1.8,3.3-2.2,4.1c-0.3,0.6-0.8,1.1-1.6,1c-1.3-0.1-1.8-1.5-1.7-2.6c0.1-1.6,0.9-8.1,3-8
	c1,0,1.3,1.1,1.3,1.7v0.1C60.3,23.1,60.1,24,59.9,24.9L59.9,24.9L59.9,24.9z M70.9,31.6c-1.8-0.1-2.8-1.7-2.7-3.2
	c0.1-1.1,0.6-2.1,1.1-3c1-1.7,2.8-3.9,5.3-3.8c0.4,0,0.8,0.1,1.1,0.3c0.1-0.2,0.2-0.4,0.2-0.5c0.2-0.4,0.6-0.8,1.2-0.8
	s1,0.6,0.9,1.1c0,0.1-0.1,0.3-0.1,0.4s-0.1,0.2-0.1,0.4c-0.2,0.9-0.3,1.9-0.3,2.8l-0.1,2.3c0,1,0,1.8,0.1,2c0,0,0,0.1,0.1,0.1
	l0.1,0.1c0.1,0.1,0.2,0.3,0.2,0.6c0,0.4-0.4,0.8-0.9,0.8c-1.2-0.1-2-1.6-2.2-2.6C74,29.8,72.6,31.6,70.9,31.6L70.9,31.6z M71.4,28.8
	l0.1-0.1c1.6-1,2.7-2.9,3.6-4.6c0,0-0.1,0-0.2,0.1c-1.5,0.3-2.9,2.6-3.4,3.9c-0.1,0.2-0.2,0.4-0.2,0.6
	C71.3,28.7,71.3,28.8,71.4,28.8C71.3,28.9,71.3,28.9,71.4,28.8L71.4,28.8z"/>
<g>
	<g>
		<g>
			<path class="st1" d="M80.8,119.2c-0.8,1.6-2.7,3.7-4.6,3.8c-2.9,0.2-4-2.9-4.1-4.8c-0.2-3.1,1-8.1,5.4-8.3
				c1.2-0.1,2.2,0.4,2.9,1.2c0.1-3.1,0.6-6.2,1.8-9.1c0.1-0.1,0.1-0.3,0.2-0.4c0.1-0.2,0.2-0.3,0.3-0.5c0.2-0.3,0.5-0.6,1-0.6
				c1-0.1,1.2,0.8,1.2,1.3s0,1.1-0.1,1.6c-0.1,0.6-0.1,1-0.2,1.6c-0.3,2.4-0.9,4.7-1.3,7.1c0,0.1,0,0.3,0,0.5
				c0.2,4.1,0.8,10.6,2.8,14.1c0,0.1,0.1,0.3,0.2,0.4c0.4,0.1,0.6,0.4,0.6,0.8c0,0.7-0.6,1.2-1.2,1.2c-0.2,0-0.4-0.1-0.5-0.1
				s-0.3-0.1-0.4-0.1C82.1,127.7,81.1,121.6,80.8,119.2L80.8,119.2z M79.6,113.3c-0.1-0.1-0.2-0.1-0.3-0.2c-0.4-0.3-0.8-0.6-1.2-0.5
				c-2.6,0.1-3.1,3.8-3,5.7c0,0.5,0.2,2,0.9,2c0.3,0,0.7-0.2,0.9-0.4c1.7-1.3,2.7-4,3.3-6.1C80.1,113.7,79.7,113.5,79.6,113.3
				L79.6,113.3z"/>
			<path class="st1" d="M91.6,119.4L91.6,119.4c0.1,0.1,0.2,0.1,0.2,0.2c0.1,0.1,0.1,0.2,0.1,0.4c0,0.7-0.7,1.1-1.2,1.1
				c-2.5,0.1-3.2-3.3-3.3-5.2c-0.1-1.4,0-3.9,0.7-5.2c0.3-0.5,0.7-0.9,1.3-1c0.6,0,1,0.2,1.2,0.6c0.2,0.3,0.3,0.7,0.3,1.1
				c0.1,1.2-0.1,2.3-0.1,3.5c0.1,1.4,0.4,2.8,0.6,4.2C91.4,119.2,91.5,119.3,91.6,119.4C91.5,119.3,91.5,119.4,91.6,119.4
				L91.6,119.4z M90.7,106.3v0.7c0,0.6-0.3,1.1-1.1,1.2c-1.5,0.1-1.9-1.3-2-2.2c0-0.4,0-1,0.2-1.5s0.6-1,1.3-1
				c0.8,0,1.2,0.5,1.2,1.1c0,0.2-0.1,0.5,0,0.8c0,0.1,0.1,0.2,0.1,0.4c0,0.1,0.1,0.2,0.1,0.3C90.7,106.1,90.7,106.2,90.7,106.3
				L90.7,106.3z"/>
			<path class="st1" d="M94.7,118.7c0.7,0,1.4,0.1,2.1,0c-1.4-2.4-3.4-3.3-3.6-6.6c-0.1-1.7,1.4-3,3.1-3c1.6-0.1,2.8,0.7,2.9,2.3
				c0,0.3-0.1,0.9-0.8,0.9c-0.2,0-0.3-0.1-0.5-0.2l-0.1-0.1l-0.1-0.1l-0.1-0.1c-0.1,0-0.2,0-0.3,0c-0.1,0-0.4,0-0.7,0.1
				c-0.1,0-0.2,0-0.2,0.1c-0.6,2.8,3.6,4.6,3.7,7.2c0.1,1.3-0.9,2.2-2.3,2.3c-1.1,0.1-4.1-0.7-4.1-2c0-0.5,0.4-0.9,0.9-1L94.7,118.7
				L94.7,118.7z"/>
			<path class="st1" d="M107.5,118.6c0.4,0,0.8-0.1,1.1-0.2c0.1-0.1,0.3-0.1,0.4-0.2c0.1,0,0.1,0,0.2-0.1h0.2c0.5,0,0.8,0.3,0.8,0.7
				c0,0.2-0.1,0.5-0.2,0.6c-0.8,0.8-2.3,1.2-3.3,1.3c-0.6,0-1.2-0.1-1.9-0.2c-1.9-0.6-3.4-3-3.5-4.9c-0.2-2.9,2.3-6,5.6-6.2
				c1.5-0.1,2.8,0.8,2.9,2.3c0.1,2.5-3.3,4-5.4,4.2C104.5,117.5,105.8,118.6,107.5,118.6z M108.1,111.9c0-0.4-0.3-0.6-0.7-0.6
				c-1.4,0.1-2.6,1.8-3,3C105.5,114.1,108.2,113.2,108.1,111.9L108.1,111.9z"/>
			<path class="st1" d="M115.1,113.2c1-1.7,2.7-4.6,4.8-4.7c2.1-0.1,2.5,2.1,2.6,3.8c0,0.5,0,1,0,1.5c0,1.3,0.1,2.7,0,3.9
				c0,0.6-0.5,1.5-1.4,1.6c-1.3,0.1-1.6-1.3-1.7-1.9c-0.1-1.9,0-3.8-0.1-5.6v-0.6c-0.8,0.2-1.7,1.4-2.5,3c-0.8,1.7-1.4,3.5-1.8,4.3
				c-0.2,0.7-0.7,1.2-1.5,1.2c-1.3,0.1-1.9-1.3-1.9-2.5c-0.1-1.6,0.1-8.2,2.2-8.3c1-0.1,1.4,0.9,1.5,1.5v0.1
				C115.2,111.4,115.1,112.4,115.1,113.2C115,113.3,115,113.2,115.1,113.2z M116,106.1c-0.3,0-0.8-0.1-0.9-0.7
				c0-0.8,1.8-2.2,2.5-2.2c0.3,0,0.6,0.1,0.8,0.2c0.3,0.1,0.5,0.3,0.7,0.4c0.1,0.1,0.2,0.1,0.3,0.2c0.1,0.1,0.2,0.1,0.2,0.2
				c0.2,0.1,0.3,0.1,0.3,0.1l0.1-0.2c0.1-0.1,0.2-0.3,0.3-0.4c0.1-0.1,0.1-0.2,0.2-0.3s0.1-0.2,0.2-0.3c0.1-0.2,0.3-0.4,0.6-0.4
				c0.4,0,0.8,0.3,0.8,0.7c0,0.1,0,0.2-0.1,0.3c-0.3,1-1,2.1-2.2,2.2c-0.8,0-1.6-0.5-2.2-0.9c0,0,0,0-0.1,0s-0.2,0.1-0.3,0.2
				c-0.2,0.2-0.4,0.3-0.5,0.4C116.6,105.9,116.3,106.1,116,106.1L116,106.1z"/>
			<path class="st1" d="M132.8,113.4c0,0.6-0.1,1.2-0.4,1.8c-0.8,1.4-2.9,3.4-4.9,3.5c-2.2,0.1-3.1-1.9-3.2-3.4c0-0.2,0-0.4,0-0.6
				c0.1-1.4,1.3-4.7,3.4-4.8c0.5,0,0.9,0.1,1.3,0.4C130.9,110.2,132.6,111.3,132.8,113.4z M130.6,113.3c0-0.7-1-1.2-1.6-1.2
				l-0.1,0.1l-0.1,0.1c-0.7,0.6-1.3,2-1.3,2.9c0,0.2,0.1,0.4,0.1,0.5l0.1,0.1C128.6,115.9,130.6,114.2,130.6,113.3L130.6,113.3z"/>
		</g>
		<g>
			<path class="st1" d="M81.3,133.4c0.1-0.5,0.3-1.1,1.1-1.2c0.8,0,1.2,0.6,1.2,1.1v0.2c0,0,0,0,0,0.1c0,0.2,0.1,0.5,0.1,0.8
				c0,0.7,0,1.3,0,2c0,2.9-0.1,5.9,0.1,8.8c0.1,1.9,0.3,3.7,0.4,5.5c0,0.6-0.6,1-1,1c-0.7,0-1.1-0.4-1.4-0.9s-0.5-1.2-0.6-1.9
				c-0.2-1.4-0.3-3-0.3-3.6c-0.1-1.4-0.1-2.8,0-4.2c-0.7,1.2-1.6,2.6-2.3,3.1c-0.3,0.3-0.8,0.6-1.4,0.6c-2.5,0.1-3.2-3.2-3.2-5.1
				c0-0.6,0-2,0.2-3.3c0.2-0.6,0.3-1.3,0.6-1.8c0.3-0.5,0.7-0.9,1.3-0.9c0.8,0,1.3,0.5,1.3,1.1c0,0.2,0,0.3,0,0.5
				c-0.3,1.6-0.4,2.8-0.3,4.4c0,0.7,0.2,1.8,0.4,2.4C79.5,140,81.1,136.4,81.3,133.4L81.3,133.4z"/>
			<path class="st1" d="M96.4,147.7c0,0.6-0.4,1-1,1c-0.4,0-0.7-0.2-0.9-0.4c-1.6-1.9-1.9-4.5-2-6.8c-0.1-2.6-0.1-16.1,1.7-17.3
				c0.2-0.1,0.4-0.2,0.6-0.2c0.7,0,1,0.4,1.1,0.8c0.1,0.2,0.1,0.4,0.1,0.7v0.6c0,0.6,0.1,1.1,0.1,1.7c-0.1,4.6-0.6,9.1-0.3,13.7
				c0.1,1.2,0.2,2.4,0.3,3.6C96.2,145.9,96.3,146.8,96.4,147.7L96.4,147.7L96.4,147.7z"/>
			<path class="st1" d="M101.7,142.8c-1.8,0.1-2.9-1.4-3-2.9c-0.1-1.1,0.4-2.1,0.8-3.1c0.8-1.8,2.3-4.1,4.9-4.3c0.4,0,0.8,0,1.1,0.2
				c0.1-0.2,0.1-0.4,0.2-0.6c0.2-0.4,0.5-0.8,1.1-0.9c0.6,0,1,0.5,1,1c0,0.1,0,0.3-0.1,0.4s-0.1,0.2-0.1,0.4c-0.1,0.9-0.1,1.9,0,2.9
				l0.1,2.3c0.1,1,0.2,1.8,0.2,2c0,0,0,0.1,0.1,0.1l0.1,0.1c0.1,0.1,0.3,0.3,0.3,0.5c0,0.4-0.3,0.8-0.8,0.8
				c-1.2,0.1-2.2-1.4-2.4-2.4C104.6,140.7,103.4,142.7,101.7,142.8L101.7,142.8z M101.9,139.9l0.1-0.1c1.5-1.2,2.4-3.1,3.1-5
				c0,0-0.1,0-0.2,0.1c-1.4,0.4-2.7,2.9-3,4.2c-0.1,0.2-0.1,0.4-0.1,0.6C101.8,139.9,101.8,139.9,101.9,139.9
				C101.9,140,101.9,140,101.9,139.9L101.9,139.9z"/>
			<path class="st1" d="M120.1,140.6L120.1,140.6c0.1,0.1,0.2,0.1,0.2,0.2c0.1,0.1,0.1,0.2,0.1,0.4c0,0.7-0.7,1.1-1.2,1.1
				c-2.5,0.1-3.2-3.3-3.3-5.2c-0.1-1.4,0-3.9,0.7-5.2c0.3-0.5,0.7-0.9,1.3-1c0.6,0,1,0.2,1.2,0.6c0.2,0.3,0.2,0.7,0.3,1
				c0.1,1.2-0.1,2.3-0.1,3.5c0.1,1.4,0.4,2.8,0.6,4.2C119.9,140.5,120,140.5,120.1,140.6C120,140.6,120,140.6,120.1,140.6
				L120.1,140.6z M119.3,127.6v0.7c0,0.6-0.3,1.1-1.1,1.1c-1.5,0.1-1.9-1.3-2-2.2c0-0.4,0-1,0.2-1.5s0.6-1,1.3-1
				c0.8,0,1.2,0.5,1.2,1.1c0,0.2-0.1,0.5,0,0.8c0,0.1,0.1,0.2,0.1,0.4c0,0.1,0.1,0.2,0.1,0.3C119.2,127.3,119.3,127.5,119.3,127.6
				L119.3,127.6z"/>
			<path class="st1" d="M126.6,146.1c0,0.6-0.4,1-1,1c-0.4,0-0.7-0.2-0.9-0.4c-1.6-1.9-1.9-4.5-2-6.8c-0.1-2.6-0.1-16.1,1.7-17.3
				c0.2-0.1,0.4-0.2,0.6-0.2c0.7,0,1,0.4,1.1,0.8c0.1,0.2,0.1,0.4,0.1,0.7v0.6c0,0.6,0.1,1.1,0.1,1.7c-0.1,4.6-0.6,9.1-0.3,13.7
				c0.1,1.2,0.2,2.4,0.3,3.6C126.4,144.3,126.5,145.2,126.6,146.1C126.6,146,126.6,146.1,126.6,146.1z"/>
			<path class="st1" d="M135.4,133c0,0,0.1-0.5,0.1-0.6c0.1-0.3,0.1-0.7,0.2-1c0-0.1,0-0.1-0.1-0.2c0-0.7,0.6-1.2,1.2-1.3
				c0.8,0,1.2,0.5,1.2,1.1c0,0.5,0.2,1.1,0.2,1.5c0.1,2,0.4,4,1,5.9c0.1,0.2,0.1,0.5,0.1,0.8c0,0.6-0.4,1-1,1
				c-1.6,0.1-2.5-2.2-2.7-3.6c-0.6,1.5-2.1,5-3.8,5.1c-0.4,0-0.7-0.1-0.9-0.2c-1.7-1.1-1.8-3.2-1.9-4.8s-0.2-6.8,2-6.9
				c0.7,0,1.4,0.5,1.4,1.2c0.1,0.9-0.2,2.2-0.2,3.3c0,1.2,0,2.5,0,3.8v0.6C133.5,137.6,135,134.5,135.4,133L135.4,133z"/>
			<path class="st1" d="M142.2,139c0.7,0,1.4,0.1,2.1,0c-1.4-2.4-3.4-3.3-3.6-6.6c-0.1-1.7,1.4-3,3.1-3c1.6-0.1,2.9,0.7,2.9,2.3
				c0,0.3-0.1,0.9-0.8,0.9c-0.2,0-0.3-0.1-0.5-0.2l-0.1-0.1l-0.1-0.1l-0.1-0.1c-0.1,0-0.1,0-0.3,0c-0.1,0-0.4,0-0.7,0.1
				c-0.1,0-0.2,0-0.2,0.1c-0.6,2.8,3.6,4.6,3.7,7.2c0.1,1.3-0.9,2.2-2.3,2.3c-1.1,0.1-4.1-0.7-4.1-2c0-0.5,0.4-0.9,0.9-1L142.2,139
				L142.2,139z"/>
			<path class="st1" d="M151.8,139.1c-0.2-1.3-0.4-2.7-0.5-4c-0.1,0-0.1,0-0.2,0.1c-0.2,0.1-0.5,0.1-0.7,0.1c-0.3,0-0.5,0-0.8,0
				s-0.9-0.1-0.9-0.7c0-0.4,0.1-0.6,0.5-0.7c0.1,0,0.2-0.1,0.3-0.1h0.2c0.1-0.1,0.1-0.1,0.2-0.1c0.2,0,0.4-0.1,0.5-0.1
				c0.3-0.1,0.6-0.2,0.8-0.2c0-0.7-0.1-1.4-0.1-2c0-0.8-0.1-2.7-0.1-4.5c0.1-1.7,0.2-3.6,0.9-4.2c0.2-0.2,0.5-0.3,0.8-0.3
				c1.1-0.1,1.4,1,1.4,1.6c0,0.3,0,0.5,0,0.7c0,2.4,0.1,4.8,0.2,7.2v0.7c0.8-0.1,1.5-0.3,2.3-0.3c0.2,0,0.5,0,0.8,0.1
				s0.6,0.4,0.6,0.8c0,0.4-0.2,0.7-0.6,0.9c-0.4,0.2-1,0.3-1.6,0.4c-0.4,0.1-0.9,0.1-1.3,0.2c0.1,1.3,0.2,2.6,0.4,3.9
				c0.2,1.1,0.4,2.1,0.6,3.3c0.1,0.2,0.1,0.4,0.1,0.7c0.1,0.2,0.1,0.5,0.2,0.6c0,0.1,0.1,0.1,0.1,0.2c0,0.1,0.1,0.2,0.1,0.3
				c0,0.4-0.4,1-1,1.1C153.2,144.6,152,140.5,151.8,139.1L151.8,139.1z"/>
			<path class="st1" d="M160.3,139.2c-0.1-0.7-0.2-1.4-0.3-1.9c-0.2-1.5-0.6-3-0.6-4.5c0-0.6,0.2-1.5,1.3-1.6s1.6,1.1,1.9,1.9
				c0.1,0.5,0.2,1,0.3,1.4c0.6-1.3,1.9-3.4,3.5-3.5c0.6,0,1.2,0.3,1.2,1c0,0.2,0,0.3-0.1,0.5c0,0.1-0.1,0.2-0.2,0.3l-0.2,0.2
				c-0.7,0.5-1.5,1.1-2,1.9c-0.5,1-1.1,2-1.4,3c-0.1,0.3-0.2,0.7-0.2,1.2c-0.1,0.4-0.1,0.9-0.1,1.3c0,0.6-0.4,1.2-1.2,1.2
				c-0.3,0-0.5-0.1-0.7-0.1c-0.1-0.1-0.1-0.1-0.1-0.2c-0.1,0-0.1-0.1-0.2-0.1C160.7,140.6,160.4,139.9,160.3,139.2L160.3,139.2z"/>
			<path class="st1" d="M171.9,139.2c-1.8,0.1-2.9-1.4-3-2.9c-0.1-1.1,0.4-2.1,0.8-3.1c0.8-1.8,2.4-4.1,4.9-4.3c0.4,0,0.8,0,1.1,0.2
				c0.1-0.2,0.1-0.4,0.2-0.6c0.2-0.4,0.5-0.8,1.1-0.9s1,0.5,1,1c0,0.1,0,0.3-0.1,0.4s-0.1,0.2-0.1,0.4c-0.1,0.9-0.1,1.9,0,2.9
				l0.1,2.3c0.1,1,0.2,1.8,0.2,2c0,0,0,0.1,0.1,0.1l0.1,0.1c0.1,0.1,0.3,0.3,0.3,0.5c0,0.4-0.3,0.8-0.8,0.8
				c-1.2,0.1-2.2-1.4-2.4-2.4C174.7,137.2,173.6,139.1,171.9,139.2L171.9,139.2z M172.1,136.4l0.1-0.1c1.5-1.2,2.4-3.1,3.1-5
				c0,0-0.1,0-0.2,0.1c-1.4,0.4-2.7,2.9-3,4.2c-0.1,0.2-0.1,0.4-0.1,0.6C172,136.3,172,136.4,172.1,136.4
				C172,136.5,172.1,136.5,172.1,136.4L172.1,136.4z"/>
			<path class="st1" d="M185.2,129.9c-1.4,0.4-2,2.7-1.9,4.1c0,0.5,0.2,2,1,1.9c0.7,0,3.4-2.4,3.9-3l0.1-0.1c0,0,0.1-0.1,0.2-0.2
				c0.1-0.1,0.2-0.1,0.4-0.1c0.5,0,0.9,0.4,0.9,0.8c0,0.1-0.1,0.4-0.2,0.5c-0.1,0.2-0.2,0.4-0.3,0.6c-0.3,0.4-0.5,0.8-0.6,0.9
				c-0.9,1.2-2.5,3.2-4.4,3.3c-2.8,0.1-3.9-2.9-4-4.8c-0.1-2.6,1.4-6.6,4.4-6.7c1-0.1,2.3,0.4,2.4,1.6c0,0.2,0,0.5,0,0.7l0,0
				c0.1,0.1,0.3,0.2,0.3,0.5c0,0.4-0.3,0.8-0.7,0.8c-0.5,0-0.8-0.3-0.9-0.6C185.3,130.1,185.2,130,185.2,129.9L185.2,129.9z"/>
			<path class="st1" d="M195.2,136.8L195.2,136.8c0.1,0.1,0.2,0.1,0.2,0.2c0.1,0.1,0.1,0.2,0.1,0.4c0,0.7-0.7,1.1-1.2,1.1
				c-2.5,0.1-3.2-3.3-3.3-5.2c-0.1-1.4,0-3.9,0.7-5.2c0.3-0.5,0.7-0.9,1.3-1c0.6,0,1,0.2,1.2,0.6c0.2,0.3,0.2,0.7,0.3,1
				c0.1,1.2-0.1,2.3-0.1,3.5c0.1,1.4,0.4,2.8,0.6,4.2C195.1,136.6,195.2,136.7,195.2,136.8L195.2,136.8L195.2,136.8z M194.4,123.8
				v0.7c0,0.6-0.3,1.1-1.1,1.2c-1.5,0.1-1.9-1.3-2-2.2c0-0.4,0-1,0.2-1.5s0.6-1,1.3-1c0.8,0,1.2,0.5,1.2,1.1c0,0.2-0.1,0.5,0,0.8
				c0,0.1,0,0.2,0.1,0.4c0,0.1,0.1,0.2,0.1,0.3C194.4,123.5,194.4,123.7,194.4,123.8L194.4,123.8z"/>
			<path class="st1" d="M205.4,132.4c0,0.6-0.1,1.2-0.4,1.8c-0.8,1.4-2.9,3.4-4.9,3.5c-2.2,0.1-3.1-1.9-3.2-3.4c0-0.2,0-0.4,0-0.6
				c0.1-1.4,1.3-4.7,3.4-4.8c0.5,0,0.9,0.1,1.3,0.4C203.6,129.3,205.3,130.4,205.4,132.4L205.4,132.4z M200.6,127.1
				c-0.5,0-1-0.3-1-0.9c0-0.9,2-2.4,2.8-2.4c0.6,0,1,0.3,1.1,0.9c0,0.4-0.2,0.7-0.6,0.8c-0.2,0.2-0.6,0.5-0.9,0.8
				c-0.2,0.2-0.4,0.3-0.6,0.5c-0.1,0.1-0.2,0.1-0.3,0.2C200.8,127,200.7,127.1,200.6,127.1L200.6,127.1z M203.3,132.4
				c0-0.7-1-1.2-1.6-1.2l-0.1,0.1l-0.1,0.1c-0.7,0.6-1.3,2-1.3,2.9c0,0.2,0.1,0.4,0.1,0.5l0.1,0.1
				C201.3,134.9,203.3,133.2,203.3,132.4L203.3,132.4z"/>
			<path class="st1" d="M210.4,131.1c1-1.7,2.7-4.6,4.8-4.7s2.5,2.1,2.6,3.8c0,0.5,0,1,0,1.5c0,1.3,0.1,2.7,0,3.9
				c0,0.6-0.5,1.5-1.4,1.6c-1.3,0.1-1.6-1.3-1.7-1.9c-0.1-1.9,0-3.8-0.1-5.6v-0.6c-0.8,0.2-1.7,1.4-2.5,3s-1.4,3.5-1.8,4.3
				c-0.2,0.7-0.7,1.2-1.5,1.2c-1.4,0.1-1.9-1.3-1.9-2.5c-0.1-1.6,0.1-8.2,2.2-8.3c1-0.1,1.4,0.9,1.5,1.5v0.1
				C210.6,129.3,210.5,130.3,210.4,131.1C210.4,131.2,210.4,131.1,210.4,131.1L210.4,131.1z"/>
		</g>
		<g>
			<path class="st1" d="M98.9,93.2c-1.2,0.3-1.8,2.3-1.8,3.6c0,0.4,0.2,1.7,0.8,1.7c0.7,0,3-2,3.5-2.5l0.1-0.1c0,0,0.1-0.1,0.2-0.1
				c0.1-0.1,0.2-0.1,0.3-0.1c0.4,0,0.8,0.3,0.8,0.7c0,0.1-0.1,0.4-0.2,0.5c-0.1,0.2-0.2,0.4-0.3,0.6c-0.2,0.3-0.5,0.7-0.6,0.8
				c-0.8,1.1-2.3,2.8-4,2.8c-2.5,0.1-3.4-2.6-3.4-4.3c-0.1-2.3,1.4-5.8,4-5.8c0.9,0,2,0.4,2,1.5c0,0.2,0,0.4,0,0.6l0,0
				c0.1,0.1,0.2,0.2,0.2,0.4c0,0.4-0.3,0.7-0.7,0.7c-0.4,0-0.7-0.3-0.8-0.5C99,93.4,99,93.3,98.9,93.2L98.9,93.2z"/>
			<path class="st1" d="M111.3,96.1c0,0.5-0.1,1.1-0.4,1.6c-0.8,1.2-2.7,3-4.4,3c-1.9,0-2.7-1.8-2.7-3.1c0-0.2,0-0.4,0-0.6
				c0.1-1.2,1.3-4.1,3.2-4.2c0.4,0,0.8,0.1,1.1,0.4C109.8,93.2,111.3,94.3,111.3,96.1z M109.4,96c0-0.6-0.8-1.1-1.3-1.1L108,95
				l-0.1,0.1c-0.6,0.5-1.2,1.7-1.2,2.6c0,0.2,0,0.3,0.1,0.5l0.1,0.1C107.6,98.2,109.5,96.8,109.4,96L109.4,96z"/>
			<path class="st1" d="M115.7,95.1c0.9-1.5,2.5-4,4.4-4.1c1.9,0,2.2,1.9,2.2,3.4c0,0.4,0,0.9,0,1.3c0,1.2,0,2.4-0.1,3.5
				c-0.1,0.6-0.5,1.3-1.3,1.3c-1.1,0-1.4-1.2-1.4-1.7c0-1.7,0.1-3.3,0.1-5v-0.5c-0.8,0.2-1.5,1.2-2.3,2.6c-0.7,1.4-1.3,3-1.7,3.8
				c-0.2,0.6-0.7,1-1.3,1c-1.2,0-1.6-1.2-1.7-2.2c0-1.4,0.3-7.2,2.2-7.2c0.9,0,1.2,0.9,1.3,1.4v0.1
				C115.9,93.4,115.8,94.3,115.7,95.1L115.7,95.1z"/>
			<path class="st1" d="M136.7,90.8L136.7,90.8c0.2-0.1,0.5-0.2,0.7-0.2c1.4,0,1.6,1.4,1.6,2.4c0,1.3-0.1,2.7-0.1,4
				c0,0.2,0,0.5,0,0.8s0,0.6,0.1,0.7c0,0,0,0,0,0.1s0.1,0.2,0.1,0.3c0,0.7-0.7,0.9-1.1,0.9c-1.4,0-1.8-1.7-1.8-2.8
				c0-1.6,0.2-3.1,0.3-4.6c-1.4,1-2.7,3.9-3.2,5.4c0,0.2-0.1,0.4-0.1,0.6c-0.1,0.3-0.2,0.5-0.3,0.7c-0.2,0.5-0.6,1-1.3,1
				c-0.5,0-1.2-0.6-1.4-1c-0.8-1.5-1.1-4.3-1.2-5.8c-0.1-2.5,0.4-5,1-7.4c0.1-0.3,0.3-0.8,0.5-1.3s0.7-0.9,1.3-0.9
				c1,0,1.2,0.8,1.2,1.3c0,0.3-0.1,0.6-0.1,0.8c-0.8,3-1.1,5.6-1.1,8.7c0,0.9,0.1,1.8,0.2,2.7C132.8,95.4,134.8,91.6,136.7,90.8
				L136.7,90.8z"/>
			<path class="st1" d="M143.1,99.9c-1.6,0-2.6-1.3-2.6-2.7c0-1,0.4-1.9,0.8-2.7c0.7-1.6,2.2-3.6,4.4-3.7c0.3,0,0.7,0.1,1,0.2
				c0.1-0.2,0.1-0.3,0.2-0.5c0.1-0.3,0.4-0.7,1-0.7s0.9,0.4,0.9,0.9c0,0.1,0,0.3-0.1,0.4s-0.1,0.2-0.1,0.3c-0.1,0.8-0.1,1.7-0.1,2.5
				l0.1,2.1c0.1,0.9,0.1,1.6,0.2,1.7c0,0,0,0.1,0.1,0.1L149,98c0.1,0.1,0.2,0.2,0.2,0.5c0,0.4-0.3,0.7-0.7,0.7
				c-1.1,0-1.9-1.2-2.1-2.2C145.7,98.2,144.7,99.9,143.1,99.9L143.1,99.9z M143.4,97.4l0.1-0.1c1.4-1,2.2-2.7,2.9-4.3
				c0,0-0.1,0-0.2,0.1c-1.3,0.3-2.4,2.5-2.8,3.7c-0.1,0.2-0.1,0.4-0.1,0.6C143.3,97.3,143.3,97.4,143.4,97.4
				C143.3,97.5,143.4,97.5,143.4,97.4z"/>
			<path class="st1" d="M152.1,101c-0.1-0.3-0.2-0.6-0.3-0.7c-0.8-1.6-0.9-5.2-0.9-7c0-2,0.1-6.6,1.2-8.4c0.2-0.3,0.5-0.5,1-0.5
				c0.7,0,1.2,0.5,1.2,1.1s-0.1,1.3-0.2,1.9c-0.2,1.9-0.3,3.8-0.3,5.8v0.5c0.6-2,1.8-3.1,3.9-3.2c2.1-0.1,3.3,1.5,3.3,3.2
				c0.1,2.8-2.7,6.8-6,6.8c-0.1,0-0.3,0-0.4,0c0,0.3,0.1,0.7,0.1,1c0,0.5-0.4,0.9-0.9,0.9c-0.4,0-0.6-0.1-0.7-0.3L153,102
				c0,0,0-0.1-0.1-0.1c0-0.1-0.1-0.1-0.1-0.2l-0.1-0.1l-0.1-0.1c0,0,0,0-0.1-0.1C152.4,101.5,152.2,101.3,152.1,101L152.1,101z
				 M158.3,93.7c0-0.4-0.1-0.7-0.4-1c-0.3-0.2-0.9-0.4-1.1-0.4c-0.2,0-0.5,0-0.6,0.1c-1.1,0.8-1.5,4.5-1.6,5.9
				C156.4,97.9,158.3,95.6,158.3,93.7L158.3,93.7z"/>
			<path class="st1" d="M166.2,98.3L166.2,98.3c0.1,0.1,0.1,0.1,0.2,0.2c0.1,0.1,0.1,0.2,0.1,0.4c0,0.6-0.6,0.9-1.1,0.9
				c-2.2,0.1-2.7-3-2.8-4.7c0-1.2,0.1-3.5,0.7-4.6c0.3-0.4,0.6-0.8,1.2-0.8c0.5,0,0.8,0.2,1.1,0.6c0.2,0.2,0.2,0.6,0.2,0.9
				c0,1-0.2,2-0.2,3.1c0,1.3,0.3,2.4,0.4,3.7C166.1,98.1,166.1,98.2,166.2,98.3C166.1,98.3,166.1,98.3,166.2,98.3L166.2,98.3z
				 M165.8,86.7v0.7c0,0.5-0.3,1-1,1c-1.3,0-1.7-1.2-1.7-2c0-0.3,0.1-0.9,0.3-1.3c0.1-0.4,0.5-0.8,1.2-0.9c0.7,0,1,0.5,1.1,1
				c0,0.2-0.1,0.4-0.1,0.7c0,0.1,0,0.2,0.1,0.3c0,0.1,0.1,0.2,0.1,0.3C165.7,86.5,165.8,86.6,165.8,86.7L165.8,86.7z"/>
			<path class="st1" d="M171.8,103.4c0,0.5-0.4,0.9-0.9,0.9c-0.4,0-0.6-0.2-0.8-0.4c-1.3-1.7-1.6-4-1.6-6.1
				c-0.1-2.3,0.3-14.2,1.9-15.2c0.2-0.1,0.4-0.1,0.5-0.1c0.6,0,0.9,0.4,1,0.8c0.1,0.2,0.1,0.4,0.1,0.6v0.5c0,0.5,0,1,0,1.5
				c-0.2,4-0.7,8.1-0.6,12.1c0,1.1,0.1,2.1,0.2,3.2C171.7,101.9,171.7,102.7,171.8,103.4C171.8,103.2,171.8,103.4,171.8,103.4z"/>
			<path class="st1" d="M177.9,98.1L177.9,98.1c0.1,0.1,0.1,0.1,0.2,0.2c0.1,0.1,0.1,0.2,0.1,0.4c0,0.6-0.6,0.9-1.1,0.9
				c-2.2,0.1-2.7-3-2.8-4.7c0-1.2,0.1-3.5,0.7-4.6c0.3-0.4,0.6-0.8,1.2-0.8c0.5,0,0.8,0.2,1.1,0.6c0.2,0.2,0.2,0.6,0.2,0.9
				c0,1-0.2,2-0.2,3.1c0,1.3,0.3,2.4,0.4,3.7C177.8,97.9,177.9,98,177.9,98.1C177.9,98,177.9,98.1,177.9,98.1L177.9,98.1z
				 M177.5,86.5v0.7c0,0.5-0.3,1-1,1c-1.3,0-1.7-1.2-1.7-2c0-0.3,0.1-0.9,0.3-1.3c0.1-0.4,0.5-0.8,1.2-0.9c0.7,0,1,0.5,1.1,1
				c0,0.2-0.1,0.4-0.1,0.7c0,0.1,0,0.2,0.1,0.3c0,0.1,0.1,0.2,0.1,0.3C177.5,86.2,177.5,86.4,177.5,86.5L177.5,86.5z"/>
			<path class="st1" d="M187.5,97.2c-0.8,1.4-2.4,3.2-4.2,3.2c-2.6,0.1-3.5-2.7-3.5-4.4c-0.1-2.7,1.1-7.2,5-7.2
				c1.1,0,1.9,0.4,2.5,1.1c0.2-2.8,0.7-5.5,1.9-8c0.1-0.1,0.1-0.2,0.1-0.4c0.1-0.2,0.1-0.3,0.2-0.4c0.2-0.3,0.4-0.5,0.9-0.5
				c0.9,0,1.1,0.8,1.1,1.2c0,0.4,0,0.9-0.1,1.4s-0.1,0.9-0.2,1.4c-0.4,2.1-0.9,4.1-1.3,6.2c0,0.1,0,0.3,0,0.4
				c0.1,3.7,0.4,9.4,2.1,12.6c0,0.1,0.1,0.3,0.1,0.3c0.3,0.1,0.5,0.4,0.5,0.8c0,0.6-0.5,1.1-1.1,1.1c-0.2,0-0.3-0.1-0.4-0.1
				c-0.1,0-0.2-0.1-0.3-0.1C188.3,104.8,187.7,99.4,187.5,97.2L187.5,97.2z M186.6,92c-0.1-0.1-0.2-0.1-0.2-0.2
				c-0.3-0.2-0.7-0.5-1-0.5c-2.3,0.1-2.8,3.3-2.8,5c0,0.4,0.1,1.8,0.8,1.8c0.3,0,0.6-0.1,0.8-0.3c1.6-1.1,2.5-3.5,3.1-5.3
				C187,92.3,186.7,92.1,186.6,92L186.6,92z"/>
			<path class="st1" d="M195.8,98.7c-1.6,0-2.6-1.3-2.6-2.7c0-1,0.4-1.9,0.8-2.7c0.7-1.6,2.2-3.6,4.4-3.7c0.3,0,0.7,0.1,1,0.2
				c0.1-0.2,0.1-0.3,0.2-0.5c0.1-0.3,0.4-0.7,1-0.7s0.9,0.4,0.9,0.9c0,0.1,0,0.3-0.1,0.4s-0.1,0.2-0.1,0.3c-0.1,0.8-0.1,1.7-0.1,2.5
				l0.1,2.1c0.1,0.9,0.1,1.6,0.2,1.7c0,0,0,0.1,0.1,0.1l0.1,0.1c0.1,0.1,0.2,0.2,0.2,0.5c0,0.4-0.3,0.7-0.7,0.7
				c-1.1,0-1.9-1.2-2.1-2.2C198.3,97,197.3,98.7,195.8,98.7L195.8,98.7z M196,96.2L196,96.2c1.5-1.1,2.3-2.8,3-4.4
				c0,0-0.1,0-0.2,0.1c-1.3,0.3-2.4,2.5-2.8,3.7c-0.1,0.2-0.1,0.4-0.1,0.6C195.9,96.1,195.9,96.2,196,96.2
				C196,96.3,196,96.3,196,96.2z"/>
			<path class="st1" d="M211,96.7c-0.8,1.4-2.4,3.2-4.2,3.2c-2.6,0.1-3.5-2.7-3.5-4.4c-0.1-2.7,1.1-7.2,5-7.2c1.1,0,1.9,0.4,2.5,1.1
				c0.2-2.8,0.7-5.5,1.9-8c0.1-0.1,0.1-0.2,0.1-0.4c0.1-0.2,0.2-0.3,0.2-0.4c0.2-0.3,0.4-0.5,0.9-0.5c0.9,0,1.1,0.8,1.1,1.2
				c0,0.4,0,0.9-0.1,1.4s-0.1,0.9-0.2,1.4c-0.4,2.1-0.9,4.1-1.3,6.2c0,0.1,0,0.3,0,0.4c0.1,3.7,0.4,9.4,2.1,12.6
				c0,0.1,0.1,0.3,0.1,0.3c0.3,0.1,0.5,0.4,0.5,0.8c0,0.6-0.5,1-1.1,1.1c-0.2,0-0.3-0.1-0.4-0.1c-0.1,0-0.2-0.1-0.3-0.1
				C211.9,104.2,211.2,98.9,211,96.7L211,96.7z M210.1,91.4c-0.1-0.1-0.2-0.1-0.2-0.2c-0.3-0.2-0.7-0.5-1-0.5
				c-2.3,0.1-2.8,3.3-2.8,5c0,0.4,0.1,1.8,0.8,1.8c0.3,0,0.6-0.1,0.8-0.3c1.6-1.1,2.5-3.5,3.1-5.3C210.5,91.8,210.2,91.6,210.1,91.4
				L210.1,91.4z"/>
			<path class="st1" d="M222.1,97.1c0.4,0,0.7-0.1,1-0.2c0.1-0.1,0.3-0.1,0.4-0.1c0.1,0,0.1,0,0.2-0.1h0.2c0.4,0,0.7,0.3,0.7,0.7
				c0,0.2-0.1,0.4-0.2,0.6c-0.7,0.7-2,1.1-3,1.1c-0.5,0-1.1-0.1-1.6-0.2c-1.7-0.6-3-2.7-3-4.4c-0.1-2.6,2.2-5.2,5.1-5.3
				c1.4,0,2.4,0.8,2.5,2.1c0.1,2.2-3,3.5-4.9,3.6C219.6,96.1,220.6,97.1,222.1,97.1L222.1,97.1z M222.9,91.2c0-0.3-0.2-0.5-0.6-0.5
				c-1.3,0-2.3,1.5-2.7,2.6C220.5,93.1,222.9,92.4,222.9,91.2z"/>
			<path class="st1" d="M226.9,96.6c0.6,0,1.2,0.1,1.8,0.1c-1.1-2.1-3-3-3-5.9c0-1.5,1.3-2.6,2.8-2.6c1.4,0,2.5,0.7,2.5,2.1
				c0,0.3-0.1,0.8-0.7,0.8c-0.2,0-0.3-0.1-0.4-0.2l-0.1-0.1l-0.1-0.1l-0.1-0.1c-0.1,0-0.1,0-0.3,0c-0.1,0-0.4,0-0.6,0.1
				c-0.1,0-0.2,0-0.2,0.1c-0.6,2.5,3.1,4.1,3.1,6.4c0,1.2-0.9,2-2.1,2c-0.9,0-3.6-0.7-3.6-1.9C225.9,96.9,226.3,96.5,226.9,96.6
				L226.9,96.6L226.9,96.6z"/>
		</g>
		<g>
			<path class="st1" d="M20.4,122.6c0,0.6-0.7,1-1.2,1.1c-0.6,0-1.1-0.5-1.4-1c-1.1-2.2-1.4-5.4-1.5-7.8c0-1.5-0.1-5.8,0.5-6.9
				c0.2-0.4,0.6-0.7,1.2-0.7c1.2,0,1.4,1.1,1.5,2.1c0,1.1,0,2.1,0.1,3.2c0.4-1.2,1-2.3,1.6-3.4c0.2-0.4,0.6-1,1.1-1.6
				c0.5-0.4,1.1-1,1.8-1c1.9-0.1,2.6,2.1,2.6,3.3c0.1,3.2-2.5,7-6.3,7.1c-0.1,0-0.1,0-0.2,0c-0.1,0.9-0.2,2-0.2,2.9
				c0,0.4,0.1,2.2,0.3,2.5C20.4,122.4,20.4,122.5,20.4,122.6L20.4,122.6z M23.8,108.7c0-0.1,0-0.2,0-0.3c-1.4,1-2.7,4.3-3,5.9
				C22.6,112.9,23.9,111.2,23.8,108.7z"/>
			<path class="st1" d="M31,115.5c-1.8,0.1-2.9-1.4-3-3c0-1.1,0.4-2.1,0.9-3.1c0.8-1.8,2.4-4.1,5-4.2c0.4,0,0.8,0.1,1.1,0.2
				c0.1-0.2,0.1-0.4,0.2-0.6c0.2-0.4,0.5-0.8,1.1-0.8s1,0.5,1,1c0,0.2,0,0.3-0.1,0.4c0,0.1-0.1,0.2-0.1,0.4
				c-0.2,0.9-0.1,1.9-0.1,2.8l0.1,2.3c0.1,1,0.2,1.8,0.2,2c0,0,0,0.1,0.1,0.1l0.1,0.1c0.1,0.1,0.3,0.3,0.3,0.5
				c0,0.4-0.3,0.8-0.8,0.8c-1.2,0-2.2-1.4-2.4-2.4C33.9,113.5,32.7,115.4,31,115.5L31,115.5z M31.3,112.7l0.1-0.1
				c1.5-1.2,2.4-3.1,3.2-4.9c0,0-0.1,0-0.2,0.1c-1.5,0.4-2.7,2.9-3.1,4.2c-0.1,0.2-0.1,0.4-0.1,0.6
				C31.2,112.6,31.2,112.6,31.3,112.7C31.2,112.7,31.3,112.7,31.3,112.7z"/>
			<path class="st1" d="M40,114.6c-0.1-0.7-0.2-1.4-0.2-1.9c-0.2-1.5-0.5-3-0.5-4.5c0-0.6,0.2-1.5,1.3-1.5s1.5,1.1,1.8,2
				c0.1,0.5,0.2,1,0.3,1.4c0.7-1.3,2-3.4,3.6-3.4c0.6,0,1.2,0.3,1.2,1c0,0.2,0,0.3-0.1,0.5c0,0.1-0.1,0.2-0.2,0.3l-0.2,0.2
				c-0.7,0.5-1.5,1.1-2,1.9c-0.5,1-1.1,1.9-1.5,2.9c-0.1,0.3-0.2,0.7-0.2,1.2c-0.1,0.4-0.1,0.9-0.1,1.3c0,0.6-0.5,1.2-1.2,1.2
				c-0.3,0-0.5-0.1-0.7-0.2c-0.1-0.1-0.2-0.1-0.2-0.2c-0.1,0-0.1-0.1-0.2-0.1C40.3,116,40.1,115.3,40,114.6z"/>
			<path class="st1" d="M51.5,114.8c-1.8,0.1-2.9-1.4-3-3c0-1.1,0.4-2.1,0.8-3.1c0.8-1.8,2.4-4.1,5-4.2c0.4,0,0.8,0.1,1.1,0.2
				c0.1-0.2,0.1-0.4,0.2-0.6c0.2-0.4,0.5-0.8,1.1-0.8s1,0.5,1,1c0,0.2,0,0.3-0.1,0.4c0,0.1-0.1,0.2-0.1,0.4
				c-0.2,0.9-0.1,1.9-0.1,2.8l0.1,2.3c0.1,1,0.2,1.8,0.2,2c0,0,0,0.1,0.1,0.1l0.1,0.1c0.1,0.1,0.3,0.3,0.3,0.5
				c0,0.4-0.3,0.8-0.8,0.8c-1.2,0-2.2-1.4-2.4-2.4C54.4,112.8,53.2,114.8,51.5,114.8L51.5,114.8z M51.8,112L51.8,112
				c1.6-1.3,2.6-3.2,3.3-5c0,0-0.1,0-0.2,0.1c-1.5,0.4-2.7,2.9-3.1,4.2c-0.1,0.2-0.1,0.4-0.1,0.6C51.7,111.9,51.7,112,51.8,112
				C51.7,112.1,51.8,112.1,51.8,112z"/>
		</g>
		<g>
			<path class="st1" d="M59.4,127.8c0.4-0.1,0.7-0.2,1-0.4c0.1-0.1,0.3-0.2,0.4-0.2c0.1-0.1,0.1-0.1,0.2-0.1h0.2
				c0.5-0.1,0.8,0.3,0.9,0.6c0,0.2-0.1,0.5-0.1,0.7c-0.7,0.9-2.1,1.5-3.1,1.7c-0.6,0.1-1.2,0.1-1.9,0c-2-0.4-3.8-2.5-4.1-4.3
				c-0.5-2.9,1.5-6.2,4.8-6.8c1.5-0.3,2.9,0.4,3.1,1.9c0.5,2.4-2.7,4.4-4.8,4.9C56.3,127.2,57.7,128.1,59.4,127.8L59.4,127.8z
				 M59.1,121.1c-0.1-0.4-0.4-0.6-0.7-0.5c-1.4,0.3-2.3,2.1-2.6,3.3C56.8,123.6,59.3,122.4,59.1,121.1z"/>
			<path class="st1" d="M68.7,132c0.1,0.5-0.2,1.1-0.9,1.2c-0.4,0.1-0.7-0.1-0.9-0.3c-1.8-1.7-2.5-4.2-2.9-6.5
				c-0.5-2.6-2.2-15.9-0.6-17.4c0.2-0.1,0.4-0.2,0.5-0.2c0.7-0.1,1,0.3,1.2,0.7c0.1,0.2,0.2,0.4,0.2,0.6l0.1,0.5
				c0.1,0.5,0.2,1.1,0.3,1.7c0.5,4.6,0.6,9.1,1.5,13.6c0.2,1.2,0.5,2.3,0.8,3.5c0.2,0.8,0.4,1.7,0.7,2.5L68.7,132L68.7,132z"/>
		</g>
	</g>
	<g>
		<g>
			<path class="st1" d="M0.8,22.5c0-0.4,0.5-0.9,1-0.9c0.3,0,0.5,0.2,0.6,0.4l0.3,0.3c1.5,1.4,4.1,2,6.1,2.1
				c1.8,0.1,4.2-0.3,5.3-1.7c0.3-0.5,0.6-0.9,0.6-1.4c0-0.8-0.6-1.4-1.7-2.1c-1.1-0.8-2.6-1.4-4.2-2.2c-3.1-1.6-6.3-3.9-6.1-8.2
				C3,4,6.9,0.6,11.6,0.9c2,0.1,3.8,1.2,3.7,3.4c-0.1,1.5-1,3.5-2.4,4.3c-0.1,0-0.3,0.1-0.4,0.2c-0.1,0.1-0.2,0.1-0.3,0.1
				c0,0-0.1,0-0.1,0.1c0,0-0.1,0-0.2,0c-0.5,0-0.7-0.5-0.7-0.8s0.2-0.5,0.4-0.6s0.3-0.2,0.5-0.3c1-0.7,1.7-1.9,1.7-3.1
				c0.1-1-0.6-1.5-1.7-1.5c-0.6,0-1.2,0-1.7,0.2C7.5,3.7,6.1,6.1,6,8.9c-0.2,3,2.7,4.4,5.8,6c0.8,0.4,1.5,0.8,2.3,1.2
				c2.1,1.2,4,2.6,3.9,5.3c-0.1,1.1-0.7,2.4-1.5,3.3c-1.8,2.1-4.9,2.7-7.5,2.6c-3.1-0.1-6.5-1.5-8-4.3C0.8,22.8,0.8,22.7,0.8,22.5
				L0.8,22.5z"/>
			<path class="st1" d="M27.9,21.4c0,0.6-0.2,1.2-0.6,1.7c-1,1.3-3.2,3.1-5.2,3c-2.2-0.1-2.9-2.2-2.8-3.7c0-0.2,0-0.4,0.1-0.6
				c0.2-1.3,1.8-4.6,3.9-4.4c0.5,0,0.9,0.2,1.2,0.5C26.4,18.1,28,19.4,27.9,21.4L27.9,21.4z M25.7,21.1c0-0.7-0.9-1.3-1.4-1.4
				l-0.1,0.1l-0.1,0.1c-0.8,0.5-1.5,1.9-1.6,2.8c0,0.2,0,0.4,0,0.5l0.1,0.1C23.6,23.5,25.7,22,25.7,21.1L25.7,21.1z"/>
			<path class="st1" d="M37.2,16.5c0.1-0.5,0.5-1.1,1.2-1.1c0.8,0,1.1,0.8,1.1,1.3V17c0,0,0,0,0,0.1c0,0.2,0,0.5,0,0.8
				c0,0.7-0.1,1.3-0.2,2c-0.3,2.9-0.7,5.8-0.8,8.8c-0.1,1.9-0.1,3.7-0.2,5.5c0,0.6-0.7,0.9-1.1,0.9c-0.7,0-1.1-0.5-1.3-1
				c-0.2-0.6-0.3-1.3-0.4-2c-0.1-1.4,0-3,0-3.6c0.1-1.4,0.2-2.8,0.4-4.1c-0.8,1.1-1.9,2.4-2.6,2.9c-0.4,0.3-0.9,0.5-1.5,0.5
				c-2.5-0.1-2.8-3.5-2.7-5.4c0-0.5,0.2-2,0.5-3.3c0.2-0.6,0.5-1.2,0.8-1.7s0.8-0.8,1.4-0.8c0.8,0,1.2,0.6,1.2,1.3
				c0,0.2,0,0.3-0.1,0.5c-0.5,1.5-0.7,2.7-0.8,4.3c0,0.7,0,1.8,0.2,2.5C34.7,23,36.7,19.5,37.2,16.5L37.2,16.5z"/>
		</g>
		<path class="st1" d="M52.2,21.7l0.1-0.5c0.1-0.3,0.2-0.6,0.3-0.9c0-0.1,0-0.1,0-0.2c0-0.7,0.7-1.2,1.4-1.1c0.8,0,1.1,0.6,1.1,1.2
			c0,0.5,0.1,1.1,0.1,1.5c-0.1,2,0,4,0.4,6c0,0.2,0.1,0.5,0.1,0.8c0,0.6-0.5,1-1.1,0.9c-1.6-0.1-2.2-2.5-2.4-3.8
			c-0.8,1.4-2.6,4.7-4.3,4.6c-0.4,0-0.7-0.2-0.9-0.3c-1.5-1.3-1.4-3.4-1.4-4.9s0.5-6.8,2.7-6.7c0.7,0,1.4,0.6,1.3,1.3
			c0,0.9-0.4,2.2-0.5,3.2c-0.1,1.2-0.3,2.5-0.3,3.7v0.6C49.9,26.1,51.8,23.1,52.2,21.7L52.2,21.7z"/>
		<path class="st1" d="M60.7,24c1.1-1.6,3.2-4.3,5.2-4.2s2.3,2.4,2.2,4c0,0.5-0.1,1-0.2,1.5c-0.1,1.3-0.2,2.7-0.4,3.9
			c-0.1,0.6-0.7,1.5-1.6,1.4c-1.3-0.1-1.5-1.4-1.5-2.1c0.1-1.9,0.4-3.7,0.5-5.6v-0.6c-0.8,0.1-1.8,1.2-2.8,2.8
			c-1,1.6-1.8,3.3-2.2,4.1c-0.3,0.6-0.8,1.1-1.6,1c-1.3-0.1-1.8-1.5-1.7-2.6c0.1-1.6,0.9-8.1,3-8c1,0,1.3,1.1,1.3,1.7v0.1
			C61,22.2,60.8,23.2,60.7,24C60.7,24.1,60.7,24.1,60.7,24L60.7,24z"/>
		<path class="st1" d="M71.7,30.7c-1.8-0.1-2.8-1.7-2.7-3.2c0.1-1.1,0.6-2.1,1.1-3c1-1.7,2.8-3.9,5.3-3.8c0.4,0,0.8,0.1,1.1,0.3
			c0.1-0.2,0.2-0.4,0.2-0.5c0.2-0.4,0.6-0.8,1.2-0.8s1,0.6,0.9,1.1c0,0.1-0.1,0.3-0.1,0.4s-0.1,0.2-0.1,0.4
			c-0.2,0.9-0.3,1.9-0.3,2.8l-0.1,2.3c0,1,0,1.8,0.1,2c0,0,0,0.1,0.1,0.1l0.1,0.1c0.1,0.1,0.2,0.3,0.2,0.6c0,0.4-0.4,0.8-0.9,0.8
			c-1.2-0.1-2-1.6-2.2-2.6C74.7,29,73.4,30.8,71.7,30.7L71.7,30.7z M72.2,28l0.1-0.1c1.6-1,2.7-2.9,3.6-4.6c0,0-0.1,0-0.2,0.1
			c-1.5,0.3-2.9,2.6-3.4,3.9c-0.1,0.2-0.2,0.4-0.2,0.6C72,27.8,72,27.9,72.2,28C72.1,28,72.1,28,72.2,28L72.2,28z"/>
	</g>
</g>
<g>
	<g>
		<path class="st0" d="M81.3,118.4c-0.8,1.6-2.7,3.7-4.6,3.8c-2.9,0.2-4-2.9-4.1-4.8c-0.2-3.1,1-8.1,5.4-8.3
			c1.2-0.1,2.2,0.4,2.9,1.2c0.1-3.1,0.6-6.2,1.8-9.1c0.1-0.1,0.1-0.3,0.2-0.4c0.1-0.2,0.2-0.3,0.3-0.5c0.2-0.3,0.5-0.6,1-0.6
			c1-0.1,1.2,0.8,1.2,1.3s0,1.1-0.1,1.6c-0.1,0.6-0.1,1-0.2,1.6c-0.3,2.4-0.9,4.7-1.3,7.1c0,0.1,0,0.3,0,0.5
			c0.2,4.1,0.8,10.6,2.8,14.1c0,0.1,0.1,0.3,0.2,0.4c0.4,0.1,0.6,0.4,0.6,0.8c0,0.7-0.6,1.2-1.2,1.2c-0.2,0-0.4-0.1-0.5-0.1
			s-0.3-0.1-0.4-0.1C82.5,126.9,81.6,120.8,81.3,118.4L81.3,118.4z M80.1,112.4c-0.1-0.1-0.2-0.1-0.3-0.2c-0.4-0.3-0.8-0.6-1.2-0.5
			c-2.6,0.1-3.1,3.8-3,5.7c0,0.5,0.2,2,0.9,2c0.3,0,0.7-0.2,0.9-0.4c1.7-1.3,2.7-4,3.3-6.1C80.5,112.8,80.2,112.6,80.1,112.4
			L80.1,112.4z"/>
		<path class="st0" d="M92,118.5L92,118.5c0.1,0.1,0.2,0.1,0.2,0.2c0.1,0.1,0.1,0.2,0.1,0.4c0,0.7-0.7,1.1-1.2,1.1
			c-2.5,0.1-3.2-3.3-3.3-5.2c-0.1-1.4,0-3.9,0.7-5.2c0.3-0.5,0.7-0.9,1.3-1c0.6,0,1,0.2,1.2,0.6c0.2,0.3,0.3,0.7,0.3,1.1
			c0.1,1.2-0.1,2.3-0.1,3.5c0.1,1.4,0.4,2.8,0.6,4.2C91.9,118.3,91.9,118.4,92,118.5L92,118.5L92,118.5z M91.2,105.4v0.7
			c0,0.6-0.3,1.1-1.1,1.2c-1.5,0.1-1.9-1.3-2-2.2c0-0.4,0-1,0.2-1.5s0.6-1,1.3-1c0.8,0,1.2,0.5,1.2,1.1c0,0.2-0.1,0.5,0,0.8
			c0,0.1,0.1,0.2,0.1,0.4c0,0.1,0.1,0.2,0.1,0.3C91.2,105.2,91.2,105.4,91.2,105.4L91.2,105.4z"/>
		<path class="st0" d="M95.2,117.9c0.7,0,1.4,0.1,2.1,0c-1.4-2.4-3.4-3.3-3.6-6.6c-0.1-1.7,1.4-3,3.1-3c1.6-0.1,2.8,0.7,2.9,2.3
			c0,0.3-0.1,0.9-0.8,0.9c-0.2,0-0.3-0.1-0.5-0.2l-0.1-0.1l-0.1-0.1l-0.1-0.1c-0.1,0-0.2,0-0.3,0c-0.1,0-0.4,0-0.7,0.1
			c-0.1,0-0.2,0-0.2,0.1c-0.6,2.8,3.6,4.6,3.7,7.2c0.1,1.3-0.9,2.2-2.3,2.3c-1.1,0.1-4.1-0.7-4.1-2c0-0.5,0.4-0.9,0.9-1L95.2,117.9
			L95.2,117.9z"/>
		<path class="st0" d="M107.9,117.7c0.4,0,0.8-0.1,1.1-0.2c0.1-0.1,0.3-0.1,0.4-0.2c0.1,0,0.1,0,0.2-0.1h0.2c0.5,0,0.8,0.3,0.8,0.7
			c0,0.2-0.1,0.5-0.2,0.6c-0.8,0.8-2.3,1.2-3.3,1.3c-0.6,0-1.2-0.1-1.9-0.2c-1.9-0.6-3.4-3-3.5-4.9c-0.2-2.9,2.3-6,5.6-6.2
			c1.5-0.1,2.8,0.8,2.9,2.3c0.1,2.5-3.3,4-5.4,4.2C105,116.7,106.2,117.8,107.9,117.7z M108.6,111.1c0-0.4-0.3-0.6-0.7-0.6
			c-1.4,0.1-2.6,1.8-3,3C105.9,113.2,108.6,112.3,108.6,111.1L108.6,111.1z"/>
		<path class="st0" d="M115.5,112.4c1-1.7,2.7-4.6,4.8-4.7c2.1-0.1,2.5,2.1,2.6,3.8c0,0.5,0,1,0,1.5c0,1.3,0.1,2.7,0,3.9
			c0,0.6-0.5,1.5-1.4,1.6c-1.3,0.1-1.6-1.3-1.7-1.9c-0.1-1.9,0-3.8-0.1-5.6v-0.6c-0.8,0.2-1.7,1.4-2.5,3c-0.8,1.7-1.4,3.5-1.8,4.3
			c-0.2,0.7-0.7,1.2-1.5,1.2c-1.3,0.1-1.9-1.3-1.9-2.5c-0.1-1.6,0.1-8.2,2.2-8.3c1-0.1,1.4,0.9,1.5,1.5v0.1
			C115.7,110.5,115.6,111.5,115.5,112.4L115.5,112.4z M116.4,105.2c-0.3,0-0.8-0.1-0.9-0.7c0-0.8,1.8-2.2,2.5-2.2
			c0.3,0,0.6,0.1,0.8,0.2c0.3,0.1,0.5,0.3,0.7,0.4c0.1,0.1,0.2,0.1,0.3,0.2c0.1,0.1,0.2,0.1,0.2,0.2c0.2,0.1,0.3,0.1,0.3,0.1
			l0.1-0.2c0.1-0.1,0.2-0.3,0.3-0.4c0.1-0.1,0.1-0.2,0.2-0.3s0.1-0.2,0.2-0.3c0.1-0.2,0.3-0.4,0.6-0.4c0.4,0,0.8,0.3,0.8,0.7
			c0,0.1,0,0.2-0.1,0.3c-0.3,1-1,2.1-2.2,2.2c-0.8,0-1.6-0.5-2.2-0.9c0,0,0,0-0.1,0s-0.2,0.1-0.3,0.2c-0.2,0.2-0.4,0.3-0.5,0.4
			C117.1,105.1,116.7,105.2,116.4,105.2L116.4,105.2z"/>
		<path class="st0" d="M133.2,112.6c0,0.6-0.1,1.2-0.4,1.8c-0.8,1.4-2.9,3.4-4.9,3.5c-2.2,0.1-3.1-1.9-3.2-3.4c0-0.2,0-0.4,0-0.6
			c0.1-1.4,1.3-4.7,3.4-4.8c0.5,0,0.9,0.1,1.3,0.4C131.4,109.4,133.1,110.5,133.2,112.6z M131.1,112.5c0-0.7-1-1.2-1.6-1.2l-0.1,0.1
			l-0.1,0.1c-0.7,0.6-1.3,2-1.3,2.9c0,0.2,0.1,0.4,0.1,0.5l0.1,0.1C129.1,115,131.1,113.3,131.1,112.5L131.1,112.5z"/>
	</g>
	<g>
		<path class="st0" d="M81.8,132.5c0.1-0.5,0.3-1.1,1.1-1.2c0.8,0,1.2,0.6,1.2,1.1v0.2c0,0,0,0,0,0.1c0,0.2,0.1,0.5,0.1,0.8
			c0,0.7,0,1.3,0,2c0,2.9-0.1,5.9,0.1,8.8c0.1,1.9,0.3,3.7,0.4,5.5c0,0.6-0.6,1-1,1c-0.7,0-1.1-0.4-1.4-0.9s-0.5-1.2-0.6-1.9
			c-0.2-1.4-0.3-3-0.3-3.6c-0.1-1.4-0.1-2.8,0-4.2c-0.7,1.2-1.6,2.6-2.3,3.1c-0.3,0.3-0.8,0.6-1.4,0.6c-2.5,0.1-3.2-3.2-3.2-5.1
			c0-0.6,0-2,0.2-3.3c0.2-0.6,0.3-1.3,0.6-1.8c0.3-0.5,0.7-0.9,1.3-0.9c0.8,0,1.3,0.5,1.3,1.1c0,0.2,0,0.3,0,0.5
			c-0.3,1.6-0.4,2.8-0.3,4.4c0,0.7,0.2,1.8,0.4,2.4C80,139.2,81.6,135.5,81.8,132.5L81.8,132.5z"/>
		<path class="st0" d="M96.8,146.8c0,0.6-0.4,1-1,1c-0.4,0-0.7-0.2-0.9-0.4c-1.6-1.9-1.9-4.5-2-6.8c-0.1-2.6-0.1-16.1,1.7-17.3
			c0.2-0.1,0.4-0.2,0.6-0.2c0.7,0,1,0.4,1.1,0.8c0.1,0.2,0.1,0.4,0.1,0.7v0.6c0,0.6,0.1,1.1,0.1,1.7c-0.1,4.6-0.6,9.1-0.3,13.7
			c0.1,1.2,0.2,2.4,0.3,3.6C96.6,145,96.7,145.9,96.8,146.8L96.8,146.8L96.8,146.8z"/>
		<path class="st0" d="M102.2,141.9c-1.8,0.1-2.9-1.4-3-2.9c-0.1-1.1,0.4-2.1,0.8-3.1c0.8-1.8,2.3-4.1,4.9-4.3c0.4,0,0.8,0,1.1,0.2
			c0.1-0.2,0.1-0.4,0.2-0.6c0.2-0.4,0.5-0.8,1.1-0.9c0.6,0,1,0.5,1,1c0,0.1,0,0.3-0.1,0.4s-0.1,0.2-0.1,0.4c-0.1,0.9-0.1,1.9,0,2.9
			l0.1,2.3c0.1,1,0.2,1.8,0.2,2c0,0,0,0.1,0.1,0.1l0.1,0.1c0.1,0.1,0.3,0.3,0.3,0.5c0,0.4-0.3,0.8-0.8,0.8c-1.2,0.1-2.2-1.4-2.4-2.4
			C105,139.9,103.9,141.8,102.2,141.9L102.2,141.9z M102.4,139.1l0.1-0.1c1.5-1.2,2.4-3.1,3.1-5c0,0-0.1,0-0.2,0.1
			c-1.4,0.4-2.7,2.9-3,4.2c-0.1,0.2-0.1,0.4-0.1,0.6C102.3,139,102.3,139.1,102.4,139.1C102.3,139.2,102.4,139.2,102.4,139.1
			L102.4,139.1z"/>
		<path class="st0" d="M120.5,139.8L120.5,139.8c0.1,0.1,0.2,0.1,0.2,0.2c0.1,0.1,0.1,0.2,0.1,0.4c0,0.7-0.7,1.1-1.2,1.1
			c-2.5,0.1-3.2-3.3-3.3-5.2c-0.1-1.4,0-3.9,0.7-5.2c0.3-0.5,0.7-0.9,1.3-1c0.6,0,1,0.2,1.2,0.6c0.2,0.3,0.2,0.7,0.3,1
			c0.1,1.2-0.1,2.3-0.1,3.5c0.1,1.4,0.4,2.8,0.6,4.2C120.4,139.6,120.5,139.7,120.5,139.8C120.5,139.7,120.5,139.8,120.5,139.8
			L120.5,139.8z M119.7,126.7v0.7c0,0.6-0.3,1.1-1.1,1.1c-1.5,0.1-1.9-1.3-2-2.2c0-0.4,0-1,0.2-1.5s0.6-1,1.3-1
			c0.8,0,1.2,0.5,1.2,1.1c0,0.2-0.1,0.5,0,0.8c0,0.1,0.1,0.2,0.1,0.4c0,0.1,0.1,0.2,0.1,0.3C119.7,126.5,119.7,126.6,119.7,126.7
			L119.7,126.7z"/>
		<path class="st0" d="M127.1,145.3c0,0.6-0.4,1-1,1c-0.4,0-0.7-0.2-0.9-0.4c-1.6-1.9-1.9-4.5-2-6.8c-0.1-2.6-0.1-16.1,1.7-17.3
			c0.2-0.1,0.4-0.2,0.6-0.2c0.7,0,1,0.4,1.1,0.8c0.1,0.2,0.1,0.4,0.1,0.7v0.6c0,0.6,0.1,1.1,0.1,1.7c-0.1,4.6-0.6,9.1-0.3,13.7
			c0.1,1.2,0.2,2.4,0.3,3.6C126.9,143.5,127,144.4,127.1,145.3C127.1,145.2,127.1,145.3,127.1,145.3z"/>
		<path class="st0" d="M135.8,132.1c0,0,0.1-0.5,0.1-0.6c0.1-0.3,0.1-0.7,0.2-1c0-0.1,0-0.1-0.1-0.2c0-0.7,0.6-1.2,1.2-1.3
			c0.8,0,1.2,0.5,1.2,1.1c0,0.5,0.2,1.1,0.2,1.5c0.1,2,0.4,4,1,5.9c0.1,0.2,0.1,0.5,0.1,0.8c0,0.6-0.4,1-1,1
			c-1.6,0.1-2.5-2.2-2.7-3.6c-0.6,1.5-2.1,5-3.8,5.1c-0.4,0-0.7-0.1-0.9-0.2c-1.7-1.1-1.8-3.2-1.9-4.8s-0.2-6.8,2-6.9
			c0.7,0,1.4,0.5,1.4,1.2c0.1,0.9-0.2,2.2-0.2,3.3c0,1.2,0,2.5,0,3.8v0.6C133.9,136.7,135.5,133.6,135.8,132.1L135.8,132.1z"/>
		<path class="st0" d="M142.6,138.2c0.7,0,1.4,0.1,2.1,0c-1.4-2.4-3.4-3.3-3.6-6.6c-0.1-1.7,1.4-3,3.1-3c1.6-0.1,2.9,0.7,2.9,2.3
			c0,0.3-0.1,0.9-0.8,0.9c-0.2,0-0.3-0.1-0.5-0.2l-0.1-0.1l-0.1-0.1l-0.1-0.1c-0.1,0-0.1,0-0.3,0c-0.1,0-0.4,0-0.7,0.1
			c-0.1,0-0.2,0-0.2,0.1c-0.6,2.8,3.6,4.6,3.7,7.2c0.1,1.3-0.9,2.2-2.3,2.3c-1.1,0.1-4.1-0.7-4.1-2c0-0.5,0.4-0.9,0.9-1L142.6,138.2
			L142.6,138.2z"/>
		<path class="st0" d="M152.2,138.3c-0.2-1.3-0.4-2.7-0.5-4c-0.1,0-0.1,0-0.2,0.1c-0.2,0.1-0.5,0.1-0.7,0.1c-0.3,0-0.5,0-0.8,0
			s-0.9-0.1-0.9-0.7c0-0.4,0.1-0.6,0.5-0.7c0.1,0,0.2-0.1,0.3-0.1h0.2c0.1-0.1,0.1-0.1,0.2-0.1c0.2,0,0.4-0.1,0.5-0.1
			c0.3-0.1,0.6-0.2,0.8-0.2c0-0.7-0.1-1.4-0.1-2c0-0.8-0.1-2.7-0.1-4.5c0.1-1.7,0.2-3.6,0.9-4.2c0.2-0.2,0.5-0.3,0.8-0.3
			c1.1-0.1,1.4,1,1.4,1.6c0,0.3,0,0.5,0,0.7c0,2.4,0.1,4.8,0.2,7.2v0.7c0.8-0.1,1.5-0.3,2.3-0.3c0.2,0,0.5,0,0.8,0.1
			s0.6,0.4,0.6,0.8c0,0.4-0.2,0.7-0.6,0.9c-0.4,0.2-1,0.3-1.6,0.4c-0.4,0.1-0.9,0.1-1.3,0.2c0.1,1.3,0.2,2.6,0.4,3.9
			c0.2,1.1,0.4,2.1,0.6,3.3c0.1,0.2,0.1,0.4,0.1,0.7c0.1,0.2,0.1,0.5,0.2,0.6c0,0.1,0.1,0.1,0.1,0.2c0,0.1,0.1,0.2,0.1,0.3
			c0,0.4-0.4,1-1,1.1C153.7,143.8,152.4,139.6,152.2,138.3L152.2,138.3z"/>
		<path class="st0" d="M160.8,138.4c-0.1-0.7-0.2-1.4-0.3-1.9c-0.2-1.5-0.6-3-0.6-4.5c0-0.6,0.2-1.5,1.3-1.6s1.6,1.1,1.9,1.9
			c0.1,0.5,0.2,1,0.3,1.4c0.6-1.3,1.9-3.4,3.5-3.5c0.6,0,1.2,0.3,1.2,1c0,0.2,0,0.3-0.1,0.5c0,0.1-0.1,0.2-0.2,0.3l-0.2,0.2
			c-0.7,0.5-1.5,1.1-2,1.9c-0.5,1-1.1,2-1.4,3c-0.1,0.3-0.2,0.7-0.2,1.2c-0.1,0.4-0.1,0.9-0.1,1.3c0,0.6-0.4,1.2-1.2,1.2
			c-0.3,0-0.5-0.1-0.7-0.1c-0.1-0.1-0.1-0.1-0.1-0.2c-0.1,0-0.1-0.1-0.2-0.1C161.2,139.8,160.9,139.1,160.8,138.4L160.8,138.4z"/>
		<path class="st0" d="M172.4,138.4c-1.8,0.1-2.9-1.4-3-2.9c-0.1-1.1,0.4-2.1,0.8-3.1c0.8-1.8,2.4-4.1,4.9-4.3c0.4,0,0.8,0,1.1,0.2
			c0.1-0.2,0.1-0.4,0.2-0.6c0.2-0.4,0.5-0.8,1.1-0.9s1,0.5,1,1c0,0.1,0,0.3-0.1,0.4s-0.1,0.2-0.1,0.4c-0.1,0.9-0.1,1.9,0,2.9
			l0.1,2.3c0.1,1,0.2,1.8,0.2,2c0,0,0,0.1,0.1,0.1l0.1,0.1c0.1,0.1,0.3,0.3,0.3,0.5c0,0.4-0.3,0.8-0.8,0.8c-1.2,0.1-2.2-1.4-2.4-2.4
			C175.2,136.3,174.1,138.3,172.4,138.4L172.4,138.4z M172.5,135.5l0.1-0.1c1.5-1.2,2.4-3.1,3.1-5c0,0-0.1,0-0.2,0.1
			c-1.4,0.4-2.7,2.9-3,4.2c-0.1,0.2-0.1,0.4-0.1,0.6C172.4,135.5,172.4,135.5,172.5,135.5C172.5,135.6,172.5,135.6,172.5,135.5
			L172.5,135.5z"/>
		<path class="st0" d="M185.6,129c-1.4,0.4-2,2.7-1.9,4.1c0,0.5,0.2,2,1,1.9c0.7,0,3.4-2.4,3.9-3l0.1-0.1c0,0,0.1-0.1,0.2-0.2
			c0.1-0.1,0.2-0.1,0.4-0.1c0.5,0,0.9,0.4,0.9,0.8c0,0.1-0.1,0.4-0.2,0.5c-0.1,0.2-0.2,0.4-0.3,0.6c-0.3,0.4-0.5,0.8-0.6,0.9
			c-0.9,1.2-2.5,3.2-4.4,3.3c-2.8,0.1-3.9-2.9-4-4.8c-0.1-2.6,1.4-6.6,4.4-6.7c1-0.1,2.3,0.4,2.4,1.6c0,0.3,0,0.5,0,0.7l0,0
			c0.1,0.1,0.3,0.2,0.3,0.5c0,0.4-0.3,0.8-0.7,0.8c-0.5,0-0.8-0.3-0.9-0.6C185.7,129.3,185.7,129.1,185.6,129L185.6,129z"/>
		<path class="st0" d="M195.7,136L195.7,136c0.1,0.1,0.2,0.1,0.2,0.2c0.1,0.1,0.1,0.2,0.1,0.4c0,0.7-0.7,1.1-1.2,1.1
			c-2.5,0.1-3.2-3.3-3.3-5.2c-0.1-1.4,0-3.9,0.7-5.2c0.3-0.5,0.7-0.9,1.3-1c0.6,0,1,0.2,1.2,0.6c0.2,0.3,0.2,0.7,0.3,1
			c0.1,1.2-0.1,2.3-0.1,3.5c0.1,1.4,0.4,2.8,0.6,4.2C195.6,135.8,195.7,135.9,195.7,136C195.7,135.9,195.7,136,195.7,136L195.7,136z
			 M194.9,122.9v0.7c0,0.6-0.3,1.1-1.1,1.2c-1.5,0.1-1.9-1.3-2-2.2c0-0.4,0-1,0.2-1.5s0.6-1,1.3-1c0.8,0,1.2,0.5,1.2,1.1
			c0,0.2-0.1,0.5,0,0.8c0,0.1,0,0.2,0.1,0.4c0,0.1,0.1,0.2,0.1,0.3C194.9,122.7,194.9,122.8,194.9,122.9L194.9,122.9z"/>
		<path class="st0" d="M205.9,131.6c0,0.6-0.1,1.2-0.4,1.8c-0.8,1.4-2.9,3.4-4.9,3.5c-2.2,0.1-3.1-1.9-3.2-3.4c0-0.2,0-0.4,0-0.6
			c0.1-1.4,1.3-4.7,3.4-4.8c0.5,0,0.9,0.1,1.3,0.4C204.1,128.4,205.8,129.5,205.9,131.6L205.9,131.6z M201,126.2c-0.5,0-1-0.3-1-0.9
			c0-0.9,2-2.4,2.8-2.4c0.6,0,1,0.3,1.1,0.9c0,0.4-0.2,0.7-0.6,0.8c-0.2,0.2-0.6,0.5-0.9,0.8c-0.2,0.2-0.4,0.3-0.6,0.5
			c-0.1,0.1-0.2,0.1-0.3,0.2C201.3,126.2,201.2,126.2,201,126.2L201,126.2z M203.7,131.5c0-0.7-1-1.2-1.6-1.2l-0.1,0.1l-0.1,0.1
			c-0.7,0.6-1.3,2-1.3,2.9c0,0.2,0.1,0.4,0.1,0.5l0.1,0.1C201.8,134.1,203.8,132.3,203.7,131.5L203.7,131.5z"/>
		<path class="st0" d="M210.9,130.2c1-1.7,2.7-4.6,4.8-4.7s2.5,2.1,2.6,3.8c0,0.5,0,1,0,1.5c0,1.3,0.1,2.7,0,3.9
			c0,0.6-0.5,1.5-1.4,1.6c-1.3,0.1-1.6-1.3-1.7-1.9c-0.1-1.9,0-3.8-0.1-5.6v-0.6c-0.8,0.2-1.7,1.4-2.5,3s-1.4,3.5-1.8,4.3
			c-0.2,0.7-0.7,1.2-1.5,1.2c-1.4,0.1-1.9-1.3-1.9-2.5c-0.1-1.6,0.1-8.2,2.2-8.3c1-0.1,1.4,0.9,1.5,1.5v0.1
			C211,128.4,210.9,129.4,210.9,130.2C210.8,130.3,210.8,130.3,210.9,130.2L210.9,130.2z"/>
	</g>
	<g>
		<path class="st0" d="M99.4,92.3c-1.2,0.3-1.8,2.3-1.8,3.6c0,0.4,0.2,1.7,0.8,1.7c0.7,0,3-2,3.5-2.5L102,95c0,0,0.1-0.1,0.2-0.1
			c0.1-0.1,0.2-0.1,0.3-0.1c0.4,0,0.8,0.3,0.8,0.7c0,0.1-0.1,0.4-0.2,0.5c-0.1,0.2-0.2,0.4-0.3,0.6c-0.2,0.3-0.5,0.7-0.6,0.8
			c-0.8,1.1-2.3,2.8-4,2.8c-2.5,0.1-3.4-2.6-3.4-4.3c-0.1-2.3,1.4-5.8,4-5.8c0.9,0,2,0.4,2,1.5c0,0.2,0,0.4,0,0.6l0,0
			c0.1,0.1,0.2,0.2,0.2,0.4c0,0.4-0.3,0.7-0.7,0.7c-0.4,0-0.7-0.3-0.8-0.5C99.5,92.6,99.4,92.5,99.4,92.3L99.4,92.3z"/>
		<path class="st0" d="M111.8,95.3c0,0.5-0.1,1.1-0.4,1.6c-0.8,1.2-2.7,3-4.4,3c-1.9,0-2.7-1.8-2.7-3.1c0-0.2,0-0.4,0-0.6
			c0.1-1.2,1.3-4.1,3.2-4.2c0.4,0,0.8,0.1,1.1,0.4C110.3,92.4,111.8,93.4,111.8,95.3z M109.9,95.1c0-0.6-0.8-1.1-1.3-1.1l-0.1,0.1
			l-0.1,0.1c-0.6,0.5-1.2,1.7-1.2,2.6c0,0.2,0,0.3,0.1,0.5l0.1,0.1C108.1,97.4,109.9,95.9,109.9,95.1L109.9,95.1z"/>
		<path class="st0" d="M116.2,94.2c0.9-1.5,2.5-4,4.4-4.1c1.9,0,2.2,1.9,2.2,3.4c0,0.4,0,0.9,0,1.3c0,1.2,0,2.4-0.1,3.5
			c-0.1,0.6-0.5,1.3-1.3,1.3c-1.1,0-1.4-1.2-1.4-1.7c0-1.7,0.1-3.3,0.1-5v-0.5c-0.8,0.2-1.5,1.2-2.3,2.6c-0.7,1.4-1.3,3-1.7,3.8
			c-0.2,0.6-0.7,1-1.3,1c-1.2,0-1.6-1.2-1.7-2.2c0-1.4,0.3-7.2,2.2-7.2c0.9,0,1.2,0.9,1.3,1.4v0.1C116.3,92.6,116.2,93.5,116.2,94.2
			C116.1,94.3,116.1,94.2,116.2,94.2z"/>
		<path class="st0" d="M137.2,90L137.2,90c0.2-0.1,0.5-0.2,0.7-0.2c1.4,0,1.6,1.4,1.6,2.4c0,1.3-0.1,2.7-0.1,4c0,0.2,0,0.5,0,0.8
			s0,0.6,0.1,0.7c0,0,0,0,0,0.1s0.1,0.2,0.1,0.3c0,0.7-0.7,0.9-1.1,0.9c-1.4,0-1.8-1.7-1.8-2.8c0-1.6,0.2-3.1,0.3-4.6
			c-1.4,1-2.7,3.9-3.2,5.4c0,0.2-0.1,0.4-0.1,0.6c-0.1,0.3-0.2,0.5-0.3,0.7c-0.2,0.5-0.6,1-1.3,1c-0.5,0-1.2-0.6-1.4-1
			c-0.8-1.5-1.1-4.3-1.2-5.8c-0.1-2.5,0.4-5,1-7.4c0.1-0.3,0.3-0.8,0.5-1.3s0.7-0.9,1.3-0.9c1,0,1.2,0.8,1.2,1.3
			c0,0.3-0.1,0.6-0.1,0.8c-0.8,3-1.1,5.6-1.1,8.7c0,0.9,0.1,1.8,0.2,2.7C133.3,94.5,135.2,90.7,137.2,90L137.2,90z"/>
		<path class="st0" d="M143.6,99.1c-1.6,0-2.6-1.3-2.6-2.7c0-1,0.4-1.9,0.8-2.7c0.7-1.6,2.2-3.6,4.4-3.7c0.3,0,0.7,0.1,1,0.2
			c0.1-0.2,0.1-0.3,0.2-0.5c0.1-0.3,0.4-0.7,1-0.7s0.9,0.4,0.9,0.9c0,0.1,0,0.3-0.1,0.4s-0.1,0.2-0.1,0.3c-0.1,0.8-0.1,1.7-0.1,2.5
			l0.1,2.1c0.1,0.9,0.1,1.6,0.2,1.7c0,0,0,0.1,0.1,0.1l0.1,0.1c0.1,0.1,0.2,0.2,0.2,0.5c0,0.4-0.3,0.7-0.7,0.7
			c-1.1,0-1.9-1.2-2.1-2.2C146.2,97.3,145.1,99,143.6,99.1L143.6,99.1z M143.8,96.6l0.1-0.1c1.4-1,2.2-2.7,2.9-4.3
			c0,0-0.1,0-0.2,0.1c-1.3,0.3-2.4,2.5-2.8,3.7c-0.1,0.2-0.1,0.4-0.1,0.6C143.7,96.5,143.7,96.5,143.8,96.6L143.8,96.6z"/>
		<path class="st0" d="M152.6,100.2c-0.1-0.3-0.2-0.6-0.3-0.7c-0.8-1.6-0.9-5.2-0.9-7c0-2,0.1-6.6,1.2-8.4c0.2-0.3,0.5-0.5,1-0.5
			c0.7,0,1.2,0.5,1.2,1.1s-0.1,1.3-0.2,1.9c-0.2,1.9-0.3,3.8-0.3,5.8v0.5c0.6-2,1.8-3.1,3.9-3.2c2.1-0.1,3.3,1.5,3.3,3.2
			c0.1,2.8-2.7,6.8-6,6.8c-0.1,0-0.3,0-0.4,0c0,0.3,0.1,0.7,0.1,1c0,0.5-0.4,0.9-0.9,0.9c-0.4,0-0.6-0.1-0.7-0.3l-0.1-0.1
			c0,0,0-0.1-0.1-0.1c0-0.1-0.1-0.1-0.1-0.2l-0.1-0.1l-0.1-0.1c0,0,0,0-0.1-0.1C152.8,100.7,152.7,100.4,152.6,100.2L152.6,100.2z
			 M158.8,92.9c0-0.4-0.1-0.7-0.4-1c-0.3-0.2-0.9-0.4-1.1-0.4c-0.2,0-0.5,0-0.6,0.1c-1.1,0.8-1.5,4.5-1.6,5.9
			C156.9,97.1,158.8,94.8,158.8,92.9L158.8,92.9z"/>
		<path class="st0" d="M166.6,97.5L166.6,97.5c0.1,0.1,0.1,0.1,0.2,0.2c0.1,0.1,0.1,0.2,0.1,0.4c0,0.6-0.6,0.9-1.1,0.9
			c-2.2,0.1-2.7-3-2.8-4.7c0-1.2,0.1-3.5,0.7-4.6c0.3-0.4,0.6-0.8,1.2-0.8c0.5,0,0.8,0.2,1.1,0.6c0.2,0.2,0.2,0.6,0.2,0.9
			c0,1-0.2,2-0.2,3.1c0,1.3,0.3,2.4,0.4,3.7C166.5,97.3,166.6,97.4,166.6,97.5C166.6,97.4,166.6,97.5,166.6,97.5L166.6,97.5z
			 M166.2,85.9v0.7c0,0.5-0.3,1-1,1c-1.3,0-1.7-1.2-1.7-2c0-0.3,0.1-0.9,0.3-1.3c0.1-0.4,0.5-0.8,1.2-0.9c0.7,0,1,0.5,1.1,1
			c0,0.2-0.1,0.4-0.1,0.7c0,0.1,0,0.2,0.1,0.3c0,0.1,0.1,0.2,0.1,0.3C166.2,85.7,166.2,85.8,166.2,85.9L166.2,85.9z"/>
		<path class="st0" d="M172.3,102.5c0,0.5-0.4,0.9-0.9,0.9c-0.4,0-0.6-0.2-0.8-0.4c-1.3-1.7-1.6-4-1.6-6.1
			c-0.1-2.3,0.3-14.2,1.9-15.2c0.2-0.1,0.4-0.1,0.5-0.1c0.6,0,0.9,0.4,1,0.8c0.1,0.2,0.1,0.4,0.1,0.6v0.5c0,0.5,0,1,0,1.5
			c-0.2,4-0.7,8.1-0.6,12.1c0,1.1,0.1,2.1,0.2,3.2C172.2,101,172.2,101.8,172.3,102.5C172.3,102.4,172.3,102.5,172.3,102.5z"/>
		<path class="st0" d="M178.4,97.2L178.4,97.2c0.1,0.1,0.1,0.1,0.2,0.2c0.1,0.1,0.1,0.2,0.1,0.4c0,0.6-0.6,0.9-1.1,0.9
			c-2.2,0.1-2.7-3-2.8-4.7c0-1.2,0.1-3.5,0.7-4.6c0.3-0.4,0.6-0.8,1.2-0.8c0.5,0,0.8,0.2,1.1,0.6c0.2,0.2,0.2,0.6,0.2,0.9
			c0,1-0.2,2-0.2,3.1c0,1.3,0.3,2.4,0.4,3.7C178.3,97,178.3,97.1,178.4,97.2L178.4,97.2L178.4,97.2z M178,85.6v0.7c0,0.5-0.3,1-1,1
			c-1.3,0-1.7-1.2-1.7-2c0-0.3,0.1-0.9,0.3-1.3c0.1-0.4,0.5-0.8,1.2-0.9c0.7,0,1,0.5,1.1,1c0,0.2-0.1,0.4-0.1,0.7
			c0,0.1,0,0.2,0.1,0.3c0,0.1,0.1,0.2,0.1,0.3C177.9,85.4,178,85.5,178,85.6L178,85.6z"/>
		<path class="st0" d="M187.9,96.4c-0.8,1.4-2.4,3.2-4.2,3.2c-2.6,0.1-3.5-2.7-3.5-4.4c-0.1-2.7,1.1-7.2,5-7.2
			c1.1,0,1.9,0.4,2.5,1.1c0.2-2.8,0.7-5.5,1.9-8c0.1-0.1,0.1-0.2,0.1-0.4c0.1-0.2,0.1-0.3,0.2-0.4c0.2-0.3,0.4-0.5,0.9-0.5
			c0.9,0,1.1,0.8,1.1,1.2c0,0.4,0,0.9-0.1,1.4s-0.1,0.9-0.2,1.4c-0.4,2.1-0.9,4.1-1.3,6.2c0,0.1,0,0.3,0,0.4
			c0.1,3.7,0.4,9.4,2.1,12.6c0,0.1,0.1,0.3,0.1,0.3c0.3,0.1,0.5,0.4,0.5,0.8c0,0.6-0.5,1.1-1.1,1.1c-0.2,0-0.3-0.1-0.4-0.1
			c-0.1,0-0.2-0.1-0.3-0.1C188.8,103.9,188.1,98.5,187.9,96.4L187.9,96.4z M187.1,91.1c-0.1-0.1-0.2-0.1-0.2-0.2
			c-0.3-0.2-0.7-0.5-1-0.5c-2.3,0.1-2.8,3.3-2.8,5c0,0.4,0.1,1.8,0.8,1.8c0.3,0,0.6-0.1,0.8-0.3c1.6-1.1,2.5-3.5,3.1-5.3
			C187.5,91.5,187.2,91.3,187.1,91.1L187.1,91.1z"/>
		<path class="st0" d="M196.2,97.9c-1.6,0-2.6-1.3-2.6-2.7c0-1,0.4-1.9,0.8-2.7c0.7-1.6,2.2-3.6,4.4-3.7c0.3,0,0.7,0.1,1,0.2
			c0.1-0.2,0.1-0.3,0.2-0.5c0.1-0.3,0.4-0.7,1-0.7s0.9,0.4,0.9,0.9c0,0.1,0,0.3-0.1,0.4s-0.1,0.2-0.1,0.3c-0.1,0.8-0.1,1.7-0.1,2.5
			l0.1,2.1c0.1,0.9,0.1,1.6,0.2,1.7c0,0,0,0.1,0.1,0.1l0.1,0.1c0.1,0.1,0.2,0.2,0.2,0.5c0,0.4-0.3,0.7-0.7,0.7
			c-1.1,0-1.9-1.2-2.1-2.2C198.8,96.1,197.7,97.8,196.2,97.9L196.2,97.9z M196.5,95.4L196.5,95.4c1.5-1.1,2.3-2.8,3-4.4
			c0,0-0.1,0-0.2,0.1c-1.3,0.3-2.4,2.5-2.8,3.7c-0.1,0.2-0.1,0.4-0.1,0.6C196.4,95.3,196.4,95.4,196.5,95.4
			C196.4,95.5,196.4,95.5,196.5,95.4z"/>
		<path class="st0" d="M211.5,95.9c-0.8,1.4-2.4,3.2-4.2,3.2c-2.6,0.1-3.5-2.7-3.5-4.4c-0.1-2.7,1.1-7.2,5-7.2
			c1.1,0,1.9,0.4,2.5,1.1c0.2-2.8,0.7-5.5,1.9-8c0.1-0.1,0.1-0.2,0.1-0.4c0.1-0.2,0.2-0.3,0.2-0.4c0.2-0.3,0.4-0.5,0.9-0.5
			c0.9,0,1.1,0.8,1.1,1.2c0,0.4,0,0.9-0.1,1.4s-0.1,0.9-0.2,1.4c-0.4,2.1-0.9,4.1-1.3,6.2c0,0.1,0,0.3,0,0.4
			c0.1,3.7,0.4,9.4,2.1,12.6c0,0.1,0.1,0.3,0.1,0.3c0.3,0.1,0.5,0.4,0.5,0.8c0,0.6-0.5,1-1.1,1.1c-0.2,0-0.3-0.1-0.4-0.1
			c-0.1,0-0.2-0.1-0.3-0.1C212.4,103.4,211.7,98,211.5,95.9L211.5,95.9z M210.6,90.6c-0.1-0.1-0.2-0.1-0.2-0.2
			c-0.3-0.2-0.7-0.5-1-0.5c-2.3,0.1-2.8,3.3-2.8,5c0,0.4,0.1,1.8,0.8,1.8c0.3,0,0.6-0.1,0.8-0.3c1.6-1.1,2.5-3.5,3.1-5.3
			C211,90.9,210.7,90.7,210.6,90.6L210.6,90.6z"/>
		<path class="st0" d="M222.6,96.2c0.4,0,0.7-0.1,1-0.2c0.1-0.1,0.3-0.1,0.4-0.1c0.1,0,0.1,0,0.2-0.1h0.2c0.4,0,0.7,0.3,0.7,0.7
			c0,0.2-0.1,0.4-0.2,0.6c-0.7,0.7-2,1.1-3,1.1c-0.5,0-1.1-0.1-1.6-0.2c-1.7-0.6-3-2.7-3-4.4c-0.1-2.6,2.2-5.2,5.1-5.3
			c1.4,0,2.4,0.8,2.5,2.1c0.1,2.2-3,3.5-4.9,3.6C220,95.3,221.1,96.3,222.6,96.2L222.6,96.2z M223.3,90.4c0-0.3-0.2-0.5-0.6-0.5
			c-1.3,0-2.3,1.5-2.7,2.6C220.9,92.2,223.3,91.5,223.3,90.4z"/>
		<path class="st0" d="M227.3,95.7c0.6,0,1.2,0.1,1.8,0.1c-1.1-2.1-3-3-3-5.9c0-1.5,1.3-2.6,2.8-2.6c1.4,0,2.5,0.7,2.5,2.1
			c0,0.3-0.1,0.8-0.7,0.8c-0.2,0-0.3-0.1-0.4-0.2l-0.1-0.1l-0.1-0.1l-0.1-0.1c-0.1,0-0.1,0-0.3,0c-0.1,0-0.4,0-0.6,0.1
			c-0.1,0-0.2,0-0.2,0.1c-0.6,2.5,3.1,4.1,3.1,6.4c0,1.2-0.9,2-2.1,2c-0.9,0-3.6-0.7-3.6-1.9C226.4,96.1,226.8,95.7,227.3,95.7
			L227.3,95.7L227.3,95.7z"/>
	</g>
	<g>
		<path class="st0" d="M20.8,121.7c0,0.6-0.7,1-1.2,1.1c-0.6,0-1.1-0.5-1.4-1c-1.1-2.2-1.4-5.4-1.5-7.8c0-1.5-0.1-5.8,0.5-6.9
			c0.2-0.4,0.6-0.7,1.2-0.7c1.2,0,1.4,1.1,1.5,2.1c0,1.1,0,2.1,0.1,3.2c0.4-1.2,1-2.3,1.6-3.4c0.2-0.4,0.6-1,1.1-1.6
			c0.5-0.4,1.1-1,1.8-1c1.9-0.1,2.6,2.1,2.6,3.3c0.1,3.2-2.5,7-6.3,7.1c-0.1,0-0.1,0-0.2,0c-0.1,0.9-0.2,2-0.2,2.9
			c0,0.4,0.1,2.2,0.3,2.5C20.8,121.5,20.8,121.6,20.8,121.7L20.8,121.7z M24.2,107.9c0-0.1,0-0.2,0-0.3c-1.4,1-2.7,4.3-3,5.9
			C23.1,112.1,24.3,110.4,24.2,107.9z"/>
		<path class="st0" d="M31.5,114.6c-1.8,0.1-2.9-1.4-3-3c0-1.1,0.4-2.1,0.9-3.1c0.8-1.8,2.4-4.1,5-4.2c0.4,0,0.8,0.1,1.1,0.2
			c0.1-0.2,0.1-0.4,0.2-0.6c0.2-0.4,0.5-0.8,1.1-0.8s1,0.5,1,1c0,0.2,0,0.3-0.1,0.4c0,0.1-0.1,0.2-0.1,0.4c-0.2,0.9-0.1,1.9-0.1,2.8
			l0.1,2.3c0.1,1,0.2,1.8,0.2,2c0,0,0,0.1,0.1,0.1l0.1,0.1c0.1,0.1,0.3,0.3,0.3,0.5c0,0.4-0.3,0.8-0.8,0.8c-1.2,0-2.2-1.4-2.4-2.4
			C34.4,112.6,33.2,114.6,31.5,114.6L31.5,114.6z M31.8,111.8l0.1-0.1c1.5-1.2,2.5-3.1,3.2-4.9c0,0-0.1,0-0.2,0.1
			c-1.5,0.4-2.7,2.9-3.1,4.2c-0.1,0.2-0.1,0.4-0.1,0.6C31.6,111.7,31.6,111.8,31.8,111.8C31.7,111.9,31.7,111.9,31.8,111.8z"/>
		<path class="st0" d="M40.5,113.8c-0.1-0.7-0.2-1.4-0.2-1.9c-0.2-1.5-0.5-3-0.5-4.5c0-0.6,0.2-1.5,1.3-1.5s1.5,1.1,1.8,2
			c0.1,0.5,0.2,1,0.3,1.4c0.7-1.3,2-3.4,3.6-3.4c0.6,0,1.2,0.3,1.2,1c0,0.2,0,0.3-0.1,0.5c0,0.1-0.1,0.2-0.2,0.3l-0.2,0.2
			c-0.7,0.5-1.5,1.1-2,1.9c-0.5,1-1.1,1.9-1.5,2.9c-0.1,0.3-0.2,0.7-0.2,1.2c-0.1,0.4-0.1,0.9-0.1,1.3c0,0.6-0.5,1.2-1.2,1.2
			c-0.3,0-0.5-0.1-0.7-0.2c-0.1-0.1-0.2-0.1-0.2-0.2c-0.1,0-0.1-0.1-0.2-0.1C40.8,115.2,40.6,114.4,40.5,113.8z"/>
		<path class="st0" d="M52,113.9c-1.8,0.1-2.9-1.4-3-3c0-1.1,0.4-2.1,0.8-3.1c0.8-1.8,2.4-4.1,5-4.2c0.4,0,0.8,0.1,1.1,0.2
			c0.1-0.2,0.1-0.4,0.2-0.6c0.2-0.4,0.5-0.8,1.1-0.8s1,0.5,1,1c0,0.2,0,0.3-0.1,0.4c0,0.1-0.1,0.2-0.1,0.4c-0.2,0.9-0.1,1.9-0.1,2.8
			l0.1,2.3c0.1,1,0.2,1.8,0.2,2c0,0,0,0.1,0.1,0.1l0.1,0.1c0.1,0.1,0.3,0.3,0.3,0.5c0,0.4-0.3,0.8-0.8,0.8c-1.2,0-2.2-1.4-2.4-2.4
			C54.9,112,53.7,113.9,52,113.9L52,113.9z M52.2,111.1L52.2,111.1c1.6-1.3,2.6-3.2,3.3-5c0,0-0.1,0-0.2,0.1
			c-1.5,0.4-2.7,2.9-3.1,4.2c-0.1,0.2-0.1,0.4-0.1,0.6C52.1,111,52.1,111.1,52.2,111.1C52.2,111.2,52.2,111.2,52.2,111.1z"/>
	</g>
	<g>
		<path class="st0" d="M59.8,127c0.4-0.1,0.7-0.2,1-0.4c0.1-0.1,0.3-0.2,0.4-0.2c0.1-0.1,0.1-0.1,0.2-0.1h0.2
			c0.5-0.1,0.8,0.3,0.9,0.6c0,0.2-0.1,0.5-0.1,0.7c-0.7,0.9-2.1,1.5-3.1,1.7c-0.6,0.1-1.2,0.1-1.9,0c-2-0.4-3.8-2.5-4.1-4.3
			c-0.5-2.9,1.5-6.2,4.8-6.8c1.5-0.3,2.9,0.4,3.1,1.9c0.5,2.4-2.7,4.4-4.8,4.9C56.8,126.4,58.1,127.3,59.8,127L59.8,127z
			 M59.6,120.3c-0.1-0.4-0.4-0.6-0.7-0.5c-1.4,0.3-2.3,2.1-2.6,3.3C57.2,122.8,59.8,121.6,59.6,120.3z"/>
		<path class="st0" d="M69.2,131.2c0.1,0.5-0.2,1.1-0.9,1.2c-0.4,0.1-0.7-0.1-0.9-0.3c-1.8-1.7-2.5-4.2-2.9-6.5
			c-0.5-2.6-2.2-15.9-0.6-17.4c0.2-0.1,0.4-0.2,0.6-0.2c0.7-0.1,1.1,0.3,1.2,0.7c0.1,0.2,0.2,0.4,0.2,0.6l0.1,0.5
			c0.1,0.5,0.2,1.1,0.3,1.7c0.5,4.6,0.6,9.1,1.5,13.6c0.2,1.2,0.5,2.3,0.8,3.5c0.2,0.8,0.4,1.7,0.7,2.5L69.2,131.2L69.2,131.2z"/>
	</g>
</g>
<g>
	<g>
		<path class="st0" d="M1.2,21.7c0-0.4,0.5-0.9,1-0.9c0.3,0,0.5,0.2,0.6,0.4l0.3,0.3c1.5,1.4,4.1,2,6.1,2.1c1.8,0.1,4.2-0.3,5.3-1.7
			c0.3-0.5,0.6-0.9,0.6-1.4c0-0.8-0.6-1.4-1.7-2.1c-1.1-0.8-2.6-1.4-4.2-2.2C6.3,14.6,3.1,12.3,3.3,8c0.2-4.9,4.1-8.2,8.8-8
			c2,0.1,3.9,1.2,3.7,3.4c-0.1,1.5-1,3.5-2.4,4.3c-0.1,0-0.3,0.1-0.4,0.2C12.9,8,12.8,8,12.7,8c0,0-0.1,0-0.1,0.1c0,0-0.1,0-0.2,0
			c-0.5,0-0.7-0.5-0.7-0.8s0.2-0.5,0.4-0.6s0.3-0.2,0.5-0.3c1-0.7,1.7-1.9,1.7-3.1c0.1-1-0.6-1.5-1.7-1.5c-0.6,0-1.2,0-1.7,0.2
			c-3,0.9-4.3,3.2-4.5,6c-0.2,3,2.7,4.4,5.8,6c0.8,0.4,1.5,0.8,2.3,1.2c2.1,1.2,4,2.6,3.9,5.3c-0.1,1.1-0.7,2.4-1.5,3.3
			c-1.8,2.1-4.9,2.7-7.5,2.6c-3.1-0.1-6.5-1.5-8-4.3C1.3,22,1.2,21.8,1.2,21.7L1.2,21.7z"/>
		<path class="st0" d="M28.3,20.6c0,0.6-0.2,1.2-0.6,1.7c-1,1.3-3.2,3.1-5.2,3c-2.2-0.1-2.9-2.2-2.8-3.7c0-0.2,0-0.4,0.1-0.6
			c0.2-1.3,1.8-4.6,3.9-4.4c0.5,0,0.9,0.2,1.2,0.5C26.8,17.2,28.4,18.5,28.3,20.6L28.3,20.6z M26.2,20.3c0-0.7-0.9-1.3-1.4-1.4
			L24.7,19l-0.1,0.1C23.8,19.7,23,21,23,21.9c0,0.2,0,0.4,0,0.5l0.1,0.1C24,22.6,26.2,21.1,26.2,20.3L26.2,20.3z"/>
		<path class="st0" d="M37.6,15.7c0.1-0.5,0.5-1.1,1.2-1.1c0.8,0,1.1,0.8,1.1,1.3v0.2c0,0,0,0,0,0.1c0,0.2,0,0.5,0,0.8
			c0,0.7-0.1,1.3-0.2,2c-0.3,2.9-0.7,5.8-0.8,8.8c-0.1,1.9-0.1,3.7-0.2,5.5c0,0.6-0.7,0.9-1.1,0.9c-0.7,0-1.1-0.5-1.3-1
			c-0.2-0.6-0.3-1.3-0.4-2c-0.1-1.4,0-3,0-3.6c0.1-1.4,0.2-2.8,0.4-4.1c-0.8,1.1-1.9,2.4-2.6,2.9c-0.4,0.3-0.9,0.5-1.5,0.5
			c-2.5-0.1-2.8-3.5-2.7-5.4c0-0.5,0.2-2,0.5-3.3c0.2-0.6,0.5-1.2,0.8-1.7s0.8-0.8,1.4-0.8c0.8,0,1.2,0.6,1.2,1.3
			c0,0.2,0,0.3-0.1,0.5c-0.5,1.5-0.7,2.7-0.8,4.3c0,0.7,0,1.8,0.2,2.5C35.2,22.1,37.1,18.6,37.6,15.7L37.6,15.7z"/>
	</g>
	<path class="st0" d="M52.7,20.9l0.1-0.5c0.1-0.3,0.2-0.6,0.3-0.9c0-0.1,0-0.1,0-0.2c0-0.7,0.7-1.2,1.4-1.1c0.8,0,1.1,0.6,1.1,1.2
		c0,0.5,0.1,1.1,0.1,1.5c-0.1,2,0,4,0.4,6c0,0.2,0.1,0.5,0.1,0.8c0,0.6-0.5,1-1.1,0.9c-1.6-0.1-2.2-2.5-2.4-3.8
		c-0.8,1.4-2.6,4.7-4.3,4.6c-0.4,0-0.7-0.2-0.9-0.3c-1.5-1.3-1.4-3.4-1.4-4.9s0.5-6.8,2.7-6.7c0.7,0,1.4,0.6,1.3,1.3
		c0,0.9-0.4,2.2-0.5,3.2c-0.1,1.2-0.3,2.5-0.3,3.7v0.6C50.4,25.3,52.2,22.3,52.7,20.9L52.7,20.9z"/>
	<path class="st0" d="M61.2,23.2c1.1-1.6,3.2-4.3,5.2-4.2s2.3,2.4,2.2,4c0,0.5-0.1,1-0.2,1.5c-0.1,1.3-0.2,2.7-0.4,3.9
		c-0.1,0.6-0.7,1.5-1.6,1.4c-1.3-0.1-1.5-1.4-1.5-2.1c0.1-1.9,0.4-3.7,0.5-5.6v-0.6c-0.8,0.1-1.8,1.2-2.8,2.8
		c-1,1.6-1.8,3.3-2.2,4.1c-0.3,0.6-0.8,1.1-1.6,1c-1.3-0.1-1.8-1.5-1.7-2.6c0.1-1.6,0.9-8.1,3-8c1,0,1.3,1.1,1.3,1.7v0.1
		C61.5,21.4,61.3,22.3,61.2,23.2C61.1,23.2,61.1,23.2,61.2,23.2L61.2,23.2z"/>
	<path class="st0" d="M72.2,29.9c-1.8-0.1-2.8-1.7-2.7-3.2c0.1-1.1,0.6-2.1,1.1-3c1-1.7,2.8-3.9,5.3-3.8c0.4,0,0.8,0.1,1.1,0.3
		c0.1-0.2,0.2-0.4,0.2-0.5c0.2-0.4,0.6-0.8,1.2-0.8s1,0.6,0.9,1.1c0,0.1-0.1,0.3-0.1,0.4s-0.1,0.2-0.1,0.4c-0.2,0.9-0.3,1.9-0.3,2.8
		L78.7,26c0,1,0,1.8,0.1,2c0,0,0,0.1,0.1,0.1l0.1,0.1c0.1,0.1,0.2,0.3,0.2,0.6c0,0.4-0.4,0.8-0.9,0.8c-1.2-0.1-2-1.6-2.2-2.6
		C75.2,28.1,73.9,29.9,72.2,29.9L72.2,29.9z M72.6,27.1l0.1-0.1c1.6-1,2.7-2.9,3.6-4.6c0,0-0.1,0-0.2,0.1c-1.5,0.3-2.9,2.6-3.4,3.9
		c-0.1,0.2-0.2,0.4-0.2,0.6C72.5,27,72.5,27.1,72.6,27.1C72.6,27.2,72.6,27.2,72.6,27.1L72.6,27.1z"/>
</g>
<g>
	<path class="st0" d="M94,18.3c0,0.5,0.1,1,0.1,1.5c0.1,0.8,0.2,1.5,0.4,2.3c0.4,1.2,1.2,2,2.4,2.2c0.8,0.2,1.7,0.3,2.5,0.4
		c0.4,0,0.8,0.1,1.1,0c-0.4,0.1-0.8,0.1-1.2,0.2c-1,0.1-2,0.2-2.9,0.5c-1.1,0.4-1.7,1.1-2,2.2c-0.2,0.9-0.3,1.8-0.4,2.7
		c0,0.3-0.1,0.6-0.1,0.9c0-0.3-0.1-0.6-0.1-1c-0.1-1.1-0.2-2.1-0.6-3.2c-0.3-0.7-0.8-1.3-1.6-1.6c-0.6-0.2-1.3-0.4-2-0.5
		s-1.3-0.1-2-0.2c-0.1,0-0.2,0-0.4,0c0.1,0,0.1,0,0.1,0c1.2,0,2.4-0.2,3.6-0.5c0.9-0.2,1.6-0.7,2-1.5c0.2-0.5,0.3-1,0.4-1.5
		c0.2-0.8,0.2-1.6,0.3-2.4C93.9,18.7,93.9,18.5,94,18.3L94,18.3L94,18.3z"/>
	<path class="st0" d="M90.1,30.1c0-0.2,0-0.4-0.1-0.5c-0.1-0.5-0.3-0.8-0.9-0.9c-0.1,0-0.3,0-0.5,0c0.2-0.1,0.3-0.1,0.5-0.1
		c0.7-0.2,0.8-0.3,0.9-1c0-0.1,0-0.3,0.1-0.4c0.1,0.2,0.1,0.4,0.1,0.6c0.1,0.4,0.4,0.7,0.8,0.7c0.2,0,0.4,0.1,0.6,0.1
		c-0.4,0-0.8,0-1.1,0.3S90.3,29.7,90.1,30.1L90.1,30.1z"/>
	<path class="st0" d="M99.5,20.8c-0.2,0.1-0.3,0.1-0.4,0.1c-0.2,0-0.3,0-0.4,0.1c-0.3,0.1-0.5,0.3-0.6,0.6c-0.1,0.2-0.1,0.5-0.2,0.7
		c0-0.2,0-0.4-0.1-0.6c-0.1-0.5-0.3-0.7-0.8-0.8c-0.2,0-0.4-0.1-0.7-0.1c0.2,0,0.3,0,0.5-0.1c0.7-0.1,0.9-0.4,1-1.1
		c0-0.1,0-0.2,0.1-0.4c0,0.2,0.1,0.4,0.1,0.6c0.1,0.4,0.3,0.7,0.7,0.8C99,20.8,99.2,20.8,99.5,20.8L99.5,20.8z"/>
	<path class="st0" d="M90.2,20.5c0,0.9,0.4,1.2,1.2,1.2c-0.8,0-1.2,0.5-1.2,1.3c0,0,0,0-0.1,0c0-0.1,0-0.3-0.1-0.4
		c-0.1-0.5-0.2-0.7-0.8-0.8c-0.2,0-0.3,0-0.5-0.1c0.2,0,0.3,0,0.5-0.1c0.5-0.1,0.6-0.2,0.7-0.7C90.1,20.8,90.1,20.7,90.2,20.5
		C90.1,20.6,90.2,20.5,90.2,20.5L90.2,20.5z"/>
	<path class="st0" d="M99.3,27c-0.4,0-0.6,0.3-0.6,0.6c0-0.4-0.3-0.6-0.7-0.7c0.4,0,0.6-0.2,0.7-0.7C98.7,26.8,98.9,27,99.3,27
		L99.3,27z"/>
	<path class="st0" d="M96.1,29.2c-0.1-0.3-0.2-0.5-0.6-0.6c0.4,0,0.6-0.2,0.6-0.6c0.1,0.4,0.2,0.6,0.6,0.6
		C96.3,28.6,96.2,28.9,96.1,29.2z"/>
</g>
<g>
	<path class="st0" d="M11.3,90.2c0,0.6,0,1.2,0.2,1.8c0.1,0.4,0.2,0.8,0.5,1.1c0.3,0.3,0.8,0.5,1.2,0.6s0.9,0.1,1.3,0.2
		c-0.2,0-0.4,0-0.6,0c-0.4,0-0.7,0.1-1,0.2c-0.8,0.2-1.2,0.8-1.4,1.5c-0.1,0.6-0.1,1.1-0.2,1.7c-0.1-0.5-0.1-1-0.2-1.5
		c-0.2-1.3-0.9-1.6-1.8-1.8c-0.4-0.1-0.8-0.1-1.2-0.1c-0.1,0-0.1,0-0.2,0c0.4,0,0.7-0.1,1.1-0.1c0.2,0,0.4-0.1,0.6-0.1
		c0.8-0.2,1.3-0.7,1.5-1.5C11.3,91.4,11.3,90.7,11.3,90.2L11.3,90.2z"/>
	<path class="st0" d="M18.2,100.5c0.9,0,1.2-0.5,1.3-1.3c0.2,0.7,0.5,1.3,1.4,1.3c-0.9,0.1-1.3,0.6-1.4,1.5
		C19.5,101.1,19.1,100.7,18.2,100.5z"/>
	<path class="st0" d="M24.1,94.6c0.7,0,1-0.4,1.1-1c0.2,0.6,0.4,1,1.1,1c-0.7,0.1-1,0.5-1.1,1.2C25.1,95,24.8,94.7,24.1,94.6
		L24.1,94.6z"/>
	<path class="st0" d="M6.9,88.2c-0.1-0.8-0.5-1.3-1.3-1.3c0.3-0.2,0.8-0.1,1-0.5c0.2-0.3,0.3-0.7,0.4-1.1c0.1,0.9,0.4,1.5,1.5,1.5
		C7.5,86.9,6.9,87.2,6.9,88.2z"/>
	<path class="st0" d="M6.3,100.3c0-1.1-0.2-1.3-1.3-1.6c0.9,0,1.3-0.5,1.3-1.3c0.1,0.9,0.6,1.3,1.4,1.4c-0.3,0.1-0.6,0.1-0.8,0.3
		c-0.2,0.2-0.3,0.3-0.4,0.6C6.4,99.8,6.4,100,6.3,100.3L6.3,100.3z"/>
	<path class="st0" d="M19.5,89.2c-0.9,0.1-1.5,0.4-1.5,1.3c-0.1-0.9-0.6-1.3-1.5-1.3c1,0,1.4-0.5,1.5-1.4c0,0.4,0.1,0.8,0.4,1
		C18.7,89.1,19.1,89.1,19.5,89.2z"/>
	<path class="st0" d="M14.8,97.7c0.4,0,0.5-0.2,0.5-0.5c0.1,0.3,0.2,0.5,0.5,0.5c-0.3,0.1-0.5,0.2-0.5,0.6
		C15.3,97.9,15.1,97.8,14.8,97.7z"/>
	<path class="st0" d="M11.7,104.4c0.4,0,0.5-0.2,0.5-0.5c0.1,0.3,0.2,0.5,0.5,0.5c-0.3,0.1-0.5,0.2-0.5,0.6
		C12.2,104.6,12.1,104.4,11.7,104.4z"/>
	<path class="st0" d="M5,80c0.5,0,0.6-0.3,0.7-0.7C5.8,79.7,5.9,80,6.4,80c-0.4,0.1-0.7,0.3-0.7,0.8C5.7,80.3,5.4,80.1,5,80L5,80z"
		/>
</g>
<g>
	<path class="st0" d="M31,91.6c0.5,0,0.6-0.3,0.7-0.6c0.1,0.4,0.3,0.6,0.7,0.7c-0.4,0.1-0.6,0.3-0.7,0.7
		C31.6,91.8,31.4,91.6,31,91.6z"/>
	<path class="st0" d="M31,98.5c0.5,0,0.6-0.3,0.7-0.6c0.1,0.4,0.3,0.6,0.7,0.7c-0.4,0.1-0.6,0.3-0.7,0.7
		C31.6,98.8,31.4,98.6,31,98.5z"/>
</g>
<path class="st0" d="M37.7,94.8c0.5,0,0.6-0.3,0.7-0.6c0.1,0.4,0.3,0.6,0.7,0.7c-0.4,0.1-0.6,0.3-0.7,0.7
	C38.4,95.1,38.2,94.9,37.7,94.8z"/>
</svg>
