<?xml version="1.0" encoding="UTF-8"?>
<svg id="Capa_1" data-name="Capa 1" xmlns="http://www.w3.org/2000/svg" viewBox="0 0 247.96 152.53">
  <defs>
    <style>
      .cls-1 {
        fill: #a32fff;
      }

      .cls-2 {
        fill: #fff;
      }

      .cls-3 {
        fill: #ff9da9;
      }
    </style>
  </defs>
  <g>
    <path class="cls-1" d="m28.02,76.21c-.53,4.28-4.02,7.18-8.49,7.18-5.04,0-8.49-3.34-8.49-9.96s3.46-9.51,8.64-9.51c4.81,0,8.08,2.74,8.38,7.1h-4.92c-.26-1.92-1.65-3.04-3.49-3.04-2.07,0-3.76,1.32-3.76,5.34s1.69,5.98,3.61,5.98,3.42-1.09,3.61-3.08h4.92Z"/>
    <path class="cls-1" d="m41.85,82.9v-2.59c-1.28,2.1-3.19,3.08-5.75,3.08-3.68,0-6.28-2.74-6.28-6.8v-12.18h4.89v11.42c0,2.33,1.05,3.46,3.12,3.46,2.48,0,3.8-1.77,3.8-4.21v-10.67h4.85v18.49h-4.62Z"/>
    <path class="cls-1" d="m48.99,82.9v-18.49h4.58v2.22c1.62-2.48,3.5-2.71,5.49-2.71h.64v5c-.45-.08-.9-.11-1.35-.11-3.01,0-4.47,1.5-4.47,4.47v9.62h-4.89Z"/>
    <path class="cls-1" d="m61.54,68.47v-4.55h4.89v4.55h-4.89Zm0,14.43v-12.21h4.89v12.21h-4.89Z"/>
    <path class="cls-1" d="m68.6,73.65c0-5.86,3.65-9.73,9.51-9.73s9.4,3.83,9.4,9.73-3.65,9.73-9.4,9.73-9.51-3.98-9.51-9.73Zm13.98,0c0-3.76-1.5-5.6-4.47-5.6s-4.47,1.84-4.47,5.6,1.5,5.64,4.47,5.64,4.47-1.88,4.47-5.64Z"/>
    <path class="cls-1" d="m100.77,70.01c-.26-1.8-1.24-2.44-3.46-2.44-1.84,0-2.89.45-2.89,1.54s1.01,1.54,3.01,2.1c2.1.6,4.1,1.01,5.52,1.58,1.95.79,3.04,2.07,3.04,4.47,0,3.83-2.82,6.13-8.08,6.13-5.67,0-8.83-2.67-8.91-6.43h5.04c0,1.73,1.47,2.74,3.83,2.74,1.73,0,3.27-.53,3.27-1.92,0-1.32-1.39-1.73-2.97-2.1-3.12-.75-4.85-1.28-6.16-2.1-1.73-1.09-2.33-2.52-2.33-4.17,0-3.12,2.14-5.49,7.78-5.49,5.34,0,7.74,2.1,8,6.09h-4.7Z"/>
    <path class="cls-1" d="m119.33,82.9c-.15-.45-.26-1.09-.3-1.65-1.17,1.28-3.12,2.14-5.6,2.14-4.21,0-6.16-2.07-6.16-5.07,0-5.34,3.57-5.94,8.49-6.61,2.44-.34,3.12-.83,3.12-2.1,0-1.2-1.2-1.92-3.12-1.92-2.22,0-3.12,1.09-3.34,2.74h-4.55c.07-3.83,2.18-6.5,8.12-6.5s7.89,2.63,7.89,7.29v11.69h-4.55Zm-.34-9.06c-.49.49-1.35.75-3.16,1.09-2.78.53-3.68,1.32-3.68,2.89,0,1.39.83,2.07,2.37,2.07,2.52,0,4.4-1.84,4.43-4.02l.04-2.03Z"/>
  </g>
  <g>
    <path class="cls-1" d="m10.89,57.35v-26.25h10.16c7.12,0,12.18,4.86,12.18,12.85s-4.55,13.4-11.35,13.4h-10.99Zm9.88-4.47c4.78,0,6.84-3,6.84-8.94s-2.06-8.3-7.31-8.3h-4.07v17.24h4.55Z"/>
    <path class="cls-1" d="m40.11,48.97c.16,2.93,1.82,4.82,4.35,4.82,1.66,0,3.12-.83,3.48-2.17h5.3c-1.19,3.99-4.39,6.25-8.54,6.25-6.48,0-9.73-3.56-9.73-10.6,0-6.01,3.44-9.88,9.41-9.88s9.13,3.87,9.13,11.58h-13.4Zm8.1-3.24c-.08-2.89-1.98-4.27-3.99-4.27s-3.76,1.58-3.95,4.27h7.95Z"/>
    <path class="cls-1" d="m67.39,43.79c-.28-1.9-1.3-2.57-3.64-2.57-1.94,0-3.04.47-3.04,1.62s1.07,1.62,3.16,2.21c2.21.63,4.31,1.07,5.81,1.66,2.06.83,3.2,2.17,3.2,4.71,0,4.03-2.97,6.44-8.5,6.44-5.97,0-9.29-2.81-9.37-6.76h5.3c0,1.82,1.54,2.89,4.03,2.89,1.82,0,3.44-.55,3.44-2.02,0-1.38-1.46-1.82-3.12-2.21-3.28-.79-5.1-1.34-6.48-2.21-1.82-1.15-2.45-2.65-2.45-4.39,0-3.28,2.25-5.77,8.18-5.77,5.61,0,8.14,2.21,8.42,6.4h-4.94Z"/>
    <path class="cls-1" d="m86.92,57.35c-.16-.47-.28-1.15-.32-1.74-1.23,1.34-3.28,2.25-5.89,2.25-4.43,0-6.48-2.17-6.48-5.34,0-5.61,3.76-6.25,8.94-6.96,2.57-.36,3.28-.87,3.28-2.21,0-1.27-1.27-2.02-3.28-2.02-2.33,0-3.28,1.15-3.52,2.89h-4.78c.08-4.03,2.29-6.84,8.54-6.84s8.3,2.77,8.3,7.67v12.3h-4.78Zm-.36-9.53c-.51.51-1.42.79-3.32,1.15-2.93.55-3.87,1.38-3.87,3.04,0,1.46.87,2.17,2.49,2.17,2.65,0,4.63-1.94,4.67-4.23l.04-2.13Z"/>
    <path class="cls-1" d="m94.35,57.35v-19.45h4.82v2.33c1.7-2.61,3.68-2.85,5.77-2.85h.67v5.26c-.47-.08-.95-.12-1.42-.12-3.16,0-4.7,1.58-4.7,4.7v10.12h-5.14Z"/>
    <path class="cls-1" d="m107.44,57.35v-19.45h4.82v2.33c1.7-2.61,3.68-2.85,5.77-2.85h.67v5.26c-.47-.08-.95-.12-1.42-.12-3.16,0-4.7,1.58-4.7,4.7v10.12h-5.14Z"/>
    <path class="cls-1" d="m118.91,47.62c0-6.17,3.83-10.24,10-10.24s9.88,4.03,9.88,10.24-3.83,10.24-9.88,10.24-10-4.19-10-10.24Zm14.71,0c0-3.95-1.58-5.89-4.7-5.89s-4.71,1.94-4.71,5.89,1.58,5.93,4.71,5.93,4.7-1.98,4.7-5.93Z"/>
    <path class="cls-1" d="m141.05,57.35v-26.57h5.14v26.57h-5.14Z"/>
    <path class="cls-1" d="m148.76,57.35v-26.57h5.14v26.57h-5.14Z"/>
    <path class="cls-1" d="m168.64,57.35c-.16-.47-.28-1.15-.32-1.74-1.23,1.34-3.28,2.25-5.89,2.25-4.43,0-6.48-2.17-6.48-5.34,0-5.61,3.76-6.25,8.94-6.96,2.57-.36,3.28-.87,3.28-2.21,0-1.27-1.27-2.02-3.28-2.02-2.33,0-3.28,1.15-3.52,2.89h-4.78c.08-4.03,2.29-6.84,8.54-6.84s8.3,2.77,8.3,7.67v12.3h-4.78Zm-.36-9.53c-.51.51-1.42.79-3.32,1.15-2.93.55-3.87,1.38-3.87,3.04,0,1.46.87,2.17,2.49,2.17,2.65,0,4.63-1.94,4.67-4.23l.04-2.13Z"/>
    <path class="cls-1" d="m189.56,57.35l-.04-2.37c-1.23,1.98-3.04,2.89-5.42,2.89-4.9,0-8.42-3.87-8.42-10.44,0-5.89,2.96-10.04,7.99-10.04,2.41,0,4.31.99,5.77,3.04v-9.65h5.06v26.57h-4.94Zm.08-9.25c0-4.23-1.46-6.33-4.31-6.33-3,0-4.43,2.02-4.43,6.01,0,3.48,1.82,5.89,4.39,5.89s4.35-2.29,4.35-5.57Z"/>
    <path class="cls-1" d="m196.72,47.62c0-6.17,3.83-10.24,10-10.24s9.88,4.03,9.88,10.24-3.83,10.24-9.88,10.24-10-4.19-10-10.24Zm14.71,0c0-3.95-1.58-5.89-4.7-5.89s-4.71,1.94-4.71,5.89,1.58,5.93,4.71,5.93,4.7-1.98,4.7-5.93Z"/>
    <path class="cls-1" d="m218.86,57.35v-19.45h4.82v2.33c1.7-2.61,3.68-2.85,5.77-2.85h.67v5.26c-.47-.08-.95-.12-1.42-.12-3.16,0-4.7,1.58-4.7,4.7v10.12h-5.14Z"/>
    <path class="cls-1" d="m243.18,57.35c-.16-.47-.28-1.15-.32-1.74-1.23,1.34-3.28,2.25-5.89,2.25-4.43,0-6.48-2.17-6.48-5.34,0-5.61,3.76-6.25,8.94-6.96,2.57-.36,3.28-.87,3.28-2.21,0-1.27-1.27-2.02-3.28-2.02-2.33,0-3.28,1.15-3.52,2.89h-4.78c.08-4.03,2.29-6.84,8.54-6.84s8.3,2.77,8.3,7.67v12.3h-4.78Zm-.36-9.53c-.51.51-1.42.79-3.32,1.15-2.93.55-3.88,1.38-3.88,3.04,0,1.46.87,2.17,2.49,2.17,2.65,0,4.62-1.94,4.67-4.23l.04-2.13Z"/>
  </g>
  <g>
    <g>
      <g>
        <path class="cls-3" d="m80.02,120.06c-.83,1.58-2.66,3.68-4.59,3.78-2.95.15-4.02-2.9-4.12-4.83-.16-3.1.98-8.12,5.39-8.35,1.2-.06,2.21.4,2.87,1.17.1-3.11.6-6.21,1.84-9.12.07-.11.1-.26.16-.41.06-.18.17-.34.27-.49.2-.34.48-.61.99-.63.98-.05,1.21.82,1.23,1.29.03.51-.02,1.06-.06,1.61-.08.55-.13,1.03-.21,1.58-.35,2.39-.9,4.68-1.29,7.08-.03.11-.02.29-.01.51.21,4.12.79,10.59,2.8,14.11.04.14.12.29.17.39.37.13.61.44.63.84.04.69-.56,1.2-1.25,1.23-.18,0-.37-.05-.52-.08-.11-.03-.26-.09-.37-.13-2.68-1.07-3.61-7.12-3.92-9.56Zm-1.18-5.93c-.08-.07-.19-.14-.27-.24-.38-.27-.76-.55-1.2-.52-2.55.13-3.1,3.81-3,5.74.03.51.18,2.04.91,2,.33-.02.68-.18.93-.41,1.72-1.29,2.72-4.01,3.27-6.08-.19-.1-.53-.3-.65-.48Z"/>
        <path class="cls-3" d="m90.77,120.21l.08.07s.08.07.12.14c.08.11.12.25.13.43.04.69-.68,1.06-1.22,1.08-2.48.12-3.16-3.27-3.26-5.17-.07-1.38-.02-3.91.69-5.19.3-.49.68-.95,1.34-.98.58-.03.96.21,1.2.6.2.28.26.72.27,1.05.06,1.17-.14,2.31-.08,3.47.07,1.42.43,2.75.61,4.17,0,.15.05.22.09.25,0,.04,0,.07.04.07Zm-.81-13.07l.04.73c.03.58-.35,1.11-1.11,1.15-1.46.07-1.93-1.33-1.98-2.24-.02-.4.02-.99.25-1.47.16-.48.57-.98,1.3-1.02.8-.04,1.2.53,1.23,1.11.01.25-.05.51-.03.77,0,.07.05.18.13.36.04.11.08.18.12.29,0,.07.05.22.05.33Z"/>
        <path class="cls-3" d="m93.91,119.58c.66,0,1.36.08,2.05.04-1.36-2.38-3.45-3.26-3.62-6.58-.08-1.68,1.42-2.96,3.1-3.04,1.57-.08,2.85.66,2.93,2.3.01.29-.06.92-.76.95-.22.01-.33-.06-.48-.16-.04-.03-.11-.07-.11-.1l-.12-.1s-.08-.07-.11-.07c-.07-.03-.15-.03-.29-.02-.11,0-.44.02-.73.11-.11.04-.22.01-.25.08-.55,2.8,3.59,4.57,3.72,7.19.07,1.31-.91,2.24-2.26,2.31-1.06.05-4.05-.67-4.12-1.98-.02-.47.39-.93.94-.96l.11.03Z"/>
        <path class="cls-3" d="m106.69,119.41c.4-.02.76-.11,1.08-.24.14-.08.29-.12.39-.17.07-.04.14-.04.21-.08h.22c.51-.04.79.35.8.72.01.25-.12.48-.22.63-.76.81-2.27,1.25-3.33,1.3-.58.03-1.24-.05-1.88-.23-1.93-.63-3.44-3-3.53-4.86-.15-2.92,2.33-6,5.61-6.17,1.53-.08,2.78.77,2.86,2.3.13,2.48-3.3,4.04-5.41,4.22.26,1.56,1.49,2.66,3.2,2.58Zm.61-6.64c-.02-.4-.29-.61-.65-.59-1.42.07-2.58,1.81-2.99,2.96,1.01-.23,3.71-1.1,3.64-2.38Z"/>
        <path class="cls-3" d="m114.28,114.06c.97-1.69,2.72-4.63,4.8-4.74,2.11-.11,2.52,2.14,2.6,3.78.02.47.01.99,0,1.5,0,1.31.1,2.66-.02,3.95-.04.62-.51,1.52-1.42,1.57-1.28.06-1.64-1.27-1.67-1.92-.09-1.86,0-3.76-.1-5.62l-.03-.58c-.83.19-1.68,1.4-2.48,3.01-.79,1.65-1.43,3.47-1.75,4.29-.22.67-.71,1.17-1.47,1.21-1.35.07-1.89-1.33-1.95-2.46-.08-1.57.06-8.15,2.21-8.26,1.02-.05,1.44.95,1.47,1.53v.07c-.03.84-.12,1.83-.26,2.75.04,0,.03-.04.07-.08Zm.92-7.13c-.29.01-.85-.14-.87-.65-.04-.84,1.75-2.17,2.48-2.21.29-.01.59.08.81.21.26.13.49.3.68.44.08.07.19.14.27.21.08.07.15.14.23.21.15.1.26.13.33.13l.14-.15c.07-.11.17-.3.31-.45.07-.11.1-.19.17-.3.07-.11.14-.19.21-.26.14-.19.35-.38.64-.4.44-.02.82.29.84.69,0,.14-.03.18-.06.26-.31,1-.99,2.13-2.15,2.19-.8.04-1.59-.47-2.24-.91-.04,0-.04-.04-.07-.03-.11.04-.21.12-.35.2-.21.16-.42.28-.53.39-.17.26-.56.43-.82.44Z"/>
        <path class="cls-3" d="m131.97,114.26c.03.58-.12,1.21-.42,1.77-.84,1.39-2.9,3.43-4.86,3.53-2.19.11-3.09-1.93-3.17-3.42-.01-.22-.02-.44,0-.62.11-1.36,1.33-4.71,3.45-4.81.47-.02.92.13,1.26.41,1.93-.06,3.63,1.06,3.74,3.14Zm-2.16-.07c-.04-.69-.97-1.19-1.56-1.24l-.1.12s-.07.08-.14.12c-.7.62-1.32,2-1.28,2.91,0,.18.06.36.1.54l.08.14c.95-.05,2.94-1.76,2.9-2.59Z"/>
      </g>
      <g>
        <path class="cls-3" d="m80.52,134.2c.05-.51.34-1.15,1.07-1.19.8-.04,1.17.64,1.19,1.15v.25s-.02.04-.02.08c.01.22.06.51.08.76.03.66,0,1.28-.01,1.97-.03,2.92-.07,5.85.08,8.8.09,1.86.3,3.67.39,5.5.03.62-.57.98-1.04,1-.66.03-1.12-.42-1.43-.91-.28-.53-.47-1.25-.61-1.94-.25-1.41-.3-3.02-.33-3.6-.07-1.38-.07-2.77-.03-4.16-.71,1.2-1.62,2.57-2.33,3.15-.35.31-.85.63-1.39.65-2.51.13-3.16-3.2-3.25-5.13-.03-.55-.03-2.04.2-3.33.15-.63.34-1.29.6-1.78.27-.53.69-.91,1.34-.94.77-.04,1.27.48,1.3,1.14,0,.18.02.33-.01.51-.32,1.55-.41,2.8-.33,4.4.04.73.16,1.75.45,2.42,2.3-2.13,3.87-5.79,4.08-8.79Z"/>
        <path class="cls-3" d="m95.6,148.53c.03.55-.39,1-1.01,1.04-.44.02-.7-.18-.9-.43-1.56-1.9-1.91-4.47-2.03-6.84-.13-2.62-.08-16.07,1.68-17.29.18-.12.39-.17.58-.18.69-.03,1.01.42,1.14.82.08.21.1.43.11.65l.03.55c.03.55.06,1.09.05,1.68-.13,4.57-.56,9.12-.33,13.71.06,1.2.16,2.37.33,3.56.12.83.16,1.71.35,2.54v.18Z"/>
        <path class="cls-3" d="m100.94,143.62c-1.79.09-2.92-1.39-3-2.92-.06-1.09.37-2.14.79-3.07.79-1.79,2.35-4.14,4.9-4.27.36-.02.77.03,1.11.2.06-.19.13-.37.19-.56.16-.37.47-.83,1.09-.86.62-.03,1.01.46,1.03.97,0,.14-.02.29-.05.4s-.06.22-.05.37c-.14.92-.08,1.94-.04,2.85l.12,2.33c.09,1.02.2,1.82.25,1.96,0,.04.04.07.08.11l.11.1c.12.1.27.28.28.53.02.4-.29.82-.8.84-1.24.06-2.19-1.35-2.42-2.4-.74,1.35-1.88,3.31-3.59,3.4Zm.19-2.82l.1-.12c1.51-1.17,2.4-3.15,3.11-4.98-.04,0-.11.04-.18.08-1.44.44-2.67,2.91-3.04,4.25-.1.22-.13.41-.11.63,0,.04,0,.11.05.18t.07-.04Z"/>
        <path class="cls-3" d="m119.29,141.48l.08.07s.08.07.12.14c.08.11.12.25.13.43.04.69-.68,1.06-1.22,1.08-2.48.12-3.16-3.27-3.26-5.17-.07-1.38-.01-3.91.69-5.19.3-.49.68-.95,1.34-.98.58-.03.96.21,1.2.6.2.28.25.72.27,1.04.06,1.17-.14,2.31-.08,3.48.07,1.42.43,2.75.61,4.17,0,.15.05.22.09.25,0,.04,0,.07.04.07Zm-.81-13.07l.04.73c.03.58-.35,1.11-1.11,1.15-1.46.07-1.93-1.33-1.98-2.24-.02-.4.02-.99.25-1.47.16-.48.57-.98,1.3-1.02.8-.04,1.19.52,1.22,1.11.01.25-.05.51-.03.77,0,.07.05.18.13.36.04.11.08.18.12.29,0,.07.05.22.05.33Z"/>
        <path class="cls-3" d="m125.81,147c.03.55-.39,1.01-1.01,1.04-.44.02-.7-.18-.9-.43-1.56-1.9-1.91-4.47-2.03-6.84-.13-2.62-.08-16.07,1.68-17.29.18-.12.39-.17.58-.17.69-.04,1.01.42,1.14.82.08.21.09.43.11.65l.03.55c.03.55.06,1.09.05,1.68-.13,4.57-.56,9.12-.33,13.71.06,1.2.16,2.37.33,3.56.12.83.16,1.71.35,2.54v.18Z"/>
        <path class="cls-3" d="m134.57,133.84s.05-.48.05-.55c.06-.33.15-.66.17-.96,0-.07-.04-.11-.05-.18-.03-.66.56-1.23,1.25-1.27.77-.04,1.2.52,1.23,1.11.03.51.2,1.05.22,1.52.1,2,.42,3.96,1.03,5.9.05.22.14.51.15.8.03.58-.39,1.01-1.04,1.04-1.64.08-2.49-2.21-2.74-3.55-.62,1.46-2.12,4.96-3.84,5.05-.36.02-.66-.11-.89-.25-1.66-1.12-1.77-3.2-1.85-4.77-.08-1.57-.16-6.79,1.99-6.9.73-.04,1.41.48,1.45,1.2.05.91-.18,2.2-.2,3.26,0,1.24-.02,2.52.04,3.76l.03.62c1.11-1.23,2.67-4.37,2.99-5.85Z"/>
        <path class="cls-3" d="m141.38,139.89c.66,0,1.36.08,2.05.04-1.36-2.38-3.45-3.26-3.62-6.58-.08-1.68,1.42-2.96,3.1-3.04,1.57-.08,2.85.66,2.93,2.3.02.29-.06.92-.76.95-.22.01-.33-.06-.48-.16-.04-.03-.11-.07-.11-.1l-.12-.1s-.08-.07-.11-.07c-.07-.03-.15-.03-.29-.02-.11,0-.44.02-.73.11-.11.04-.22.01-.25.08-.55,2.8,3.59,4.57,3.72,7.19.07,1.31-.91,2.24-2.26,2.31-1.06.05-4.05-.67-4.12-1.98-.02-.47.39-.93.94-.96l.11.03Z"/>
        <path class="cls-3" d="m151,139.99c-.25-1.34-.36-2.72-.49-3.99-.07.04-.14.04-.22.05-.25.05-.51.1-.73.11-.26.01-.51-.01-.8,0-.33.02-.88-.1-.91-.72-.02-.37.15-.63.48-.72.11-.04.25-.05.33-.05h.25c.07-.05.11-.06.18-.1.18-.04.36-.09.54-.14.29-.09.58-.18.79-.22-.04-.69-.11-1.38-.14-2.04-.04-.84-.14-2.7-.08-4.49.06-1.68.22-3.59.92-4.18.25-.2.53-.32.82-.33,1.13-.06,1.4.99,1.43,1.57.01.26-.01.51,0,.73.01,2.41.06,4.82.18,7.22l.04.73c.76-.15,1.52-.3,2.28-.33.22-.01.51,0,.77.07.33.13.6.37.62.77.02.4-.25.74-.65.87-.43.17-1.01.27-1.59.37-.44.06-.91.12-1.31.18.1,1.31.24,2.58.45,3.88.16,1.09.44,2.13.64,3.26.05.22.06.44.14.69.05.25.1.47.18.61.04.07.08.14.08.21.04.07.08.18.09.29.02.44-.39,1.04-1,1.07-1.86.09-3.09-4.04-3.3-5.38Z"/>
        <path class="cls-3" d="m159.55,140.07c-.15-.72-.22-1.41-.28-1.92-.19-1.49-.55-3-.63-4.54-.03-.62.22-1.51,1.27-1.56,1.09-.05,1.55,1.09,1.85,1.95.13.47.23.97.33,1.41.63-1.31,1.91-3.42,3.51-3.5.58-.03,1.18.31,1.22.96,0,.18-.02.33-.08.48-.03.11-.14.19-.21.27l-.24.23c-.7.51-1.51,1.14-1.99,1.89-.53.98-1.07,1.96-1.42,2.96-.09.33-.18.74-.2,1.18-.05.44-.06.88-.08,1.28,0,.59-.45,1.19-1.18,1.23-.26.01-.48-.05-.67-.15-.08-.07-.15-.1-.15-.17-.07-.03-.11-.1-.19-.14-.5-.45-.75-1.17-.86-1.86Z"/>
        <path class="cls-3" d="m171.1,140.07c-1.79.09-2.92-1.39-3-2.92-.06-1.09.37-2.14.79-3.07.79-1.79,2.35-4.14,4.9-4.27.36-.02.77.04,1.11.2.06-.19.13-.37.19-.56.16-.37.47-.83,1.09-.86.62-.03,1.01.46,1.04.97,0,.14-.02.29-.05.4s-.06.22-.05.37c-.14.92-.08,1.94-.04,2.85l.12,2.33c.09,1.02.2,1.82.25,1.96,0,.04.04.07.08.11l.12.1c.11.1.27.28.28.53.02.4-.29.82-.8.84-1.24.06-2.19-1.35-2.42-2.4-.74,1.35-1.88,3.31-3.59,3.4Zm.19-2.82l.1-.11c1.51-1.17,2.4-3.15,3.11-4.98-.04,0-.11.04-.18.08-1.44.44-2.67,2.91-3.04,4.25-.1.22-.13.41-.11.63,0,.04,0,.11.05.18t.07-.04Z"/>
        <path class="cls-3" d="m184.4,130.7c-1.4.44-2.02,2.7-1.95,4.15.03.51.25,1.96.97,1.92.73-.04,3.35-2.36,3.91-2.98l.07-.08s.07-.11.17-.16c.11-.08.21-.12.4-.13.51-.03.86.36.88.76,0,.11-.12.44-.19.52-.06.19-.2.41-.33.64-.27.38-.51.76-.65.95-.89,1.21-2.5,3.2-4.44,3.29-2.84.14-3.91-2.87-4.01-4.8-.13-2.55,1.39-6.57,4.37-6.72.98-.05,2.28.36,2.35,1.63.01.25-.01.48,0,.69v.04c.15.06.27.24.28.46.02.4-.29.78-.73.8-.47.02-.78-.33-.91-.58-.12-.14-.16-.28-.2-.43Z"/>
        <path class="cls-3" d="m194.47,137.68l.08.07s.08.07.12.14c.08.1.12.25.13.43.04.69-.68,1.06-1.22,1.08-2.48.12-3.16-3.28-3.26-5.17-.07-1.38-.01-3.91.69-5.19.3-.49.68-.95,1.34-.98.58-.03.96.21,1.2.6.2.28.25.72.27,1.04.06,1.17-.14,2.31-.08,3.48.07,1.42.43,2.75.61,4.17,0,.15.05.22.09.25,0,.04,0,.07.04.07Zm-.81-13.07l.04.73c.03.58-.34,1.11-1.11,1.15-1.46.07-1.93-1.33-1.98-2.24-.02-.4.02-.99.25-1.47.16-.48.57-.98,1.3-1.02.8-.04,1.2.52,1.23,1.11.01.25-.05.51-.03.77,0,.07.04.18.13.36.04.11.08.18.12.29,0,.07.05.22.05.33Z"/>
        <path class="cls-3" d="m204.66,133.29c.03.58-.12,1.21-.42,1.77-.84,1.39-2.89,3.43-4.86,3.53-2.19.11-3.09-1.93-3.17-3.42-.01-.22-.02-.44,0-.62.11-1.36,1.33-4.71,3.45-4.81.47-.02.92.14,1.26.41,1.93-.06,3.63,1.06,3.74,3.14Zm-4.88-5.38c-.51.03-.97-.35-.99-.86-.04-.87,2.04-2.37,2.76-2.41.58-.03,1.04.35,1.07.9.02.36-.22.74-.62.83-.21.23-.6.5-.94.81-.21.16-.42.35-.63.47-.11.08-.21.12-.28.16-.11.04-.21.08-.36.09Zm2.71,5.3c-.04-.69-.97-1.19-1.56-1.24l-.1.12s-.07.08-.14.12c-.7.62-1.32,2-1.28,2.91,0,.18.05.36.1.54l.08.14c.95-.05,2.94-1.76,2.9-2.59Z"/>
        <path class="cls-3" d="m209.63,131.94c.97-1.69,2.72-4.63,4.8-4.74,2.11-.11,2.52,2.14,2.6,3.78.02.47.01.99,0,1.5,0,1.32.1,2.66-.02,3.95-.04.62-.51,1.52-1.42,1.57-1.28.06-1.63-1.27-1.67-1.92-.09-1.86,0-3.76-.1-5.62l-.03-.58c-.83.19-1.68,1.4-2.48,3.01-.79,1.65-1.43,3.47-1.76,4.29-.22.67-.71,1.17-1.47,1.21-1.35.07-1.89-1.33-1.95-2.46-.08-1.57.06-8.15,2.21-8.26,1.02-.05,1.44.95,1.47,1.53v.07c-.03.84-.12,1.83-.26,2.75.04,0,.03-.04.07-.08Z"/>
      </g>
      <g>
        <path class="cls-3" d="m98.14,94.05c-1.25.35-1.85,2.33-1.82,3.62.01.45.17,1.74.81,1.73.65-.01,3.02-2,3.53-2.53l.06-.07s.06-.1.16-.13c.1-.07.19-.1.35-.1.45-.01.75.34.76.69,0,.1-.12.39-.18.46-.06.16-.19.36-.31.55-.25.33-.47.66-.6.82-.82,1.05-2.3,2.76-4.01,2.8-2.52.06-3.38-2.64-3.42-4.35-.05-2.26,1.39-5.78,4.04-5.84.87-.02,2.01.38,2.04,1.5,0,.23-.02.42-.02.61v.03c.13.06.23.22.24.41,0,.36-.28.69-.66.69-.42,0-.69-.31-.79-.53-.1-.13-.14-.25-.17-.38Z"/>
        <path class="cls-3" d="m110.55,96.97c.01.52-.14,1.07-.42,1.56-.78,1.21-2.65,2.97-4.39,3.01-1.94.04-2.69-1.78-2.72-3.11,0-.19,0-.39.02-.55.13-1.2,1.3-4.13,3.17-4.17.42,0,.81.14,1.11.39,1.71,0,3.19,1.03,3.23,2.87Zm-1.91-.12c-.01-.61-.83-1.08-1.35-1.13l-.09.1s-.06.07-.13.1c-.63.53-1.22,1.74-1.2,2.55,0,.16.04.32.08.48l.07.13c.84-.02,2.65-1.48,2.63-2.22Z"/>
        <path class="cls-3" d="m114.91,95.9c.9-1.47,2.53-4.03,4.37-4.07,1.87-.04,2.18,1.95,2.21,3.41,0,.42-.01.87-.04,1.33-.04,1.16.02,2.36-.12,3.49-.05.55-.49,1.34-1.29,1.35-1.13.03-1.42-1.16-1.43-1.74-.04-1.65.09-3.33.05-4.98v-.52c-.75.15-1.54,1.2-2.28,2.6-.74,1.44-1.35,3.03-1.66,3.75-.21.59-.65,1.02-1.33,1.03-1.19.03-1.64-1.22-1.66-2.22-.03-1.39.26-7.21,2.16-7.25.9-.02,1.25.88,1.26,1.39v.07c-.05.74-.16,1.62-.3,2.43.03,0,.03-.03.06-.07Z"/>
        <path class="cls-3" d="m135.94,91.65l.06-.03c.19-.1.45-.14.67-.15,1.42-.03,1.58,1.39,1.6,2.45.03,1.32-.1,2.65-.07,4.04,0,.19-.02.48-.01.78.04.29.04.55.11.74,0,.03.03.03.03.06.03.06.07.16.07.29.01.65-.66.92-1.08.93-1.45.03-1.75-1.67-1.77-2.8-.03-1.55.16-3.07.32-4.59-1.4.97-2.69,3.87-3.24,5.4-.03.16-.12.36-.15.59-.09.26-.22.49-.34.72-.22.46-.62.98-1.27,1-.52.01-1.21-.55-1.44-.97-.81-1.47-1.13-4.27-1.16-5.85-.06-2.52.37-5.01,1-7.42.12-.33.27-.85.52-1.27.25-.46.66-.92,1.3-.93.97-.02,1.18.81,1.19,1.33,0,.29-.05.55-.08.78-.77,2.96-1.13,5.64-1.07,8.65.02.94.07,1.81.19,2.71.7-1.89,2.68-5.68,4.6-6.43Z"/>
        <path class="cls-3" d="m142.35,100.75c-1.58.04-2.55-1.3-2.58-2.66-.02-.97.38-1.88.78-2.7.74-1.57,2.18-3.6,4.44-3.65.32,0,.68.05.97.21.06-.16.12-.33.18-.49.15-.33.44-.72.98-.73.55-.01.88.43.89.88,0,.13-.03.26-.06.36-.03.1-.06.2-.06.33-.14.81-.12,1.71-.1,2.52l.05,2.07c.05.9.13,1.61.17,1.74,0,.03.03.06.07.09l.1.09c.1.09.23.25.24.48,0,.36-.27.72-.73.73-1.1.02-1.9-1.25-2.08-2.18-.68,1.18-1.74,2.88-3.26,2.92Zm.24-2.49l.1-.1c1.37-1,2.2-2.73,2.87-4.33-.03,0-.1.04-.16.07-1.28.35-2.43,2.51-2.79,3.68-.09.2-.12.36-.12.55,0,.03,0,.1.04.16t.06-.03Z"/>
        <path class="cls-3" d="m151.35,101.84c-.14-.29-.24-.58-.27-.74-.75-1.6-.89-5.18-.93-6.96-.04-2,.05-6.56,1.2-8.36.19-.29.54-.5.96-.51.71-.02,1.17.49,1.19,1.1.01.61-.13,1.26-.22,1.91-.25,1.91-.33,3.85-.29,5.79v.52c.65-2.02,1.75-3.11,3.91-3.16,2.07-.05,3.26,1.48,3.3,3.22.06,2.81-2.72,6.75-5.98,6.82-.13,0-.26-.03-.42-.02.04.32.05.68.05,1,.01.48-.4.91-.92.92-.35,0-.55-.12-.72-.27-.03-.03-.07-.09-.1-.13,0-.03-.03-.06-.07-.09-.03-.06-.07-.13-.1-.16,0-.03-.07-.06-.07-.06l-.1-.09s-.03-.03-.07-.06c-.1-.16-.27-.41-.37-.67Zm6.17-7.27c0-.42-.11-.71-.41-.96-.29-.19-.85-.43-1.11-.43-.23,0-.48.04-.64.14-1.15.8-1.48,4.49-1.58,5.88,1.83-.46,3.78-2.76,3.74-4.64Z"/>
        <path class="cls-3" d="m165.38,99.17l.07.06s.07.06.1.13c.07.09.1.22.1.38.01.61-.63.92-1.11.93-2.2.05-2.71-2.98-2.75-4.66-.03-1.23.08-3.46.74-4.57.28-.43.63-.82,1.21-.83.52-.01.84.21,1.05.56.17.25.21.64.21.93.02,1.03-.18,2.04-.16,3.07.03,1.26.31,2.45.44,3.7,0,.13.04.19.07.22,0,.03,0,.07.03.06Zm-.39-11.59v.65c.03.52-.32.98-1,.99-1.29.03-1.67-1.22-1.69-2.03,0-.35.05-.87.26-1.3.15-.42.53-.85,1.18-.87.71-.02,1.04.49,1.06,1.01,0,.23-.05.45-.05.68,0,.07.04.16.1.32.03.1.07.16.1.26,0,.06.04.19.04.29Z"/>
        <path class="cls-3" d="m171.01,104.21c.01.48-.37.88-.92.89-.39,0-.62-.18-.78-.4-1.33-1.71-1.57-4-1.62-6.1-.05-2.32.33-14.22,1.92-15.25.16-.1.35-.14.51-.14.61-.01.88.4.99.75.07.19.07.39.08.58v.48c.02.48.03.97.01,1.49-.23,4.04-.73,8.06-.63,12.13.02,1.07.08,2.1.2,3.16.08.74.1,1.52.24,2.25v.16Z"/>
        <path class="cls-3" d="m177.13,98.91l.07.06s.07.06.1.13c.07.09.1.22.1.38.01.61-.63.92-1.11.93-2.19.05-2.71-2.98-2.75-4.65-.03-1.23.08-3.46.74-4.57.28-.43.63-.82,1.21-.83.52-.01.84.21,1.05.56.17.25.21.64.21.93.02,1.03-.18,2.04-.16,3.07.03,1.26.31,2.45.44,3.7,0,.13.04.19.07.22,0,.03,0,.07.03.06Zm-.39-11.59v.65c.03.52-.32.98-1,.99-1.29.03-1.67-1.22-1.69-2.03,0-.35.05-.87.26-1.3.15-.42.53-.85,1.18-.87.71-.02,1.04.49,1.06,1.01,0,.23-.05.45-.05.68,0,.07.04.16.1.32.04.1.07.16.1.26,0,.06.04.19.04.29Z"/>
        <path class="cls-3" d="m186.7,98.08c-.78,1.37-2.45,3.19-4.16,3.23-2.61.06-3.48-2.67-3.52-4.38-.06-2.74,1.07-7.16,4.97-7.25,1.07-.02,1.95.41,2.51,1.11.16-2.75.68-5.47,1.86-8.02.06-.1.09-.23.15-.36.06-.16.15-.29.25-.42.19-.29.44-.53.89-.54.87-.02,1.05.75,1.06,1.17.01.45-.04.94-.1,1.42-.09.49-.14.91-.23,1.39-.37,2.11-.91,4.12-1.31,6.23-.03.1-.03.26-.02.45.08,3.65.43,9.39,2.12,12.55.04.13.1.26.14.35.32.12.53.41.53.76.01.61-.53,1.05-1.14,1.06-.16,0-.32-.06-.45-.09-.1-.03-.23-.09-.33-.12-2.35-1.01-3.02-6.39-3.23-8.55Zm-.89-5.28c-.07-.06-.16-.12-.23-.22-.33-.25-.66-.5-1.04-.49-2.26.05-2.83,3.29-2.8,5,0,.45.11,1.81.75,1.79.29,0,.61-.14.83-.34,1.56-1.1,2.51-3.48,3.05-5.3-.16-.09-.46-.28-.56-.44Z"/>
        <path class="cls-3" d="m194.97,99.58c-1.58.04-2.55-1.3-2.58-2.66-.02-.97.38-1.88.78-2.7.74-1.57,2.18-3.6,4.44-3.65.32,0,.68.05.97.21.06-.16.12-.33.18-.49.15-.33.44-.72.98-.73.55-.01.88.43.89.88,0,.13-.03.26-.06.36-.03.1-.06.19-.06.32-.14.81-.12,1.71-.11,2.52l.05,2.07c.05.9.13,1.61.17,1.74,0,.03.03.06.07.09l.1.09c.1.09.23.25.24.48,0,.36-.28.72-.73.73-1.1.02-1.9-1.25-2.08-2.18-.68,1.18-1.74,2.88-3.26,2.92Zm.24-2.49l.09-.1c1.37-1,2.2-2.73,2.88-4.33-.03,0-.1.04-.16.07-1.28.35-2.43,2.51-2.79,3.68-.09.2-.12.36-.12.55,0,.03,0,.1.04.16t.06-.03Z"/>
        <path class="cls-3" d="m210.24,97.56c-.78,1.38-2.45,3.19-4.16,3.23-2.62.06-3.48-2.67-3.52-4.38-.06-2.74,1.07-7.16,4.97-7.25,1.07-.02,1.95.41,2.51,1.11.17-2.75.69-5.47,1.86-8.02.06-.1.09-.23.15-.36.06-.16.16-.29.25-.43.19-.29.44-.53.89-.54.87-.02,1.05.75,1.06,1.17,0,.45-.04.94-.1,1.42-.09.49-.14.91-.23,1.39-.37,2.11-.91,4.12-1.31,6.23-.03.1-.03.26-.02.45.08,3.65.44,9.39,2.12,12.55.04.13.1.26.14.35.33.12.53.41.53.76.01.61-.53,1.04-1.14,1.06-.16,0-.32-.06-.45-.09-.1-.03-.23-.09-.33-.12-2.35-1.01-3.02-6.39-3.23-8.55Zm-.89-5.28c-.07-.06-.16-.13-.23-.22-.33-.25-.66-.5-1.04-.49-2.26.05-2.83,3.29-2.79,5,0,.45.1,1.81.75,1.79.29,0,.61-.14.83-.34,1.56-1.1,2.51-3.48,3.05-5.3-.16-.09-.46-.28-.56-.44Z"/>
        <path class="cls-3" d="m221.36,97.92c.36,0,.68-.08.96-.18.13-.07.26-.1.35-.14.06-.03.13-.04.19-.07h.19c.45-.01.69.34.69.66,0,.23-.12.42-.21.55-.69.69-2.04,1.05-2.98,1.07-.52.01-1.1-.07-1.65-.25-1.69-.61-2.97-2.74-3-4.39-.06-2.58,2.21-5.25,5.11-5.31,1.36-.03,2.44.75,2.47,2.11.05,2.2-3.02,3.49-4.89,3.6.19,1.38,1.25,2.4,2.76,2.36Zm.71-5.86c0-.35-.24-.54-.56-.54-1.26.03-2.32,1.54-2.72,2.55.9-.18,3.31-.88,3.28-2.01Z"/>
        <path class="cls-3" d="m226.1,97.4c.58.02,1.2.1,1.81.09-1.15-2.14-2.97-2.97-3.04-5.91-.03-1.48,1.33-2.58,2.82-2.61,1.39-.03,2.5.66,2.53,2.11,0,.26-.08.81-.69.82-.19,0-.29-.06-.42-.15-.03-.03-.1-.06-.1-.09l-.1-.09s-.07-.06-.1-.06c-.06-.03-.13-.03-.26-.03-.1,0-.39,0-.64.08-.1.03-.19,0-.22.07-.56,2.47,3.06,4.13,3.12,6.45.03,1.16-.86,1.96-2.05,1.98-.94.02-3.57-.69-3.59-1.86,0-.42.37-.82.85-.83l.1.03Z"/>
      </g>
      <g>
        <path class="cls-3" d="m19.58,123.43c.02.55-.66,1.04-1.17,1.06-.62.02-1.11-.47-1.42-.98-1.09-2.19-1.38-5.39-1.46-7.76-.05-1.46-.15-5.76.47-6.88.24-.37.6-.71,1.18-.73,1.24-.04,1.42,1.12,1.46,2.07.03,1.06.03,2.08.07,3.17.43-1.22.98-2.33,1.64-3.41.21-.41.62-1.01,1.12-1.57.46-.45,1.1-1.02,1.79-1.04,1.9-.06,2.59,2.14,2.63,3.31.1,3.17-2.51,7.02-6.26,7.14-.07,0-.15-.03-.22-.03-.11.95-.19,1.98-.16,2.92.01.44.15,2.22.3,2.51.04.04.04.11.04.22Zm3.41-13.84c0-.11,0-.22-.05-.33-1.35.99-2.74,4.33-3.05,5.87,1.93-1.38,3.18-3.06,3.1-5.54Z"/>
        <path class="cls-3" d="m30.26,116.32c-1.79.06-2.9-1.44-2.95-2.97-.04-1.09.4-2.13.85-3.06.82-1.78,2.42-4.1,4.97-4.18.36-.01.77.05,1.1.22.07-.18.13-.37.2-.55.17-.37.48-.82,1.1-.84.62-.02,1,.48,1.02.99,0,.15-.03.29-.06.4-.03.11-.07.22-.06.37-.15.92-.12,1.94-.09,2.85l.08,2.33c.07,1.02.17,1.82.21,1.96,0,.04.04.07.08.11l.11.11c.11.11.26.28.27.54.01.4-.3.81-.81.83-1.24.04-2.16-1.39-2.38-2.44-.76,1.34-1.94,3.28-3.65,3.33Zm.24-2.82l.11-.11c1.53-1.15,2.45-3.11,3.2-4.92-.04,0-.11.04-.18.08-1.45.41-2.72,2.86-3.11,4.19-.1.22-.13.4-.13.62,0,.04,0,.11.04.18t.07-.04Z"/>
        <path class="cls-3" d="m39.21,115.44c-.13-.73-.19-1.42-.25-1.93-.16-1.49-.5-3.01-.55-4.54-.02-.62.24-1.5,1.3-1.54,1.09-.04,1.53,1.12,1.82,1.98.12.47.21.98.3,1.41.65-1.3,1.97-3.39,3.57-3.44.58-.02,1.18.33,1.2.98,0,.18-.02.33-.09.48-.03.11-.14.19-.21.26l-.25.23c-.71.5-1.53,1.11-2.02,1.86-.55.97-1.1,1.94-1.47,2.93-.1.33-.19.74-.22,1.18-.06.44-.08.88-.1,1.28-.02.58-.47,1.18-1.2,1.21-.26,0-.48-.06-.66-.16-.08-.07-.15-.1-.15-.18-.07-.03-.11-.11-.19-.14-.49-.46-.73-1.18-.83-1.87Z"/>
        <path class="cls-3" d="m50.76,115.64c-1.79.06-2.9-1.44-2.95-2.97-.04-1.09.4-2.13.85-3.06.82-1.78,2.42-4.1,4.97-4.18.36-.01.77.05,1.1.22.07-.19.13-.37.2-.55.17-.37.48-.82,1.1-.84.62-.02,1,.48,1.02.99,0,.15-.03.29-.06.4-.03.11-.07.22-.06.37-.15.92-.12,1.94-.09,2.85l.08,2.33c.07,1.02.17,1.82.21,1.96,0,.04.04.07.08.11l.11.11c.11.11.26.28.27.54.01.4-.3.81-.81.83-1.24.04-2.16-1.39-2.38-2.44-.76,1.34-1.94,3.28-3.65,3.33Zm.24-2.82l.11-.11c1.53-1.15,2.45-3.11,3.2-4.92-.04,0-.11.04-.18.08-1.45.41-2.72,2.86-3.11,4.19-.1.22-.13.41-.13.62,0,.04,0,.11.04.18t.07-.04Z"/>
      </g>
      <g>
        <path class="cls-3" d="m58.59,128.66c.4-.07.74-.21,1.04-.38.13-.1.27-.16.37-.22.06-.05.14-.06.2-.11l.21-.04c.5-.09.83.26.89.62.05.25-.06.49-.14.66-.65.9-2.09,1.54-3.13,1.73-.57.11-1.24.12-1.89.01-2-.37-3.81-2.53-4.14-4.35-.53-2.87,1.52-6.25,4.75-6.85,1.51-.28,2.86.4,3.13,1.91.45,2.44-2.74,4.44-4.81,4.9.46,1.51,1.82,2.45,3.51,2.13Zm-.27-6.67c-.07-.39-.36-.56-.72-.5-1.4.26-2.31,2.13-2.58,3.33.97-.37,3.53-1.58,3.3-2.83Z"/>
        <path class="cls-3" d="m67.94,132.87c.1.54-.25,1.05-.86,1.16-.43.08-.72-.09-.95-.31-1.79-1.67-2.48-4.18-2.91-6.51-.48-2.58-2.2-15.92-.61-17.36.16-.14.37-.21.55-.25.68-.13,1.05.29,1.23.66.11.2.15.42.19.63l.1.54c.1.54.2,1.08.27,1.66.47,4.55.64,9.12,1.48,13.64.22,1.18.47,2.33.79,3.49.22.81.38,1.67.68,2.47l.03.18Z"/>
      </g>
    </g>
    <g>
      <g>
        <path class="cls-3" d="m0,23.36c.02-.44.45-.93.99-.9.33.02.5.21.64.36l.31.34c1.46,1.42,4.13,2.03,6.14,2.13,1.82.09,4.21-.3,5.3-1.67.31-.46.56-.92.58-1.39.04-.76-.55-1.41-1.72-2.13-1.09-.75-2.63-1.41-4.16-2.21-3.06-1.65-6.27-3.92-6.06-8.18C2.26,4.86,6.11,1.47,10.85,1.7c2.04.1,3.85,1.21,3.74,3.43-.08,1.53-.97,3.49-2.4,4.33-.07.03-.26.13-.45.23-.11.07-.19.1-.3.13-.04.03-.11.03-.15.07-.04,0-.11.03-.18.03-.51-.03-.74-.47-.73-.8s.21-.5.39-.6.34-.17.52-.27c1.02-.68,1.66-1.93,1.72-3.13.05-1.02-.58-1.49-1.71-1.54-.58-.03-1.17.05-1.73.21-2.88.77-4.24,3.15-4.38,5.95-.15,2.99,2.66,4.44,5.76,6.01.78.4,1.53.77,2.28,1.21,2.06,1.16,4.03,2.64,3.9,5.3-.06,1.13-.74,2.41-1.48,3.28-1.78,2.07-4.91,2.71-7.54,2.59-3.09-.15-6.46-1.52-8-4.3-.07-.15-.13-.3-.12-.48Z"/>
        <path class="cls-3" d="m27.09,22.28c-.03.58-.24,1.19-.6,1.72-.98,1.3-3.22,3.13-5.19,3.03-2.18-.11-2.88-2.22-2.81-3.71.01-.22.02-.44.07-.62.25-1.34,1.79-4.55,3.9-4.44.47.02.9.23,1.21.53,1.93.13,3.51,1.41,3.4,3.49Zm-2.14-.29c.03-.69-.85-1.28-1.43-1.38l-.11.1s-.08.07-.15.1c-.76.55-1.51,1.86-1.56,2.77,0,.18.02.37.05.55l.07.15c.95.05,3.1-1.45,3.14-2.29Z"/>
        <path class="cls-3" d="m36.38,17.38c.1-.51.46-1.11,1.18-1.07.8.04,1.09.75,1.07,1.26v.25s-.05.03-.05.07c-.01.22.01.51,0,.77-.03.66-.14,1.27-.21,1.96-.33,2.9-.65,5.81-.8,8.76-.09,1.86-.07,3.68-.16,5.5-.03.62-.67.92-1.14.89-.66-.03-1.07-.53-1.34-1.05-.23-.56-.34-1.29-.41-1.99-.11-1.43,0-3.03.03-3.61.07-1.38.21-2.76.39-4.14-.82,1.13-1.87,2.39-2.62,2.9-.38.27-.9.54-1.45.51-2.51-.12-2.82-3.5-2.73-5.43.03-.55.17-2.04.53-3.3.21-.61.46-1.25.78-1.71.32-.5.77-.84,1.43-.81.76.04,1.21.61,1.18,1.26,0,.18-.02.33-.06.51-.48,1.51-.68,2.74-.76,4.34-.04.73-.01,1.75.21,2.46,2.5-1.88,4.42-5.37,4.94-8.33Z"/>
      </g>
      <path class="cls-3" d="m51.46,22.56s.1-.47.1-.54c.09-.32.21-.65.27-.94,0-.07-.03-.11-.03-.18.03-.66.68-1.17,1.37-1.14.76.04,1.14.64,1.11,1.22-.03.51.09,1.06.07,1.54-.1,2,.02,3.98.44,5.97.03.22.08.52.07.81-.03.58-.49.96-1.14.93-1.64-.08-2.25-2.45-2.37-3.8-.76,1.39-2.6,4.73-4.32,4.64-.36-.02-.65-.18-.86-.33-1.54-1.28-1.44-3.36-1.36-4.92s.52-6.76,2.66-6.66c.73.04,1.36.61,1.32,1.34-.04.91-.4,2.17-.52,3.22-.13,1.23-.27,2.5-.33,3.74l-.03.62c1.22-1.11,3.08-4.08,3.56-5.52Z"/>
      <path class="cls-3" d="m59.92,24.87c1.14-1.59,3.17-4.33,5.24-4.23s2.29,2.38,2.21,4.01c-.02.47-.08.98-.15,1.49-.14,1.31-.17,2.66-.41,3.92-.1.62-.66,1.46-1.57,1.42-1.27-.06-1.5-1.42-1.47-2.08.09-1.86.37-3.74.46-5.6l.03-.58c-.84.1-1.81,1.22-2.76,2.75-.95,1.56-1.77,3.31-2.17,4.09-.29.64-.82,1.09-1.58,1.05-1.35-.07-1.75-1.51-1.69-2.64.08-1.57.87-8.1,3.02-7.99,1.02.05,1.33,1.09,1.3,1.67v.07c-.12.83-.31,1.81-.54,2.71.04,0,.04-.03.08-.07Z"/>
      <path class="cls-3" d="m70.9,31.58c-1.78-.09-2.76-1.67-2.69-3.2.05-1.09.58-2.09,1.1-2.98.96-1.7,2.75-3.88,5.29-3.75.36.02.76.11,1.08.31.08-.18.16-.36.25-.54.2-.36.55-.78,1.17-.75s.96.56.93,1.07c0,.15-.05.29-.09.4s-.08.21-.09.36c-.23.9-.28,1.92-.32,2.83l-.11,2.33c-.01,1.02.02,1.83.05,1.97,0,.04.03.07.07.11l.1.11c.1.11.24.3.23.56-.02.4-.37.78-.88.76-1.24-.06-2.04-1.56-2.17-2.63-.87,1.27-2.2,3.1-3.91,3.02Zm.47-2.79l.11-.1c1.62-1.02,2.7-2.9,3.59-4.64-.04,0-.11.03-.19.06-1.47.29-2.94,2.63-3.44,3.92-.12.21-.17.39-.18.61,0,.04,0,.11.03.18t.07-.03Z"/>
    </g>
  </g>
  <g>
    <g>
      <g>
        <path class="cls-2" d="m80.8,119.22c-.83,1.58-2.66,3.68-4.59,3.78-2.95.15-4.02-2.9-4.12-4.83-.16-3.1.98-8.12,5.39-8.35,1.2-.06,2.21.4,2.87,1.17.1-3.11.6-6.21,1.84-9.12.07-.11.1-.26.16-.41.06-.18.17-.34.27-.49.2-.34.48-.61.99-.63.98-.05,1.21.82,1.23,1.29.03.51-.02,1.06-.06,1.61-.08.55-.13,1.03-.21,1.58-.35,2.39-.9,4.68-1.29,7.08-.03.11-.02.29-.01.51.21,4.12.79,10.59,2.8,14.11.04.14.12.29.17.39.37.13.61.44.63.84.04.69-.56,1.2-1.25,1.23-.18,0-.37-.05-.52-.08-.11-.03-.26-.09-.37-.13-2.68-1.07-3.61-7.12-3.92-9.56Zm-1.18-5.93c-.08-.07-.19-.14-.27-.24-.38-.27-.76-.55-1.2-.52-2.55.13-3.1,3.81-3,5.74.03.51.18,2.04.91,2,.33-.02.68-.18.93-.41,1.72-1.29,2.72-4.01,3.27-6.08-.19-.1-.53-.3-.65-.48Z"/>
        <path class="cls-2" d="m91.55,119.37l.08.07s.08.07.12.14c.08.11.12.25.13.43.04.69-.68,1.06-1.22,1.08-2.48.12-3.16-3.27-3.26-5.17-.07-1.38-.02-3.91.69-5.19.3-.49.68-.95,1.34-.98.58-.03.96.21,1.2.6.2.28.26.72.27,1.05.06,1.17-.14,2.31-.08,3.47.07,1.42.43,2.75.61,4.17,0,.15.05.22.09.25,0,.04,0,.07.04.07Zm-.81-13.07l.04.73c.03.58-.35,1.11-1.11,1.15-1.46.07-1.93-1.33-1.98-2.24-.02-.4.02-.99.25-1.47.16-.48.57-.98,1.3-1.02.8-.04,1.2.53,1.23,1.11.01.25-.05.51-.03.77,0,.07.05.18.13.36.04.11.08.18.12.29,0,.07.05.22.05.33Z"/>
        <path class="cls-2" d="m94.7,118.73c.66,0,1.36.08,2.05.04-1.36-2.38-3.45-3.26-3.62-6.58-.08-1.68,1.42-2.96,3.1-3.04,1.57-.08,2.85.66,2.93,2.3.01.29-.06.92-.76.95-.22.01-.33-.06-.48-.16-.04-.03-.11-.07-.11-.1l-.12-.1s-.08-.07-.11-.07c-.07-.03-.15-.03-.29-.02-.11,0-.44.02-.73.11-.11.04-.22.01-.25.08-.55,2.8,3.59,4.57,3.72,7.19.07,1.31-.91,2.24-2.26,2.31-1.06.05-4.05-.67-4.12-1.98-.02-.47.39-.93.94-.96l.11.03Z"/>
        <path class="cls-2" d="m107.48,118.56c.4-.02.76-.11,1.08-.24.14-.08.29-.12.39-.17.07-.04.14-.04.21-.08h.22c.51-.04.79.35.8.72.01.25-.12.48-.22.63-.76.81-2.27,1.25-3.33,1.3-.58.03-1.24-.05-1.88-.23-1.93-.63-3.44-3-3.53-4.86-.15-2.92,2.33-6,5.61-6.17,1.53-.08,2.78.77,2.86,2.3.13,2.48-3.3,4.04-5.41,4.22.26,1.56,1.49,2.66,3.2,2.58Zm.61-6.64c-.02-.4-.29-.61-.65-.59-1.42.07-2.58,1.81-2.99,2.96,1.01-.23,3.71-1.1,3.64-2.38Z"/>
        <path class="cls-2" d="m115.06,113.21c.97-1.69,2.72-4.63,4.8-4.74,2.11-.11,2.52,2.14,2.6,3.78.02.47.01.99,0,1.5,0,1.31.1,2.66-.02,3.95-.04.62-.51,1.52-1.42,1.57-1.28.06-1.64-1.27-1.67-1.92-.09-1.86,0-3.76-.1-5.62l-.03-.58c-.83.19-1.68,1.4-2.48,3.01-.79,1.65-1.43,3.47-1.75,4.29-.22.67-.71,1.17-1.47,1.21-1.35.07-1.89-1.33-1.95-2.46-.08-1.57.06-8.15,2.21-8.26,1.02-.05,1.44.95,1.47,1.53v.07c-.03.84-.12,1.83-.26,2.75.04,0,.03-.04.07-.08Zm.92-7.13c-.29.01-.85-.14-.87-.65-.04-.84,1.75-2.17,2.48-2.21.29-.01.59.08.81.21.26.13.49.3.68.44.08.07.19.14.27.21.08.07.15.14.23.21.15.1.26.13.33.13l.14-.15c.07-.11.17-.3.31-.45.07-.11.1-.19.17-.3.07-.11.14-.19.21-.26.14-.19.35-.38.64-.4.44-.02.82.29.84.69,0,.14-.03.18-.06.26-.31,1-.99,2.13-2.15,2.19-.8.04-1.59-.47-2.24-.91-.04,0-.04-.04-.07-.03-.11.04-.21.12-.35.2-.21.16-.42.28-.53.39-.17.26-.56.43-.82.44Z"/>
        <path class="cls-2" d="m132.75,113.41c.03.58-.12,1.21-.42,1.77-.84,1.39-2.9,3.43-4.86,3.53-2.19.11-3.09-1.93-3.17-3.42-.01-.22-.02-.44,0-.62.11-1.36,1.33-4.71,3.45-4.81.47-.02.92.13,1.26.41,1.93-.06,3.63,1.06,3.74,3.14Zm-2.16-.07c-.04-.69-.97-1.19-1.56-1.24l-.1.12s-.07.08-.14.12c-.7.62-1.32,2-1.28,2.91,0,.18.06.36.1.54l.08.14c.95-.05,2.94-1.76,2.9-2.59Z"/>
      </g>
      <g>
        <path class="cls-2" d="m81.3,133.36c.05-.51.34-1.15,1.07-1.19.8-.04,1.17.64,1.19,1.15v.25s-.02.04-.02.08c.01.22.06.51.08.76.03.66,0,1.28-.01,1.97-.03,2.92-.07,5.85.08,8.8.09,1.86.3,3.67.39,5.5.03.62-.57.98-1.04,1-.66.03-1.12-.42-1.43-.91-.28-.53-.47-1.25-.61-1.94-.25-1.41-.3-3.02-.33-3.6-.07-1.38-.07-2.77-.03-4.16-.71,1.2-1.62,2.57-2.33,3.15-.35.31-.85.63-1.39.65-2.51.13-3.16-3.2-3.25-5.13-.03-.55-.03-2.04.2-3.33.15-.63.34-1.29.6-1.78.27-.53.69-.91,1.34-.94.77-.04,1.27.48,1.3,1.14,0,.18.02.33-.01.51-.32,1.55-.41,2.8-.33,4.4.04.73.16,1.75.45,2.42,2.3-2.13,3.87-5.79,4.08-8.79Z"/>
        <path class="cls-2" d="m96.39,147.68c.03.55-.39,1-1.01,1.04-.44.02-.7-.18-.9-.43-1.56-1.9-1.91-4.47-2.03-6.84-.13-2.62-.08-16.07,1.68-17.29.18-.12.39-.17.58-.18.69-.03,1.01.42,1.14.82.08.21.1.43.11.65l.03.55c.03.55.06,1.09.05,1.68-.13,4.57-.56,9.12-.33,13.71.06,1.2.16,2.37.33,3.56.12.83.16,1.71.35,2.54v.18Z"/>
        <path class="cls-2" d="m101.73,142.77c-1.79.09-2.92-1.39-3-2.92-.06-1.09.37-2.14.79-3.07.79-1.79,2.35-4.14,4.9-4.27.36-.02.77.03,1.11.2.06-.19.13-.37.19-.56.16-.37.47-.83,1.09-.86.62-.03,1.01.46,1.03.97,0,.14-.02.29-.05.4s-.06.22-.05.37c-.14.92-.08,1.94-.04,2.85l.12,2.33c.09,1.02.2,1.82.25,1.96,0,.04.04.07.08.11l.11.1c.12.1.27.28.28.53.02.4-.29.82-.8.84-1.24.06-2.19-1.35-2.42-2.4-.74,1.35-1.88,3.31-3.59,3.4Zm.19-2.82l.1-.12c1.51-1.17,2.4-3.15,3.11-4.98-.04,0-.11.04-.18.08-1.44.44-2.67,2.91-3.04,4.25-.1.22-.13.41-.11.63,0,.04,0,.11.05.18t.07-.04Z"/>
        <path class="cls-2" d="m120.07,140.64l.08.07s.08.07.12.14c.08.11.12.25.13.43.04.69-.68,1.06-1.22,1.08-2.48.12-3.16-3.27-3.26-5.17-.07-1.38-.01-3.91.69-5.19.3-.49.68-.95,1.34-.98.58-.03.96.21,1.2.6.2.28.25.72.27,1.04.06,1.17-.14,2.31-.08,3.48.07,1.42.43,2.75.61,4.17,0,.15.05.22.09.25,0,.04,0,.07.04.07Zm-.81-13.07l.04.73c.03.58-.35,1.11-1.11,1.15-1.46.07-1.93-1.33-1.98-2.24-.02-.4.02-.99.25-1.47.16-.48.57-.98,1.3-1.02.8-.04,1.19.52,1.22,1.11.01.25-.05.51-.03.77,0,.07.05.18.13.36.04.11.08.18.12.29,0,.07.05.22.05.33Z"/>
        <path class="cls-2" d="m126.6,146.15c.03.55-.39,1.01-1.01,1.04-.44.02-.7-.18-.9-.43-1.56-1.9-1.91-4.47-2.03-6.84-.13-2.62-.08-16.07,1.68-17.29.18-.12.39-.17.58-.17.69-.04,1.01.42,1.14.82.08.21.09.43.11.65l.03.55c.03.55.06,1.09.05,1.68-.13,4.57-.56,9.12-.33,13.71.06,1.2.16,2.37.33,3.56.12.83.16,1.71.35,2.54v.18Z"/>
        <path class="cls-2" d="m135.36,133s.05-.48.05-.55c.06-.33.15-.66.17-.96,0-.07-.04-.11-.05-.18-.03-.66.56-1.23,1.25-1.27.77-.04,1.2.52,1.23,1.11.03.51.2,1.05.22,1.52.1,2,.42,3.96,1.03,5.9.05.22.14.51.15.8.03.58-.39,1.01-1.04,1.04-1.64.08-2.49-2.21-2.74-3.55-.62,1.46-2.12,4.96-3.84,5.05-.36.02-.66-.11-.89-.25-1.66-1.12-1.77-3.2-1.85-4.77-.08-1.57-.16-6.79,1.99-6.9.73-.04,1.41.48,1.45,1.2.05.91-.18,2.2-.2,3.26,0,1.24-.02,2.52.04,3.76l.03.62c1.11-1.23,2.67-4.37,2.99-5.85Z"/>
        <path class="cls-2" d="m142.17,139.04c.66,0,1.36.08,2.05.04-1.36-2.38-3.45-3.26-3.62-6.58-.08-1.68,1.42-2.96,3.1-3.04,1.57-.08,2.85.66,2.93,2.3.02.29-.06.92-.76.95-.22.01-.33-.06-.48-.16-.04-.03-.11-.07-.11-.1l-.12-.1s-.08-.07-.11-.07c-.07-.03-.15-.03-.29-.02-.11,0-.44.02-.73.11-.11.04-.22.01-.25.08-.55,2.8,3.59,4.57,3.72,7.19.07,1.31-.91,2.24-2.26,2.31-1.06.05-4.05-.67-4.12-1.98-.02-.47.39-.93.94-.96l.11.03Z"/>
        <path class="cls-2" d="m151.78,139.14c-.25-1.34-.36-2.72-.49-3.99-.07.04-.14.04-.22.05-.25.05-.51.1-.73.11-.26.01-.51-.01-.8,0-.33.02-.88-.1-.91-.72-.02-.37.15-.63.48-.72.11-.04.25-.05.33-.05h.25c.07-.05.11-.06.18-.1.18-.04.36-.09.54-.14.29-.09.58-.18.79-.22-.04-.69-.11-1.38-.14-2.04-.04-.84-.14-2.7-.08-4.49.06-1.68.22-3.59.92-4.18.25-.2.53-.32.82-.33,1.13-.06,1.4.99,1.43,1.57.01.26-.01.51,0,.73.01,2.41.06,4.82.18,7.22l.04.73c.76-.15,1.52-.3,2.28-.33.22-.01.51,0,.77.07.33.13.6.37.62.77.02.4-.25.74-.65.87-.43.17-1.01.27-1.59.37-.44.06-.91.12-1.31.18.1,1.31.24,2.58.45,3.88.16,1.09.44,2.13.64,3.26.05.22.06.44.14.69.05.25.1.47.18.61.04.07.08.14.08.21.04.07.08.18.09.29.02.44-.39,1.04-1,1.07-1.86.09-3.09-4.04-3.3-5.38Z"/>
        <path class="cls-2" d="m160.34,139.22c-.15-.72-.22-1.41-.28-1.92-.19-1.49-.55-3-.63-4.54-.03-.62.22-1.51,1.27-1.56,1.09-.05,1.55,1.09,1.85,1.95.13.47.23.97.33,1.41.63-1.31,1.91-3.42,3.51-3.5.58-.03,1.18.31,1.22.96,0,.18-.02.33-.08.48-.03.11-.14.19-.21.27l-.24.23c-.7.51-1.51,1.14-1.99,1.89-.53.98-1.07,1.96-1.42,2.96-.09.33-.18.74-.2,1.18-.05.44-.06.88-.08,1.28,0,.59-.45,1.19-1.18,1.23-.26.01-.48-.05-.67-.15-.08-.07-.15-.1-.15-.17-.07-.03-.11-.1-.19-.14-.5-.45-.75-1.17-.86-1.86Z"/>
        <path class="cls-2" d="m171.88,139.22c-1.79.09-2.92-1.39-3-2.92-.06-1.09.37-2.14.79-3.07.79-1.79,2.35-4.14,4.9-4.27.36-.02.77.04,1.11.2.06-.19.13-.37.19-.56.16-.37.47-.83,1.09-.86.62-.03,1.01.46,1.04.97,0,.14-.02.29-.05.4s-.06.22-.05.37c-.14.92-.08,1.94-.04,2.85l.12,2.33c.09,1.02.2,1.82.25,1.96,0,.04.04.07.08.11l.12.1c.11.1.27.28.28.53.02.4-.29.82-.8.84-1.24.06-2.19-1.35-2.42-2.4-.74,1.35-1.88,3.31-3.59,3.4Zm.19-2.82l.1-.11c1.51-1.17,2.4-3.15,3.11-4.98-.04,0-.11.04-.18.08-1.44.44-2.67,2.91-3.04,4.25-.1.22-.13.41-.11.63,0,.04,0,.11.05.18t.07-.04Z"/>
        <path class="cls-2" d="m185.18,129.85c-1.4.44-2.02,2.7-1.95,4.15.03.51.25,1.96.97,1.92.73-.04,3.35-2.36,3.91-2.98l.07-.08s.07-.11.17-.16c.11-.08.21-.12.4-.13.51-.03.86.36.88.76,0,.11-.12.44-.19.52-.06.19-.2.41-.33.64-.27.38-.51.76-.65.95-.89,1.21-2.5,3.2-4.44,3.29-2.84.14-3.91-2.87-4.01-4.8-.13-2.55,1.39-6.57,4.37-6.72.98-.05,2.28.36,2.35,1.63.01.25-.01.48,0,.69v.04c.15.06.27.24.28.46.02.4-.29.78-.73.8-.47.02-.78-.33-.91-.58-.12-.14-.16-.28-.2-.43Z"/>
        <path class="cls-2" d="m195.25,136.83l.08.07s.08.07.12.14c.08.1.12.25.13.43.04.69-.68,1.06-1.22,1.08-2.48.12-3.16-3.28-3.26-5.17-.07-1.38-.01-3.91.69-5.19.3-.49.68-.95,1.34-.98.58-.03.96.21,1.2.6.2.28.25.72.27,1.04.06,1.17-.14,2.31-.08,3.48.07,1.42.43,2.75.61,4.17,0,.15.05.22.09.25,0,.04,0,.07.04.07Zm-.81-13.07l.04.73c.03.58-.34,1.11-1.11,1.15-1.46.07-1.93-1.33-1.98-2.24-.02-.4.02-.99.25-1.47.16-.48.57-.98,1.3-1.02.8-.04,1.2.52,1.23,1.11.01.25-.05.51-.03.77,0,.07.04.18.13.36.04.11.08.18.12.29,0,.07.05.22.05.33Z"/>
        <path class="cls-2" d="m205.44,132.45c.03.58-.12,1.21-.42,1.77-.84,1.39-2.89,3.43-4.86,3.53-2.19.11-3.09-1.93-3.17-3.42-.01-.22-.02-.44,0-.62.11-1.36,1.33-4.71,3.45-4.81.47-.02.92.14,1.26.41,1.93-.06,3.63,1.06,3.74,3.14Zm-4.88-5.38c-.51.03-.97-.35-.99-.86-.04-.87,2.04-2.37,2.76-2.41.58-.03,1.04.35,1.07.9.02.36-.22.74-.62.83-.21.23-.6.5-.94.81-.21.16-.42.35-.63.47-.11.08-.21.12-.28.16-.11.04-.21.08-.36.09Zm2.71,5.3c-.04-.69-.97-1.19-1.56-1.24l-.1.12s-.07.08-.14.12c-.7.62-1.32,2-1.28,2.91,0,.18.05.36.1.54l.08.14c.95-.05,2.94-1.76,2.9-2.59Z"/>
        <path class="cls-2" d="m210.42,131.1c.97-1.69,2.72-4.63,4.8-4.74,2.11-.11,2.52,2.14,2.6,3.78.02.47.01.99,0,1.5,0,1.32.1,2.66-.02,3.95-.04.62-.51,1.52-1.42,1.57-1.28.06-1.63-1.27-1.67-1.92-.09-1.86,0-3.76-.1-5.62l-.03-.58c-.83.19-1.68,1.4-2.48,3.01-.79,1.65-1.43,3.47-1.76,4.29-.22.67-.71,1.17-1.47,1.21-1.35.07-1.89-1.33-1.95-2.46-.08-1.57.06-8.15,2.21-8.26,1.02-.05,1.44.95,1.47,1.53v.07c-.03.84-.12,1.83-.26,2.75.04,0,.03-.04.07-.08Z"/>
      </g>
      <g>
        <path class="cls-2" d="m98.92,93.2c-1.25.35-1.85,2.33-1.82,3.62.01.45.17,1.74.81,1.73.65-.01,3.02-2,3.53-2.53l.06-.07s.06-.1.16-.13c.1-.07.19-.1.35-.1.45-.01.75.34.76.69,0,.1-.12.39-.18.46-.06.16-.19.36-.31.55-.25.33-.47.66-.6.82-.82,1.05-2.3,2.76-4.01,2.8-2.52.06-3.38-2.64-3.42-4.35-.05-2.26,1.39-5.78,4.04-5.84.87-.02,2.01.38,2.04,1.5,0,.23-.02.42-.02.61v.03c.13.06.23.22.24.41,0,.36-.28.69-.66.69-.42,0-.69-.31-.79-.53-.1-.13-.14-.25-.17-.38Z"/>
        <path class="cls-2" d="m111.33,96.12c.01.52-.14,1.07-.42,1.56-.78,1.21-2.65,2.97-4.39,3.01-1.94.04-2.69-1.78-2.72-3.11,0-.19,0-.39.02-.55.13-1.2,1.3-4.13,3.17-4.17.42,0,.81.14,1.11.39,1.71,0,3.19,1.03,3.23,2.87Zm-1.91-.12c-.01-.61-.83-1.08-1.35-1.13l-.09.1s-.06.07-.13.1c-.63.53-1.22,1.74-1.2,2.55,0,.16.04.32.08.48l.07.13c.84-.02,2.65-1.48,2.63-2.22Z"/>
        <path class="cls-2" d="m115.7,95.05c.9-1.47,2.53-4.03,4.37-4.07,1.87-.04,2.18,1.95,2.21,3.41,0,.42-.01.87-.04,1.33-.04,1.16.02,2.36-.12,3.49-.05.55-.49,1.34-1.29,1.35-1.13.03-1.42-1.16-1.43-1.74-.04-1.65.09-3.33.05-4.98v-.52c-.75.15-1.54,1.2-2.28,2.6-.74,1.44-1.35,3.03-1.66,3.75-.21.59-.65,1.02-1.33,1.03-1.19.03-1.64-1.22-1.66-2.22-.03-1.39.26-7.21,2.16-7.25.9-.02,1.25.88,1.26,1.39v.07c-.05.74-.16,1.62-.3,2.43.03,0,.03-.03.06-.07Z"/>
        <path class="cls-2" d="m136.73,90.81l.06-.03c.19-.1.45-.14.67-.15,1.42-.03,1.58,1.39,1.6,2.45.03,1.32-.1,2.65-.07,4.04,0,.19-.02.48-.01.78.04.29.04.55.11.74,0,.03.03.03.03.06.03.06.07.16.07.29.01.65-.66.92-1.08.93-1.45.03-1.75-1.67-1.77-2.8-.03-1.55.16-3.07.32-4.59-1.4.97-2.69,3.87-3.24,5.4-.03.16-.12.36-.15.59-.09.26-.22.49-.34.72-.22.46-.62.98-1.27,1-.52.01-1.21-.55-1.44-.97-.81-1.47-1.13-4.27-1.16-5.85-.06-2.52.37-5.01,1-7.42.12-.33.27-.85.52-1.27.25-.46.66-.92,1.3-.93.97-.02,1.18.81,1.19,1.33,0,.29-.05.55-.08.78-.77,2.96-1.13,5.64-1.07,8.65.02.94.07,1.81.19,2.71.7-1.89,2.68-5.68,4.6-6.43Z"/>
        <path class="cls-2" d="m143.13,99.9c-1.58.04-2.55-1.3-2.58-2.66-.02-.97.38-1.88.78-2.7.74-1.57,2.18-3.6,4.44-3.65.32,0,.68.05.97.21.06-.16.12-.33.18-.49.15-.33.44-.72.98-.73.55-.01.88.43.89.88,0,.13-.03.26-.06.36-.03.1-.06.2-.06.33-.14.81-.12,1.71-.1,2.52l.05,2.07c.05.9.13,1.61.17,1.74,0,.03.03.06.07.09l.1.09c.1.09.23.25.24.48,0,.36-.27.72-.73.73-1.1.02-1.9-1.25-2.08-2.18-.68,1.18-1.74,2.88-3.26,2.92Zm.24-2.49l.1-.1c1.37-1,2.2-2.73,2.87-4.33-.03,0-.1.04-.16.07-1.28.35-2.43,2.51-2.79,3.68-.09.2-.12.36-.12.55,0,.03,0,.1.04.16t.06-.03Z"/>
        <path class="cls-2" d="m152.14,100.99c-.14-.29-.24-.58-.27-.74-.75-1.6-.89-5.18-.93-6.96-.04-2,.05-6.56,1.2-8.36.19-.29.54-.5.96-.51.71-.02,1.17.49,1.19,1.1.01.61-.13,1.26-.22,1.91-.25,1.91-.33,3.85-.29,5.79v.52c.65-2.02,1.75-3.11,3.91-3.16,2.07-.05,3.26,1.48,3.3,3.22.06,2.81-2.72,6.75-5.98,6.82-.13,0-.26-.03-.42-.02.04.32.05.68.05,1,.01.48-.4.91-.92.92-.35,0-.55-.12-.72-.27-.03-.03-.07-.09-.1-.13,0-.03-.03-.06-.07-.09-.03-.06-.07-.13-.1-.16,0-.03-.07-.06-.07-.06l-.1-.09s-.03-.03-.07-.06c-.1-.16-.27-.41-.37-.67Zm6.17-7.27c0-.42-.11-.71-.41-.96-.29-.19-.85-.43-1.11-.43-.23,0-.48.04-.64.14-1.15.8-1.48,4.49-1.58,5.88,1.83-.46,3.78-2.76,3.74-4.64Z"/>
        <path class="cls-2" d="m166.16,98.32l.07.06s.07.06.1.13c.07.09.1.22.1.38.01.61-.63.92-1.11.93-2.2.05-2.71-2.98-2.75-4.66-.03-1.23.08-3.46.74-4.57.28-.43.63-.82,1.21-.83.52-.01.84.21,1.05.56.17.25.21.64.21.93.02,1.03-.18,2.04-.16,3.07.03,1.26.31,2.45.44,3.7,0,.13.04.19.07.22,0,.03,0,.07.03.06Zm-.39-11.59v.65c.03.52-.32.98-1,.99-1.29.03-1.67-1.22-1.69-2.03,0-.35.05-.87.26-1.3.15-.42.53-.85,1.18-.87.71-.02,1.04.49,1.06,1.01,0,.23-.05.45-.05.68,0,.07.04.16.1.32.03.1.07.16.1.26,0,.06.04.19.04.29Z"/>
        <path class="cls-2" d="m171.8,103.37c.01.48-.37.88-.92.89-.39,0-.62-.18-.78-.4-1.33-1.71-1.57-4-1.62-6.1-.05-2.32.33-14.22,1.92-15.25.16-.1.35-.14.51-.14.61-.01.88.4.99.75.07.19.07.39.08.58v.48c.02.48.03.97.01,1.49-.23,4.04-.73,8.06-.63,12.13.02,1.07.08,2.1.2,3.16.08.74.1,1.52.24,2.25v.16Z"/>
        <path class="cls-2" d="m177.91,98.06l.07.06s.07.06.1.13c.07.09.1.22.1.38.01.61-.63.92-1.11.93-2.19.05-2.71-2.98-2.75-4.65-.03-1.23.08-3.46.74-4.57.28-.43.63-.82,1.21-.83.52-.01.84.21,1.05.56.17.25.21.64.21.93.02,1.03-.18,2.04-.16,3.07.03,1.26.31,2.45.44,3.7,0,.13.04.19.07.22,0,.03,0,.07.03.06Zm-.39-11.59v.65c.03.52-.32.98-1,.99-1.29.03-1.67-1.22-1.69-2.03,0-.35.05-.87.26-1.3.15-.42.53-.85,1.18-.87.71-.02,1.04.49,1.06,1.01,0,.23-.05.45-.05.68,0,.07.04.16.1.32.04.1.07.16.1.26,0,.06.04.19.04.29Z"/>
        <path class="cls-2" d="m187.48,97.23c-.78,1.37-2.45,3.19-4.16,3.23-2.61.06-3.48-2.67-3.52-4.38-.06-2.74,1.07-7.16,4.97-7.25,1.07-.02,1.95.41,2.51,1.11.16-2.75.68-5.47,1.86-8.02.06-.1.09-.23.15-.36.06-.16.15-.29.25-.42.19-.29.44-.53.89-.54.87-.02,1.05.75,1.06,1.17.01.45-.04.94-.1,1.42-.09.49-.14.91-.23,1.39-.37,2.11-.91,4.12-1.31,6.23-.03.1-.03.26-.02.45.08,3.65.43,9.39,2.12,12.55.04.13.1.26.14.35.32.12.53.41.53.76.01.61-.53,1.05-1.14,1.06-.16,0-.32-.06-.45-.09-.1-.03-.23-.09-.33-.12-2.35-1.01-3.02-6.39-3.23-8.55Zm-.89-5.28c-.07-.06-.16-.12-.23-.22-.33-.25-.66-.5-1.04-.49-2.26.05-2.83,3.29-2.8,5,0,.45.11,1.81.75,1.79.29,0,.61-.14.83-.34,1.56-1.1,2.51-3.48,3.05-5.3-.16-.09-.46-.28-.56-.44Z"/>
        <path class="cls-2" d="m195.76,98.73c-1.58.04-2.55-1.3-2.58-2.66-.02-.97.38-1.88.78-2.7.74-1.57,2.18-3.6,4.44-3.65.32,0,.68.05.97.21.06-.16.12-.33.18-.49.15-.33.44-.72.98-.73.55-.01.88.43.89.88,0,.13-.03.26-.06.36-.03.1-.06.19-.06.32-.14.81-.12,1.71-.11,2.52l.05,2.07c.05.9.13,1.61.17,1.74,0,.03.03.06.07.09l.1.09c.1.09.23.25.24.48,0,.36-.28.72-.73.73-1.1.02-1.9-1.25-2.08-2.18-.68,1.18-1.74,2.88-3.26,2.92Zm.24-2.49l.09-.1c1.37-1,2.2-2.73,2.88-4.33-.03,0-.1.04-.16.07-1.28.35-2.43,2.51-2.79,3.68-.09.2-.12.36-.12.55,0,.03,0,.1.04.16t.06-.03Z"/>
        <path class="cls-2" d="m211.02,96.71c-.78,1.38-2.45,3.19-4.16,3.23-2.62.06-3.48-2.67-3.52-4.38-.06-2.74,1.07-7.16,4.97-7.25,1.07-.02,1.95.41,2.51,1.11.17-2.75.69-5.47,1.86-8.02.06-.1.09-.23.15-.36.06-.16.16-.29.25-.43.19-.29.44-.53.89-.54.87-.02,1.05.75,1.06,1.17,0,.45-.04.94-.1,1.42-.09.49-.14.91-.23,1.39-.37,2.11-.91,4.12-1.31,6.23-.03.1-.03.26-.02.45.08,3.65.44,9.39,2.12,12.55.04.13.1.26.14.35.33.12.53.41.53.76.01.61-.53,1.04-1.14,1.06-.16,0-.32-.06-.45-.09-.1-.03-.23-.09-.33-.12-2.35-1.01-3.02-6.39-3.23-8.55Zm-.89-5.28c-.07-.06-.16-.13-.23-.22-.33-.25-.66-.5-1.04-.49-2.26.05-2.83,3.29-2.79,5,0,.45.1,1.81.75,1.79.29,0,.61-.14.83-.34,1.56-1.1,2.51-3.48,3.05-5.3-.16-.09-.46-.28-.56-.44Z"/>
        <path class="cls-2" d="m222.14,97.08c.36,0,.68-.08.96-.18.13-.07.26-.1.35-.14.06-.03.13-.04.19-.07h.19c.45-.01.69.34.69.66,0,.23-.12.42-.21.55-.69.69-2.04,1.05-2.98,1.07-.52.01-1.1-.07-1.65-.25-1.69-.61-2.97-2.74-3-4.39-.06-2.58,2.21-5.25,5.11-5.31,1.36-.03,2.44.75,2.47,2.11.05,2.2-3.02,3.49-4.89,3.6.19,1.38,1.25,2.4,2.76,2.36Zm.71-5.86c0-.35-.24-.54-.56-.54-1.26.03-2.32,1.54-2.72,2.55.9-.18,3.31-.88,3.28-2.01Z"/>
        <path class="cls-2" d="m226.88,96.55c.58.02,1.2.1,1.81.09-1.15-2.14-2.97-2.97-3.04-5.91-.03-1.48,1.33-2.58,2.82-2.61,1.39-.03,2.5.66,2.53,2.11,0,.26-.08.81-.69.82-.19,0-.29-.06-.42-.15-.03-.03-.1-.06-.1-.09l-.1-.09s-.07-.06-.1-.06c-.06-.03-.13-.03-.26-.03-.1,0-.39,0-.64.08-.1.03-.19,0-.22.07-.56,2.47,3.06,4.13,3.12,6.45.03,1.16-.86,1.96-2.05,1.98-.94.02-3.57-.69-3.59-1.86,0-.42.37-.82.85-.83l.1.03Z"/>
      </g>
      <g>
        <path class="cls-2" d="m20.36,122.58c.02.55-.66,1.04-1.17,1.06-.62.02-1.11-.47-1.42-.98-1.09-2.19-1.38-5.39-1.46-7.76-.05-1.46-.15-5.76.47-6.88.24-.37.6-.71,1.18-.73,1.24-.04,1.42,1.12,1.46,2.07.03,1.06.03,2.08.07,3.17.43-1.22.98-2.33,1.64-3.41.21-.41.62-1.01,1.12-1.57.46-.45,1.1-1.02,1.79-1.04,1.9-.06,2.59,2.14,2.63,3.31.1,3.17-2.51,7.02-6.26,7.14-.07,0-.15-.03-.22-.03-.11.95-.19,1.98-.16,2.92.01.44.15,2.22.3,2.51.04.04.04.11.04.22Zm3.41-13.84c0-.11,0-.22-.05-.33-1.35.99-2.74,4.33-3.05,5.87,1.93-1.38,3.18-3.06,3.1-5.54Z"/>
        <path class="cls-2" d="m31.04,115.48c-1.79.06-2.9-1.44-2.95-2.97-.04-1.09.4-2.13.85-3.06.82-1.78,2.42-4.1,4.97-4.18.36-.01.77.05,1.1.22.07-.18.13-.37.2-.55.17-.37.48-.82,1.1-.84.62-.02,1,.48,1.02.99,0,.15-.03.29-.06.4-.03.11-.07.22-.06.37-.15.92-.12,1.94-.09,2.85l.08,2.33c.07,1.02.17,1.82.21,1.96,0,.04.04.07.08.11l.11.11c.11.11.26.28.27.54.01.4-.3.81-.81.83-1.24.04-2.16-1.39-2.38-2.44-.76,1.34-1.94,3.28-3.65,3.33Zm.24-2.82l.11-.11c1.53-1.15,2.45-3.11,3.2-4.92-.04,0-.11.04-.18.08-1.45.41-2.72,2.86-3.11,4.19-.1.22-.13.4-.13.62,0,.04,0,.11.04.18t.07-.04Z"/>
        <path class="cls-2" d="m40,114.6c-.13-.73-.19-1.42-.25-1.93-.16-1.49-.5-3.01-.55-4.54-.02-.62.24-1.5,1.3-1.54,1.09-.04,1.53,1.12,1.82,1.98.12.47.21.98.3,1.41.65-1.3,1.97-3.39,3.57-3.44.58-.02,1.18.33,1.2.98,0,.18-.02.33-.09.48-.03.11-.14.19-.21.26l-.25.23c-.71.5-1.53,1.11-2.02,1.86-.55.97-1.1,1.94-1.47,2.93-.1.33-.19.74-.22,1.18-.06.44-.08.88-.1,1.28-.02.58-.47,1.18-1.2,1.21-.26,0-.48-.06-.66-.16-.08-.07-.15-.1-.15-.18-.07-.03-.11-.11-.19-.14-.49-.46-.73-1.18-.83-1.87Z"/>
        <path class="cls-2" d="m51.54,114.8c-1.79.06-2.9-1.44-2.95-2.97-.04-1.09.4-2.13.85-3.06.82-1.78,2.42-4.1,4.97-4.18.36-.01.77.05,1.1.22.07-.19.13-.37.2-.55.17-.37.48-.82,1.1-.84.62-.02,1,.48,1.02.99,0,.15-.03.29-.06.4-.03.11-.07.22-.06.37-.15.92-.12,1.94-.09,2.85l.08,2.33c.07,1.02.17,1.82.21,1.96,0,.04.04.07.08.11l.11.11c.11.11.26.28.27.54.01.4-.3.81-.81.83-1.24.04-2.16-1.39-2.38-2.44-.76,1.34-1.94,3.28-3.65,3.33Zm.24-2.82l.11-.11c1.53-1.15,2.45-3.11,3.2-4.92-.04,0-.11.04-.18.08-1.45.41-2.72,2.86-3.11,4.19-.1.22-.13.41-.13.62,0,.04,0,.11.04.18t.07-.04Z"/>
      </g>
      <g>
        <path class="cls-2" d="m59.38,127.81c.4-.07.74-.21,1.04-.38.13-.1.27-.16.37-.22.06-.05.14-.06.2-.11l.21-.04c.5-.09.83.26.89.62.05.25-.06.49-.14.66-.65.9-2.09,1.54-3.13,1.73-.57.11-1.24.12-1.89.01-2-.37-3.81-2.53-4.14-4.35-.53-2.87,1.52-6.25,4.75-6.85,1.51-.28,2.86.4,3.13,1.91.45,2.44-2.74,4.44-4.81,4.9.46,1.51,1.82,2.45,3.51,2.13Zm-.27-6.67c-.07-.39-.36-.56-.72-.5-1.4.26-2.31,2.13-2.58,3.33.97-.37,3.53-1.58,3.3-2.83Z"/>
        <path class="cls-2" d="m68.73,132.02c.1.54-.25,1.05-.86,1.16-.43.08-.72-.09-.95-.31-1.79-1.67-2.48-4.18-2.91-6.51-.48-2.58-2.2-15.92-.61-17.36.16-.14.37-.21.55-.25.68-.13,1.05.29,1.23.66.11.2.15.42.19.63l.1.54c.1.54.2,1.08.27,1.66.47,4.55.64,9.12,1.48,13.64.22,1.18.47,2.33.79,3.49.22.81.38,1.67.68,2.47l.03.18Z"/>
      </g>
    </g>
    <g>
      <g>
        <path class="cls-2" d="m.78,22.51c.02-.44.45-.93.99-.9.33.02.5.21.64.36l.31.34c1.46,1.42,4.13,2.03,6.14,2.13,1.82.09,4.21-.3,5.3-1.67.31-.46.56-.92.58-1.39.04-.76-.55-1.41-1.72-2.13-1.09-.75-2.63-1.41-4.16-2.21-3.06-1.65-6.27-3.92-6.06-8.18C3.04,4.01,6.9.63,11.63.86c2.04.1,3.85,1.21,3.74,3.43-.08,1.53-.97,3.49-2.4,4.33-.07.03-.26.13-.45.23-.11.07-.19.1-.3.13-.04.03-.11.03-.15.07-.04,0-.11.03-.18.03-.51-.03-.74-.47-.73-.8s.21-.5.39-.6.34-.17.52-.27c1.02-.68,1.66-1.93,1.72-3.13.05-1.02-.58-1.49-1.71-1.54-.58-.03-1.17.05-1.73.21-2.88.77-4.24,3.15-4.38,5.95-.15,2.99,2.66,4.44,5.76,6.01.78.4,1.53.77,2.28,1.21,2.06,1.16,4.03,2.64,3.9,5.3-.06,1.13-.74,2.41-1.48,3.28-1.78,2.07-4.91,2.71-7.54,2.59-3.09-.15-6.46-1.52-8-4.3-.07-.15-.13-.3-.12-.48Z"/>
        <path class="cls-2" d="m27.87,21.44c-.03.58-.24,1.19-.6,1.72-.98,1.3-3.22,3.13-5.19,3.03-2.18-.11-2.88-2.22-2.81-3.71.01-.22.02-.44.07-.62.25-1.34,1.79-4.55,3.9-4.44.47.02.9.23,1.21.53,1.93.13,3.51,1.41,3.4,3.49Zm-2.14-.29c.03-.69-.85-1.28-1.43-1.38l-.11.1s-.08.07-.15.1c-.76.55-1.51,1.86-1.56,2.77,0,.18.02.37.05.55l.07.15c.95.05,3.1-1.45,3.14-2.29Z"/>
        <path class="cls-2" d="m37.17,16.53c.1-.51.46-1.11,1.18-1.07.8.04,1.09.75,1.07,1.26v.25s-.05.03-.05.07c-.01.22.01.51,0,.77-.03.66-.14,1.27-.21,1.96-.33,2.9-.65,5.81-.8,8.76-.09,1.86-.07,3.68-.16,5.5-.03.62-.67.92-1.14.89-.66-.03-1.07-.53-1.34-1.05-.23-.56-.34-1.29-.41-1.99-.11-1.43,0-3.03.03-3.61.07-1.38.21-2.76.39-4.14-.82,1.13-1.87,2.39-2.62,2.9-.38.27-.9.54-1.45.51-2.51-.12-2.82-3.5-2.73-5.43.03-.55.17-2.04.53-3.3.21-.61.46-1.25.78-1.71.32-.5.77-.84,1.43-.81.76.04,1.21.61,1.18,1.26,0,.18-.02.33-.06.51-.48,1.51-.68,2.74-.76,4.34-.04.73-.01,1.75.21,2.46,2.5-1.88,4.42-5.37,4.94-8.33Z"/>
      </g>
      <path class="cls-2" d="m52.24,21.71s.1-.47.1-.54c.09-.32.21-.65.27-.94,0-.07-.03-.11-.03-.18.03-.66.68-1.17,1.37-1.14.76.04,1.14.64,1.11,1.22-.03.51.09,1.06.07,1.54-.1,2,.02,3.98.44,5.97.03.22.08.52.07.81-.03.58-.49.96-1.14.93-1.64-.08-2.25-2.45-2.37-3.8-.76,1.39-2.6,4.73-4.32,4.64-.36-.02-.65-.18-.86-.33-1.54-1.28-1.44-3.36-1.36-4.92s.52-6.76,2.66-6.66c.73.04,1.36.61,1.32,1.34-.04.91-.4,2.17-.52,3.22-.13,1.23-.27,2.5-.33,3.74l-.03.62c1.22-1.11,3.08-4.08,3.56-5.52Z"/>
      <path class="cls-2" d="m60.7,24.03c1.14-1.59,3.17-4.33,5.24-4.23s2.29,2.38,2.21,4.01c-.02.47-.08.98-.15,1.49-.14,1.31-.17,2.66-.41,3.92-.1.62-.66,1.46-1.57,1.42-1.27-.06-1.5-1.42-1.47-2.08.09-1.86.37-3.74.46-5.6l.03-.58c-.84.1-1.81,1.22-2.76,2.75-.95,1.56-1.77,3.31-2.17,4.09-.29.64-.82,1.09-1.58,1.05-1.35-.07-1.75-1.51-1.69-2.64.08-1.57.87-8.1,3.02-7.99,1.02.05,1.33,1.09,1.3,1.67v.07c-.12.83-.31,1.81-.54,2.71.04,0,.04-.03.08-.07Z"/>
      <path class="cls-2" d="m71.69,30.74c-1.78-.09-2.76-1.67-2.69-3.2.05-1.09.58-2.09,1.1-2.98.96-1.7,2.75-3.88,5.29-3.75.36.02.76.11,1.08.31.08-.18.16-.36.25-.54.2-.36.55-.78,1.17-.75s.96.56.93,1.07c0,.15-.05.29-.09.4s-.08.21-.09.36c-.23.9-.28,1.92-.32,2.83l-.11,2.33c-.01,1.02.02,1.83.05,1.97,0,.04.03.07.07.11l.1.11c.1.11.24.3.23.56-.02.4-.37.78-.88.76-1.24-.06-2.04-1.56-2.17-2.63-.87,1.27-2.2,3.1-3.91,3.02Zm.47-2.79l.11-.1c1.62-1.02,2.7-2.9,3.59-4.64-.04,0-.11.03-.19.06-1.47.29-2.94,2.63-3.44,3.92-.12.21-.17.39-.18.61,0,.04,0,.11.03.18t.07-.03Z"/>
    </g>
  </g>
  <g>
    <g>
      <g>
        <path class="cls-1" d="m81.26,118.37c-.83,1.58-2.66,3.68-4.59,3.78-2.95.15-4.02-2.9-4.12-4.83-.16-3.1.98-8.12,5.39-8.35,1.2-.06,2.21.4,2.87,1.17.1-3.11.6-6.21,1.84-9.12.07-.11.1-.26.16-.41.06-.18.17-.34.27-.49.2-.34.48-.61.99-.63.98-.05,1.21.82,1.23,1.29.03.51-.02,1.06-.06,1.61-.08.55-.13,1.03-.21,1.58-.35,2.39-.9,4.68-1.29,7.08-.03.11-.02.29-.01.51.21,4.12.79,10.59,2.8,14.11.04.14.12.29.17.39.37.13.61.44.63.84.04.69-.56,1.2-1.25,1.23-.18,0-.37-.05-.52-.08-.11-.03-.26-.09-.37-.13-2.68-1.07-3.61-7.12-3.92-9.56Zm-1.18-5.93c-.08-.07-.19-.14-.27-.24-.38-.27-.76-.55-1.2-.52-2.55.13-3.1,3.81-3,5.74.03.51.18,2.04.91,2,.33-.02.68-.18.93-.41,1.72-1.29,2.72-4.01,3.27-6.08-.19-.1-.53-.3-.65-.48Z"/>
        <path class="cls-1" d="m92.01,118.52l.08.07s.08.07.12.14c.08.11.12.25.13.43.04.69-.68,1.06-1.22,1.08-2.48.12-3.16-3.27-3.26-5.17-.07-1.38-.02-3.91.69-5.19.3-.49.68-.95,1.34-.98.58-.03.96.21,1.2.6.2.28.26.72.27,1.05.06,1.17-.14,2.31-.08,3.47.07,1.42.43,2.75.61,4.17,0,.15.05.22.09.25,0,.04,0,.07.04.07Zm-.81-13.07l.04.73c.03.58-.35,1.11-1.11,1.15-1.46.07-1.93-1.33-1.98-2.24-.02-.4.02-.99.25-1.47.16-.48.57-.98,1.3-1.02.8-.04,1.2.53,1.23,1.11.01.25-.05.51-.03.77,0,.07.05.18.13.36.04.11.08.18.12.29,0,.07.05.22.05.33Z"/>
        <path class="cls-1" d="m95.16,117.89c.66,0,1.36.08,2.05.04-1.36-2.38-3.45-3.26-3.62-6.58-.08-1.68,1.42-2.96,3.1-3.04,1.57-.08,2.85.66,2.93,2.3.01.29-.06.92-.76.95-.22.01-.33-.06-.48-.16-.04-.03-.11-.07-.11-.1l-.12-.1s-.08-.07-.11-.07c-.07-.03-.15-.03-.29-.02-.11,0-.44.02-.73.11-.11.04-.22.01-.25.08-.55,2.8,3.59,4.57,3.72,7.19.07,1.31-.91,2.24-2.26,2.31-1.06.05-4.05-.67-4.12-1.98-.02-.47.39-.93.94-.96l.11.03Z"/>
        <path class="cls-1" d="m107.94,117.71c.4-.02.76-.11,1.08-.24.14-.08.29-.12.39-.17.07-.04.14-.04.21-.08h.22c.51-.04.79.35.8.72.01.25-.12.48-.22.63-.76.81-2.27,1.25-3.33,1.3-.58.03-1.24-.05-1.88-.23-1.93-.63-3.44-3-3.53-4.86-.15-2.92,2.33-6,5.61-6.17,1.53-.08,2.78.77,2.86,2.3.13,2.48-3.3,4.04-5.41,4.22.26,1.56,1.49,2.66,3.2,2.58Zm.61-6.64c-.02-.4-.29-.61-.65-.59-1.42.07-2.58,1.81-2.99,2.96,1.01-.23,3.71-1.1,3.64-2.38Z"/>
        <path class="cls-1" d="m115.52,112.36c.97-1.69,2.72-4.63,4.8-4.74,2.11-.11,2.52,2.14,2.6,3.78.02.47.01.99,0,1.5,0,1.31.1,2.66-.02,3.95-.04.62-.51,1.52-1.42,1.57-1.28.06-1.64-1.27-1.67-1.92-.09-1.86,0-3.76-.1-5.62l-.03-.58c-.83.19-1.68,1.4-2.48,3.01-.79,1.65-1.43,3.47-1.75,4.29-.22.67-.71,1.17-1.47,1.21-1.35.07-1.89-1.33-1.95-2.46-.08-1.57.06-8.15,2.21-8.26,1.02-.05,1.44.95,1.47,1.53v.07c-.03.84-.12,1.83-.26,2.75.04,0,.03-.04.07-.08Zm.92-7.13c-.29.01-.85-.14-.87-.65-.04-.84,1.75-2.17,2.48-2.21.29-.01.59.08.81.21.26.13.49.3.68.44.08.07.19.14.27.21.08.07.15.14.23.21.15.1.26.13.33.13l.14-.15c.07-.11.17-.3.31-.45.07-.11.1-.19.17-.3.07-.11.14-.19.21-.26.14-.19.35-.38.64-.4.44-.02.82.29.84.69,0,.14-.03.18-.06.26-.31,1-.99,2.13-2.15,2.19-.8.04-1.59-.47-2.24-.91-.04,0-.04-.04-.07-.03-.11.04-.21.12-.35.2-.21.16-.42.28-.53.39-.17.26-.56.43-.82.44Z"/>
        <path class="cls-1" d="m133.22,112.56c.03.58-.12,1.21-.42,1.77-.84,1.39-2.9,3.43-4.86,3.53-2.19.11-3.09-1.93-3.17-3.42-.01-.22-.02-.44,0-.62.11-1.36,1.33-4.71,3.45-4.81.47-.02.92.13,1.26.41,1.93-.06,3.63,1.06,3.74,3.14Zm-2.16-.07c-.04-.69-.97-1.19-1.56-1.24l-.1.12s-.07.08-.14.12c-.7.62-1.32,2-1.28,2.91,0,.18.06.36.1.54l.08.14c.95-.05,2.94-1.76,2.9-2.59Z"/>
      </g>
      <g>
        <path class="cls-1" d="m81.77,132.51c.05-.51.34-1.15,1.07-1.19.8-.04,1.17.64,1.19,1.15v.25s-.02.04-.02.08c.01.22.06.51.08.76.03.66,0,1.28-.01,1.97-.03,2.92-.07,5.85.08,8.8.09,1.86.3,3.67.39,5.5.03.62-.57.98-1.04,1-.66.03-1.12-.42-1.43-.91-.28-.53-.47-1.25-.61-1.94-.25-1.41-.3-3.02-.33-3.6-.07-1.38-.07-2.77-.03-4.16-.71,1.2-1.62,2.57-2.33,3.15-.35.31-.85.63-1.39.65-2.51.13-3.16-3.2-3.25-5.13-.03-.55-.03-2.04.2-3.33.15-.63.34-1.29.6-1.78.27-.53.69-.91,1.34-.94.77-.04,1.27.48,1.3,1.14,0,.18.02.33-.01.51-.32,1.55-.41,2.8-.33,4.4.04.73.16,1.75.45,2.42,2.3-2.13,3.87-5.79,4.08-8.79Z"/>
        <path class="cls-1" d="m96.85,146.83c.03.55-.39,1-1.01,1.04-.44.02-.7-.18-.9-.43-1.56-1.9-1.91-4.47-2.03-6.84-.13-2.62-.08-16.07,1.68-17.29.18-.12.39-.17.58-.18.69-.03,1.01.42,1.14.82.08.21.1.43.11.65l.03.55c.03.55.06,1.09.05,1.68-.13,4.57-.56,9.12-.33,13.71.06,1.2.16,2.37.33,3.56.12.83.16,1.71.35,2.54v.18Z"/>
        <path class="cls-1" d="m102.19,141.92c-1.79.09-2.92-1.39-3-2.92-.06-1.09.37-2.14.79-3.07.79-1.79,2.35-4.14,4.9-4.27.36-.02.77.03,1.11.2.06-.19.13-.37.19-.56.16-.37.47-.83,1.09-.86.62-.03,1.01.46,1.03.97,0,.14-.02.29-.05.4s-.06.22-.05.37c-.14.92-.08,1.94-.04,2.85l.12,2.33c.09,1.02.2,1.82.25,1.96,0,.04.04.07.08.11l.11.1c.12.1.27.28.28.53.02.4-.29.82-.8.84-1.24.06-2.19-1.35-2.42-2.4-.74,1.35-1.88,3.31-3.59,3.4Zm.19-2.82l.1-.12c1.51-1.17,2.4-3.15,3.11-4.98-.04,0-.11.04-.18.08-1.44.44-2.67,2.91-3.04,4.25-.1.22-.13.41-.11.63,0,.04,0,.11.05.18t.07-.04Z"/>
        <path class="cls-1" d="m120.53,139.79l.08.07s.08.07.12.14c.08.11.12.25.13.43.04.69-.68,1.06-1.22,1.08-2.48.12-3.16-3.27-3.26-5.17-.07-1.38-.01-3.91.69-5.19.3-.49.68-.95,1.34-.98.58-.03.96.21,1.2.6.2.28.25.72.27,1.04.06,1.17-.14,2.31-.08,3.48.07,1.42.43,2.75.61,4.17,0,.15.05.22.09.25,0,.04,0,.07.04.07Zm-.81-13.07l.04.73c.03.58-.35,1.11-1.11,1.15-1.46.07-1.93-1.33-1.98-2.24-.02-.4.02-.99.25-1.47.16-.48.57-.98,1.3-1.02.8-.04,1.19.52,1.22,1.11.01.25-.05.51-.03.77,0,.07.05.18.13.36.04.11.08.18.12.29,0,.07.05.22.05.33Z"/>
        <path class="cls-1" d="m127.06,145.3c.03.55-.39,1.01-1.01,1.04-.44.02-.7-.18-.9-.43-1.56-1.9-1.91-4.47-2.03-6.84-.13-2.62-.08-16.07,1.68-17.29.18-.12.39-.17.58-.17.69-.04,1.01.42,1.14.82.08.21.09.43.11.65l.03.55c.03.55.06,1.09.05,1.68-.13,4.57-.56,9.12-.33,13.71.06,1.2.16,2.37.33,3.56.12.83.16,1.71.35,2.54v.18Z"/>
        <path class="cls-1" d="m135.82,132.15s.05-.48.05-.55c.06-.33.15-.66.17-.96,0-.07-.04-.11-.05-.18-.03-.66.56-1.23,1.25-1.27.77-.04,1.2.52,1.23,1.11.03.51.2,1.05.22,1.52.1,2,.42,3.96,1.03,5.9.05.22.14.51.15.8.03.58-.39,1.01-1.04,1.04-1.64.08-2.49-2.21-2.74-3.55-.62,1.46-2.12,4.96-3.84,5.05-.36.02-.66-.11-.89-.25-1.66-1.12-1.77-3.2-1.85-4.77-.08-1.57-.16-6.79,1.99-6.9.73-.04,1.41.48,1.45,1.2.05.91-.18,2.2-.2,3.26,0,1.24-.02,2.52.04,3.76l.03.62c1.11-1.23,2.67-4.37,2.99-5.85Z"/>
        <path class="cls-1" d="m142.63,138.2c.66,0,1.36.08,2.05.04-1.36-2.38-3.45-3.26-3.62-6.58-.08-1.68,1.42-2.96,3.1-3.04,1.57-.08,2.85.66,2.93,2.3.02.29-.06.92-.76.95-.22.01-.33-.06-.48-.16-.04-.03-.11-.07-.11-.1l-.12-.1s-.08-.07-.11-.07c-.07-.03-.15-.03-.29-.02-.11,0-.44.02-.73.11-.11.04-.22.01-.25.08-.55,2.8,3.59,4.57,3.72,7.19.07,1.31-.91,2.24-2.26,2.31-1.06.05-4.05-.67-4.12-1.98-.02-.47.39-.93.94-.96l.11.03Z"/>
        <path class="cls-1" d="m152.25,138.3c-.25-1.34-.36-2.72-.49-3.99-.07.04-.14.04-.22.05-.25.05-.51.1-.73.11-.26.01-.51-.01-.8,0-.33.02-.88-.1-.91-.72-.02-.37.15-.63.48-.72.11-.04.25-.05.33-.05h.25c.07-.05.11-.06.18-.1.18-.04.36-.09.54-.14.29-.09.58-.18.79-.22-.04-.69-.11-1.38-.14-2.04-.04-.84-.14-2.7-.08-4.49.06-1.68.22-3.59.92-4.18.25-.2.53-.32.82-.33,1.13-.06,1.4.99,1.43,1.57.01.26-.01.51,0,.73.01,2.41.06,4.82.18,7.22l.04.73c.76-.15,1.52-.3,2.28-.33.22-.01.51,0,.77.07.33.13.6.37.62.77.02.4-.25.74-.65.87-.43.17-1.01.27-1.59.37-.44.06-.91.12-1.31.18.1,1.31.24,2.58.45,3.88.16,1.09.44,2.13.64,3.26.05.22.06.44.14.69.05.25.1.47.18.61.04.07.08.14.08.21.04.07.08.18.09.29.02.44-.39,1.04-1,1.07-1.86.09-3.09-4.04-3.3-5.38Z"/>
        <path class="cls-1" d="m160.8,138.37c-.15-.72-.22-1.41-.28-1.92-.19-1.49-.55-3-.63-4.54-.03-.62.22-1.51,1.27-1.56,1.09-.05,1.55,1.09,1.85,1.95.13.47.23.97.33,1.41.63-1.31,1.91-3.42,3.51-3.5.58-.03,1.18.31,1.22.96,0,.18-.02.33-.08.48-.03.11-.14.19-.21.27l-.24.23c-.7.51-1.51,1.14-1.99,1.89-.53.98-1.07,1.96-1.42,2.96-.09.33-.18.74-.2,1.18-.05.44-.06.88-.08,1.28,0,.59-.45,1.19-1.18,1.23-.26.01-.48-.05-.67-.15-.08-.07-.15-.1-.15-.17-.07-.03-.11-.1-.19-.14-.5-.45-.75-1.17-.86-1.86Z"/>
        <path class="cls-1" d="m172.35,138.37c-1.79.09-2.92-1.39-3-2.92-.06-1.09.37-2.14.79-3.07.79-1.79,2.35-4.14,4.9-4.27.36-.02.77.04,1.11.2.06-.19.13-.37.19-.56.16-.37.47-.83,1.09-.86.62-.03,1.01.46,1.04.97,0,.14-.02.29-.05.4s-.06.22-.05.37c-.14.92-.08,1.94-.04,2.85l.12,2.33c.09,1.02.2,1.82.25,1.96,0,.04.04.07.08.11l.12.1c.11.1.27.28.28.53.02.4-.29.82-.8.84-1.24.06-2.19-1.35-2.42-2.4-.74,1.35-1.88,3.31-3.59,3.4Zm.19-2.82l.1-.11c1.51-1.17,2.4-3.15,3.11-4.98-.04,0-.11.04-.18.08-1.44.44-2.67,2.91-3.04,4.25-.1.22-.13.41-.11.63,0,.04,0,.11.05.18t.07-.04Z"/>
        <path class="cls-1" d="m185.65,129.01c-1.4.44-2.02,2.7-1.95,4.15.03.51.25,1.96.97,1.92.73-.04,3.35-2.36,3.91-2.98l.07-.08s.07-.11.17-.16c.11-.08.21-.12.4-.13.51-.03.86.36.88.76,0,.11-.12.44-.19.52-.06.19-.2.41-.33.64-.27.38-.51.76-.65.95-.89,1.21-2.5,3.2-4.44,3.29-2.84.14-3.91-2.87-4.01-4.8-.13-2.55,1.39-6.57,4.37-6.72.98-.05,2.28.36,2.35,1.63.01.25-.01.48,0,.69v.04c.15.06.27.24.28.46.02.4-.29.78-.73.8-.47.02-.78-.33-.91-.58-.12-.14-.16-.28-.2-.43Z"/>
        <path class="cls-1" d="m195.72,135.99l.08.07s.08.07.12.14c.08.1.12.25.13.43.04.69-.68,1.06-1.22,1.08-2.48.12-3.16-3.28-3.26-5.17-.07-1.38-.01-3.91.69-5.19.3-.49.68-.95,1.34-.98.58-.03.96.21,1.2.6.2.28.25.72.27,1.04.06,1.17-.14,2.31-.08,3.48.07,1.42.43,2.75.61,4.17,0,.15.05.22.09.25,0,.04,0,.07.04.07Zm-.81-13.07l.04.73c.03.58-.34,1.11-1.11,1.15-1.46.07-1.93-1.33-1.98-2.24-.02-.4.02-.99.25-1.47.16-.48.57-.98,1.3-1.02.8-.04,1.2.52,1.23,1.11.01.25-.05.51-.03.77,0,.07.04.18.13.36.04.11.08.18.12.29,0,.07.05.22.05.33Z"/>
        <path class="cls-1" d="m205.91,131.6c.03.58-.12,1.21-.42,1.77-.84,1.39-2.89,3.43-4.86,3.53-2.19.11-3.09-1.93-3.17-3.42-.01-.22-.02-.44,0-.62.11-1.36,1.33-4.71,3.45-4.81.47-.02.92.14,1.26.41,1.93-.06,3.63,1.06,3.74,3.14Zm-4.88-5.38c-.51.03-.97-.35-.99-.86-.04-.87,2.04-2.37,2.76-2.41.58-.03,1.04.35,1.07.9.02.36-.22.74-.62.83-.21.23-.6.5-.94.81-.21.16-.42.35-.63.47-.11.08-.21.12-.28.16-.11.04-.21.08-.36.09Zm2.71,5.3c-.04-.69-.97-1.19-1.56-1.24l-.1.12s-.07.08-.14.12c-.7.62-1.32,2-1.28,2.91,0,.18.05.36.1.54l.08.14c.95-.05,2.94-1.76,2.9-2.59Z"/>
        <path class="cls-1" d="m210.88,130.25c.97-1.69,2.72-4.63,4.8-4.74,2.11-.11,2.52,2.14,2.6,3.78.02.47.01.99,0,1.5,0,1.32.1,2.66-.02,3.95-.04.62-.51,1.52-1.42,1.57-1.28.06-1.63-1.27-1.67-1.92-.09-1.86,0-3.76-.1-5.62l-.03-.58c-.83.19-1.68,1.4-2.48,3.01-.79,1.65-1.43,3.47-1.76,4.29-.22.67-.71,1.17-1.47,1.21-1.35.07-1.89-1.33-1.95-2.46-.08-1.57.06-8.15,2.21-8.26,1.02-.05,1.44.95,1.47,1.53v.07c-.03.84-.12,1.83-.26,2.75.04,0,.03-.04.07-.08Z"/>
      </g>
      <g>
        <path class="cls-1" d="m99.39,92.35c-1.25.35-1.85,2.33-1.82,3.62.01.45.17,1.74.81,1.73.65-.01,3.02-2,3.53-2.53l.06-.07s.06-.1.16-.13c.1-.07.19-.1.35-.1.45-.01.75.34.76.69,0,.1-.12.39-.18.46-.06.16-.19.36-.31.55-.25.33-.47.66-.6.82-.82,1.05-2.3,2.76-4.01,2.8-2.52.06-3.38-2.64-3.42-4.35-.05-2.26,1.39-5.78,4.04-5.84.87-.02,2.01.38,2.04,1.5,0,.23-.02.42-.02.61v.03c.13.06.23.22.24.41,0,.36-.28.69-.66.69-.42,0-.69-.31-.79-.53-.1-.13-.14-.25-.17-.38Z"/>
        <path class="cls-1" d="m111.79,95.27c.01.52-.14,1.07-.42,1.56-.78,1.21-2.65,2.97-4.39,3.01-1.94.04-2.69-1.78-2.72-3.11,0-.19,0-.39.02-.55.13-1.2,1.3-4.13,3.17-4.17.42,0,.81.14,1.11.39,1.71,0,3.19,1.03,3.23,2.87Zm-1.91-.12c-.01-.61-.83-1.08-1.35-1.13l-.09.1s-.06.07-.13.1c-.63.53-1.22,1.74-1.2,2.55,0,.16.04.32.08.48l.07.13c.84-.02,2.65-1.48,2.63-2.22Z"/>
        <path class="cls-1" d="m116.16,94.21c.9-1.47,2.53-4.03,4.37-4.07,1.87-.04,2.18,1.95,2.21,3.41,0,.42-.01.87-.04,1.33-.04,1.16.02,2.36-.12,3.49-.05.55-.49,1.34-1.29,1.35-1.13.03-1.42-1.16-1.43-1.74-.04-1.65.09-3.33.05-4.98v-.52c-.75.15-1.54,1.2-2.28,2.6-.74,1.44-1.35,3.03-1.66,3.75-.21.59-.65,1.02-1.33,1.03-1.19.03-1.64-1.22-1.66-2.22-.03-1.39.26-7.21,2.16-7.25.9-.02,1.25.88,1.26,1.39v.07c-.05.74-.16,1.62-.3,2.43.03,0,.03-.03.06-.07Z"/>
        <path class="cls-1" d="m137.19,89.96l.06-.03c.19-.1.45-.14.67-.15,1.42-.03,1.58,1.39,1.6,2.45.03,1.32-.1,2.65-.07,4.04,0,.19-.02.48-.01.78.04.29.04.55.11.74,0,.03.03.03.03.06.03.06.07.16.07.29.01.65-.66.92-1.08.93-1.45.03-1.75-1.67-1.77-2.8-.03-1.55.16-3.07.32-4.59-1.4.97-2.69,3.87-3.24,5.4-.03.16-.12.36-.15.59-.09.26-.22.49-.34.72-.22.46-.62.98-1.27,1-.52.01-1.21-.55-1.44-.97-.81-1.47-1.13-4.27-1.16-5.85-.06-2.52.37-5.01,1-7.42.12-.33.27-.85.52-1.27.25-.46.66-.92,1.3-.93.97-.02,1.18.81,1.19,1.33,0,.29-.05.55-.08.78-.77,2.96-1.13,5.64-1.07,8.65.02.94.07,1.81.19,2.71.7-1.89,2.68-5.68,4.6-6.43Z"/>
        <path class="cls-1" d="m143.6,99.06c-1.58.04-2.55-1.3-2.58-2.66-.02-.97.38-1.88.78-2.7.74-1.57,2.18-3.6,4.44-3.65.32,0,.68.05.97.21.06-.16.12-.33.18-.49.15-.33.44-.72.98-.73.55-.01.88.43.89.88,0,.13-.03.26-.06.36-.03.1-.06.2-.06.33-.14.81-.12,1.71-.1,2.52l.05,2.07c.05.9.13,1.61.17,1.74,0,.03.03.06.07.09l.1.09c.1.09.23.25.24.48,0,.36-.27.72-.73.73-1.1.02-1.9-1.25-2.08-2.18-.68,1.18-1.74,2.88-3.26,2.92Zm.24-2.49l.1-.1c1.37-1,2.2-2.73,2.87-4.33-.03,0-.1.04-.16.07-1.28.35-2.43,2.51-2.79,3.68-.09.2-.12.36-.12.55,0,.03,0,.1.04.16t.06-.03Z"/>
        <path class="cls-1" d="m152.6,100.15c-.14-.29-.24-.58-.27-.74-.75-1.6-.89-5.18-.93-6.96-.04-2,.05-6.56,1.2-8.36.19-.29.54-.5.96-.51.71-.02,1.17.49,1.19,1.1.01.61-.13,1.26-.22,1.91-.25,1.91-.33,3.85-.29,5.79v.52c.65-2.02,1.75-3.11,3.91-3.16,2.07-.05,3.26,1.48,3.3,3.22.06,2.81-2.72,6.75-5.98,6.82-.13,0-.26-.03-.42-.02.04.32.05.68.05,1,.01.48-.4.91-.92.92-.35,0-.55-.12-.72-.27-.03-.03-.07-.09-.1-.13,0-.03-.03-.06-.07-.09-.03-.06-.07-.13-.1-.16,0-.03-.07-.06-.07-.06l-.1-.09s-.03-.03-.07-.06c-.1-.16-.27-.41-.37-.67Zm6.17-7.27c0-.42-.11-.71-.41-.96-.29-.19-.85-.43-1.11-.43-.23,0-.48.04-.64.14-1.15.8-1.48,4.49-1.58,5.88,1.83-.46,3.78-2.76,3.74-4.64Z"/>
        <path class="cls-1" d="m166.62,97.48l.07.06s.07.06.1.13c.07.09.1.22.1.38.01.61-.63.92-1.11.93-2.2.05-2.71-2.98-2.75-4.66-.03-1.23.08-3.46.74-4.57.28-.43.63-.82,1.21-.83.52-.01.84.21,1.05.56.17.25.21.64.21.93.02,1.03-.18,2.04-.16,3.07.03,1.26.31,2.45.44,3.7,0,.13.04.19.07.22,0,.03,0,.07.03.06Zm-.39-11.59v.65c.03.52-.32.98-1,.99-1.29.03-1.67-1.22-1.69-2.03,0-.35.05-.87.26-1.3.15-.42.53-.85,1.18-.87.71-.02,1.04.49,1.06,1.01,0,.23-.05.45-.05.68,0,.07.04.16.1.32.03.1.07.16.1.26,0,.06.04.19.04.29Z"/>
        <path class="cls-1" d="m172.26,102.52c.01.48-.37.88-.92.89-.39,0-.62-.18-.78-.4-1.33-1.71-1.57-4-1.62-6.1-.05-2.32.33-14.22,1.92-15.25.16-.1.35-.14.51-.14.61-.01.88.4.99.75.07.19.07.39.08.58v.48c.02.48.03.97.01,1.49-.23,4.04-.73,8.06-.63,12.13.02,1.07.08,2.1.2,3.16.08.74.1,1.52.24,2.25v.16Z"/>
        <path class="cls-1" d="m178.38,97.21l.07.06s.07.06.1.13c.07.09.1.22.1.38.01.61-.63.92-1.11.93-2.19.05-2.71-2.98-2.75-4.65-.03-1.23.08-3.46.74-4.57.28-.43.63-.82,1.21-.83.52-.01.84.21,1.05.56.17.25.21.64.21.93.02,1.03-.18,2.04-.16,3.07.03,1.26.31,2.45.44,3.7,0,.13.04.19.07.22,0,.03,0,.07.03.06Zm-.39-11.59v.65c.03.52-.32.98-1,.99-1.29.03-1.67-1.22-1.69-2.03,0-.35.05-.87.26-1.3.15-.42.53-.85,1.18-.87.71-.02,1.04.49,1.06,1.01,0,.23-.05.45-.05.68,0,.07.04.16.1.32.04.1.07.16.1.26,0,.06.04.19.04.29Z"/>
        <path class="cls-1" d="m187.95,96.39c-.78,1.37-2.45,3.19-4.16,3.23-2.61.06-3.48-2.67-3.52-4.38-.06-2.74,1.07-7.16,4.97-7.25,1.07-.02,1.95.41,2.51,1.11.16-2.75.68-5.47,1.86-8.02.06-.1.09-.23.15-.36.06-.16.15-.29.25-.42.19-.29.44-.53.89-.54.87-.02,1.05.75,1.06,1.17.01.45-.04.94-.1,1.42-.09.49-.14.91-.23,1.39-.37,2.11-.91,4.12-1.31,6.23-.03.1-.03.26-.02.45.08,3.65.43,9.39,2.12,12.55.04.13.1.26.14.35.32.12.53.41.53.76.01.61-.53,1.05-1.14,1.06-.16,0-.32-.06-.45-.09-.1-.03-.23-.09-.33-.12-2.35-1.01-3.02-6.39-3.23-8.55Zm-.89-5.28c-.07-.06-.16-.12-.23-.22-.33-.25-.66-.5-1.04-.49-2.26.05-2.83,3.29-2.8,5,0,.45.11,1.81.75,1.79.29,0,.61-.14.83-.34,1.56-1.1,2.51-3.48,3.05-5.3-.16-.09-.46-.28-.56-.44Z"/>
        <path class="cls-1" d="m196.22,97.88c-1.58.04-2.55-1.3-2.58-2.66-.02-.97.38-1.88.78-2.7.74-1.57,2.18-3.6,4.44-3.65.32,0,.68.05.97.21.06-.16.12-.33.18-.49.15-.33.44-.72.98-.73.55-.01.88.43.89.88,0,.13-.03.26-.06.36-.03.1-.06.19-.06.32-.14.81-.12,1.71-.11,2.52l.05,2.07c.05.9.13,1.61.17,1.74,0,.03.03.06.07.09l.1.09c.1.09.23.25.24.48,0,.36-.28.72-.73.73-1.1.02-1.9-1.25-2.08-2.18-.68,1.18-1.74,2.88-3.26,2.92Zm.24-2.49l.09-.1c1.37-1,2.2-2.73,2.88-4.33-.03,0-.1.04-.16.07-1.28.35-2.43,2.51-2.79,3.68-.09.2-.12.36-.12.55,0,.03,0,.1.04.16t.06-.03Z"/>
        <path class="cls-1" d="m211.49,95.86c-.78,1.38-2.45,3.19-4.16,3.23-2.62.06-3.48-2.67-3.52-4.38-.06-2.74,1.07-7.16,4.97-7.25,1.07-.02,1.95.41,2.51,1.11.17-2.75.69-5.47,1.86-8.02.06-.1.09-.23.15-.36.06-.16.16-.29.25-.43.19-.29.44-.53.89-.54.87-.02,1.05.75,1.06,1.17,0,.45-.04.94-.1,1.42-.09.49-.14.91-.23,1.39-.37,2.11-.91,4.12-1.31,6.23-.03.1-.03.26-.02.45.08,3.65.44,9.39,2.12,12.55.04.13.1.26.14.35.33.12.53.41.53.76.01.61-.53,1.04-1.14,1.06-.16,0-.32-.06-.45-.09-.1-.03-.23-.09-.33-.12-2.35-1.01-3.02-6.39-3.23-8.55Zm-.89-5.28c-.07-.06-.16-.13-.23-.22-.33-.25-.66-.5-1.04-.49-2.26.05-2.83,3.29-2.79,5,0,.45.1,1.81.75,1.79.29,0,.61-.14.83-.34,1.56-1.1,2.51-3.48,3.05-5.3-.16-.09-.46-.28-.56-.44Z"/>
        <path class="cls-1" d="m222.6,96.23c.36,0,.68-.08.96-.18.13-.07.26-.1.35-.14.06-.03.13-.04.19-.07h.19c.45-.01.69.34.69.66,0,.23-.12.42-.21.55-.69.69-2.04,1.05-2.98,1.07-.52.01-1.1-.07-1.65-.25-1.69-.61-2.97-2.74-3-4.39-.06-2.58,2.21-5.25,5.11-5.31,1.36-.03,2.44.75,2.47,2.11.05,2.2-3.02,3.49-4.89,3.6.19,1.38,1.25,2.4,2.76,2.36Zm.71-5.86c0-.35-.24-.54-.56-.54-1.26.03-2.32,1.54-2.72,2.55.9-.18,3.31-.88,3.28-2.01Z"/>
        <path class="cls-1" d="m227.34,95.71c.58.02,1.2.1,1.81.09-1.15-2.14-2.97-2.97-3.04-5.91-.03-1.48,1.33-2.58,2.82-2.61,1.39-.03,2.5.66,2.53,2.11,0,.26-.08.81-.69.82-.19,0-.29-.06-.42-.15-.03-.03-.1-.06-.1-.09l-.1-.09s-.07-.06-.1-.06c-.06-.03-.13-.03-.26-.03-.1,0-.39,0-.64.08-.1.03-.19,0-.22.07-.56,2.47,3.06,4.13,3.12,6.45.03,1.16-.86,1.96-2.05,1.98-.94.02-3.57-.69-3.59-1.86,0-.42.37-.82.85-.83l.1.03Z"/>
      </g>
      <g>
        <path class="cls-1" d="m20.83,121.73c.02.55-.66,1.04-1.17,1.06-.62.02-1.11-.47-1.42-.98-1.09-2.19-1.38-5.39-1.46-7.76-.05-1.46-.15-5.76.47-6.88.24-.37.6-.71,1.18-.73,1.24-.04,1.42,1.12,1.46,2.07.03,1.06.03,2.08.07,3.17.43-1.22.98-2.33,1.64-3.41.21-.41.62-1.01,1.12-1.57.46-.45,1.1-1.02,1.79-1.04,1.9-.06,2.59,2.14,2.63,3.31.1,3.17-2.51,7.02-6.26,7.14-.07,0-.15-.03-.22-.03-.11.95-.19,1.98-.16,2.92.01.44.15,2.22.3,2.51.04.04.04.11.04.22Zm3.41-13.84c0-.11,0-.22-.05-.33-1.35.99-2.74,4.33-3.05,5.87,1.93-1.38,3.18-3.06,3.1-5.54Z"/>
        <path class="cls-1" d="m31.51,114.63c-1.79.06-2.9-1.44-2.95-2.97-.04-1.09.4-2.13.85-3.06.82-1.78,2.42-4.1,4.97-4.18.36-.01.77.05,1.1.22.07-.18.13-.37.2-.55.17-.37.48-.82,1.1-.84.62-.02,1,.48,1.02.99,0,.15-.03.29-.06.4-.03.11-.07.22-.06.37-.15.92-.12,1.94-.09,2.85l.08,2.33c.07,1.02.17,1.82.21,1.96,0,.04.04.07.08.11l.11.11c.11.11.26.28.27.54.01.4-.3.81-.81.83-1.24.04-2.16-1.39-2.38-2.44-.76,1.34-1.94,3.28-3.65,3.33Zm.24-2.82l.11-.11c1.53-1.15,2.45-3.11,3.2-4.92-.04,0-.11.04-.18.08-1.45.41-2.72,2.86-3.11,4.19-.1.22-.13.4-.13.62,0,.04,0,.11.04.18t.07-.04Z"/>
        <path class="cls-1" d="m40.46,113.75c-.13-.73-.19-1.42-.25-1.93-.16-1.49-.5-3.01-.55-4.54-.02-.62.24-1.5,1.3-1.54,1.09-.04,1.53,1.12,1.82,1.98.12.47.21.98.3,1.41.65-1.3,1.97-3.39,3.57-3.44.58-.02,1.18.33,1.2.98,0,.18-.02.33-.09.48-.03.11-.14.19-.21.26l-.25.23c-.71.5-1.53,1.11-2.02,1.86-.55.97-1.1,1.94-1.47,2.93-.1.33-.19.74-.22,1.18-.06.44-.08.88-.1,1.28-.02.58-.47,1.18-1.2,1.21-.26,0-.48-.06-.66-.16-.08-.07-.15-.1-.15-.18-.07-.03-.11-.11-.19-.14-.49-.46-.73-1.18-.83-1.87Z"/>
        <path class="cls-1" d="m52,113.95c-1.79.06-2.9-1.44-2.95-2.97-.04-1.09.4-2.13.85-3.06.82-1.78,2.42-4.1,4.97-4.18.36-.01.77.05,1.1.22.07-.19.13-.37.2-.55.17-.37.48-.82,1.1-.84.62-.02,1,.48,1.02.99,0,.15-.03.29-.06.4-.03.11-.07.22-.06.37-.15.92-.12,1.94-.09,2.85l.08,2.33c.07,1.02.17,1.82.21,1.96,0,.04.04.07.08.11l.11.11c.11.11.26.28.27.54.01.4-.3.81-.81.83-1.24.04-2.16-1.39-2.38-2.44-.76,1.34-1.94,3.28-3.65,3.33Zm.24-2.82l.11-.11c1.53-1.15,2.45-3.11,3.2-4.92-.04,0-.11.04-.18.08-1.45.41-2.72,2.86-3.11,4.19-.1.22-.13.41-.13.62,0,.04,0,.11.04.18t.07-.04Z"/>
      </g>
      <g>
        <path class="cls-1" d="m59.84,126.97c.4-.07.74-.21,1.04-.38.13-.1.27-.16.37-.22.06-.05.14-.06.2-.11l.21-.04c.5-.09.83.26.89.62.05.25-.06.49-.14.66-.65.9-2.09,1.54-3.13,1.73-.57.11-1.24.12-1.89.01-2-.37-3.81-2.53-4.14-4.35-.53-2.87,1.52-6.25,4.75-6.85,1.51-.28,2.86.4,3.13,1.91.45,2.44-2.74,4.44-4.81,4.9.46,1.51,1.82,2.45,3.51,2.13Zm-.27-6.67c-.07-.39-.36-.56-.72-.5-1.4.26-2.31,2.13-2.58,3.33.97-.37,3.53-1.58,3.3-2.83Z"/>
        <path class="cls-1" d="m69.19,131.18c.1.54-.25,1.05-.86,1.16-.43.08-.72-.09-.95-.31-1.79-1.67-2.48-4.18-2.91-6.51-.48-2.58-2.2-15.92-.61-17.36.16-.14.37-.21.55-.25.68-.13,1.05.29,1.23.66.11.2.15.42.19.63l.1.54c.1.54.2,1.08.27,1.66.47,4.55.64,9.12,1.48,13.64.22,1.18.47,2.33.79,3.49.22.81.38,1.67.68,2.47l.03.18Z"/>
      </g>
    </g>
    <g>
      <g>
        <path class="cls-1" d="m1.25,21.67c.02-.44.45-.93.99-.9.33.02.5.21.64.36l.31.34c1.46,1.42,4.13,2.03,6.14,2.13,1.82.09,4.21-.3,5.3-1.67.31-.46.56-.92.58-1.39.04-.76-.55-1.41-1.72-2.13-1.09-.75-2.63-1.41-4.16-2.21-3.06-1.65-6.27-3.92-6.06-8.18C3.51,3.17,7.36-.22,12.1.01c2.04.1,3.85,1.21,3.74,3.43-.08,1.53-.97,3.49-2.4,4.33-.07.03-.26.13-.45.23-.11.07-.19.1-.3.13-.04.03-.11.03-.15.07-.04,0-.11.03-.18.03-.51-.03-.74-.47-.73-.8s.21-.5.39-.6.34-.17.52-.27c1.02-.68,1.66-1.93,1.72-3.13.05-1.02-.58-1.49-1.71-1.54-.58-.03-1.17.05-1.73.21-2.88.77-4.24,3.15-4.38,5.95-.15,2.99,2.66,4.44,5.76,6.01.78.4,1.53.77,2.28,1.21,2.06,1.16,4.03,2.64,3.9,5.3-.06,1.13-.74,2.41-1.48,3.28-1.78,2.07-4.91,2.71-7.54,2.59-3.09-.15-6.46-1.52-8-4.3-.07-.15-.13-.3-.12-.48Z"/>
        <path class="cls-1" d="m28.34,20.59c-.03.58-.24,1.19-.6,1.72-.98,1.3-3.22,3.13-5.19,3.03-2.18-.11-2.88-2.22-2.81-3.71.01-.22.02-.44.07-.62.25-1.34,1.79-4.55,3.9-4.44.47.02.9.23,1.21.53,1.93.13,3.51,1.41,3.4,3.49Zm-2.14-.29c.03-.69-.85-1.28-1.43-1.38l-.11.1s-.08.07-.15.1c-.76.55-1.51,1.86-1.56,2.77,0,.18.02.37.05.55l.07.15c.95.05,3.1-1.45,3.14-2.29Z"/>
        <path class="cls-1" d="m37.63,15.68c.1-.51.46-1.11,1.18-1.07.8.04,1.09.75,1.07,1.26v.25s-.05.03-.05.07c-.01.22.01.51,0,.77-.03.66-.14,1.27-.21,1.96-.33,2.9-.65,5.81-.8,8.76-.09,1.86-.07,3.68-.16,5.5-.03.62-.67.92-1.14.89-.66-.03-1.07-.53-1.34-1.05-.23-.56-.34-1.29-.41-1.99-.11-1.43,0-3.03.03-3.61.07-1.38.21-2.76.39-4.14-.82,1.13-1.87,2.39-2.62,2.9-.38.27-.9.54-1.45.51-2.51-.12-2.82-3.5-2.73-5.43.03-.55.17-2.04.53-3.3.21-.61.46-1.25.78-1.71.32-.5.77-.84,1.43-.81.76.04,1.21.61,1.18,1.26,0,.18-.02.33-.06.51-.48,1.51-.68,2.74-.76,4.34-.04.73-.01,1.75.21,2.46,2.5-1.88,4.42-5.37,4.94-8.33Z"/>
      </g>
      <path class="cls-1" d="m52.7,20.87s.1-.47.1-.54c.09-.32.21-.65.27-.94,0-.07-.03-.11-.03-.18.03-.66.68-1.17,1.37-1.14.76.04,1.14.64,1.11,1.22-.03.51.09,1.06.07,1.54-.1,2,.02,3.98.44,5.97.03.22.08.52.07.81-.03.58-.49.96-1.14.93-1.64-.08-2.25-2.45-2.37-3.8-.76,1.39-2.6,4.73-4.32,4.64-.36-.02-.65-.18-.86-.33-1.54-1.28-1.44-3.36-1.36-4.92s.52-6.76,2.66-6.66c.73.04,1.36.61,1.32,1.34-.04.91-.4,2.17-.52,3.22-.13,1.23-.27,2.5-.33,3.74l-.03.62c1.22-1.11,3.08-4.08,3.56-5.52Z"/>
      <path class="cls-1" d="m61.17,23.18c1.14-1.59,3.17-4.33,5.24-4.23s2.29,2.38,2.21,4.01c-.02.47-.08.98-.15,1.49-.14,1.31-.17,2.66-.41,3.92-.1.62-.66,1.46-1.57,1.42-1.27-.06-1.5-1.42-1.47-2.08.09-1.86.37-3.74.46-5.6l.03-.58c-.84.1-1.81,1.22-2.76,2.75-.95,1.56-1.77,3.31-2.17,4.09-.29.64-.82,1.09-1.58,1.05-1.35-.07-1.75-1.51-1.69-2.64.08-1.57.87-8.1,3.02-7.99,1.02.05,1.33,1.09,1.3,1.67v.07c-.12.83-.31,1.81-.54,2.71.04,0,.04-.03.08-.07Z"/>
      <path class="cls-1" d="m72.15,29.89c-1.78-.09-2.76-1.67-2.69-3.2.05-1.09.58-2.09,1.1-2.98.96-1.7,2.75-3.88,5.29-3.75.36.02.76.11,1.08.31.08-.18.16-.36.25-.54.2-.36.55-.78,1.17-.75s.96.56.93,1.07c0,.15-.05.29-.09.4s-.08.21-.09.36c-.23.9-.28,1.92-.32,2.83l-.11,2.33c-.01,1.02.02,1.83.05,1.97,0,.04.03.07.07.11l.1.11c.1.11.24.3.23.56-.02.4-.37.78-.88.76-1.24-.06-2.04-1.56-2.17-2.63-.87,1.27-2.2,3.1-3.91,3.02Zm.47-2.79l.11-.1c1.62-1.02,2.7-2.9,3.59-4.64-.04,0-.11.03-.19.06-1.47.29-2.94,2.63-3.44,3.92-.12.21-.17.39-.18.61,0,.04,0,.11.03.18t.07-.03Z"/>
    </g>
  </g>
  <g>
    <path class="cls-1" d="m94,18.29c.04.49.07.98.13,1.47.09.77.18,1.53.4,2.28.36,1.25,1.21,1.95,2.44,2.23.84.19,1.69.28,2.54.35.38.03.76.06,1.14.04-.38.12-.78.14-1.18.17-1,.09-1.99.22-2.95.52-1.11.35-1.72,1.13-2,2.22-.23.89-.34,1.8-.39,2.72-.02.31-.05.61-.11.91-.03-.33-.07-.65-.1-.98-.09-1.08-.2-2.15-.6-3.17-.29-.74-.8-1.27-1.56-1.57-.64-.25-1.32-.35-1.99-.45-.66-.1-1.33-.14-2-.21-.11-.01-.23-.03-.36-.05.05-.05.1-.04.14-.04,1.22-.04,2.43-.16,3.62-.46.87-.22,1.58-.69,2-1.51.23-.45.35-.95.44-1.45.15-.8.22-1.61.28-2.43.02-.2.04-.39.06-.59,0,0,.01,0,.02,0Z"/>
    <path class="cls-1" d="m90.14,30.1c-.02-.2-.04-.36-.06-.52-.1-.54-.34-.78-.94-.85-.14-.02-.29-.03-.46-.05.17-.09.35-.08.51-.12.65-.16.79-.3.89-.97.02-.14.04-.27.08-.41.05.21.08.42.14.62.12.42.36.68.81.73.2.02.4.07.6.12-.39.05-.81,0-1.14.29-.33.29-.28.73-.42,1.14Z"/>
    <path class="cls-1" d="m99.47,20.79c-.15.08-.28.07-.4.09-.15.03-.3.04-.44.09-.32.1-.49.33-.57.65-.06.23-.08.46-.17.71,0-.23-.03-.44-.07-.64-.1-.45-.31-.67-.77-.75-.22-.04-.44-.06-.66-.12.16-.02.32-.04.48-.06.67-.06.91-.36,1-1.06.02-.12.01-.25.05-.37.04.21.08.43.12.64.08.41.31.68.74.75.21.04.43.06.68.07Z"/>
    <path class="cls-1" d="m90.16,20.55c-.03.86.45,1.18,1.24,1.21-.85.01-1.25.45-1.24,1.28-.02,0-.03-.02-.05-.03-.02-.13-.04-.27-.06-.4-.09-.52-.24-.68-.77-.78-.15-.03-.31-.04-.46-.08.17-.02.34-.04.52-.07.46-.07.63-.25.72-.71.03-.13.04-.27.06-.41.02,0,.03-.02.05-.02Z"/>
    <path class="cls-1" d="m99.3,27.03c-.44.01-.6.26-.63.64-.02-.42-.28-.59-.66-.67.45,0,.62-.25.67-.66-.02.44.2.63.62.68Z"/>
    <path class="cls-1" d="m96.11,29.23q-.08-.47-.59-.62c.36-.04.61-.18.58-.61.05.38.25.58.63.63-.41.01-.56.26-.62.6Z"/>
  </g>
  <g>
    <path class="cls-1" d="m11.33,90.15c0,.6.04,1.2.16,1.79.08.39.21.77.5,1.06.34.35.78.48,1.24.56.43.08.87.09,1.3.16-.21.01-.43.03-.64.04-.35.02-.7.09-1.04.17-.8.2-1.2.76-1.36,1.53-.11.55-.12,1.1-.16,1.68-.07-.51-.08-1.01-.16-1.5-.21-1.32-.89-1.61-1.81-1.8-.39-.08-.79-.09-1.18-.12-.06,0-.12.02-.19-.04.37-.03.73-.05,1.08-.09.2-.02.4-.07.59-.11.83-.17,1.29-.7,1.46-1.51.13-.61.15-1.22.2-1.84Z"/>
    <path class="cls-1" d="m18.18,100.54c.93.03,1.23-.51,1.33-1.29.2.72.51,1.29,1.4,1.31-.85.13-1.3.61-1.39,1.47,0-.91-.46-1.37-1.34-1.49Z"/>
    <path class="cls-1" d="m24.06,94.56c.73.02.97-.41,1.06-1.03.16.57.41,1.02,1.11,1.04-.68.1-1.03.49-1.1,1.17,0-.72-.36-1.08-1.06-1.18Z"/>
    <path class="cls-1" d="m6.91,88.16c-.09-.83-.47-1.33-1.35-1.35.33-.18.76-.1.99-.46.22-.33.28-.69.36-1.08.05.93.44,1.52,1.49,1.5-.87.09-1.49.39-1.49,1.39Z"/>
    <path class="cls-1" d="m6.28,100.29c.02-1.11-.18-1.31-1.27-1.63.9.01,1.31-.46,1.33-1.35.1.86.55,1.33,1.41,1.37-.3.07-.59.11-.85.29-.22.15-.35.33-.4.58-.05.24-.09.47-.22.73Z"/>
    <path class="cls-1" d="m19.54,89.16c-.86.1-1.45.4-1.5,1.34-.08-.9-.6-1.28-1.46-1.32.95-.01,1.4-.5,1.45-1.41.05.39.09.77.38,1.04.29.28.69.28,1.13.35Z"/>
    <path class="cls-1" d="m14.78,97.71c.35.01.47-.2.51-.49.08.27.2.49.53.5-.33.05-.49.23-.53.56,0-.35-.17-.52-.51-.57Z"/>
    <path class="cls-1" d="m11.74,104.37c.35.01.47-.2.51-.49.08.27.2.49.53.5-.33.05-.49.23-.53.56,0-.35-.17-.52-.51-.57Z"/>
    <path class="cls-1" d="m4.96,79.98c.48.02.64-.27.69-.67.1.37.27.67.73.68-.44.07-.68.32-.73.77,0-.48-.24-.71-.7-.77Z"/>
  </g>
  <g>
    <path class="cls-1" d="m30.95,91.55c.46.01.61-.26.66-.64.1.36.26.64.69.65-.42.06-.64.3-.69.73,0-.45-.23-.68-.66-.74Z"/>
    <path class="cls-1" d="m30.95,98.51c.46.01.61-.26.66-.64.1.36.26.64.69.65-.42.06-.64.3-.69.73,0-.45-.23-.68-.66-.74Z"/>
  </g>
  <path class="cls-1" d="m37.74,94.82c.46.01.61-.26.66-.64.1.36.26.64.69.65-.42.06-.64.3-.69.73,0-.45-.23-.68-.66-.74Z"/>
</svg>