<?xml version="1.0" encoding="utf-8"?>
<!-- Generator: Adobe Illustrator 27.7.0, SVG Export Plug-In . SVG Version: 6.00 Build 0)  -->
<svg version="1.1" id="Capa_1" xmlns="http://www.w3.org/2000/svg" xmlns:xlink="http://www.w3.org/1999/xlink" x="0px" y="0px"
	 viewBox="0 0 60.2 27.3" style="enable-background:new 0 0 60.2 27.3;" xml:space="preserve">
<style type="text/css">
	.st0{enable-background:new    ;}
	.st1{fill:#81CCD7;}
</style>
<g class="st0">
	<path class="st1" d="M2.5,12.6C2.5,12.6,2.5,12.6,2.5,12.6C2.5,12.7,2.5,12.7,2.5,12.6c0.1,0.1,0.1,0.2,0.1,0.2
		c0,0.2-0.2,0.4-0.4,0.4c-0.8,0-1-1.3-1.1-1.9c-0.1-0.8-0.2-1.7-0.2-2.1C0.6,9.3,0.4,9.2,0.4,9c0-0.1,0.1-0.3,0.4-0.3
		c0,0,0.1,0,0.1,0c0,0,0,0,0,0V8.3c0-1.3,0.2-2.7,0.5-4C1.5,4,1.8,3,2,2.8c0.1-0.1,0.1-0.1,0.3-0.1c0.2,0,0.3,0.1,0.3,0.2
		c0,0.1,0.1,0.2,0.1,0.3c0,0.7-0.1,1.4-0.2,2.1C2.3,6.3,2.3,7.4,2.2,8.5c0.5-0.1,1.1-0.2,1.6-0.2C4.9,8.2,6,8.1,7.1,8.1V7.6
		c0-0.3,0-1.5,0.1-2.6c0-0.5,0.1-1.1,0.3-1.5C7.5,3.3,7.6,3.1,7.7,3C7.8,2.9,8,2.8,8.2,2.8c0.4,0,0.5,0.3,0.5,0.6
		c0,0.4-0.1,0.9-0.1,1.4c0,1-0.1,1.9-0.1,2.9c0,1.5,0.1,3,0.2,4.5c0,0.1,0.1,0.2,0.1,0.3c0,0.3-0.3,0.4-0.5,0.4
		c-0.2,0-0.3-0.1-0.5-0.2c-0.3-0.3-0.5-1.1-0.5-1.9c-0.1-0.7-0.1-1.4-0.1-1.8C5.5,9.2,3.8,9.3,2.2,9.3c0,0.6,0,1.2,0.1,1.8
		C2.4,11.6,2.4,12.1,2.5,12.6L2.5,12.6C2.4,12.6,2.4,12.6,2.5,12.6z"/>
	<path class="st1" d="M10.8,10.2c-0.7,0-1.2-0.6-1.2-1.3C9.6,8.4,9.8,8,10,7.6C10.4,6.9,11.1,6,12.2,6c0.2,0,0.3,0,0.5,0.1
		c0-0.1,0.1-0.2,0.1-0.2c0.1-0.2,0.2-0.3,0.5-0.3c0.3,0,0.4,0.2,0.4,0.4c0,0.1,0,0.1,0,0.2c0,0,0,0.1,0,0.2
		c-0.1,0.4-0.1,0.8-0.1,1.2v1c0,0.4,0,0.8,0.1,0.8c0,0,0,0,0,0l0,0c0,0,0.1,0.1,0.1,0.2c0,0.2-0.1,0.3-0.4,0.3c-0.5,0-0.9-0.6-1-1
		C12,9.4,11.5,10.2,10.8,10.2z M11,9L11,9c0.7-0.5,1.1-1.3,1.4-2.1c0,0,0,0-0.1,0c-0.6,0.2-1.2,1.2-1.4,1.7C10.9,8.8,10.9,8.9,11,9
		C10.9,9,10.9,9,11,9C10.9,9,10.9,9,11,9z"/>
	<path class="st1" d="M14.9,10.8c-0.1-0.1-0.1-0.3-0.1-0.3c-0.3-0.8-0.4-2.4-0.4-3.3c0-0.9,0.1-3.1,0.7-3.9C15.1,3.1,15.3,3,15.5,3
		c0.3,0,0.5,0.2,0.5,0.5S16,4.1,15.9,4.4c-0.1,0.9-0.2,1.8-0.2,2.7v0.2c0.3-0.9,0.9-1.4,1.9-1.4c1,0,1.5,0.7,1.5,1.6
		c0,1.3-1.4,3.1-2.9,3.1c-0.1,0-0.1,0-0.2,0c0,0.2,0,0.3,0,0.5c0,0.2-0.2,0.4-0.4,0.4c-0.2,0-0.3-0.1-0.3-0.1c0,0,0,0,0-0.1
		c0,0,0,0,0,0c0,0,0-0.1,0-0.1c0,0,0,0,0,0l0,0c0,0,0,0,0,0C15,11,14.9,10.9,14.9,10.8z M17.9,7.4c0-0.2,0-0.3-0.2-0.5
		c-0.1-0.1-0.4-0.2-0.5-0.2c-0.1,0-0.2,0-0.3,0.1c-0.5,0.4-0.7,2.1-0.8,2.8C16.9,9.4,17.9,8.3,17.9,7.4z"/>
	<path class="st1" d="M21.4,9.7L21.4,9.7C21.4,9.7,21.4,9.7,21.4,9.7c0.1,0.1,0.1,0.2,0.1,0.3c0,0.3-0.3,0.4-0.5,0.4
		c-1,0-1.2-1.4-1.2-2.2c0-0.6,0.1-1.6,0.4-2.1c0.1-0.2,0.3-0.4,0.6-0.4c0.2,0,0.4,0.1,0.5,0.3c0.1,0.1,0.1,0.3,0.1,0.4
		c0,0.5-0.1,1-0.1,1.4c0,0.6,0.1,1.2,0.2,1.7C21.3,9.6,21.3,9.6,21.4,9.7C21.4,9.7,21.4,9.7,21.4,9.7z M21.3,4.2v0.3
		c0,0.2-0.2,0.5-0.5,0.5C20.2,5,20,4.4,20,4c0-0.2,0-0.4,0.1-0.6C20.3,3.2,20.4,3,20.7,3c0.3,0,0.5,0.2,0.5,0.5c0,0.1,0,0.2,0,0.3
		c0,0,0,0.1,0,0.2c0,0,0,0.1,0,0.1C21.3,4.1,21.3,4.2,21.3,4.2z"/>
	<path class="st1" d="M23.8,12.1c0,0.2-0.2,0.4-0.4,0.4c-0.2,0-0.3-0.1-0.4-0.2c-0.6-0.8-0.7-1.9-0.7-2.9c0-1.1,0.3-6.7,1.1-7.2
		c0.1,0,0.2-0.1,0.2-0.1c0.3,0,0.4,0.2,0.5,0.4c0,0.1,0,0.2,0,0.3v0.2c0,0.2,0,0.5,0,0.7c-0.2,1.9-0.4,3.8-0.4,5.7
		c0,0.5,0,1,0.1,1.5C23.8,11.3,23.8,11.7,23.8,12.1L23.8,12.1z"/>
	<path class="st1" d="M26.6,9.7L26.6,9.7C26.6,9.7,26.7,9.7,26.6,9.7c0.1,0.1,0.1,0.2,0.1,0.3c0,0.3-0.3,0.4-0.5,0.4
		c-1,0-1.2-1.4-1.2-2.2c0-0.6,0.1-1.6,0.4-2.1c0.1-0.2,0.3-0.4,0.6-0.4c0.2,0,0.4,0.1,0.5,0.3c0.1,0.1,0.1,0.3,0.1,0.4
		c0,0.5-0.1,1-0.1,1.4c0,0.6,0.1,1.2,0.2,1.7C26.6,9.6,26.6,9.6,26.6,9.7C26.6,9.7,26.6,9.7,26.6,9.7z M26.5,4.2v0.3
		c0,0.2-0.2,0.5-0.5,0.5c-0.6,0-0.8-0.6-0.8-1c0-0.2,0-0.4,0.1-0.6C25.5,3.2,25.7,3,26,3c0.3,0,0.5,0.2,0.5,0.5c0,0.1,0,0.2,0,0.3
		c0,0,0,0.1,0,0.2c0,0,0,0.1,0,0.1C26.5,4.1,26.5,4.2,26.5,4.2z"/>
</g>
<g class="st0">
	<path class="st1" d="M31,9.4c-0.4,0.6-1.2,1.5-2,1.5c-1.2,0-1.6-1.3-1.6-2.1c0-1.3,0.6-3.4,2.4-3.4c0.5,0,0.9,0.2,1.2,0.5
		c0.1-1.3,0.4-2.6,1-3.8c0,0,0-0.1,0.1-0.2c0-0.1,0.1-0.1,0.1-0.2c0.1-0.1,0.2-0.2,0.4-0.2c0.4,0,0.5,0.4,0.5,0.6
		c0,0.2,0,0.4-0.1,0.7c0,0.2-0.1,0.4-0.1,0.7c-0.2,1-0.5,1.9-0.7,2.9c0,0,0,0.1,0,0.2c0,1.7,0.1,4.4,0.9,5.9c0,0.1,0,0.1,0.1,0.2
		c0.2,0.1,0.2,0.2,0.2,0.4c0,0.3-0.3,0.5-0.5,0.5c-0.1,0-0.2,0-0.2,0c0,0-0.1,0-0.2-0.1C31.3,12.9,31,10.4,31,9.4z M30.6,6.9
		c0,0-0.1-0.1-0.1-0.1c-0.2-0.1-0.3-0.2-0.5-0.2c-1.1,0-1.4,1.5-1.4,2.3c0,0.2,0,0.9,0.3,0.9c0.1,0,0.3-0.1,0.4-0.2
		c0.7-0.5,1.2-1.6,1.5-2.5C30.8,7.1,30.6,7,30.6,6.9z"/>
</g>
<g class="st0">
	<path class="st1" d="M34.7,10.2c-0.7,0-1.2-0.6-1.2-1.3c0-0.5,0.2-0.9,0.4-1.3C34.3,6.9,35,6,36,6c0.2,0,0.3,0,0.5,0.1
		c0-0.1,0.1-0.2,0.1-0.2c0.1-0.2,0.2-0.3,0.5-0.3c0.3,0,0.4,0.2,0.4,0.4c0,0.1,0,0.1,0,0.2c0,0,0,0.1,0,0.2
		c-0.1,0.4-0.1,0.8-0.1,1.2v1c0,0.4,0,0.8,0.1,0.8c0,0,0,0,0,0l0,0c0,0,0.1,0.1,0.1,0.2c0,0.2-0.1,0.3-0.3,0.3c-0.5,0-0.9-0.6-1-1
		C35.9,9.4,35.4,10.2,34.7,10.2z M34.8,9L34.8,9c0.7-0.5,1.1-1.3,1.4-2.1c0,0,0,0-0.1,0c-0.6,0.2-1.2,1.2-1.4,1.7
		C34.8,8.8,34.8,8.9,34.8,9C34.8,9,34.8,9,34.8,9C34.8,9,34.8,9,34.8,9z"/>
</g>
<g class="st0">
	<path class="st1" d="M41.7,9.4c-0.4,0.6-1.2,1.5-2,1.5c-1.2,0-1.6-1.3-1.6-2.1c0-1.3,0.6-3.4,2.4-3.4c0.5,0,0.9,0.2,1.2,0.5
		c0.1-1.3,0.4-2.6,1-3.8c0,0,0-0.1,0.1-0.2c0-0.1,0.1-0.1,0.1-0.2c0.1-0.1,0.2-0.2,0.4-0.2c0.4,0,0.5,0.4,0.5,0.6
		c0,0.2,0,0.4-0.1,0.7c0,0.2-0.1,0.4-0.1,0.7c-0.2,1-0.5,1.9-0.7,2.9c0,0,0,0.1,0,0.2c0,1.7,0.1,4.4,0.9,5.9c0,0.1,0,0.1,0.1,0.2
		c0.2,0.1,0.2,0.2,0.2,0.4c0,0.3-0.3,0.5-0.5,0.5c-0.1,0-0.2,0-0.2,0c0,0-0.1,0-0.2-0.1C42.1,12.9,41.8,10.4,41.7,9.4z M41.4,6.9
		c0,0-0.1-0.1-0.1-0.1c-0.2-0.1-0.3-0.2-0.5-0.2c-1.1,0-1.4,1.5-1.4,2.3c0,0.2,0,0.9,0.3,0.9c0.1,0,0.3-0.1,0.4-0.2
		c0.7-0.5,1.2-1.6,1.5-2.5C41.6,7.1,41.4,7,41.4,6.9z"/>
</g>
<g class="st0">
	<path class="st1" d="M46.8,9.7c0.2,0,0.3,0,0.5-0.1c0.1,0,0.1,0,0.2-0.1c0,0,0.1,0,0.1,0h0.1c0.2,0,0.3,0.2,0.3,0.3
		c0,0.1-0.1,0.2-0.1,0.3c-0.3,0.3-1,0.5-1.4,0.5c-0.2,0-0.5,0-0.8-0.1c-0.8-0.3-1.4-1.3-1.4-2.1c0-1.2,1.1-2.4,2.5-2.4
		c0.6,0,1.1,0.4,1.1,1c0,1-1.5,1.6-2.3,1.6C45.6,9.2,46.1,9.7,46.8,9.7z M47.2,6.9c0-0.2-0.1-0.3-0.3-0.3c-0.6,0-1.1,0.7-1.3,1.2
		C46.1,7.8,47.2,7.5,47.2,6.9z"/>
	<path class="st1" d="M48.9,9.5c0.3,0,0.6,0.1,0.9,0.1c-0.5-1-1.4-1.4-1.4-2.8c0-0.7,0.7-1.2,1.4-1.2c0.7,0,1.2,0.3,1.2,1
		c0,0.1,0,0.4-0.3,0.4c-0.1,0-0.1,0-0.2-0.1c0,0,0,0,0,0l0,0c0,0,0,0,0,0c0,0-0.1,0-0.1,0c0,0-0.2,0-0.3,0c0,0-0.1,0-0.1,0
		c-0.3,1.2,1.4,2,1.4,3.1c0,0.5-0.4,0.9-1,0.9c-0.4,0-1.7-0.4-1.7-0.9C48.4,9.6,48.6,9.5,48.9,9.5L48.9,9.5z"/>
</g>
<g class="st0">
	<path class="st1" d="M14.9,21.2c-0.1-0.1-0.3-0.2-0.3-0.4c0-0.2,0.1-0.4,0.4-0.4c0,0,0,0,0,0c0,0,0,0,0.1,0c0-0.3,0-0.7,0-1
		c0-1.4,0-2.7,0.3-4.1c-0.3,0.2-0.5,0.4-0.7,0.6c-0.3,0.3-0.5,0.5-0.8,0.9c0,0,0,0.1,0,0.1c0,0.2-0.1,0.2-0.2,0.3c0,0-0.1,0-0.2,0.1
		c-0.1,0-0.1,0-0.1,0c0,0,0,0-0.1,0l-0.1,0c-0.4,0-0.5-0.4-0.5-0.5c0-0.7,0.8-1.7,1.3-2.1c1.1-1,2.9-2,4.5-2.1
		c1.4,0,2.7,0.7,2.7,2.1c0,0.3,0,0.6-0.1,0.9c-0.4,1.7-2.8,4.5-4.5,5.3c0.1,0.5,0.2,1.8,0.5,2.3c0,0,0,0.1,0.1,0.2
		c0,0.2-0.2,0.4-0.4,0.4c-0.1,0-0.1,0-0.1,0c-0.7-0.2-1-0.7-1.2-1.4c-0.1-0.4-0.1-0.8-0.2-1.1C15.1,21.3,15,21.3,14.9,21.2z
		 M19.8,14.9c0-0.7-0.6-0.9-1.3-0.9c-0.6,0-1.1,0.2-1.7,0.5c0,0.1,0,0.2,0,0.3c-0.2,1.6-0.4,3.1-0.4,4.7l0,0.1
		C17.7,18.6,19.8,16.4,19.8,14.9z"/>
</g>
<g class="st0">
	<path class="st1" d="M21.6,20.8c-0.1-0.3-0.1-0.6-0.1-0.8c-0.1-0.6-0.2-1.3-0.2-1.9c0-0.3,0.1-0.6,0.5-0.6c0.5,0,0.6,0.5,0.8,0.8
		c0.1,0.2,0.1,0.4,0.1,0.6c0.3-0.5,0.8-1.4,1.5-1.4c0.2,0,0.5,0.1,0.5,0.4c0,0.1,0,0.1,0,0.2c0,0-0.1,0.1-0.1,0.1l-0.1,0.1
		c-0.3,0.2-0.6,0.5-0.8,0.8c-0.2,0.4-0.5,0.8-0.6,1.2c0,0.1-0.1,0.3-0.1,0.5c0,0.2,0,0.4,0,0.5c0,0.2-0.2,0.5-0.5,0.5
		c-0.1,0-0.2,0-0.3-0.1c0,0-0.1,0-0.1-0.1c0,0,0,0-0.1-0.1C21.8,21.4,21.7,21.1,21.6,20.8z"/>
	<path class="st1" d="M26.9,20.4L26.9,20.4C26.9,20.4,26.9,20.4,26.9,20.4c0.1,0.1,0.1,0.2,0.1,0.3c0,0.3-0.3,0.4-0.5,0.4
		c-1,0-1.3-1.4-1.3-2.2c0-0.6,0-1.6,0.3-2.2c0.1-0.2,0.3-0.4,0.6-0.4c0.2,0,0.4,0.1,0.5,0.3c0.1,0.1,0.1,0.3,0.1,0.4
		c0,0.5-0.1,1-0.1,1.4c0,0.6,0.2,1.2,0.2,1.7C26.8,20.3,26.9,20.3,26.9,20.4C26.9,20.3,26.9,20.4,26.9,20.4z M26.7,14.9l0,0.3
		c0,0.2-0.2,0.5-0.5,0.5c-0.6,0-0.8-0.6-0.8-1c0-0.2,0-0.4,0.1-0.6c0.1-0.2,0.2-0.4,0.6-0.4c0.3,0,0.5,0.2,0.5,0.5
		c0,0.1,0,0.2,0,0.3c0,0,0,0.1,0,0.2c0,0,0,0.1,0,0.1C26.7,14.8,26.7,14.9,26.7,14.9z"/>
	<path class="st1" d="M29,18.2c0.4-0.7,1.2-1.9,2-1.9c0.9,0,1,0.9,1,1.6c0,0.2,0,0.4,0,0.6c0,0.5,0,1.1,0,1.6c0,0.3-0.2,0.6-0.6,0.6
		c-0.5,0-0.7-0.5-0.7-0.8c0-0.8,0-1.6,0-2.3l0-0.2c-0.3,0.1-0.7,0.6-1.1,1.2c-0.3,0.7-0.6,1.4-0.8,1.8c-0.1,0.3-0.3,0.5-0.6,0.5
		c-0.6,0-0.8-0.6-0.8-1c0-0.7,0.1-3.4,1-3.4c0.4,0,0.6,0.4,0.6,0.7l0,0C29.1,17.5,29.1,17.9,29,18.2C29,18.3,29,18.2,29,18.2z"/>
	<path class="st1" d="M34.8,17c-0.6,0.2-0.9,1.1-0.8,1.7c0,0.2,0.1,0.8,0.4,0.8c0.3,0,1.4-1,1.7-1.2l0,0c0,0,0,0,0.1-0.1
		c0,0,0.1,0,0.2-0.1c0.2,0,0.4,0.2,0.4,0.3c0,0-0.1,0.2-0.1,0.2c0,0.1-0.1,0.2-0.1,0.3c-0.1,0.2-0.2,0.3-0.3,0.4
		c-0.4,0.5-1.1,1.3-1.9,1.3c-1.2,0-1.6-1.2-1.6-2c0-1.1,0.6-2.7,1.9-2.8c0.4,0,0.9,0.2,1,0.7c0,0.1,0,0.2,0,0.3v0
		c0.1,0,0.1,0.1,0.1,0.2c0,0.2-0.1,0.3-0.3,0.3c-0.2,0-0.3-0.1-0.4-0.2C34.8,17.1,34.8,17.1,34.8,17z"/>
	<path class="st1" d="M38.8,20L38.8,20C38.8,20.1,38.8,20.1,38.8,20c0.1,0.1,0.1,0.2,0.1,0.3c0,0.3-0.3,0.4-0.5,0.4
		c-1,0-1.3-1.4-1.3-2.2c0-0.6,0-1.6,0.3-2.2c0.1-0.2,0.3-0.4,0.6-0.4c0.2,0,0.4,0.1,0.5,0.3c0.1,0.1,0.1,0.3,0.1,0.4
		c0,0.5-0.1,1-0.1,1.4c0,0.6,0.2,1.2,0.2,1.7C38.7,19.9,38.7,20,38.8,20C38.8,20,38.8,20,38.8,20z M38.6,14.6l0,0.3
		c0,0.2-0.2,0.5-0.5,0.5c-0.6,0-0.8-0.6-0.8-1c0-0.2,0-0.4,0.1-0.6c0.1-0.2,0.2-0.4,0.6-0.4c0.3,0,0.5,0.2,0.5,0.5
		c0,0.1,0,0.2,0,0.3c0,0,0,0.1,0,0.2c0,0,0,0.1,0,0.1C38.5,14.5,38.6,14.5,38.6,14.6z"/>
	<path class="st1" d="M41.3,23.3c0,0.2-0.3,0.4-0.5,0.4c-0.3,0-0.5-0.2-0.6-0.4c-0.5-0.9-0.6-2.3-0.6-3.2c0-0.6-0.1-2.4,0.2-2.9
		c0.1-0.2,0.3-0.3,0.5-0.3c0.5,0,0.6,0.5,0.6,0.9c0,0.4,0,0.9,0,1.3c0.2-0.5,0.4-1,0.7-1.4c0.1-0.2,0.3-0.4,0.5-0.7
		c0.2-0.2,0.5-0.4,0.7-0.4c0.8,0,1.1,0.9,1.1,1.4c0,1.3-1.1,2.9-2.6,3c0,0-0.1,0-0.1,0c0,0.4-0.1,0.8-0.1,1.2
		C41.1,22.3,41.2,23.1,41.3,23.3C41.3,23.2,41.3,23.2,41.3,23.3z M42.7,17.5c0,0,0-0.1,0-0.1c-0.6,0.4-1.2,1.8-1.3,2.4
		C42.2,19.2,42.7,18.5,42.7,17.5z"/>
	<path class="st1" d="M45.6,20.3c-0.7,0-1.2-0.6-1.2-1.2c0-0.5,0.2-0.9,0.4-1.3c0.3-0.7,1-1.7,2.1-1.7c0.2,0,0.3,0,0.5,0.1
		c0-0.1,0.1-0.2,0.1-0.2c0.1-0.2,0.2-0.3,0.5-0.3c0.3,0,0.4,0.2,0.4,0.4c0,0.1,0,0.1,0,0.2c0,0,0,0.1,0,0.2c-0.1,0.4-0.1,0.8,0,1.2
		l0,1c0,0.4,0.1,0.8,0.1,0.8c0,0,0,0,0,0l0,0c0,0,0.1,0.1,0.1,0.2c0,0.2-0.1,0.3-0.3,0.3c-0.5,0-0.9-0.6-1-1
		C46.8,19.5,46.3,20.3,45.6,20.3z M45.7,19.2L45.7,19.2c0.7-0.5,1.1-1.3,1.4-2.1c0,0,0,0-0.1,0c-0.6,0.2-1.1,1.2-1.3,1.7
		C45.6,18.9,45.6,19,45.7,19.2C45.6,19.1,45.6,19.1,45.7,19.2C45.7,19.2,45.7,19.2,45.7,19.2z"/>
	<path class="st1" d="M50.8,22.1c0,0.2-0.2,0.4-0.4,0.4c-0.2,0-0.3-0.1-0.4-0.2c-0.6-0.8-0.8-1.9-0.8-2.9c0-1.1,0.1-6.7,0.9-7.2
		c0.1,0,0.2-0.1,0.2-0.1c0.3,0,0.4,0.2,0.5,0.4c0,0.1,0,0.2,0,0.3l0,0.2c0,0.2,0,0.5,0,0.7c-0.1,1.9-0.3,3.8-0.3,5.7
		c0,0.5,0,1,0.1,1.5C50.7,21.3,50.7,21.7,50.8,22.1L50.8,22.1z"/>
	<path class="st1" d="M54.2,19.6c0.2,0,0.3,0,0.5-0.1c0.1,0,0.1,0,0.2-0.1c0,0,0.1,0,0.1,0l0.1,0c0.2,0,0.3,0.2,0.3,0.3
		c0,0.1-0.1,0.2-0.1,0.3c-0.3,0.3-1,0.5-1.4,0.5c-0.2,0-0.5,0-0.8-0.1c-0.8-0.3-1.4-1.3-1.4-2.1c0-1.2,1-2.5,2.4-2.5
		c0.6,0,1.2,0.3,1.2,1c0,1-1.4,1.7-2.3,1.7C53,19.1,53.5,19.6,54.2,19.6z M54.6,16.8c0-0.2-0.1-0.3-0.3-0.3c-0.6,0-1.1,0.7-1.3,1.2
		C53.4,17.7,54.6,17.4,54.6,16.8z"/>
	<path class="st1" d="M56.3,19.3c0.3,0,0.6,0,0.9,0c-0.5-1-1.4-1.4-1.4-2.8c0-0.7,0.6-1.2,1.3-1.2c0.7,0,1.2,0.3,1.2,1
		c0,0.1,0,0.4-0.3,0.4c-0.1,0-0.1,0-0.2-0.1c0,0,0,0,0,0l0,0c0,0,0,0,0,0c0,0-0.1,0-0.1,0c0,0-0.2,0-0.3,0c0,0-0.1,0-0.1,0
		c-0.3,1.2,1.5,1.9,1.5,3c0,0.5-0.4,0.9-1,0.9c-0.4,0-1.7-0.3-1.7-0.9C55.9,19.5,56,19.3,56.3,19.3L56.3,19.3z"/>
</g>
<path class="st1" d="M6.6,24.2c0.7-1.9,1.5-3.8,1.8-5.9c-1.3,2.1-2.2,4.2-3.1,6.4l0.5,0.2c1.9,0.7,3.9,1.3,6,1.7
	C10.1,25.6,8.3,24.8,6.6,24.2z"/>
<path class="st1" d="M60.2,3l-0.5-0.1c-1.9-0.8-3.8-1.6-5.9-2.1c1.6,1.1,3.3,2,5.1,2.8c-0.8,1.8-1.6,3.7-2.2,5.6
	C58.1,7.3,59.2,5.2,60.2,3z"/>
<text transform="matrix(1 0 0 1 0 -26.2333)" class="st1" style="font-family:'SugarCream'; font-size:15.21px;">Habili</text>
<text transform="matrix(1 0 0 1 27.02 -26.2333)" class="st1" style="font-family:'SugarCream'; font-size:15.21px;">d</text>
<text transform="matrix(1 0 0 1 33.32 -26.2333)" class="st1" style="font-family:'SugarCream'; font-size:15.21px;">a</text>
<text transform="matrix(1 0 0 1 37.8 -26.2333)" class="st1" style="font-family:'SugarCream'; font-size:15.21px;">d</text>
<text transform="matrix(1 0 0 1 44.08 -26.2333)" class="st1" style="font-family:'SugarCream'; font-size:15.21px;">es</text>
<text transform="matrix(0.9996 -2.844503e-02 2.844503e-02 0.9996 12.75 -15.1433)" class="st1" style="font-family:'SugarCream'; font-size:15.21px;">P</text>
<text transform="matrix(0.9996 -2.844503e-02 2.844503e-02 0.9996 21.2466 -15.3851)" class="st1" style="font-family:'SugarCream'; font-size:15.21px;">rincipales</text>
<path class="st1" d="M8.4-20.9c-0.4,2.2-1.2,4.2-2,6.3l-0.3-0.6c1.9,0.7,3.9,1.5,5.7,2.6c-2.1-0.4-4.1-1-6-1.7l-0.5-0.2
	C6.2-16.7,7.1-18.8,8.4-20.9L8.4-20.9L8.4-20.9z"/>
<path class="st1" d="M56.7-30c0.6-2.1,1.5-4.1,2.4-6.1l0.2,0.7c-1.9-0.9-3.8-1.8-5.5-3c2.1,0.5,4,1.3,5.9,2.1l0.5,0.1
	C59.2-34,58.1-31.9,56.7-30L56.7-30L56.7-30z"/>
</svg>
