<?xml version="1.0" encoding="UTF-8"?>
<svg id="Capa_1" data-name="Capa 1" xmlns="http://www.w3.org/2000/svg" viewBox="0 0 60.21 27.34">
  <defs>
    <style>
      .cls-1 {
        fill: #ff9da9;
      }
    </style>
  </defs>
  <g>
    <path class="cls-1" d="m2.46,12.62s.02.02.03.03c.02.02.02.03.03.05.03.05.03.11.03.17,0,.24-.23.41-.44.41-.76,0-1-1.29-1.1-1.86-.14-.81-.15-1.69-.17-2.1-.21,0-.47-.11-.47-.35,0-.14.12-.33.35-.33.05,0,.09,0,.12.02,0,0,.02.02.03.02v-.33c0-1.34.21-2.72.52-4.02.06-.27.4-1.31.61-1.52.06-.08.14-.14.27-.14.15,0,.26.08.32.18.05.09.06.21.06.27,0,.68-.12,1.4-.2,2.1-.14,1.08-.21,2.19-.27,3.3.55-.06,1.1-.15,1.63-.2,1.11-.12,2.21-.2,3.32-.2v-.49c0-.33-.02-1.54.09-2.63.05-.55.12-1.11.26-1.51.06-.21.14-.4.24-.5.11-.14.24-.24.43-.24.38,0,.49.32.49.64,0,.43-.06.93-.09,1.37-.05.96-.08,1.92-.08,2.86,0,1.49.06,2.98.2,4.47.05.06.09.15.09.26,0,.27-.32.43-.53.43-.17,0-.33-.08-.46-.18-.32-.26-.46-1.1-.53-1.86-.08-.69-.09-1.4-.11-1.83-1.64.24-3.29.38-4.94.43,0,.61.05,1.22.12,1.83.05.46.12.93.12,1.37v.05s.02.02.03.05Z"/>
    <path class="cls-1" d="m10.81,10.17c-.75,0-1.19-.64-1.19-1.28,0-.46.2-.88.4-1.26.37-.73,1.06-1.67,2.13-1.67.15,0,.32.03.46.11.03-.08.06-.15.09-.23.08-.15.21-.33.47-.33s.41.21.41.43c0,.06-.02.12-.03.17-.02.05-.03.09-.03.15-.08.38-.08.81-.08,1.19v.97c.02.43.05.76.06.82,0,.02.02.03.03.05l.05.05s.11.12.11.23c0,.17-.14.33-.35.33-.52,0-.88-.61-.96-1.05-.33.55-.85,1.34-1.57,1.34Zm.14-1.17l.05-.05c.65-.46,1.06-1.26,1.4-2.01-.02,0-.05.02-.08.03-.61.15-1.17,1.16-1.35,1.7-.05.09-.06.17-.06.26,0,.02,0,.05.02.08t.03-.02Z"/>
    <path class="cls-1" d="m14.89,10.78c-.06-.14-.11-.27-.12-.35-.33-.76-.37-2.45-.37-3.29,0-.94.09-3.09.65-3.93.09-.14.26-.23.46-.23.33,0,.55.24.55.53s-.08.59-.12.9c-.14.9-.2,1.81-.2,2.72v.24c.32-.94.85-1.45,1.87-1.45s1.52.73,1.52,1.55c0,1.32-1.35,3.15-2.89,3.15-.06,0-.12-.02-.2-.02.02.15.02.32.02.47,0,.23-.2.43-.44.43-.17,0-.26-.06-.33-.14-.02-.02-.03-.05-.05-.06,0-.02-.02-.03-.03-.05-.02-.03-.03-.06-.05-.08,0-.02-.03-.03-.03-.03l-.05-.05s-.02-.02-.03-.03c-.05-.08-.12-.2-.17-.32Zm2.98-3.36c0-.2-.05-.33-.18-.46-.14-.09-.4-.21-.52-.21-.11,0-.23.02-.3.06-.55.37-.75,2.1-.81,2.75.87-.2,1.81-1.26,1.81-2.15Z"/>
    <path class="cls-1" d="m21.37,9.67l.03.03s.03.03.05.06c.03.05.05.11.05.18,0,.29-.3.43-.53.43-1.03,0-1.25-1.43-1.25-2.22,0-.58.08-1.63.4-2.15.14-.2.3-.38.58-.38.24,0,.4.11.49.27.08.12.09.3.09.44,0,.49-.11.96-.11,1.45,0,.59.12,1.16.17,1.75,0,.06.02.09.03.11,0,.02,0,.03.02.03Zm-.06-5.46v.3c0,.24-.17.46-.49.46-.61,0-.78-.59-.78-.97,0-.17.03-.41.14-.61.08-.2.26-.4.56-.4.33,0,.49.24.49.49,0,.11-.03.21-.03.32,0,.03.02.08.05.15.02.05.03.08.05.12,0,.03.02.09.02.14Z"/>
    <path class="cls-1" d="m23.81,12.1c0,.23-.18.41-.44.41-.18,0-.29-.09-.36-.2-.61-.82-.7-1.9-.7-2.89,0-1.1.3-6.69,1.06-7.17.08-.05.17-.06.24-.06.29,0,.41.2.46.37.03.09.03.18.03.27v.23c0,.23,0,.46-.02.7-.15,1.9-.43,3.79-.43,5.71,0,.5.02.99.06,1.49.03.35.03.71.09,1.06v.08Z"/>
    <path class="cls-1" d="m26.6,9.67l.03.03s.03.03.05.06c.03.05.05.11.05.18,0,.29-.3.43-.53.43-1.03,0-1.25-1.43-1.25-2.22,0-.58.08-1.63.4-2.15.14-.2.3-.38.58-.38.24,0,.4.11.49.27.08.12.09.3.09.44,0,.49-.11.96-.11,1.45,0,.59.12,1.16.17,1.75,0,.06.02.09.03.11,0,.02,0,.03.02.03Zm-.06-5.46v.3c0,.24-.17.46-.49.46-.61,0-.78-.59-.78-.97,0-.17.03-.41.14-.61.08-.2.26-.4.56-.4.33,0,.49.24.49.49,0,.11-.03.21-.03.32,0,.03.02.08.05.15.02.05.03.08.05.12,0,.03.02.09.02.14Z"/>
    <path class="cls-1" d="m30.96,9.38c-.38.64-1.19,1.48-1.99,1.48-1.23,0-1.61-1.29-1.61-2.1,0-1.29.58-3.36,2.42-3.36.5,0,.91.21,1.17.55.11-1.29.38-2.57.96-3.76.03-.05.05-.11.08-.17.03-.08.08-.14.12-.2.09-.14.21-.24.43-.24.41,0,.49.37.49.56,0,.21-.03.44-.06.67-.05.23-.08.43-.12.65-.2.99-.47,1.93-.68,2.92-.02.05-.02.12-.02.21,0,1.72.11,4.43.87,5.93.02.06.05.12.06.17.15.06.24.2.24.36,0,.29-.26.49-.55.49-.08,0-.15-.03-.21-.05-.05-.02-.11-.05-.15-.06-1.1-.5-1.35-3.04-1.43-4.06Zm-.36-2.5s-.08-.06-.11-.11c-.15-.12-.3-.24-.49-.24-1.06,0-1.37,1.52-1.37,2.33,0,.21.03.85.33.85.14,0,.29-.06.4-.15.75-.5,1.22-1.61,1.49-2.46-.08-.05-.21-.14-.26-.21Z"/>
    <path class="cls-1" d="m34.69,10.17c-.75,0-1.19-.64-1.19-1.28,0-.46.2-.88.4-1.26.37-.73,1.06-1.67,2.13-1.67.15,0,.32.03.46.11l.09-.23c.08-.15.21-.33.47-.33s.41.21.41.43c0,.06-.02.12-.03.17-.02.05-.03.09-.03.15-.08.38-.08.81-.08,1.19v.97c.02.43.05.76.06.82,0,.02.02.03.03.05l.05.05s.11.12.11.23c0,.17-.14.33-.35.33-.52,0-.88-.61-.96-1.05-.33.55-.85,1.34-1.57,1.34Zm.14-1.17l.05-.05c.65-.46,1.06-1.26,1.4-2.01-.02,0-.05.02-.08.03-.61.15-1.17,1.16-1.35,1.7-.05.09-.06.17-.06.26,0,.02,0,.05.02.08t.03-.02Z"/>
    <path class="cls-1" d="m41.74,9.38c-.38.64-1.19,1.48-1.99,1.48-1.23,0-1.61-1.29-1.61-2.1,0-1.29.58-3.36,2.42-3.36.5,0,.91.21,1.17.55.11-1.29.38-2.57.96-3.76.03-.05.05-.11.08-.17.03-.08.08-.14.12-.2.09-.14.21-.24.43-.24.41,0,.49.37.49.56,0,.21-.03.44-.06.67-.05.23-.08.43-.12.65-.2.99-.47,1.93-.68,2.92-.02.05-.02.12-.02.21,0,1.72.11,4.43.87,5.93.02.06.05.12.06.17.15.06.24.2.24.36,0,.29-.26.49-.55.49-.08,0-.15-.03-.21-.05-.05-.02-.11-.05-.15-.06-1.1-.5-1.35-3.04-1.43-4.06Zm-.36-2.5s-.08-.06-.11-.11c-.15-.12-.3-.24-.49-.24-1.06,0-1.37,1.52-1.37,2.33,0,.21.03.85.33.85.14,0,.29-.06.4-.15.75-.5,1.22-1.61,1.49-2.46-.08-.05-.21-.14-.26-.21Z"/>
    <path class="cls-1" d="m46.82,9.67c.17,0,.32-.03.46-.08.06-.03.12-.05.17-.06.03-.02.06-.02.09-.03h.09c.21,0,.32.17.32.32,0,.11-.06.2-.11.26-.33.32-.97.47-1.42.47-.24,0-.52-.05-.78-.14-.79-.3-1.37-1.32-1.37-2.1,0-1.22,1.1-2.45,2.46-2.45.64,0,1.14.38,1.14,1.02,0,1.03-1.46,1.61-2.34,1.64.08.65.56,1.14,1.28,1.14Zm.4-2.75c0-.17-.11-.26-.26-.26-.59,0-1.11.7-1.31,1.17.43-.08,1.57-.38,1.57-.91Z"/>
    <path class="cls-1" d="m48.9,9.47c.27.02.56.06.85.06-.52-1.02-1.37-1.43-1.37-2.81,0-.7.65-1.2,1.35-1.2.65,0,1.17.33,1.17,1.02,0,.12-.05.38-.33.38-.09,0-.14-.03-.2-.08-.02-.02-.05-.03-.05-.05l-.05-.05s-.03-.03-.05-.03c-.03-.02-.06-.02-.12-.02-.05,0-.18,0-.3.03-.05.02-.09,0-.11.03-.29,1.16,1.4,1.98,1.4,3.07,0,.55-.43.91-.99.91-.44,0-1.67-.37-1.67-.91,0-.2.18-.38.41-.38l.05.02Z"/>
  </g>
  <path class="cls-1" d="m5.34,18.79c-.43,2.17-1.17,4.23-1.97,6.28,0,0-.29-.65-.29-.65,1.95.73,3.87,1.53,5.69,2.61-2.09-.35-4.07-.98-6.03-1.67l-.48-.17c.88-2.2,1.81-4.37,3.09-6.39h0Z"/>
  <path class="cls-1" d="m54.8,9.62c.59-2.13,1.47-4.14,2.43-6.12,0,0,.24.67.24.67-1.89-.87-3.75-1.81-5.48-3.02,2.06.5,3.99,1.27,5.89,2.11l.47.21c-1.04,2.13-2.13,4.23-3.55,6.14h0Z"/>
  <g>
    <path class="cls-1" d="m8.53,23.8c0-.18.15-.4.38-.41.14,0,.22.07.28.12.05.04.1.09.14.13.66.53,1.8.68,2.63.64.76-.04,1.74-.29,2.14-.9.11-.2.19-.41.19-.6-.01-.32-.28-.57-.8-.82-.48-.27-1.15-.48-1.82-.75-1.34-.56-2.76-1.38-2.84-3.16-.09-2.02,1.37-3.58,3.35-3.67.85-.04,1.65.35,1.69,1.28.03.64-.27,1.49-.83,1.9-.03.02-.1.07-.18.11-.04.03-.07.05-.12.07-.01.02-.04.02-.06.03-.02,0-.05.02-.08.02-.21,0-.33-.17-.33-.3,0-.14.07-.22.14-.27s.13-.08.21-.13c.4-.32.62-.87.59-1.37-.02-.43-.3-.6-.77-.57-.24.01-.48.07-.71.15-1.17.43-1.64,1.48-1.58,2.65.06,1.25,1.28,1.74,2.63,2.27.34.14.67.26.99.41.9.4,1.78.94,1.83,2.05.02.47-.21,1.03-.48,1.42-.66.93-1.93,1.32-3.03,1.37-1.29.06-2.74-.38-3.49-1.47-.03-.06-.07-.12-.07-.19Z"/>
    <path class="cls-1" d="m18.53,21.43c.17,0,.32-.05.45-.1.06-.03.12-.05.16-.07.03-.02.06-.02.09-.03h.09c.21-.01.33.15.33.3,0,.11-.05.2-.09.26-.32.33-.95.52-1.39.54-.24.01-.52-.02-.78-.1-.8-.27-1.43-1.26-1.46-2.03-.06-1.22.98-2.5,2.35-2.56.64-.03,1.16.33,1.19.97.05,1.03-1.39,1.68-2.26,1.75.11.65.61,1.11,1.33,1.08Zm.27-2.77c0-.17-.12-.25-.27-.25-.59.03-1.08.75-1.25,1.23.42-.1,1.55-.45,1.52-.98Z"/>
    <path class="cls-1" d="m22.18,18.14c-.59.18-.85,1.12-.82,1.73,0,.21.1.82.4.8.3-.01,1.4-.98,1.63-1.23l.03-.03s.03-.05.07-.06c.04-.03.09-.05.16-.05.21,0,.36.15.37.32,0,.05-.05.19-.08.22-.03.08-.08.17-.14.26-.11.16-.21.31-.27.39-.37.5-1.05,1.33-1.86,1.36-1.18.05-1.62-1.21-1.66-2.01-.05-1.06.59-2.74,1.84-2.8.41-.02.95.15.98.69,0,.11,0,.2,0,.29v.02c.06.03.11.1.12.19,0,.17-.12.33-.3.33-.2,0-.33-.14-.38-.24-.05-.06-.07-.12-.08-.18Z"/>
    <path class="cls-1" d="m27.07,18.17s.02-.2.02-.23c.02-.14.06-.28.07-.4,0-.03-.02-.05-.02-.08-.01-.27.23-.51.52-.53.32-.01.5.22.51.46,0,.21.08.44.09.63.04.84.17,1.65.42,2.46.02.09.06.21.06.33.01.24-.16.42-.44.43-.68.03-1.03-.93-1.13-1.49-.26.61-.9,2.07-1.61,2.1-.15,0-.28-.05-.37-.11-.69-.47-.73-1.34-.76-1.99-.03-.65-.05-2.83.84-2.87.3-.01.59.2.6.51.02.38-.08.92-.09,1.36,0,.52-.01,1.05.01,1.57v.26c.48-.51,1.13-1.82,1.27-2.43Z"/>
    <path class="cls-1" d="m30.68,18.8c.41-.7,1.15-1.93,2.01-1.97.88-.04,1.05.9,1.08,1.58,0,.2,0,.41,0,.62,0,.55.04,1.11-.02,1.65-.02.26-.21.63-.59.65-.53.02-.68-.53-.69-.81-.04-.78,0-1.57-.03-2.34v-.24c-.36.08-.72.58-1.05,1.25-.33.69-.6,1.44-.74,1.79-.09.28-.3.49-.62.5-.56.03-.79-.56-.81-1.03-.03-.65.04-3.4.94-3.44.43-.02.6.4.61.64v.03c-.01.35-.06.76-.11,1.15.02,0,.01-.02.03-.03Z"/>
    <path class="cls-1" d="m38.03,20.24c-.35.65-1.12,1.53-1.92,1.57-1.23.06-1.67-1.22-1.71-2.02-.06-1.29.42-3.38,2.26-3.47.5-.02.92.17,1.2.49.05-1.3.26-2.59.78-3.8.03-.05.04-.11.07-.17.03-.08.07-.14.11-.2.09-.14.2-.25.42-.26.41-.02.5.34.51.54,0,.21-.01.44-.03.67-.04.23-.06.43-.09.66-.15,1-.38,1.95-.55,2.95-.01.05,0,.12,0,.21.08,1.72.31,4.42,1.14,5.89.02.06.05.12.07.16.15.05.25.19.26.35.01.29-.24.5-.52.51-.08,0-.15-.02-.21-.04-.05-.01-.11-.04-.16-.05-1.12-.45-1.49-2.98-1.62-3.99Zm-.48-2.48s-.08-.06-.11-.1c-.16-.11-.32-.23-.5-.22-1.06.05-1.3,1.58-1.26,2.39,0,.21.07.85.37.84.14,0,.29-.07.39-.17.72-.54,1.14-1.67,1.38-2.53-.08-.04-.22-.13-.27-.2Z"/>
    <path class="cls-1" d="m41.79,20.86c-.74.03-1.21-.58-1.24-1.22-.02-.46.16-.89.34-1.28.33-.75.99-1.72,2.05-1.77.15,0,.32.02.46.09.03-.08.05-.16.08-.23.07-.15.2-.34.46-.36.26-.01.42.19.43.41,0,.06,0,.12-.02.17-.01.05-.03.09-.02.15-.06.38-.04.81-.02,1.19l.04.97c.03.42.08.76.1.82,0,.02.02.03.03.04l.05.04s.11.12.12.22c0,.17-.12.34-.33.35-.52.02-.91-.57-1.01-1-.31.56-.79,1.38-1.5,1.41Zm.08-1.18l.04-.05c.63-.49,1.01-1.31,1.31-2.07-.02,0-.04.02-.07.03-.6.18-1.12,1.21-1.27,1.76-.04.09-.05.17-.05.26,0,.01,0,.05.02.08t.03-.02Z"/>
    <path class="cls-1" d="m45.36,20.45c-.06-.3-.09-.59-.11-.8-.07-.62-.23-1.25-.25-1.89-.01-.26.09-.63.53-.65.46-.02.65.46.77.82.05.2.09.41.13.59.26-.55.8-1.42,1.47-1.45.24-.01.49.13.51.4,0,.08,0,.14-.04.2-.01.05-.06.08-.09.11l-.1.1c-.29.21-.63.47-.83.78-.23.41-.45.81-.6,1.23-.04.14-.08.31-.08.49-.02.18-.03.37-.04.53,0,.24-.19.5-.49.51-.11,0-.2-.02-.28-.06-.03-.03-.06-.04-.06-.07-.03-.01-.05-.04-.08-.06-.21-.19-.31-.49-.35-.78Z"/>
    <path class="cls-1" d="m50.61,19.95l.03.03s.03.03.05.06c.03.04.05.1.05.18.01.29-.28.44-.51.45-1.03.05-1.31-1.37-1.35-2.16-.03-.58,0-1.63.3-2.16.13-.2.29-.39.56-.41.24-.01.4.09.5.25.08.12.11.3.11.44.02.49-.06.96-.04,1.45.03.59.17,1.15.25,1.74,0,.06.02.09.04.1,0,.02,0,.03.02.03Zm-.31-5.45v.3c.03.24-.13.46-.45.48-.61.03-.8-.56-.82-.94,0-.17.01-.41.11-.61.07-.2.24-.41.54-.42.33-.02.5.22.51.46,0,.11-.02.21-.02.32,0,.03.02.08.05.15.02.04.03.08.05.12,0,.03.02.09.02.14Z"/>
    <path class="cls-1" d="m52.42,20.37c-.74.03-1.21-.58-1.24-1.22-.02-.46.16-.89.34-1.28.33-.75.99-1.72,2.05-1.77.15,0,.32.02.46.09.03-.08.05-.16.08-.23.07-.15.2-.34.46-.36.26-.01.42.19.43.41,0,.06,0,.12-.02.17-.01.05-.03.09-.02.15-.06.38-.04.81-.02,1.19l.04.97c.03.42.08.76.1.82,0,.02.02.03.03.04l.05.04s.11.12.12.22c0,.17-.12.34-.33.35-.52.02-.91-.57-1.01-1-.31.56-.79,1.38-1.5,1.41Zm.08-1.18l.04-.05c.63-.49,1.01-1.31,1.31-2.07-.01,0-.04.02-.07.03-.6.18-1.12,1.21-1.27,1.76-.04.09-.05.17-.05.26,0,.01,0,.05.02.08t.03-.02Z"/>
    <path class="cls-1" d="m56.25,19.5c.27,0,.56.03.85.02-.56-.99-1.43-1.37-1.5-2.75-.03-.7.6-1.23,1.3-1.26.65-.03,1.18.28,1.22.96,0,.12-.03.38-.32.4-.09,0-.14-.02-.2-.07-.02-.02-.05-.03-.05-.04l-.05-.04s-.03-.03-.05-.03c-.03-.01-.06-.01-.12,0-.05,0-.18,0-.3.04-.04.02-.09,0-.1.04-.24,1.17,1.49,1.91,1.54,3.01.03.55-.38.93-.95.96-.44.02-1.69-.29-1.71-.84,0-.2.17-.39.39-.4h.05Z"/>
  </g>
</svg>