<svg width="30" height="29" viewBox="0 0 30 29" fill="none" xmlns="http://www.w3.org/2000/svg">
<g clip-path="url(#clip0_94_1477)">
<path d="M27.9082 11.1436C27.6484 8.85732 25.6245 7.89429 23.5213 7.87003C21.4181 7.84577 16.7565 10.1564 16.0968 10.6391C16.0705 10.6573 16.037 10.6337 16.0434 10.6019C16.1382 10.1815 16.4467 8.76511 16.4696 8.5823C16.5574 7.8787 16.5768 7.17054 16.5223 6.46297C16.4232 5.14533 15.879 3.88986 14.9197 2.96238C13.8318 1.91078 12.2103 1.14455 10.7041 1.69654C9.19785 2.24852 8.21448 3.71894 7.92349 5.22348C7.50659 7.3865 8.72916 11.3263 9.18238 13.3866C9.97286 16.9834 9.33691 18.7672 8.49562 22.2891C9.88657 22.0298 11.2732 21.5024 12.6247 21.1403C14.6076 20.6084 16.5642 19.9944 18.5094 19.3363C21.1936 18.4256 24.0478 17.3524 26.0947 15.3175C27.1635 14.2568 28.0864 12.7021 27.9115 11.1426L27.9082 11.1436Z" fill="#FF9DA9"/>
</g>
<defs>
<clipPath id="clip0_94_1477">
<rect width="21.3314" height="20.5414" fill="white" transform="translate(10.4865) rotate(28.4935)"/>
</clipPath>
</defs>
</svg>
