<?xml version="1.0" encoding="UTF-8"?>
<svg id="Capa_2" data-name="Capa 2" xmlns="http://www.w3.org/2000/svg" viewBox="0 0 28.55 28.23">
  <defs>
    <style>
      .cls-1 {
        fill: #ff9da9;
      }
    </style>
  </defs>
  <path class="cls-1" d="m11.06,3.31c.58,0,1.31.36,1.91.94.61.59.99,1.43,1.06,2.34.04.58.03,1.17-.04,1.72-.03.19-.28,1.36-.41,1.92-.11.54.03,1.1.38,1.53.34.42.88.67,1.42.67.37,0,.74-.11,1.07-.35.67-.46,4.83-2.43,6.35-2.43.91.01,2.46.24,2.62,1.68,0,.02,0,.05,0,.07.06.92-.63,1.95-1.3,2.62-1.76,1.75-4.37,2.74-6.89,3.59-2.13.72-4.02,1.3-5.77,1.77-.4.11-.8.23-1.21.35.44-2.06.61-3.96,0-6.75-.09-.43-.22-.93-.36-1.49-.46-1.84-1.15-4.61-.89-5.95.2-1.03.84-1.89,1.63-2.18.14-.05.28-.07.43-.07h0m0-1.8c-.35,0-.7.06-1.05.18-1.51.55-2.49,2.02-2.78,3.53-.42,2.16.81,6.1,1.26,8.16.79,3.6.15,5.38-.69,8.9,1.39-.26,2.78-.79,4.13-1.15,1.98-.53,3.94-1.15,5.88-1.8,2.68-.91,5.54-1.98,7.59-4.02,1.07-1.06,1.99-2.62,1.82-4.17h0c-.26-2.29-2.28-3.25-4.39-3.27-.01,0-.02,0-.03,0-2.12,0-6.74,2.29-7.39,2.77,0,0-.01,0-.02,0-.02,0-.04-.02-.03-.04.09-.42.4-1.84.43-2.02.09-.7.11-1.41.05-2.12-.1-1.32-.64-2.57-1.6-3.5-.84-.81-1.99-1.45-3.17-1.45h0Z"/>
</svg>