<?xml version="1.0" encoding="utf-8"?>
<!-- Generator: Adobe Illustrator 27.7.0, SVG Export Plug-In . SVG Version: 6.00 Build 0)  -->
<svg version="1.1" id="Capa_1" xmlns="http://www.w3.org/2000/svg" xmlns:xlink="http://www.w3.org/1999/xlink" x="0px" y="0px"
	 viewBox="0 0 26.5 12.2" style="enable-background:new 0 0 26.5 12.2;" xml:space="preserve">
<style type="text/css">
	.st0{fill:#81CCD7;}
</style>
<g>
	<path class="st0" d="M4.9,9.9C4.9,9.9,4.9,10,4.9,9.9C4.9,10,4.9,10,4.9,9.9C5,10.1,5,10.1,5,10.2c0,0.2-0.3,0.4-0.5,0.4
		c-0.8-0.1-0.9-1.4-0.9-1.9c-0.1-0.8,0-1.7,0-2.1c-0.2,0-0.5-0.2-0.4-0.4c0-0.1,0.2-0.3,0.4-0.3c0,0,0.1,0,0.1,0c0,0,0,0,0,0l0-0.3
		c0.1-1.3,0.4-2.7,0.8-4C4.6,1.3,5,0.3,5.2,0.1C5.3,0,5.4,0,5.5,0c0.2,0,0.2,0.1,0.3,0.2c0,0.1,0,0.2,0,0.3C5.8,1.2,5.6,1.9,5.5,2.6
		C5.3,3.6,5.1,4.7,4.9,5.8c0.6,0,1.1-0.1,1.6-0.1c1.1,0,2.2,0,3.3,0.1l0-0.5c0-0.3,0.1-1.5,0.3-2.6c0.1-0.5,0.2-1.1,0.4-1.5
		c0.1-0.2,0.2-0.4,0.3-0.5c0.1-0.1,0.3-0.2,0.4-0.2c0.4,0,0.5,0.4,0.4,0.7c0,0.4-0.1,0.9-0.2,1.4c-0.1,1-0.2,1.9-0.3,2.8
		c-0.1,1.5-0.2,3-0.2,4.5c0,0.1,0.1,0.2,0.1,0.3c0,0.3-0.4,0.4-0.6,0.4c-0.2,0-0.3-0.1-0.4-0.2c-0.3-0.3-0.4-1.1-0.4-1.9
		c0-0.7,0-1.4,0.1-1.8c-1.7,0.1-3.3,0.1-5,0c-0.1,0.6-0.1,1.2,0,1.8C4.8,9,4.9,9.4,4.9,9.9L4.9,9.9C4.8,9.9,4.8,9.9,4.9,9.9L4.9,9.9
		z"/>
	<path class="st0" d="M15.9,6.3c0,0.2-0.1,0.5-0.3,0.7c-0.4,0.5-1.4,1.3-2.2,1.2c-0.9-0.1-1.2-1-1.1-1.6c0-0.1,0-0.2,0-0.3
		c0.1-0.6,0.8-1.9,1.7-1.8c0.2,0,0.4,0.1,0.5,0.2C15.4,4.9,16,5.4,15.9,6.3L15.9,6.3z M15,6.1c0-0.3-0.3-0.6-0.6-0.6l-0.1,0
		c0,0,0,0-0.1,0c-0.3,0.2-0.7,0.8-0.7,1.1c0,0.1,0,0.2,0,0.2l0,0.1C14.1,7.1,15,6.5,15,6.1L15,6.1z"/>
	<path class="st0" d="M17.8,10.5c0,0.2-0.2,0.4-0.5,0.4c-0.2,0-0.3-0.1-0.4-0.2c-0.5-0.9-0.5-1.9-0.5-2.9c0.1-1.1,0.9-6.6,1.7-7.1
		c0.1,0,0.2-0.1,0.2,0c0.3,0,0.4,0.2,0.4,0.4c0,0.1,0,0.2,0,0.3l0,0.2c0,0.2,0,0.5-0.1,0.7C18.4,4.1,18,6,17.8,7.9
		c0,0.5-0.1,1-0.1,1.5C17.8,9.7,17.7,10.1,17.8,10.5L17.8,10.5L17.8,10.5z"/>
	<path class="st0" d="M20.1,8.8C19.4,8.7,19,8,19,7.4c0-0.5,0.3-0.9,0.5-1.2c0.4-0.7,1.2-1.6,2.3-1.5c0.1,0,0.3,0.1,0.5,0.1
		c0-0.1,0.1-0.2,0.1-0.2c0.1-0.2,0.2-0.3,0.5-0.3s0.4,0.2,0.4,0.5c0,0.1,0,0.1,0,0.2c0,0,0,0.1,0,0.2C23,5.4,23,5.9,22.9,6.2l-0.1,1
		c0,0.4,0,0.8,0,0.8c0,0,0,0,0,0.1l0,0.1c0,0,0.1,0.1,0.1,0.2c0,0.2-0.2,0.3-0.4,0.3c-0.5,0-0.8-0.7-0.9-1.1
		C21.4,8.1,20.8,8.8,20.1,8.8L20.1,8.8z M20.3,7.6L20.3,7.6c0.7-0.4,1.2-1.2,1.6-1.9c0,0,0,0-0.1,0c-0.6,0.1-1.3,1-1.5,1.6
		C20.3,7.4,20.3,7.4,20.3,7.6C20.3,7.5,20.3,7.6,20.3,7.6C20.3,7.6,20.3,7.6,20.3,7.6L20.3,7.6z"/>
</g>
<g>
	<path class="st0" d="M25,7.3c-0.1-0.2-0.1-0.4-0.2-0.5c-0.2-0.6-0.1-2.2-0.1-2.9s0.4-2.9,0.8-3.5c0.1-0.1,0.2-0.3,0.5-0.3
		c0.5,0,0.5,0.5,0.5,0.9c0,0.3,0,0.6-0.1,0.9c-0.1,0.8-0.2,1.5-0.3,2.3S26,5.8,26,6.7c0,0.3,0,0.6,0,0.9C26,7.8,25.8,8,25.5,8
		c-0.2,0-0.3-0.1-0.3-0.2c0-0.1-0.1-0.1-0.1-0.2C25,7.5,25,7.4,25,7.3L25,7.3z M26.3,10.4c0,0.3-0.3,0.4-0.5,0.4
		c-0.4,0-0.6-0.5-0.6-0.7c0-0.3,0.3-0.8,0.6-0.8c0.3,0,0.3,0.3,0.3,0.4c0,0.1,0,0.1,0,0.1c0,0.1,0,0.1,0,0.1c0,0,0,0.1,0,0.1
		C26.2,10.2,26.3,10.3,26.3,10.4L26.3,10.4z"/>
</g>
<g>
	<path class="st0" d="M0.2,2c0-0.3,0.3-0.4,0.5-0.4c0.4,0,0.6,0.5,0.6,0.7c0,0.3-0.3,0.8-0.6,0.8C0.4,3,0.3,2.8,0.3,2.6
		c0,0,0-0.1,0-0.2c0,0,0-0.1,0-0.1c0,0,0,0,0-0.1C0.3,2.2,0.2,2.1,0.2,2L0.2,2z M1.5,5.1c0.1,0.2,0.1,0.4,0.2,0.5
		c0.2,0.6,0.1,2.2,0.1,2.9S1.3,11.3,1,11.9c-0.1,0.1-0.2,0.3-0.5,0.3C0,12.1,0,11.7,0,11.3c0-0.3,0.1-0.6,0.1-0.9
		c0.1-0.8,0.2-1.5,0.3-2.3s0.1-1.6,0-2.4c0-0.3,0-0.6,0-0.9c0-0.2,0.3-0.4,0.5-0.4c0.2,0,0.3,0.1,0.3,0.2c0,0.1,0.1,0.1,0.1,0.2
		C1.4,4.9,1.5,4.9,1.5,5.1L1.5,5.1z"/>
</g>
</svg>
