<?xml version="1.0" encoding="UTF-8"?>
<svg id="Capa_1" data-name="Capa 1" xmlns="http://www.w3.org/2000/svg" viewBox="0 0 26.47 12.16">
  <defs>
    <style>
      .cls-1 {
        fill: #a32fff;
      }

      .cls-2 {
        fill: none;
        isolation: isolate;
      }
    </style>
  </defs>
  <g class="cls-2">
    <path class="cls-1" d="m4.87,9.95s.01.02.03.03c.01.02.01.03.03.05.03.05.02.11.02.17-.02.24-.26.39-.47.37-.76-.06-.89-1.37-.94-1.94-.07-.82-.01-1.7,0-2.11-.21-.02-.46-.15-.44-.39.01-.14.15-.32.38-.3.05,0,.09,0,.12.03,0,0,.01.02.03.02l.03-.33c.11-1.33.44-2.7.85-3.96.08-.27.5-1.27.73-1.47.07-.07.15-.12.28-.11.15.01.25.1.3.21.04.09.04.22.04.28-.06.68-.24,1.38-.37,2.08-.23,1.06-.4,2.16-.55,3.27.55-.01,1.1-.06,1.64-.06,1.12-.03,2.21-.01,3.32.08l.04-.48c.03-.33.11-1.53.31-2.61.09-.54.21-1.1.38-1.48.08-.21.17-.38.28-.48.12-.13.26-.22.45-.21.38.03.46.36.43.68-.04.42-.14.92-.21,1.36-.13.95-.24,1.9-.31,2.84-.12,1.49-.19,2.98-.18,4.47.04.07.08.16.07.27-.02.27-.35.4-.57.38-.17-.01-.33-.1-.44-.22-.3-.28-.36-1.13-.38-1.89-.02-.69.03-1.4.05-1.83-1.66.11-3.31.1-4.96.01-.05.61-.06,1.22-.03,1.83,0,.46.04.93,0,1.37v.05s.01.02.02.05Z"/>
    <path class="cls-1" d="m15.94,6.29c-.02.24-.12.49-.27.71-.43.53-1.39,1.26-2.21,1.19-.91-.08-1.17-.97-1.12-1.59,0-.09.02-.18.04-.26.12-.55.81-1.87,1.69-1.8.2.02.37.11.5.24.8.08,1.44.64,1.37,1.5Zm-.89-.15c.02-.29-.34-.55-.58-.6l-.05.04s-.03.03-.06.04c-.32.22-.66.75-.69,1.13,0,.08,0,.15.01.23l.03.06c.39.03,1.31-.56,1.34-.91Z"/>
    <path class="cls-1" d="m17.77,10.51c-.02.23-.22.39-.47.37-.18-.02-.28-.11-.35-.23-.54-.87-.54-1.95-.46-2.94.09-1.09.86-6.64,1.66-7.05.08-.04.17-.05.25-.04.29.02.39.23.42.4.02.09.02.18,0,.28l-.02.23c-.02.23-.04.46-.07.7-.31,1.88-.74,3.74-.9,5.65-.04.5-.07.99-.06,1.49,0,.35-.03.72,0,1.07v.08Z"/>
    <path class="cls-1" d="m20.09,8.76c-.74-.06-1.13-.74-1.08-1.37.04-.46.27-.86.5-1.23.43-.7,1.2-1.58,2.26-1.49.15.01.32.06.45.14.04-.07.07-.15.11-.22.09-.15.24-.32.5-.29s.39.25.37.46c0,.06-.03.12-.04.16-.02.04-.04.09-.04.15-.11.37-.14.8-.18,1.18l-.08.97c-.02.43-.02.76,0,.82,0,.01.01.03.03.05l.04.05s.1.13.09.24c-.01.17-.16.32-.38.3-.52-.04-.83-.68-.87-1.13-.38.52-.96,1.26-1.67,1.2Zm.23-1.16l.05-.04c.69-.4,1.17-1.17,1.56-1.88-.02,0-.05.01-.08.02-.62.1-1.26,1.05-1.49,1.58-.05.09-.07.16-.08.25,0,.01,0,.04,0,.08t.03-.01Z"/>
  </g>
  <g class="cls-2">
    <path class="cls-1" d="m24.96,7.32c-.08-.17-.14-.38-.16-.47-.18-.56-.12-2.25-.06-2.89s.38-2.91.76-3.46c.09-.12.25-.28.5-.26.45.04.49.48.46.85-.02.29-.05.56-.1.85-.12.75-.23,1.52-.3,2.3s-.07,1.6-.03,2.41c.02.29.02.63,0,.93-.02.24-.25.44-.51.42-.17-.01-.27-.1-.33-.2-.04-.05-.08-.11-.12-.19-.02-.08-.06-.17-.1-.27Zm1.3,3.09c-.02.27-.3.43-.52.41-.44-.04-.6-.46-.58-.74.03-.32.27-.8.63-.77.32.03.34.3.33.45,0,.05,0,.09.02.15.01.05,0,.08.02.11,0,.03,0,.05,0,.08.05.08.11.18.1.3Z"/>
  </g>
  <g class="cls-2">
    <path class="cls-1" d="m.21,1.98c.02-.27.3-.43.52-.41.44.04.6.46.58.74-.03.32-.27.8-.63.77-.32-.03-.34-.3-.33-.45,0-.05,0-.09-.02-.15-.01-.05,0-.08-.02-.11,0-.03,0-.05,0-.08-.05-.08-.11-.18-.1-.3Zm1.3,3.09c.08.17.14.38.16.47.18.56.12,2.25.06,2.89s-.38,2.91-.76,3.46c-.09.12-.25.28-.5.26-.45-.04-.49-.48-.46-.85.02-.29.05-.56.1-.85.12-.75.23-1.52.3-2.3s.07-1.6.03-2.41c-.02-.29-.02-.63,0-.93.02-.24.25-.44.51-.42.17.01.27.1.33.2.04.05.08.11.12.19.02.08.06.17.1.27Z"/>
  </g>
</svg>