<svg width="35" height="35" viewBox="0 0 35 35" fill="none" xmlns="http://www.w3.org/2000/svg">
<g clip-path="url(#clip0_22_27)">
<path d="M30.1635 -3.67872e-06C21.7212 0.00411252 13.283 0.00411252 4.84064 -3.67872e-06H1.78643C0.798542 -3.67872e-06 0 0.798538 0 1.78642V4.145C0.00411619 13.0483 0.00411619 21.9558 0 30.8591V33.2177C0 34.2056 0.798542 35.0041 1.78643 35.0041H4.84064C9.05974 35 13.283 35 17.5021 35C21.7212 35 25.9444 35 30.1635 35H33.2177C34.2056 35 35.0041 34.2015 35.0041 33.2136V30.855C35 21.9517 35 13.0442 35.0041 4.14089V1.78231C35.0041 0.794422 34.2056 -0.00411987 33.2177 -0.00411987H30.1635V-3.67872e-06ZM11.3936 27.8131C10.2452 27.7925 9.09267 27.8008 7.94425 27.809C7.73021 27.809 7.65201 27.7555 7.65201 27.525C7.66024 22.9354 7.66024 18.3459 7.65201 13.7563C7.65201 13.5423 7.69728 13.4641 7.93191 13.4641C9.10502 13.4764 10.2781 13.4805 11.4513 13.4641C11.7188 13.4641 11.7641 13.5505 11.7641 13.7934C11.7559 16.082 11.76 18.3706 11.76 20.6592C11.76 22.9149 11.7559 25.1705 11.7641 27.4262C11.7641 27.7143 11.7147 27.8172 11.3977 27.8131H11.3936ZM10.307 11.76C10.1176 11.8011 9.92414 11.8176 9.7348 11.8423C8.14595 11.8176 6.9646 10.4469 7.31448 9.01858C7.58203 7.92367 8.7181 7.1169 9.85005 7.21157C11.2043 7.33094 12.1304 8.18299 12.2292 9.40138C12.3157 10.4675 11.476 11.5006 10.307 11.7558V11.76ZM27.4015 27.809C26.2737 27.7925 25.1458 27.8049 24.018 27.8049C23.7079 27.8049 23.5529 27.6526 23.5529 27.348C23.5529 24.693 23.5529 22.0422 23.5529 19.3873C23.5529 19.0209 23.5199 18.6587 23.4376 18.3047C23.1207 16.9423 22.0258 16.2713 20.6592 16.5841C19.6507 16.8147 18.9798 17.4444 18.5105 18.3294C18.4405 18.4611 18.457 18.5928 18.457 18.7287C18.457 21.6306 18.4529 24.5366 18.4611 27.4386C18.4611 27.7102 18.4076 27.8131 18.1113 27.8049C16.9628 27.7884 15.8103 27.7925 14.6619 27.8049C14.4355 27.8049 14.3491 27.7596 14.3491 27.5085C14.3573 22.919 14.3573 18.3294 14.3491 13.744C14.3491 13.5135 14.4231 13.46 14.6413 13.4641C15.8268 13.4723 17.0081 13.4723 18.1936 13.4641C18.4035 13.4641 18.4735 13.5217 18.4611 13.7316C18.4447 14.0198 18.457 14.312 18.457 14.6619C18.951 14.312 19.3914 13.9951 19.8771 13.7522C21.5565 12.9248 23.2853 12.7314 25.0512 13.4435C26.3642 13.9745 27.1504 14.9953 27.5456 16.3331C27.702 16.8723 27.7555 17.4238 27.7555 17.9836C27.7514 21.1367 27.7473 24.2897 27.7555 27.4468C27.7555 27.7226 27.6896 27.8131 27.4015 27.809Z" fill="#FF9DA9"/>
</g>
<defs>
<clipPath id="clip0_22_27">
<rect width="35.0041" height="35" fill="white"/>
</clipPath>
</defs>
</svg>
