<svg width="35" height="36" viewBox="0 0 35 36" fill="none" xmlns="http://www.w3.org/2000/svg">
<g clip-path="url(#clip0_22_31)">
<path d="M23.6406 0.0288683C25.1593 0.0535626 26.6986 0.135877 28.1391 0.559795C29.7072 1.02487 31.0654 1.82743 32.1972 3.01687C33.7365 4.63023 34.4567 6.60989 34.7613 8.76241C34.9383 10.0218 34.9753 11.3018 34.9753 12.5736C34.9671 16.4794 35.0823 20.3852 34.8971 24.291C34.8436 25.431 34.7531 26.5629 34.465 27.6741C33.8599 30.0159 32.6047 31.8968 30.5797 33.2385C29.2298 34.1316 27.7111 34.5679 26.1265 34.7943C24.793 34.9877 23.439 35.0042 22.0972 35.0042C18.2367 35.0124 14.3721 35.0865 10.5115 34.9342C9.22742 34.8848 7.9639 34.7367 6.72919 34.358C3.91816 33.4896 1.92204 31.724 0.806679 28.987C0.14405 27.3736 -0.02881 25.6739 0.0123471 23.9411C0.0164628 23.7312 0.0123471 23.5213 0.0123471 23.3114C0.0123471 23.0892 0 11.4705 0 11.3965C0.0658514 10.3634 -0.0329257 9.32214 0.156397 8.2891C0.390992 7.02969 0.732596 5.81144 1.38699 4.70432C3.18556 1.68338 5.96778 0.341662 9.36736 0.0782569C10.0423 0.0247526 10.7214 0.0370998 11.3964 0.0165212C11.915 0.0247526 12.3636 0.00828978 12.5735 0.00417407C13.5571 0.00417407 14.5408 0.00417407 15.5245 0.00417407C17.7017 0.00417407 19.8789 -0.0205202 22.0561 0.00828978C22.5788 0.0165212 23.1097 0.0165212 23.6406 0.0247526V0.0288683ZM3.03328 17.4507C3.0662 19.6814 2.96331 21.9121 3.10325 24.1428C3.1691 25.217 3.23083 26.2871 3.55186 27.3243C4.11571 29.1475 5.27634 30.4357 7.05021 31.1478C8.00506 31.5305 9.01752 31.6416 10.03 31.724C11.9644 31.8845 13.907 31.8227 15.8414 31.8433C17.7222 31.8598 19.6031 31.831 21.484 31.8351C22.0396 31.8351 22.5952 31.8433 23.1509 31.8063C24.2786 31.7322 25.4145 31.7569 26.534 31.5182C28.9993 30.9914 30.6332 29.5756 31.3453 27.1308C31.6498 26.0813 31.658 24.9948 31.7404 23.9165C31.8597 22.3813 31.7774 20.8461 31.8103 19.311C31.8433 17.7182 31.8474 12.6682 31.7774 11.7381C31.691 10.5939 31.7074 9.4415 31.4728 8.31379C31.0736 6.39999 30.0858 4.92245 28.3284 4.00876C27.3242 3.48606 26.2253 3.28851 25.1182 3.2062C23.937 3.11565 22.7516 3.06215 21.5663 3.07038C17.9321 3.09507 14.2939 2.99218 10.6597 3.15269C9.52375 3.20208 8.40016 3.30086 7.31362 3.67127C5.81961 4.18574 4.70426 5.14058 3.97166 6.53992C3.59713 7.25606 3.42427 8.02981 3.28434 8.81591C3.08267 9.93127 3.07032 11.059 3.04563 12.1826C3.00858 13.9359 3.03328 15.6933 3.03328 17.4507ZM8.39193 17.4877C8.42486 12.4089 12.5159 8.44138 17.4588 8.43315C22.3277 8.42492 26.4722 12.5036 26.4393 17.5371C26.4064 22.2743 22.5212 26.4682 17.4012 26.4764C12.3965 26.4805 8.4084 22.3401 8.39193 17.4877ZM23.2455 17.4342C23.3525 14.4585 20.8173 11.6434 17.4959 11.6105C13.9811 11.5734 11.6063 14.5079 11.561 17.3313C11.5075 20.5251 14.0469 23.2703 17.3889 23.3073C20.6115 23.3403 23.3484 20.6568 23.2496 17.4383L23.2455 17.4342ZM28.8923 8.10389C28.8799 6.9268 27.9498 5.97195 26.785 5.97195C25.6409 5.97195 24.6901 6.92268 24.6778 8.06685C24.6655 9.24806 25.5997 10.1782 26.7933 10.1823C28.0815 10.2276 28.9005 9.05051 28.8923 8.09978V8.10389Z" fill="#FF9DA9"/>
</g>
<defs>
<clipPath id="clip0_22_31">
<rect width="35" height="35.037" fill="white"/>
</clipPath>
</defs>
</svg>
