<?xml version="1.0" encoding="utf-8"?>
<!-- Generator: Adobe Illustrator 27.7.0, SVG Export Plug-In . SVG Version: 6.00 Build 0)  -->
<svg version="1.1" id="Capa_1" xmlns="http://www.w3.org/2000/svg" xmlns:xlink="http://www.w3.org/1999/xlink" x="0px" y="0px"
	 viewBox="0 0 35 35" style="enable-background:new 0 0 35 35;" xml:space="preserve">
<style type="text/css">
	.st0{fill:#FFFFFF;}
</style>
<g>
	<path class="st0" d="M20.1,25.1c-0.1,0.1-0.2,0.2-0.3,0.2c-2.5,2.5-5,5.1-7.6,7.6c-1.1,1.1-2.4,1.8-3.9,2c-2.8,0.4-5-0.5-6.8-2.6
		C0.5,31,0,29.4,0,27.8c0-1.6,0.5-3,1.5-4.3c0.3-0.4,0.6-0.7,0.9-1c2.9-2.9,5.8-5.7,8.6-8.6c1.3-1.2,2.8-2,4.5-2.2
		c2.2-0.2,4.2,0.5,5.8,2.1c0.2,0.2,0.4,0.5,0.6,0.7c0,0.1,0,0.1,0,0.2c-0.7,0.7-1.3,1.3-2,2c-0.3,0.3-0.7,0.3-1.2,0.3
		c-0.1,0-0.1,0-0.1-0.1c-0.6-0.7-1.3-1-2.2-1.1c-1,0-1.8,0.4-2.5,1.1c-2.9,2.9-5.8,5.8-8.7,8.7c-0.7,0.7-1.1,1.5-1.1,2.4
		c0,1.6,1.4,3,3,3c1,0,1.8-0.3,2.4-1c1.2-1.2,2.5-2.5,3.7-3.7c0.6-0.6,1.2-1.2,1.9-1.9c0.1-0.1,0.1-0.1,0.2,0c0.7,0.2,1.3,0.5,2,0.6
		c0.8,0.1,1.6,0.2,2.4,0.1C19.8,25,20,25,20.1,25.1C20.1,25,20.1,25.1,20.1,25.1z"/>
	<path class="st0" d="M35,7.1c0,1.6-0.5,3.1-1.5,4.4c-0.5,0.7-1.2,1.3-1.8,1.9c-2.4,2.4-4.8,4.8-7.2,7.2c-1,1-2,1.7-3.3,2.1
		c-2.7,0.8-5.1,0.2-7.2-1.7c-0.2-0.2-0.4-0.5-0.6-0.7c-0.1-0.1,0-0.1,0-0.2c0.6-0.6,1.3-1.3,1.9-1.9c0.3-0.3,0.8-0.4,1.2-0.4
		c0.1,0,0.1,0,0.1,0.1c0.5,0.7,1.3,1,2.1,1.1c1,0.1,1.9-0.3,2.6-1c2.8-2.8,5.6-5.6,8.4-8.4C30.6,8.8,31,8,30.9,7
		c-0.1-1.7-1.7-3.1-3.4-2.9c-0.8,0.1-1.4,0.5-2,1c-1.7,1.7-3.4,3.4-5.1,5.1c-0.1,0.1-0.2,0.1-0.4,0.1c-1.1-0.4-2.2-0.7-3.4-0.8
		c-0.4,0-0.9,0-1.3,0.1c0,0-0.1,0-0.1,0c0,0,0-0.1,0.1-0.1c2.5-2.5,4.9-4.9,7.4-7.4c1.2-1.2,2.7-2,4.5-2.2c2.5-0.2,4.7,0.7,6.3,2.6
		C34.5,3.9,35,5.4,35,7.1z"/>
</g>
</svg>
