<svg width="35" height="35" viewBox="0 0 35 35" fill="none" xmlns="http://www.w3.org/2000/svg">
<g clip-path="url(#clip0_22_29)">
<path d="M35 4.8977V1.9385C35 0.868415 34.1316 0 33.0615 0H27.9498C20.9819 0.00411571 14.014 0.00411571 7.0461 0H1.93438C0.868415 0 0 0.868415 0 1.9385V4.8977C0 9.09984 0 13.302 0 17.5C0 21.698 0 25.9043 0 30.1023V33.0615C0 34.1316 0.868415 35 1.9385 35H7.05021C14.0181 34.9959 20.986 34.9959 27.9539 35H33.0656C34.1357 35 35.0041 34.1316 35.0041 33.0615V30.1023C35.0041 21.698 35.0041 13.2979 35.0041 4.89358L35 4.8977ZM25.3528 22.7763C25.3528 22.9533 25.4104 23.0727 25.5339 23.1879C26.0113 23.6283 26.4764 24.081 26.9497 24.5255C27.0484 24.6202 27.1349 24.7066 27.139 24.8671C27.139 25.0688 27.0937 25.147 26.8756 25.147C24.472 25.1388 22.0684 25.147 19.6649 25.1429C19.5702 25.1429 19.4385 25.184 19.4015 25.0523C19.3562 24.8918 19.3973 24.7519 19.5332 24.6243C20.0353 24.1633 20.5292 23.69 21.0272 23.2208C21.1301 23.1262 21.2 23.0315 21.2 22.8751C21.1959 19.9612 21.2 17.0432 21.2 14.0922C21.0848 14.1663 21.0766 14.2651 21.0436 14.3474C19.6649 17.821 18.2861 21.2906 16.9032 24.7642C16.8333 24.9412 16.8209 25.1511 16.5205 25.1552C16.2282 25.1593 16.1089 25.0441 15.9978 24.8013C14.4544 21.4099 12.9028 18.0227 11.3511 14.6355C11.3059 14.5367 11.2524 14.442 11.1988 14.3391C11.1165 14.4091 11.1453 14.4832 11.1453 14.5449C11.1206 16.9032 11.1042 19.2615 11.0754 21.6157C11.0754 21.8462 11.133 22.0232 11.2894 22.196C11.9726 22.9739 12.6352 23.7723 13.3184 24.5502C13.4584 24.7066 13.5036 24.8754 13.4378 25.0482C13.3678 25.2334 13.1744 25.1388 13.0427 25.1388C11.4252 25.147 9.80774 25.1429 8.19026 25.1388C8.06268 25.1388 7.87747 25.217 7.81573 25.0729C7.74577 24.9 7.754 24.7025 7.88982 24.5255C8.31374 23.9617 8.69238 23.3567 9.15334 22.8298C9.65546 22.2536 9.80774 21.6322 9.79951 20.8749C9.76658 18.1544 9.79951 15.4298 9.81185 12.7093C9.81185 12.4665 9.75012 12.2772 9.59372 12.092C9.0381 11.4293 8.49483 10.7585 7.94332 10.0876C7.90628 10.0423 7.86512 10.0012 7.84043 9.95179C7.66757 9.64311 7.79927 9.41263 8.14911 9.41263C9.83655 9.41263 11.5199 9.41675 13.2073 9.40851C13.4625 9.40851 13.5818 9.48671 13.6889 9.72131C15.0429 12.7381 16.4052 15.7467 17.7675 18.7594C17.8004 18.8335 17.8334 18.9035 17.9033 19.0516C18.2408 18.2079 18.5536 17.43 18.8623 16.6522C19.776 14.3515 20.6938 12.0508 21.5992 9.746C21.698 9.49906 21.8091 9.40028 22.089 9.4044C23.6489 9.42086 25.2087 9.40851 26.7686 9.41675C26.8921 9.41675 27.0773 9.33855 27.1184 9.51552C27.1637 9.69661 27.1637 9.88182 26.9744 10.0341C26.4764 10.4333 26.0031 10.8614 25.5133 11.2688C25.3775 11.3799 25.324 11.4993 25.324 11.6763C25.3404 15.3763 25.3487 19.0804 25.3569 22.7805L25.3528 22.7763Z" fill="#FF9DA9"/>
</g>
<defs>
<clipPath id="clip0_22_29">
<rect width="35" height="35" fill="white"/>
</clipPath>
</defs>
</svg>
