<svg width="36" height="35" viewBox="0 0 36 35" fill="none" xmlns="http://www.w3.org/2000/svg">
<g clip-path="url(#clip0_22_25)">
<path d="M0 16.6584C0.0928046 16.0383 0.164517 15.414 0.274195 14.7981C0.923828 11.1197 2.58166 7.95588 5.2055 5.30673C7.84621 2.64914 11.0142 0.940695 14.7011 0.2995C19.9994 -0.62011 24.8295 0.556822 29.0605 3.89779C32.6672 6.7452 34.8524 10.4869 35.6243 15.0175C37.0839 23.6019 32.0218 32.0513 23.7706 34.8608C23.5218 34.9452 23.2729 34.9789 23.0155 34.9409C22.6528 34.8861 22.4039 34.6499 22.3406 34.2871C22.3111 34.1141 22.3069 33.937 22.3069 33.764C22.3153 32.2707 22.3279 30.7774 22.3364 29.2841C22.3364 28.7694 22.29 28.259 22.1719 27.757C21.9905 26.9893 21.7711 26.5843 21.1721 25.863C21.7669 25.7575 22.3406 25.6731 22.9143 25.555C23.7031 25.3947 24.4667 25.1458 25.1965 24.7999C26.8669 24.0069 28.0523 22.754 28.6555 21.0034C29.3727 18.9321 29.5667 16.8229 28.9297 14.6884C28.6724 13.8279 28.2168 13.0686 27.6305 12.3936C27.5081 12.2502 27.4828 12.1363 27.5377 11.9591C27.9975 10.5122 27.8498 9.08641 27.3731 7.67325C27.3057 7.46655 27.1791 7.41171 26.9808 7.41593C26.095 7.42015 25.2893 7.71543 24.5046 8.07821C23.8466 8.38194 23.2222 8.7405 22.6232 9.14969C22.4714 9.25515 22.3364 9.29311 22.1423 9.24249C19.3329 8.52115 16.5192 8.50849 13.7098 9.23405C13.4989 9.28889 13.3386 9.25093 13.1614 9.13703C12.0857 8.42834 10.9763 7.77449 9.69808 7.52982C8.31023 7.26407 8.51272 7.28094 8.19634 8.45787C7.87152 9.65167 7.87574 10.8539 8.28492 12.0351C8.33132 12.1701 8.30601 12.246 8.22165 12.343C6.71568 14.0557 6.34024 16.0847 6.55538 18.2825C6.65662 19.3202 6.84645 20.3326 7.2472 21.2987C8.10353 23.3572 9.68543 24.5974 11.7609 25.2724C12.6805 25.5719 13.6296 25.728 14.642 25.863C14.1063 26.4282 13.7435 27.0525 13.6381 27.7739C13.5706 28.2295 13.3259 28.3771 12.942 28.4952C10.9341 29.1196 9.41545 28.5627 8.29336 26.7783C7.68591 25.8081 6.87598 25.1205 5.69905 24.9476C5.4586 24.9138 5.23081 24.9518 5.01145 25.0151C4.74147 25.0868 4.69507 25.2639 4.85115 25.4917C4.97348 25.6689 5.13378 25.8081 5.31517 25.9136C6.35712 26.5379 6.973 27.4997 7.41593 28.588C8.11619 30.3049 9.46185 31.0853 11.242 31.2245C11.8706 31.2752 12.5033 31.2372 13.1192 31.0938C13.3723 31.0347 13.4862 31.0685 13.482 31.3806C13.4693 32.2074 13.4946 33.0384 13.4989 33.8652C13.5031 34.8186 12.9547 35.2193 12.0604 34.8903C6.13776 32.6925 2.30746 28.5459 0.57792 22.4714C0.303724 21.5096 0.143425 20.5183 0.0717127 19.5143C0.0632759 19.4004 0.0295287 19.2907 0.00421839 19.181C0.00421839 18.3416 0.00421839 17.5021 0.00421839 16.6584H0Z" fill="#FF9DA9"/>
</g>
<defs>
<clipPath id="clip0_22_25">
<rect width="35.8732" height="35" fill="white"/>
</clipPath>
</defs>
</svg>
