<?xml version="1.0" encoding="utf-8"?>
<!-- Generator: Adobe Illustrator 27.7.0, SVG Export Plug-In . SVG Version: 6.00 Build 0)  -->
<svg version="1.1" id="Capa_1" xmlns="http://www.w3.org/2000/svg" xmlns:xlink="http://www.w3.org/1999/xlink" x="0px" y="0px"
	 viewBox="0 0 36 35" style="enable-background:new 0 0 36 35;" xml:space="preserve">
<!-- <style type="text/css">
	.st0{fill:#FFFFFF;}
</style> -->
<g>
	<g>
		<g>
			<path class="st0" d="M0,16.7c0.1-0.6,0.2-1.2,0.3-1.9C0.9,11.1,2.6,8,5.2,5.3s5.8-4.4,9.5-5C20-0.6,24.8,0.6,29.1,3.9
				c3.6,2.8,5.8,6.6,6.6,11.1c1.5,8.6-3.6,17-11.9,19.8c-0.2,0.1-0.5,0.1-0.8,0.1c-0.4-0.1-0.6-0.3-0.7-0.7c0-0.2,0-0.4,0-0.5
				c0-1.5,0-3,0-4.5c0-0.5,0-1-0.2-1.5c-0.2-0.8-0.4-1.2-1-1.9c0.6-0.1,1.2-0.2,1.7-0.3c0.8-0.2,1.6-0.4,2.3-0.8
				c1.7-0.8,2.9-2,3.5-3.8c0.7-2.1,0.9-4.2,0.3-6.3c-0.3-0.9-0.7-1.6-1.3-2.3c-0.1-0.1-0.1-0.3-0.1-0.4c0.5-1.4,0.3-2.9-0.2-4.3
				c-0.1-0.2-0.2-0.3-0.4-0.3c-0.9,0-1.7,0.3-2.5,0.7c-0.7,0.3-1.3,0.7-1.9,1.1c-0.2,0.1-0.3,0.1-0.5,0.1c-2.8-0.7-5.6-0.7-8.4,0
				c-0.2,0.1-0.4,0-0.5-0.1c-1-0.7-2.1-1.3-3.4-1.6c-1.4-0.2-1.2-0.2-1.5,1C7.9,9.7,7.9,10.9,8.3,12c0,0.1,0,0.2-0.1,0.3
				C6.7,14,6.3,16,6.5,18.2c0.1,1,0.3,2.1,0.7,3c0.9,2.1,2.4,3.3,4.5,4c0.9,0.3,1.9,0.5,2.9,0.6c-0.5,0.6-0.9,1.2-1,1.9
				c-0.1,0.5-0.3,0.6-0.7,0.7c-2,0.6-3.5,0.1-4.6-1.7c-0.6-1-1.4-1.7-2.6-1.8c-0.2,0-0.5,0-0.7,0.1c-0.3,0.1-0.3,0.2-0.2,0.5
				c0.1,0.2,0.3,0.3,0.5,0.4c1,0.6,1.7,1.6,2.1,2.7c0.7,1.7,2,2.5,3.8,2.6c0.6,0.1,1.3,0,1.9-0.1c0.3-0.1,0.4,0,0.4,0.3
				c0,0.8,0,1.7,0,2.5c0,1-0.5,1.4-1.4,1c-5.9-2.2-9.8-6.3-11.5-12.4c-0.3-1-0.4-2-0.5-3c0-0.1,0-0.2-0.1-0.3C0,18.3,0,17.5,0,16.7
				L0,16.7z"/>
		</g>
	</g>
</g>
</svg>
