<?xml version="1.0" encoding="utf-8"?>
<svg version="1.1" id="Capa_1" xmlns="http://www.w3.org/2000/svg" xmlns:xlink="http://www.w3.org/1999/xlink" x="0px" y="0px"
	 viewBox="0 0 109.3 95.9" style="enable-background:new 0 0 109.3 95.9;" xml:space="preserve">
<path class="st0" d="M100.8,17H8.5C3.8,17,0,13.2,0,8.5S3.8,0,8.5,0h92.3c4.7,0,8.5,3.8,8.5,8.5S105.5,17,100.8,17z"/>
<path class="st0" d="M100.8,56.4H8.5c-4.7,0-8.5-3.8-8.5-8.5s3.8-8.5,8.5-8.5h92.3c4.7,0,8.5,3.8,8.5,8.5S105.5,56.4,100.8,56.4z"/>
<path class="st0" d="M100.8,95.9H8.5c-4.7,0-8.5-3.8-8.5-8.5s3.8-8.5,8.5-8.5h92.3c4.7,0,8.5,3.8,8.5,8.5S105.5,95.9,100.8,95.9z"/>
</svg>
