<?xml version="1.0" encoding="utf-8"?>
<!-- Generator: Adobe Illustrator 27.7.0, SVG Export Plug-In . SVG Version: 6.00 Build 0)  -->
<svg version="1.1" id="Capa_1" xmlns="http://www.w3.org/2000/svg" xmlns:xlink="http://www.w3.org/1999/xlink" x="0px" y="0px"
	 viewBox="0 0 113.4 32.6" style="enable-background:new 0 0 113.4 32.6;" xml:space="preserve">
<style type="text/css">
	.st0{fill:#81CCD7;}
</style>
<path class="st0" d="M6,23.5c-0.4-0.2-0.7-0.5-0.7-1.1c0-0.5,0.3-1.1,1-1.1c0,0,0.1,0,0.1-0.1c0.1,0,0.1,0,0.2-0.1
	c0-0.9,0-1.8,0-2.8c0-3.8,0.3-7.6,1.1-11.3c-0.8,0.6-1.5,1.1-2,1.7c-0.7,0.7-1.4,1.4-2.3,2.4c0.1,0.1,0.1,0.2,0.1,0.4
	c0,0.5-0.3,0.7-0.6,0.8c-0.1,0-0.4,0.1-0.6,0.2c-0.2,0-0.3,0.1-0.4,0.1c-0.1,0-0.1,0-0.2,0H1.4c-1.1,0-1.4-1.1-1.4-1.6
	c0-2.1,2.5-4.6,3.8-5.8C6.8,2.7,12,0,16.4,0c3.9,0,7.3,2.1,7.3,6.2c0,0.9-0.2,1.7-0.4,2.5c-1.2,4.7-8.2,12.2-12.9,14.3
	c0.1,1.4,0.5,5.2,1.1,6.4c0.1,0.1,0.1,0.2,0.1,0.5c0,0.5-0.5,1.1-1.1,1.1c-0.2,0-0.3,0-0.3-0.1c-2-0.7-2.6-2-3.1-4
	c-0.2-1.1-0.3-2.2-0.4-3.2C6.5,23.6,6.2,23.6,6,23.5L6,23.5z M19.9,6.3c0-1.9-1.6-2.6-3.6-2.6c-1.6,0-3.2,0.5-4.7,1.2v0.7
	c-0.7,4.3-1.4,8.6-1.4,12.9v0.3C14,16.2,19.9,10.2,19.9,6.3z"/>
<path class="st0" d="M24.7,22.6c-0.1-0.9-0.2-1.6-0.2-2.2c-0.1-1.7-0.5-3.5-0.5-5.3c0-0.7,0.3-1.7,1.6-1.7s1.7,1.4,2,2.4
	c0.1,0.5,0.2,1.1,0.3,1.6c0.8-1.5,2.4-3.9,4.3-3.9c0.7,0,1.4,0.4,1.4,1.2c0,0.2,0,0.4-0.1,0.6c0,0.1-0.2,0.2-0.2,0.3l-0.3,0.2
	C32,16.3,31,17,30.4,17.9c-0.7,1.1-1.4,2.2-1.8,3.4c-0.1,0.4-0.2,0.9-0.3,1.4c-0.1,0.5-0.1,1-0.2,1.5c0,0.7-0.6,1.4-1.4,1.4
	c-0.3,0-0.5-0.1-0.8-0.2c-0.1-0.1-0.2-0.1-0.2-0.2c-0.1,0-0.1-0.1-0.2-0.2C25,24.3,24.8,23.4,24.7,22.6L24.7,22.6z"/>
<path class="st0" d="M44.3,17.4c0,0.7-0.2,1.4-0.6,2c-1.1,1.6-3.6,3.8-5.8,3.8c-2.5,0-3.5-2.4-3.5-4.2c0-0.2,0-0.5,0-0.7
	c0.2-1.6,1.8-5.4,4.3-5.4c0.5,0,1.1,0.2,1.4,0.6C42.4,13.6,44.3,15,44.3,17.4z M41.8,17.2c0-0.8-1.1-1.4-1.7-1.5l-0.1,0.1
	c0,0-0.1,0.1-0.2,0.1c-0.8,0.7-1.7,2.2-1.7,3.3c0,0.2,0,0.4,0.1,0.6l0.1,0.2C39.3,20.1,41.8,18.2,41.8,17.2L41.8,17.2z"/>
<path class="st0" d="M54.8,11.2c0.1-0.6,0.5-1.3,1.3-1.3c0.9,0,1.3,0.8,1.3,1.4v0.3c0,0,0,0,0,0.1c0,0.2,0,0.6,0,0.9
	c0,0.8-0.1,1.5-0.1,2.3c-0.2,3.4-0.4,6.8-0.4,10.2c0,2.2,0.1,4.3,0.1,6.4c0,0.7-0.7,1.1-1.3,1.1c-0.8,0-1.3-0.5-1.6-1.1
	c-0.3-0.6-0.5-1.5-0.6-2.3c-0.2-1.6-0.2-3.5-0.2-4.2c0-1.6,0.1-3.2,0.2-4.8c-0.9,1.4-2,2.9-2.9,3.5c-0.4,0.3-1,0.7-1.7,0.7
	c-2.9,0-3.5-3.9-3.5-6.1c0-0.6,0.1-2.4,0.4-3.9c0.2-0.7,0.5-1.5,0.8-2c0.3-0.6,0.8-1,1.6-1c0.9,0,1.4,0.6,1.4,1.4c0,0.2,0,0.4,0,0.6
	c-0.5,1.8-0.6,3.2-0.6,5.1c0,0.9,0.1,2,0.4,2.8C52.3,18.8,54.3,14.7,54.8,11.2z"/>
<path class="st0" d="M66.2,21.9c0.5,0,0.9-0.1,1.3-0.2c0.2-0.1,0.3-0.1,0.5-0.2c0.1,0,0.2,0,0.2-0.1h0.2c0.6,0,0.9,0.5,0.9,0.9
	c0,0.3-0.2,0.5-0.3,0.7c-0.9,0.9-2.7,1.3-3.9,1.3c-0.7,0-1.4-0.1-2.2-0.4c-2.2-0.9-3.8-3.7-3.8-5.9c0-3.4,3-6.8,6.9-6.8
	c1.8,0,3.2,1.1,3.2,2.8c0,2.9-4.1,4.5-6.5,4.6C62.9,20.6,64.2,21.9,66.2,21.9L66.2,21.9z M67.3,14.2c0-0.5-0.3-0.7-0.7-0.7
	c-1.7,0-3.1,1.9-3.7,3.3C64.2,16.6,67.3,15.7,67.3,14.2z"/>
<path class="st0" d="M76.8,13.2c-1.7,0.4-2.5,3-2.5,4.7c0,0.6,0.2,2.3,1,2.3s4-2.5,4.7-3.2l0.1-0.1c0,0,0.1-0.1,0.2-0.2
	c0.1-0.1,0.2-0.1,0.5-0.1c0.6,0,1,0.5,1,0.9c0,0.1-0.2,0.5-0.2,0.6c-0.1,0.2-0.2,0.5-0.4,0.7c-0.3,0.4-0.6,0.9-0.8,1.1
	c-1.1,1.4-3.1,3.6-5.3,3.6c-3.3,0-4.4-3.6-4.4-5.8c0-3,2-7.6,5.5-7.6c1.1,0,2.6,0.6,2.6,2c0,0.3,0,0.6,0,0.8v0
	c0.2,0.1,0.3,0.3,0.3,0.6c0,0.5-0.4,0.9-0.9,0.9c-0.6,0-0.9-0.4-1-0.7C76.9,13.6,76.9,13.4,76.8,13.2L76.8,13.2z"/>
<path class="st0" d="M86.1,22c-0.2-1.6-0.2-3.2-0.3-4.7c-0.1,0-0.2,0-0.2,0c-0.3,0-0.6,0.1-0.8,0.1c-0.3,0-0.6,0-0.9,0
	c-0.4,0-1-0.2-1-0.9c0-0.4,0.2-0.7,0.6-0.8c0.1,0,0.3,0,0.4,0H84c0.1,0,0.1,0,0.2-0.1c0.2,0,0.4-0.1,0.6-0.1
	c0.3-0.1,0.7-0.2,0.9-0.2c0-0.8,0-1.6,0-2.4c0-1,0-3.1,0.2-5.2c0.2-2,0.5-4.2,1.3-4.8c0.3-0.2,0.6-0.3,1-0.3c1.3,0,1.6,1.2,1.6,1.9
	c0,0.3,0,0.6,0,0.8c-0.1,2.8-0.2,5.6-0.2,8.4v0.9c0.9-0.1,1.8-0.2,2.7-0.2c0.2,0,0.6,0,0.9,0.1c0.4,0.2,0.7,0.5,0.7,0.9
	s-0.3,0.8-0.8,1c-0.5,0.2-1.2,0.2-1.9,0.3c-0.5,0-1.1,0.1-1.5,0.1c0,1.5,0.1,3,0.3,4.5c0.1,1.3,0.4,2.5,0.6,3.8c0,0.2,0,0.5,0.1,0.8
	c0,0.3,0.1,0.5,0.2,0.7c0,0.1,0.1,0.2,0.1,0.2c0,0.1,0.1,0.2,0.1,0.3c0,0.5-0.5,1.2-1.2,1.2C87.5,28.5,86.3,23.7,86.1,22L86.1,22z"
	/>
<path class="st0" d="M104.7,17.4c0,0.7-0.2,1.4-0.6,2c-1.1,1.6-3.6,3.8-5.8,3.8c-2.5,0-3.5-2.4-3.5-4.2c0-0.2,0-0.5,0-0.7
	c0.2-1.6,1.8-5.4,4.3-5.4c0.6,0,1.1,0.2,1.4,0.6C102.8,13.6,104.7,15,104.7,17.4z M102.2,17.2c0-0.8-1.1-1.4-1.7-1.5l-0.1,0.1
	c0,0-0.1,0.1-0.2,0.1c-0.8,0.7-1.7,2.2-1.7,3.3c0,0.2,0,0.4,0.1,0.6l0.1,0.2C99.8,20.1,102.2,18.2,102.2,17.2L102.2,17.2z"/>
<path class="st0" d="M107.2,21.4c0.8,0,1.6,0.2,2.4,0.2c-1.4-2.8-3.8-4-3.8-7.8c0-1.9,1.8-3.4,3.8-3.4c1.8,0,3.3,0.9,3.3,2.8
	c0,0.3-0.1,1.1-0.9,1.1c-0.2,0-0.4-0.1-0.6-0.2c0,0-0.1-0.1-0.1-0.1l-0.1-0.1c0,0-0.1-0.1-0.1-0.1c-0.1,0-0.2,0-0.3,0
	c-0.1,0-0.5,0-0.8,0.1c-0.1,0-0.2,0-0.3,0.1c-0.8,3.2,3.9,5.5,3.9,8.6c0,1.5-1.2,2.5-2.8,2.5c-1.2,0-4.7-1-4.7-2.5
	c0-0.5,0.5-1.1,1.1-1.1L107.2,21.4L107.2,21.4z"/>
</svg>
