<?xml version="1.0" encoding="UTF-8"?>
<svg id="Capa_1" data-name="Capa 1" xmlns="http://www.w3.org/2000/svg" viewBox="0 0 113.39 32.56">
  <defs>
    <style>
      .cls-1 {
        fill: #a32fff;
      }
    </style>
  </defs>
  <path class="cls-1" d="m5.98,23.45c-.38-.17-.72-.51-.72-1.06,0-.51.34-1.1,1.02-1.1.04,0,.08-.04.13-.08.08,0,.13-.04.17-.08-.04-.93-.04-1.82-.04-2.76,0-3.77.3-7.55,1.1-11.28-.85.59-1.48,1.14-2.04,1.74-.72.72-1.4,1.44-2.33,2.42.08.13.13.25.13.38,0,.47-.3.68-.64.81-.08.04-.38.13-.64.21-.17.04-.3.08-.42.13-.08,0-.13,0-.17.04h-.17c-1.14,0-1.36-1.1-1.36-1.57,0-2.08,2.46-4.58,3.77-5.77C6.78,2.67,11.96,0,16.37,0c3.86,0,7.34,2.08,7.34,6.15,0,.89-.17,1.7-.38,2.54-1.23,4.66-8.18,12.21-12.93,14.29.13,1.36.51,5.17,1.1,6.36.08.13.13.25.13.47,0,.55-.47,1.1-1.06,1.1-.17,0-.3-.04-.34-.08-1.99-.68-2.63-1.99-3.14-3.99-.21-1.14-.34-2.25-.38-3.18-.25-.04-.51-.08-.72-.21ZM19.93,6.28c0-1.91-1.57-2.59-3.6-2.59-1.61,0-3.22.51-4.71,1.19v.72c-.72,4.32-1.36,8.57-1.36,12.93v.34c3.73-2.67,9.67-8.65,9.67-12.59Z"/>
  <path class="cls-1" d="m24.68,22.64c-.13-.85-.17-1.65-.21-2.25-.13-1.74-.47-3.52-.47-5.3,0-.72.34-1.74,1.57-1.74s1.74,1.36,2.04,2.37c.13.55.21,1.14.3,1.65.81-1.48,2.42-3.86,4.28-3.86.68,0,1.36.42,1.36,1.19,0,.21-.04.38-.13.55-.04.13-.17.21-.25.3l-.3.25c-.85.55-1.82,1.23-2.42,2.08-.68,1.1-1.36,2.2-1.82,3.35-.13.38-.25.85-.3,1.36-.08.51-.13,1.02-.17,1.48-.04.68-.59,1.36-1.44,1.36-.3,0-.55-.08-.76-.21-.08-.08-.17-.13-.17-.21-.08-.04-.13-.13-.21-.17-.55-.55-.81-1.4-.89-2.2Z"/>
  <path class="cls-1" d="m44.27,17.43c0,.68-.21,1.4-.59,2.04-1.06,1.57-3.56,3.82-5.85,3.82-2.54,0-3.48-2.42-3.48-4.16,0-.25,0-.51.04-.72.21-1.57,1.82-5.39,4.28-5.39.55,0,1.06.21,1.44.55,2.25.04,4.16,1.44,4.16,3.86Zm-2.5-.21c0-.81-1.06-1.44-1.74-1.53l-.13.13s-.08.08-.17.13c-.85.68-1.65,2.25-1.65,3.31,0,.21.04.42.08.64l.08.17c1.1,0,3.52-1.87,3.52-2.84Z"/>
  <path class="cls-1" d="m54.78,11.19c.08-.59.47-1.31,1.31-1.31.93,0,1.31.81,1.31,1.4v.3s-.04.04-.04.08c0,.25.04.59.04.89,0,.76-.08,1.48-.13,2.29-.21,3.39-.42,6.78-.42,10.22,0,2.16.13,4.28.13,6.4,0,.72-.72,1.1-1.27,1.1-.76,0-1.27-.55-1.61-1.14-.3-.64-.47-1.48-.59-2.29-.21-1.65-.17-3.52-.17-4.2,0-1.61.08-3.22.21-4.83-.89,1.36-2.04,2.88-2.88,3.52-.42.34-1.02.68-1.65.68-2.93,0-3.48-3.9-3.48-6.15,0-.64.08-2.37.42-3.86.21-.72.47-1.48.81-2.04.34-.59.85-1.02,1.61-1.02.89,0,1.44.64,1.44,1.4,0,.21,0,.38-.04.59-.47,1.78-.64,3.22-.64,5.09,0,.85.08,2.04.38,2.84,2.8-2.33,4.83-6.49,5.26-9.96Z"/>
  <path class="cls-1" d="m66.23,21.92c.47,0,.89-.08,1.27-.21.17-.08.34-.13.47-.17.08-.04.17-.04.25-.08h.25c.59,0,.89.47.89.89,0,.3-.17.55-.3.72-.93.89-2.71,1.31-3.94,1.31-.68,0-1.44-.13-2.16-.38-2.2-.85-3.82-3.69-3.82-5.85,0-3.39,3.05-6.83,6.87-6.83,1.78,0,3.18,1.06,3.18,2.84,0,2.88-4.07,4.49-6.53,4.58.21,1.82,1.57,3.18,3.56,3.18Zm1.1-7.67c0-.47-.3-.72-.72-.72-1.65,0-3.1,1.95-3.65,3.26,1.19-.21,4.37-1.06,4.37-2.54Z"/>
  <path class="cls-1" d="m76.83,13.23c-1.65.42-2.5,3.01-2.5,4.71,0,.59.17,2.29,1.02,2.29s4.03-2.54,4.71-3.22l.08-.08s.08-.13.21-.17c.13-.08.25-.13.47-.13.59,0,.98.47.98.93,0,.13-.17.51-.25.59-.08.21-.25.47-.42.72-.34.42-.64.85-.81,1.06-1.1,1.36-3.1,3.56-5.34,3.56-3.31,0-4.37-3.56-4.37-5.81,0-2.97,1.99-7.55,5.47-7.55,1.14,0,2.63.55,2.63,2.04,0,.3-.04.55-.04.81v.04c.17.08.3.3.3.55,0,.47-.38.89-.89.89-.55,0-.89-.42-1.02-.72-.13-.17-.17-.34-.21-.51Z"/>
  <path class="cls-1" d="m86.12,22.05c-.21-1.57-.25-3.18-.34-4.66-.08.04-.17.04-.25.04-.3.04-.59.08-.85.08-.3,0-.59-.04-.93-.04-.38,0-1.02-.17-1.02-.89,0-.42.21-.72.59-.81.13-.04.3-.04.38-.04h.3c.08-.04.13-.04.21-.08.21-.04.42-.08.64-.13.34-.08.68-.17.93-.21,0-.81-.04-1.61-.04-2.37,0-.98,0-3.14.17-5.22.17-1.95.47-4.16,1.31-4.79.3-.21.64-.34.98-.34,1.31,0,1.57,1.23,1.57,1.91,0,.3-.04.59-.04.85-.13,2.8-.21,5.6-.21,8.4v.85c.89-.13,1.78-.25,2.67-.25.25,0,.59.04.89.13.38.17.68.47.68.93s-.34.85-.81.98c-.51.17-1.19.25-1.87.34-.51.04-1.06.08-1.53.13.04,1.53.13,3.01.3,4.54.13,1.27.38,2.5.55,3.82.04.25.04.51.13.81.04.3.08.55.17.72.04.08.08.17.08.25.04.08.08.21.08.34,0,.51-.51,1.19-1.23,1.19-2.16,0-3.35-4.88-3.52-6.45Z"/>
  <path class="cls-1" d="m104.74,17.43c0,.68-.21,1.4-.59,2.04-1.06,1.57-3.56,3.82-5.85,3.82-2.54,0-3.48-2.42-3.48-4.16,0-.25,0-.51.04-.72.21-1.57,1.82-5.39,4.28-5.39.55,0,1.06.21,1.44.55,2.25.04,4.16,1.44,4.16,3.86Zm-2.5-.21c0-.81-1.06-1.44-1.74-1.53l-.13.13s-.08.08-.17.13c-.85.68-1.65,2.25-1.65,3.31,0,.21.04.42.08.64l.08.17c1.1,0,3.52-1.87,3.52-2.84Z"/>
  <path class="cls-1" d="m107.24,21.37c.76.04,1.57.17,2.37.17-1.44-2.84-3.82-3.99-3.82-7.84,0-1.95,1.82-3.35,3.77-3.35,1.82,0,3.26.93,3.26,2.84,0,.34-.13,1.06-.93,1.06-.25,0-.38-.08-.55-.21-.04-.04-.13-.08-.13-.13l-.13-.13s-.08-.08-.13-.08c-.08-.04-.17-.04-.34-.04-.13,0-.51,0-.85.08-.13.04-.25,0-.3.08-.81,3.22,3.9,5.51,3.9,8.56,0,1.53-1.19,2.54-2.76,2.54-1.23,0-4.66-1.02-4.66-2.54,0-.55.51-1.06,1.14-1.06l.13.04Z"/>
</svg>