<svg width="139" height="11" viewBox="0 0 139 11" fill="none" xmlns="http://www.w3.org/2000/svg">
<g clip-path="url(#clip0_175_188)">
<path d="M139 2.24936C131.113 7.14211 121.612 13.7178 111.87 7.95757C107.916 6.1358 104.588 4.03643 100.533 5.37239C97.9112 6.29195 95.5713 8.30457 92.7474 9.51908C87.523 12.2604 81.2296 10.1784 76.7314 7.48911C74.089 6.0664 71.6482 5.06009 69.7521 5.25094C66.6861 5.6153 63.1965 7.73202 60.433 9.17208C51.4367 14.2036 46.3535 7.55852 38.8095 5.00804C34.6542 4.08848 31.0839 6.11845 27.0295 7.74937C19.7678 11.1327 14.6847 11.0112 7.98782 6.69101C5.34539 5.1642 2.74329 3.65473 -2.262e-06 2.26672C3.00551 3.15158 5.95052 4.27934 8.81483 5.4418C20.373 11.2368 23.681 3.58533 34.2104 0.930752C37.7202 -0.0408582 42.1175 1.00015 45.0827 2.56167C49.7826 4.73044 52.889 7.57587 57.3065 4.90394C61.1592 2.85662 64.4068 0.653147 69.2277 0.0632401C75.9044 -0.682818 81.4111 5.40709 87.0187 5.91025C89.6006 6.22255 93.3727 3.63737 96.2773 2.23201L97.5481 1.6768L98.9197 1.24305C104.265 -0.422568 110.236 2.64841 113.967 5.07744C121.592 10.8724 131.234 5.07743 139 2.24936Z" fill="#FF9DA9"/>
</g>
<defs>
<clipPath id="clip0_175_188">
<rect width="139" height="11" fill="white" transform="translate(139 11) rotate(180)"/>
</clipPath>
</defs>
</svg>
